<?xml version="1.0" encoding="utf-8"?>
<!-- Generator: Adobe Illustrator 16.0.0, SVG Export Plug-In . SVG Version: 6.00 Build 0)  -->
<!DOCTYPE svg PUBLIC "-//W3C//DTD SVG 1.1//EN" "http://www.w3.org/Graphics/SVG/1.1/DTD/svg11.dtd">
<svg version="1.1" id="Layer_1" xmlns="http://www.w3.org/2000/svg" xmlns:xlink="http://www.w3.org/1999/xlink" x="0px" y="0px"
	 width="178.334px" height="326px" viewBox="0 0 178.334 326" enable-background="new 0 0 178.334 326" xml:space="preserve">
<g>
	<polygon opacity="0.1" points="177.449,11.281 158.746,0.484 177.449,32.875 196.148,0.484 	"/>
	<polyline opacity="0.1" points="177.449,32.875 196.148,0.484 177.449,11.281 	"/>
	<polygon opacity="0.1" points="25.043,11.281 6.339,0.484 25.043,32.875 43.741,0.484 	"/>
	<polyline opacity="0.1" points="25.043,32.875 43.741,0.484 25.043,11.281 	"/>
	<polygon opacity="0.1" points="75.844,11.281 57.141,0.484 75.844,32.875 94.544,0.484 	"/>
	<polyline opacity="0.1" points="75.844,32.875 94.544,0.484 75.844,11.281 	"/>
	<polygon opacity="0.1" points="126.65,11.281 107.943,0.484 126.65,32.875 145.347,0.484 	"/>
	<polyline opacity="0.1" points="126.65,32.875 145.347,0.484 126.65,11.281 	"/>
	<polygon opacity="0.1" points="119.944,36.043 101.248,3.656 82.543,36.043 101.248,25.247 	"/>
	<polyline opacity="0.1" points="101.248,3.656 82.543,36.043 101.248,25.247 	"/>
	<polygon opacity="0.1" points="170.749,36.043 152.047,3.656 133.343,36.043 152.047,25.247 	"/>
	<polyline opacity="0.1" points="152.047,3.656 133.343,36.043 152.047,25.247 	"/>
	<polygon opacity="0.1" points="18.339,36.043 -0.359,3.656 -19.061,36.043 -0.359,25.247 	"/>
	<polyline opacity="0.1" points="-0.359,3.656 -19.061,36.043 -0.359,25.247 	"/>
	<polygon opacity="0.1" points="69.143,36.043 50.444,3.656 31.74,36.043 50.444,25.247 	"/>
	<polyline opacity="0.1" points="50.444,3.656 31.74,36.043 50.444,25.247 	"/>
</g>
<g>
	<polygon opacity="0.1" points="177.449,47.406 158.746,36.609 177.449,69 196.148,36.609 	"/>
	<polyline opacity="0.1" points="177.449,69 196.148,36.609 177.449,47.406 	"/>
	<polygon opacity="0.1" points="25.043,47.406 6.339,36.609 25.043,69 43.741,36.609 	"/>
	<polyline opacity="0.1" points="25.043,69 43.741,36.609 25.043,47.406 	"/>
	<polygon opacity="0.1" points="75.844,47.406 57.141,36.609 75.844,69 94.544,36.609 	"/>
	<polyline opacity="0.1" points="75.844,69 94.544,36.609 75.844,47.406 	"/>
	<polygon opacity="0.1" points="126.65,47.406 107.943,36.609 126.65,69 145.347,36.609 	"/>
	<polyline opacity="0.1" points="126.65,69 145.347,36.609 126.65,47.406 	"/>
	<polygon opacity="0.1" points="119.944,72.168 101.248,39.781 82.543,72.168 101.248,61.372 	"/>
	<polyline opacity="0.1" points="101.248,39.781 82.543,72.168 101.248,61.372 	"/>
	<polygon opacity="0.1" points="170.749,72.168 152.047,39.781 133.343,72.168 152.047,61.372 	"/>
	<polyline opacity="0.1" points="152.047,39.781 133.343,72.168 152.047,61.372 	"/>
	<polygon opacity="0.1" points="18.339,72.168 -0.359,39.781 -19.061,72.168 -0.359,61.372 	"/>
	<polyline opacity="0.1" points="-0.359,39.781 -19.061,72.168 -0.359,61.372 	"/>
	<polygon opacity="0.1" points="69.143,72.168 50.444,39.781 31.74,72.168 50.444,61.372 	"/>
	<polyline opacity="0.1" points="50.444,39.781 31.74,72.168 50.444,61.372 	"/>
</g>
<g>
	<polygon opacity="0.1" points="177.449,83.531 158.746,72.734 177.449,105.125 196.148,72.734 	"/>
	<polyline opacity="0.1" points="177.449,105.125 196.148,72.734 177.449,83.531 	"/>
	<polygon opacity="0.1" points="25.043,83.531 6.339,72.734 25.043,105.125 43.741,72.734 	"/>
	<polyline opacity="0.1" points="25.043,105.125 43.741,72.734 25.043,83.531 	"/>
	<polygon opacity="0.1" points="75.844,83.531 57.141,72.734 75.844,105.125 94.544,72.734 	"/>
	<polyline opacity="0.1" points="75.844,105.125 94.544,72.734 75.844,83.531 	"/>
	<polygon opacity="0.1" points="126.65,83.531 107.943,72.734 126.65,105.125 145.347,72.734 	"/>
	<polyline opacity="0.1" points="126.65,105.125 145.347,72.734 126.65,83.531 	"/>
	<polygon opacity="0.1" points="119.944,108.293 101.248,75.906 82.543,108.293 101.248,97.497 	"/>
	<polyline opacity="0.1" points="101.248,75.906 82.543,108.293 101.248,97.497 	"/>
	<polygon opacity="0.1" points="170.749,108.293 152.047,75.906 133.343,108.293 152.047,97.497 	"/>
	<polyline opacity="0.1" points="152.047,75.906 133.343,108.293 152.047,97.497 	"/>
	<polygon opacity="0.1" points="18.339,108.293 -0.359,75.906 -19.061,108.293 -0.359,97.497 	"/>
	<polyline opacity="0.1" points="-0.359,75.906 -19.061,108.293 -0.359,97.497 	"/>
	<polygon opacity="0.1" points="69.143,108.293 50.444,75.906 31.74,108.293 50.444,97.497 	"/>
	<polyline opacity="0.1" points="50.444,75.906 31.74,108.293 50.444,97.497 	"/>
</g>
<g>
	<polygon opacity="0.1" points="177.449,119.656 158.746,108.859 177.449,141.25 196.148,108.859 	"/>
	<polyline opacity="0.1" points="177.449,141.25 196.148,108.859 177.449,119.656 	"/>
	<polygon opacity="0.1" points="25.043,119.656 6.339,108.859 25.043,141.25 43.741,108.859 	"/>
	<polyline opacity="0.1" points="25.043,141.25 43.741,108.859 25.043,119.656 	"/>
	<polygon opacity="0.1" points="75.844,119.656 57.141,108.859 75.844,141.25 94.544,108.859 	"/>
	<polyline opacity="0.1" points="75.844,141.25 94.544,108.859 75.844,119.656 	"/>
	<polygon opacity="0.1" points="126.65,119.656 107.943,108.859 126.65,141.25 145.347,108.859 	"/>
	<polyline opacity="0.1" points="126.65,141.25 145.347,108.859 126.65,119.656 	"/>
	<polygon opacity="0.1" points="119.944,144.418 101.248,112.031 82.543,144.418 101.248,133.622 	"/>
	<polyline opacity="0.1" points="101.248,112.031 82.543,144.418 101.248,133.622 	"/>
	<polygon opacity="0.1" points="170.749,144.418 152.047,112.031 133.343,144.418 152.047,133.622 	"/>
	<polyline opacity="0.1" points="152.047,112.031 133.343,144.418 152.047,133.622 	"/>
	<polygon opacity="0.1" points="18.339,144.418 -0.359,112.031 -19.061,144.418 -0.359,133.622 	"/>
	<polyline opacity="0.1" points="-0.359,112.031 -19.061,144.418 -0.359,133.622 	"/>
	<polygon opacity="0.1" points="69.143,144.418 50.444,112.031 31.74,144.418 50.444,133.622 	"/>
	<polyline opacity="0.1" points="50.444,112.031 31.74,144.418 50.444,133.622 	"/>
</g>
<g>
	<polygon opacity="0.1" points="177.449,155.781 158.746,144.984 177.449,177.375 196.148,144.984 	"/>
	<polyline opacity="0.1" points="177.449,177.375 196.148,144.984 177.449,155.781 	"/>
	<polygon opacity="0.1" points="25.043,155.781 6.339,144.984 25.043,177.375 43.741,144.984 	"/>
	<polyline opacity="0.1" points="25.043,177.375 43.741,144.984 25.043,155.781 	"/>
	<polygon opacity="0.1" points="75.844,155.781 57.141,144.984 75.844,177.375 94.544,144.984 	"/>
	<polyline opacity="0.1" points="75.844,177.375 94.544,144.984 75.844,155.781 	"/>
	<polygon opacity="0.1" points="126.65,155.781 107.943,144.984 126.65,177.375 145.347,144.984 	"/>
	<polyline opacity="0.1" points="126.65,177.375 145.347,144.984 126.65,155.781 	"/>
	<polygon opacity="0.1" points="119.944,180.543 101.248,148.156 82.543,180.543 101.248,169.747 	"/>
	<polyline opacity="0.1" points="101.248,148.156 82.543,180.543 101.248,169.747 	"/>
	<polygon opacity="0.1" points="170.749,180.543 152.047,148.156 133.343,180.543 152.047,169.747 	"/>
	<polyline opacity="0.1" points="152.047,148.156 133.343,180.543 152.047,169.747 	"/>
	<polygon opacity="0.1" points="18.339,180.543 -0.359,148.156 -19.061,180.543 -0.359,169.747 	"/>
	<polyline opacity="0.1" points="-0.359,148.156 -19.061,180.543 -0.359,169.747 	"/>
	<polygon opacity="0.1" points="69.143,180.543 50.444,148.156 31.74,180.543 50.444,169.747 	"/>
	<polyline opacity="0.1" points="50.444,148.156 31.74,180.543 50.444,169.747 	"/>
</g>
<g>
	<polygon opacity="0.1" points="177.449,191.907 158.746,181.109 177.449,213.5 196.148,181.109 	"/>
	<polyline opacity="0.1" points="177.449,213.5 196.148,181.109 177.449,191.907 	"/>
	<polygon opacity="0.1" points="25.043,191.907 6.339,181.109 25.043,213.5 43.741,181.109 	"/>
	<polyline opacity="0.1" points="25.043,213.5 43.741,181.109 25.043,191.907 	"/>
	<polygon opacity="0.1" points="75.844,191.907 57.141,181.109 75.844,213.5 94.544,181.109 	"/>
	<polyline opacity="0.1" points="75.844,213.5 94.544,181.109 75.844,191.907 	"/>
	<polygon opacity="0.1" points="126.65,191.907 107.943,181.109 126.65,213.5 145.347,181.109 	"/>
	<polyline opacity="0.1" points="126.65,213.5 145.347,181.109 126.65,191.907 	"/>
	<polygon opacity="0.1" points="119.944,216.668 101.248,184.281 82.543,216.668 101.248,205.872 	"/>
	<polyline opacity="0.1" points="101.248,184.281 82.543,216.668 101.248,205.872 	"/>
	<polygon opacity="0.1" points="170.749,216.668 152.047,184.281 133.343,216.668 152.047,205.872 	"/>
	<polyline opacity="0.1" points="152.047,184.281 133.343,216.668 152.047,205.872 	"/>
	<polygon opacity="0.1" points="18.339,216.668 -0.359,184.281 -19.061,216.668 -0.359,205.872 	"/>
	<polyline opacity="0.1" points="-0.359,184.281 -19.061,216.668 -0.359,205.872 	"/>
	<polygon opacity="0.1" points="69.143,216.668 50.444,184.281 31.74,216.668 50.444,205.872 	"/>
	<polyline opacity="0.1" points="50.444,184.281 31.74,216.668 50.444,205.872 	"/>
</g>
<g>
	<polygon opacity="0.1" points="177.449,228.032 158.746,217.234 177.449,249.625 196.148,217.234 	"/>
	<polyline opacity="0.1" points="177.449,249.625 196.148,217.234 177.449,228.032 	"/>
	<polygon opacity="0.1" points="25.043,228.032 6.339,217.234 25.043,249.625 43.741,217.234 	"/>
	<polyline opacity="0.1" points="25.043,249.625 43.741,217.234 25.043,228.032 	"/>
	<polygon opacity="0.1" points="75.844,228.032 57.141,217.234 75.844,249.625 94.544,217.234 	"/>
	<polyline opacity="0.1" points="75.844,249.625 94.544,217.234 75.844,228.032 	"/>
	<polygon opacity="0.1" points="126.65,228.032 107.943,217.234 126.65,249.625 145.347,217.234 	"/>
	<polyline opacity="0.1" points="126.65,249.625 145.347,217.234 126.65,228.032 	"/>
	<polygon opacity="0.1" points="119.944,252.793 101.248,220.406 82.543,252.793 101.248,241.997 	"/>
	<polyline opacity="0.1" points="101.248,220.406 82.543,252.793 101.248,241.997 	"/>
	<polygon opacity="0.1" points="170.749,252.793 152.047,220.406 133.343,252.793 152.047,241.997 	"/>
	<polyline opacity="0.1" points="152.047,220.406 133.343,252.793 152.047,241.997 	"/>
	<polygon opacity="0.1" points="18.339,252.793 -0.359,220.406 -19.061,252.793 -0.359,241.997 	"/>
	<polyline opacity="0.1" points="-0.359,220.406 -19.061,252.793 -0.359,241.997 	"/>
	<polygon opacity="0.1" points="69.143,252.793 50.444,220.406 31.74,252.793 50.444,241.997 	"/>
	<polyline opacity="0.1" points="50.444,220.406 31.74,252.793 50.444,241.997 	"/>
</g>
<g>
	<polygon opacity="0.1" points="177.449,264.157 158.746,253.359 177.449,285.75 196.148,253.359 	"/>
	<polyline opacity="0.1" points="177.449,285.75 196.148,253.359 177.449,264.157 	"/>
	<polygon opacity="0.1" points="25.043,264.157 6.339,253.359 25.043,285.75 43.741,253.359 	"/>
	<polyline opacity="0.1" points="25.043,285.75 43.741,253.359 25.043,264.157 	"/>
	<polygon opacity="0.1" points="75.844,264.157 57.141,253.359 75.844,285.75 94.544,253.359 	"/>
	<polyline opacity="0.1" points="75.844,285.75 94.544,253.359 75.844,264.157 	"/>
	<polygon opacity="0.1" points="126.65,264.157 107.943,253.359 126.65,285.75 145.347,253.359 	"/>
	<polyline opacity="0.1" points="126.65,285.75 145.347,253.359 126.65,264.157 	"/>
	<polygon opacity="0.1" points="119.944,288.918 101.248,256.531 82.543,288.918 101.248,278.122 	"/>
	<polyline opacity="0.1" points="101.248,256.531 82.543,288.918 101.248,278.122 	"/>
	<polygon opacity="0.1" points="170.749,288.918 152.047,256.531 133.343,288.918 152.047,278.122 	"/>
	<polyline opacity="0.1" points="152.047,256.531 133.343,288.918 152.047,278.122 	"/>
	<polygon opacity="0.1" points="18.339,288.918 -0.359,256.531 -19.061,288.918 -0.359,278.122 	"/>
	<polyline opacity="0.1" points="-0.359,256.531 -19.061,288.918 -0.359,278.122 	"/>
	<polygon opacity="0.1" points="69.143,288.918 50.444,256.531 31.74,288.918 50.444,278.122 	"/>
	<polyline opacity="0.1" points="50.444,256.531 31.74,288.918 50.444,278.122 	"/>
</g>
<g>
	<polygon opacity="0.1" points="177.449,300.282 158.746,289.484 177.449,321.875 196.148,289.484 	"/>
	<polyline opacity="0.1" points="177.449,321.875 196.148,289.484 177.449,300.282 	"/>
	<polygon opacity="0.1" points="25.043,300.282 6.339,289.484 25.043,321.875 43.741,289.484 	"/>
	<polyline opacity="0.1" points="25.043,321.875 43.741,289.484 25.043,300.282 	"/>
	<polygon opacity="0.1" points="75.844,300.282 57.141,289.484 75.844,321.875 94.544,289.484 	"/>
	<polyline opacity="0.1" points="75.844,321.875 94.544,289.484 75.844,300.282 	"/>
	<polygon opacity="0.1" points="126.65,300.282 107.943,289.484 126.65,321.875 145.347,289.484 	"/>
	<polyline opacity="0.1" points="126.65,321.875 145.347,289.484 126.65,300.282 	"/>
	<polygon opacity="0.1" points="119.944,325.043 101.248,292.656 82.543,325.043 101.248,314.247 	"/>
	<polyline opacity="0.1" points="101.248,292.656 82.543,325.043 101.248,314.247 	"/>
	<polygon opacity="0.1" points="170.749,325.043 152.047,292.656 133.343,325.043 152.047,314.247 	"/>
	<polyline opacity="0.1" points="152.047,292.656 133.343,325.043 152.047,314.247 	"/>
	<polygon opacity="0.1" points="18.339,325.043 -0.359,292.656 -19.061,325.043 -0.359,314.247 	"/>
	<polyline opacity="0.1" points="-0.359,292.656 -19.061,325.043 -0.359,314.247 	"/>
	<polygon opacity="0.1" points="69.143,325.043 50.444,292.656 31.74,325.043 50.444,314.247 	"/>
	<polyline opacity="0.1" points="50.444,292.656 31.74,325.043 50.444,314.247 	"/>
</g>
</svg>
