<?xml version="1.0" standalone="no"?>
<!DOCTYPE svg PUBLIC "-//W3C//DTD SVG 1.1//EN" "http://www.w3.org/Graphics/SVG/1.1/DTD/svg11.dtd" >
<svg xmlns="http://www.w3.org/2000/svg">
<metadata></metadata>
<defs>
<font id="grey_sansregular" horiz-adv-x="1587" >
<font-face units-per-em="2048" ascent="1548" descent="-500" />
<missing-glyph horiz-adv-x="512" />
<glyph horiz-adv-x="2048" />
<glyph horiz-adv-x="2048" />
<glyph unicode="&#xd;" horiz-adv-x="2048" />
<glyph unicode=" "  horiz-adv-x="512" />
<glyph unicode="&#x09;" horiz-adv-x="512" />
<glyph unicode="&#xa0;" horiz-adv-x="512" />
<glyph unicode="!" horiz-adv-x="489" d="M156 0v172h170v-172h-170zM160 1516h157l-16 -1225h-125z" />
<glyph unicode="&#x22;" horiz-adv-x="686" d="M160 1516h131l-15 -445h-104zM385 1516h133l-14 -445h-105z" />
<glyph unicode="#" horiz-adv-x="1998" d="M160 395v133h350l147 455h-395v131h438l129 402h168l-131 -402h518l129 402h168l-129 -402h379v-131h-422l-147 -455h467v-133h-510l-129 -395h-166l129 395h-518l-129 -395h-166l127 395h-307zM678 528h516l147 455h-516z" />
<glyph unicode="$" horiz-adv-x="1429" d="M113 129l32 129q279 -117 521 -139v614q-192 38 -273 70q-195 76 -231 237q-8 39 -8 82q0 77 31.5 143.5t82.5 112t118.5 79.5t138 51.5t141.5 21.5v217h98v-215q211 -10 516 -127l-29 -125q-298 105 -487 115v-531q65 -15 113 -28t109 -34.5t105 -45.5t89 -60t73 -77.5 t46 -98.5t18 -123q0 -102 -52 -183t-135.5 -129t-177 -74t-188.5 -29v-199h-98v201q-271 21 -553 145zM313 1128q0 -48 22 -86t54 -61t78.5 -41.5t86 -28t86.5 -19.5q6 -1 9.5 -1.5t8 -1.5t8.5 -2v506q-46 -4 -92 -15.5t-94 -33.5t-84.5 -50.5t-59.5 -71.5t-23 -94zM764 117 q112 3 210.5 46t145.5 130q29 50 29 100q0 59 -25 109t-62 82t-92 59t-101.5 41.5t-104.5 28.5v-596z" />
<glyph unicode="%" horiz-adv-x="2045" d="M115 1128q0 90 19.5 162.5t60.5 128.5t109.5 86.5t160.5 30.5t160.5 -30.5t109.5 -86.5t60.5 -128.5t19.5 -162.5t-19.5 -162.5t-60 -128t-109 -86t-161.5 -30.5t-161.5 30.5t-109 86t-60 128t-19.5 162.5zM240 1128q0 -303 225 -303t225 303q0 49 -6 91t-22 82t-41 68.5 t-64.5 45.5t-91.5 17q-225 0 -225 -304zM520 0l838 1516h145l-839 -1516h-144zM1196 381q0 89 19.5 161.5t60.5 128.5t109.5 86.5t160.5 30.5t160.5 -30.5t109.5 -86.5t60.5 -128.5t19.5 -161.5q0 -122 -33.5 -210.5t-113.5 -143t-203 -54.5t-203 54.5t-113.5 143 t-33.5 210.5zM1321 381q0 -303 225 -303q226 0 226 303q0 61 -10.5 112t-35 95.5t-70.5 70t-110 25.5q-225 0 -225 -303z" />
<glyph unicode="&#x26;" horiz-adv-x="1445" d="M113 406q0 74 33.5 143.5t92 126.5t117.5 99.5t129 80.5q-159 224 -159 361q0 134 81 221.5t214 87.5q98 0 177.5 -33t130 -104.5t50.5 -171.5q0 -57 -32.5 -117.5t-87 -112.5t-105 -90.5t-105.5 -73.5l389 -587q83 80 124.5 187t41.5 226h129q0 -156 -55 -294.5 t-166 -231.5l100 -152l-104 -59l-94 143q-140 -73 -320 -73q-81 0 -160.5 14t-156.5 46.5t-135 80.5t-93.5 121t-35.5 162zM258 410q0 -66 27 -120t70.5 -89t101.5 -59t117.5 -34t119.5 -10q131 0 248 66l-391 602q-53 -31 -98 -65t-92.5 -80t-75 -101t-27.5 -110zM438 1212 q0 -23 4.5 -46t16 -48.5t20.5 -44t28.5 -46.5t28 -40.5t31 -42t27.5 -35.5q38 22 81.5 54t88.5 73.5t74.5 88.5t29.5 87q0 95 -69.5 150t-167.5 55q-87 0 -140 -58.5t-53 -146.5z" />
<glyph unicode="'" horiz-adv-x="458" d="M160 1516h131l-15 -445h-104z" />
<glyph unicode="(" horiz-adv-x="618" d="M113 592q0 420 225 758q60 88 104 129l82 -78q-37 -44 -88 -135q-162 -302 -162 -674q0 -370 162 -672q51 -91 88 -135l-82 -78q-44 41 -104 129q-111 165 -168 359t-57 397z" />
<glyph unicode=")" horiz-adv-x="604" d="M45 -215q37 44 88 135q162 302 162 672q0 372 -162 674q-51 91 -88 135l82 78q44 -41 104 -129q226 -339 226 -758q0 -420 -226 -756q-60 -88 -104 -129z" />
<glyph unicode="*" horiz-adv-x="940" d="M160 1135v75l260 -10l-137 221l65 37l123 -229l121 229l65 -37l-137 -221l260 10v-75l-260 8l137 -221l-65 -37l-121 229l-123 -229l-65 39l137 219z" />
<glyph unicode="+" horiz-adv-x="1292" d="M160 618v132h428v419h131v-419h414v-132h-414v-421h-131v421h-428z" />
<glyph unicode="," horiz-adv-x="464" d="M160 0v178h178v-178l-82 -197h-82l59 197h-73z" />
<glyph unicode="-" horiz-adv-x="1046" d="M160 473v127h710v-127h-710z" />
<glyph unicode="." horiz-adv-x="462" d="M160 0v178h178v-178h-178z" />
<glyph unicode="/" horiz-adv-x="1202" d="M20 0l906 1516h168l-906 -1516h-168z" />
<glyph unicode="0" horiz-adv-x="1529" d="M113 758q0 132 20 244t66.5 211t118 168t180.5 109t247 40t246.5 -40t180 -109t119 -168t67.5 -211t20 -244q0 -133 -20 -245.5t-66.5 -211.5t-118 -168t-180.5 -109t-248 -40t-248 40t-180 109t-117.5 168t-66.5 211.5t-20 245.5zM274 758q0 -102 12 -190t45 -174 t84.5 -146.5t135.5 -97.5t194 -37q109 0 193.5 37t136 97.5t84.5 146.5t45.5 174t12.5 190q0 101 -12.5 188.5t-46 173t-85 146.5t-135.5 98t-193 37t-193 -37t-135.5 -97.5t-84.5 -146t-45.5 -173.5t-12.5 -189z" />
<glyph unicode="1" horiz-adv-x="862" d="M45 1212l479 304h158v-1516h-158v1348l-403 -256z" />
<glyph unicode="2" horiz-adv-x="1302" d="M113 1235q73 149 209.5 223t310.5 74q74 0 146.5 -13t142.5 -42.5t123.5 -73t86.5 -109.5t33 -147q0 -60 -21 -119.5t-62.5 -116.5t-75.5 -95.5t-88 -92.5l-584 -590h893v-133h-1104v117l686 682q41 41 67.5 70t61 75t52.5 91t18 89q0 68 -35.5 123t-92 87.5t-120.5 49.5 t-127 17q-137 0 -243.5 -56t-162.5 -171z" />
<glyph unicode="3" horiz-adv-x="1355" d="M113 311l118 56q18 -63 63 -113.5t103.5 -80t123.5 -45t130 -15.5q70 0 141 20t132.5 57.5t100 99t38.5 136.5q0 73 -39.5 132t-102.5 94t-132.5 53t-137.5 18h-235v119h217q64 0 129.5 16.5t125 48t97 86.5t37.5 125q0 69 -37.5 125t-96.5 89.5t-125.5 51t-129.5 17.5 q-137 0 -241.5 -56.5t-160.5 -173.5l-114 62q73 149 207.5 223t308.5 74q72 0 145 -14t144 -45t126 -75.5t89 -111t34 -145.5q0 -129 -81 -220t-211 -133q150 -41 247 -140.5t97 -244.5q0 -84 -36 -154.5t-94.5 -118t-134 -81t-153.5 -48.5t-154 -15q-114 0 -220.5 34.5 t-194.5 110.5t-123 182z" />
<glyph unicode="4" horiz-adv-x="1472" d="M113 391v131l815 994h194v-994h211v-131h-211v-391h-157v391h-852zM279 522h686v840z" />
<glyph unicode="5" horiz-adv-x="1290" d="M113 266l125 72q56 -106 163 -165.5t232 -59.5q106 0 200 44.5t154 130.5t60 193q0 117 -57.5 200t-149 122t-207.5 39q-91 0 -178.5 -35.5t-155.5 -99.5l-131 6l63 796h897v-131h-757l-45 -516q145 94 340 94q114 0 210.5 -30t169.5 -87.5t114.5 -149t41.5 -208.5 q0 -115 -47.5 -211.5t-126.5 -159.5t-181.5 -98t-213.5 -35q-166 0 -306 74.5t-214 214.5z" />
<glyph unicode="6" horiz-adv-x="1423" d="M113 754q0 130 20 241.5t66.5 210.5t118 169t179.5 110.5t246 40.5q136 0 255 -47t200 -144l-111 -71q-119 133 -344 133q-110 0 -195 -39.5t-136 -102.5t-83.5 -152t-44.5 -177.5t-12 -190.5q87 107 220 165t276 58q157 0 278 -54.5t193 -168t72 -272.5 q0 -90 -33.5 -168.5t-90.5 -135.5t-131.5 -98t-157.5 -61t-167 -20q-136 0 -243 41.5t-176.5 112.5t-115 171t-64.5 210.5t-19 238.5zM317 494q0 -105 63.5 -194t160.5 -137t200 -48q105 0 199 44t154.5 129t60.5 191q0 87 -33 157.5t-90.5 114.5t-131.5 67.5t-159 23.5 q-75 0 -149.5 -24t-136 -67t-100 -110.5t-38.5 -146.5z" />
<glyph unicode="7" horiz-adv-x="1228" d="M45 1382v134h1045v-95l-687 -1421h-157l672 1382h-873z" />
<glyph unicode="8" horiz-adv-x="1390" d="M113 395q0 76 33 141t90 110.5t120 76.5t136 53q-67 19 -123.5 47.5t-105 69.5t-76 100t-27.5 129q0 84 30.5 153t81.5 114.5t119.5 77t142 45.5t150.5 14t150.5 -14t142.5 -45.5t120 -77t82 -114.5t31 -153q0 -70 -27.5 -129t-75.5 -100t-104.5 -69.5t-123.5 -47.5 q74 -22 136 -53.5t118.5 -77t89 -110t32.5 -140.5q0 -87 -35 -159t-92 -118.5t-132.5 -78.5t-153.5 -45.5t-158 -13.5t-158 13.5t-153.5 45.5t-132.5 78.5t-92 118.5t-35 159zM272 422q0 -63 24.5 -116t65.5 -89t95 -60.5t111 -36t116 -11.5t116 11.5t111 36t95 60.5 t65.5 89t24.5 116q0 187 -305 287q-91 26 -107 26q-15 0 -106 -26q-306 -100 -306 -287zM309 1104q0 -54 25 -99t68 -75.5t88 -50.5t98 -35q66 -21 96 -21t96 21q53 15 98 35t88 50.5t68 75.5t25 99q0 72 -33.5 130t-88.5 92.5t-120 52.5t-133 18t-133 -18t-120 -52.5 t-88.5 -92.5t-33.5 -130z" />
<glyph unicode="9" horiz-adv-x="1464" d="M113 1071q0 112 51 205t134 152t185.5 91.5t208.5 32.5q136 0 243 -41.5t177 -112t115.5 -170.5t64.5 -210t19 -238q0 -130 -20 -241.5t-67 -211t-118 -169.5t-179.5 -111t-246.5 -41q-136 0 -255 47t-200 144l111 71q119 -133 344 -133q92 0 166.5 27t124.5 75.5 t86.5 110.5t56 139t28.5 152t9 158q-86 -106 -219.5 -165t-274.5 -59q-158 0 -279 54.5t-193 168.5t-72 275zM268 1053q0 -87 33 -157.5t90.5 -114.5t131.5 -67.5t159 -23.5q75 0 149.5 24t136 67t100 110.5t38.5 146.5q0 105 -63.5 194t-160.5 137t-200 48q-105 0 -199 -44 t-154.5 -129t-60.5 -191z" />
<glyph unicode=":" horiz-adv-x="495" d="M160 0v178h178v-178h-178zM160 666v178h178v-178h-178z" />
<glyph unicode=";" horiz-adv-x="495" d="M160 0v178h178v-178l-82 -197h-82l59 197h-73zM160 666v178h178v-178h-178z" />
<glyph unicode="&#x3c;" horiz-adv-x="1169" d="M45 623v149l916 391l49 -114l-826 -351l826 -352l-49 -115z" />
<glyph unicode="=" horiz-adv-x="1144" d="M160 408v124h825v-124h-825zM160 829v127h825v-127h-825z" />
<glyph unicode="&#x3e;" horiz-adv-x="1169" d="M160 346l825 352l-825 351l49 114l915 -391v-149l-915 -392z" />
<glyph unicode="?" horiz-adv-x="1202" d="M113 1360q86 72 236 121t267 49q86 0 172 -30t155.5 -82t113 -131t43.5 -169q0 -87 -30.5 -151t-79.5 -101.5t-107.5 -65.5t-117.5 -52.5t-108 -53.5t-79.5 -76.5t-30.5 -113.5v-217h-133v258q0 76 30.5 133.5t79.5 92.5t108 63t118.5 52.5t108.5 52t79.5 71.5t30.5 102 q0 83 -54 151t-132.5 103t-159.5 35q-103 0 -221 -39.5t-205 -101.5zM397 0v172h170v-172h-170z" />
<glyph unicode="@" horiz-adv-x="1472" d="M115 721q0 174 86.5 321.5t234.5 233.5t322 86q266 0 421.5 -150.5t155.5 -416.5q0 -69 -9.5 -128.5t-33 -114.5t-60 -94t-94 -62t-130.5 -23q-58 0 -105.5 29.5t-64.5 82.5q-44 -26 -73 -40.5t-72 -28t-81 -13.5q-124 0 -189 76.5t-65 202.5q0 63 12 122.5t38.5 113.5 t64.5 94t93 64t122 24q103 0 207 -74l8 66h133l-71 -588q-2 -11 12.5 -19.5t29 -11t23.5 -2.5q31 0 66 14q73 30 106 107.5t33 167.5q0 242 -120 375t-359 133q-146 0 -271 -72t-198.5 -196.5t-73.5 -270.5q0 -225 135 -355t361 -130q111 0 217 47l39 -84q-132 -53 -258 -53 q-267 0 -429.5 150.5t-162.5 416.5zM494 692q0 -78 35.5 -125t109.5 -47q64 0 203 66l37 315q-104 82 -177 82q-55 0 -97 -26.5t-65 -70.5t-34.5 -93t-11.5 -101z" />
<glyph unicode="A" horiz-adv-x="1576" d="M76 0l631 1516h176l628 -1516h-159l-152 373h-811l-151 -373h-162zM440 498h709l-354 872z" />
<glyph unicode="B" horiz-adv-x="1492" d="M160 0v1516h657q83 0 154.5 -13.5t135.5 -44t109 -77.5t71 -117.5t26 -159.5q0 -124 -69 -206t-191 -122q305 -79 305 -383q0 -80 -27.5 -146.5t-74 -111.5t-109.5 -76t-132.5 -45t-144.5 -14h-710zM317 131h537q54 0 102.5 9t93.5 29t78 50.5t52.5 77t19.5 104.5 q0 86 -27.5 146t-79.5 93t-115.5 47.5t-146.5 14.5h-514v-571zM317 823h492q66 0 125.5 15t110 45.5t80.5 84t30 124.5q0 81 -27.5 139.5t-77.5 91.5t-112 48t-139 15h-482v-563z" />
<glyph unicode="C" horiz-adv-x="1439" d="M113 756q0 229 82.5 402.5t247.5 272.5t395 99q186 0 342 -75t250 -224l-127 -64q-77 114 -199.5 172t-265.5 58q-138 0 -247.5 -50t-178.5 -138t-105.5 -203.5t-36.5 -249.5q0 -141 34 -256.5t102 -202t178 -134.5t254 -48q151 0 275.5 57t199.5 176l123 -65 q-92 -154 -248.5 -226.5t-349.5 -72.5q-235 0 -399.5 96.5t-245 268.5t-80.5 407z" />
<glyph unicode="D" horiz-adv-x="1542" d="M160 0v1516h504q353 0 544 -200.5t191 -557.5t-191 -557.5t-544 -200.5h-504zM317 131h347q284 0 431.5 168.5t147.5 458.5q0 142 -36 256.5t-106.5 198t-181.5 128.5t-255 45h-347v-1255z" />
<glyph unicode="E" horiz-adv-x="1218" d="M160 0v1516h997v-132h-840v-542h740v-131h-740v-582h840v-129h-997z" />
<glyph unicode="F" horiz-adv-x="1220" d="M160 0v1516h999v-132h-842v-542h740v-131h-740v-711h-157z" />
<glyph unicode="G" horiz-adv-x="1601" d="M113 758q0 229 83.5 402.5t249 272.5t394.5 99q176 0 328 -70.5t249 -208.5l-123 -69q-77 106 -196.5 160.5t-257.5 54.5t-247.5 -50t-178.5 -138t-105.5 -203.5t-36.5 -249.5q0 -142 34 -257.5t102 -202t178 -134t254 -47.5q139 0 265.5 80.5t209.5 205.5v295h-397v125 h555v-823h-117l-31 219q-92 -105 -222 -170t-263 -65q-178 0 -316.5 55t-228 157t-136 244t-46.5 318z" />
<glyph unicode="H" horiz-adv-x="1622" d="M160 0v1516h157v-674h967v674h158v-1516h-158v713h-967v-713h-157z" />
<glyph unicode="I" horiz-adv-x="497" d="M160 0v1516h157v-1516h-157z" />
<glyph unicode="J" horiz-adv-x="1075" d="M45 88l49 121q177 -78 291 -78q176 0 273.5 92.5t97.5 268.5v1024h157v-1047q0 -234 -136 -358.5t-371 -124.5q-130 0 -361 102z" />
<glyph unicode="K" horiz-adv-x="1531" d="M160 0v1516h157v-959l895 959h181l-574 -601l606 -915h-172l-532 811l-404 -422v-389h-157z" />
<glyph unicode="L" horiz-adv-x="1220" d="M160 0v1516h157v-1387h842v-129h-999z" />
<glyph unicode="M" horiz-adv-x="2013" d="M160 0v1516h221l616 -1352l615 1352h221v-1516h-158v1321l-602 -1321h-153l-603 1321v-1321h-157z" />
<glyph unicode="N" horiz-adv-x="1677" d="M160 0v1516h176l1003 -1332v1332h158v-1516h-192l-990 1311v-1311h-155z" />
<glyph unicode="O" horiz-adv-x="1705" d="M113 758q0 229 83 402t248 271.5t394 98.5q172 0 310 -57t228.5 -159.5t138.5 -244t48 -311.5q0 -176 -46 -318t-135.5 -244t-227.5 -157t-316 -55t-316 55t-227.5 157t-135.5 244t-46 318zM270 758q0 -142 34 -257.5t102 -202t178 -134t254 -47.5t254 47.5t177.5 134 t101.5 202t34 257.5q0 134 -36 249.5t-105.5 202.5t-178.5 137t-247 50t-247.5 -50t-178.5 -137t-105.5 -202.5t-36.5 -249.5z" />
<glyph unicode="P" horiz-adv-x="1353" d="M160 0v1516h663q106 0 194.5 -26t156.5 -77.5t106.5 -136.5t38.5 -195q0 -100 -40.5 -180.5t-109 -131t-155.5 -77t-183 -26.5h-512v-666h-159zM319 791h496q50 0 117 18q106 31 167.5 99t61.5 173q0 156 -97 229.5t-257 73.5h-488v-593z" />
<glyph unicode="Q" horiz-adv-x="1720" d="M113 758q0 170 48 311.5t138.5 244t228.5 159.5t310 57q229 0 394.5 -98.5t249 -271.5t83.5 -402q0 -350 -179 -555l205 -209l-80 -80l-206 211q-184 -141 -467 -141q-351 0 -538 208.5t-187 565.5zM272 758q0 -141 34 -256.5t101.5 -202t177 -134.5t253.5 -48 q223 0 362 112l-348 353l80 80l348 -351q125 165 125 447q0 134 -36 249.5t-105.5 203.5t-178.5 138t-247 50t-247 -50.5t-178 -138.5t-105 -203t-36 -249z" />
<glyph unicode="R" horiz-adv-x="1484" d="M160 0v1516h663q106 0 194.5 -25.5t156.5 -77t106.5 -136.5t38.5 -196q0 -160 -95 -262t-257 -137l393 -682h-170l-379 666h-494v-666h-157zM317 791h498q50 0 117 18q106 31 167.5 99t61.5 173q0 80 -27 140t-76.5 95t-112.5 51.5t-140 16.5h-488v-593z" />
<glyph unicode="S" horiz-adv-x="1415" d="M113 129l32 129q139 -57 305 -99t289 -42q113 0 214.5 37.5t158.5 119.5q39 59 39 119q0 39 -11 73.5t-27 61.5t-45 51.5t-54 41.5t-65 33.5t-67 26t-72.5 21.5t-68 17t-65.5 14q-185 38 -255 62q-200 69 -249 212q-18 53 -18 115q0 108 59 191q54 79 144.5 130t183 70 t194.5 19q111 0 261.5 -37.5t285.5 -89.5l-29 -125q-332 117 -512 117q-119 0 -225 -35t-164 -117q-39 -51 -39 -117q0 -41 16 -74.5t38.5 -54.5t60 -39.5t66 -27.5t71.5 -21q18 -4 191 -43q50 -11 88 -21t87 -25t86 -30.5t79.5 -37.5t73 -46.5t59.5 -57.5t47.5 -70 t29.5 -83.5t11 -99.5q0 -93 -48 -172t-121 -129t-163 -78q-107 -36 -248 -36q-137 0 -308 42.5t-316 104.5z" />
<glyph unicode="T" horiz-adv-x="1114" d="M66 1382v134h1128v-134h-485v-1382h-158v1382h-485z" />
<glyph unicode="U" horiz-adv-x="1574" d="M160 629v887h157v-871q0 -121 26 -215.5t80.5 -165.5t146 -109t216.5 -38t217 38t146.5 109.5t80 165.5t25.5 215v871h160v-887q0 -312 -160 -478.5t-469 -166.5q-308 0 -467 166t-159 479z" />
<glyph unicode="V" horiz-adv-x="1634" d="M76 1516h168l553 -1371l553 1371h166l-631 -1516h-176z" />
<glyph unicode="W" horiz-adv-x="2363" d="M76 1516h166l387 -1323l446 1323h166l447 -1323l389 1323h164l-469 -1516h-164l-451 1313l-448 -1313h-164z" />
<glyph unicode="X" horiz-adv-x="1583" d="M76 0l590 768l-580 748h188l496 -644l502 644h188l-588 -752l588 -764h-188l-504 649l-504 -649h-188z" />
<glyph unicode="Y" horiz-adv-x="1597" d="M76 1516h170l536 -822l537 822h172l-631 -932v-584h-158v586z" />
<glyph unicode="Z" horiz-adv-x="1409" d="M113 0v121l974 1263h-962v132h1171v-105l-989 -1280h1004v-131h-1198z" />
<glyph unicode="[" horiz-adv-x="747" d="M160 -346v2029h520v-114h-363v-1802h363v-113h-520z" />
<glyph unicode="\" horiz-adv-x="1191" d="M45 1516h168l905 -1516h-168z" />
<glyph unicode="]" horiz-adv-x="745" d="M45 -233h363v1802h-363v114h520v-2029h-520v113z" />
<glyph unicode="^" horiz-adv-x="1060" />
<glyph unicode="_" horiz-adv-x="1308" d="M160 -225h989v-127h-989v127z" />
<glyph unicode="`" horiz-adv-x="565" d="M160 1440l135 45l111 -275l-82 -26z" />
<glyph unicode="a" horiz-adv-x="1298" d="M113 545q0 91 15 171.5t49.5 153.5t85.5 125.5t128.5 83.5t173.5 31q110 0 206.5 -48t193.5 -134v166h149v-1094h-117l-18 117q-6 -3 -37 -18t-39.5 -19t-38 -17.5t-41.5 -18t-39 -15.5t-42.5 -15.5t-40.5 -11.5t-43.5 -10t-40.5 -5.5t-42 -2.5q-120 0 -211 45.5 t-144.5 124.5t-80 177.5t-26.5 213.5zM266 541q0 -88 16.5 -160.5t53 -133t102.5 -94.5t156 -34q27 0 54 3t58.5 12.5t51 15t56 21.5t49 21.5t54.5 26t48 23.5v538q-100 85 -188.5 134t-186.5 49q-72 0 -128 -23.5t-92.5 -62.5t-60 -94t-33.5 -114.5t-10 -127.5z" />
<glyph unicode="b" horiz-adv-x="1302" d="M160 0v1516h149v-588q202 182 400 182q96 0 173 -31t128 -83.5t86 -125.5t50 -153.5t15 -171.5q0 -115 -27 -213.5t-81 -177.5t-145 -124.5t-210 -45.5q-61 0 -134 20.5t-119.5 41t-125.5 59.5l-24 12l-23 -117h-112zM309 244q6 -3 48 -23.5t54.5 -26t49 -21.5t56 -21.5 t51 -15t58.5 -12.5t54 -3q73 0 130 22.5t93.5 61t60.5 93t34 114t10 129.5q0 87 -16.5 159t-53 133t-101.5 95.5t-155 34.5q-98 0 -185 -48.5t-188 -134.5v-536z" />
<glyph unicode="c" horiz-adv-x="1222" d="M113 543q0 258 150.5 410.5t408.5 152.5q155 0 280.5 -62t192.5 -190l-127 -61q-51 95 -142 142.5t-204 47.5q-192 0 -298 -122t-106 -318q0 -193 107 -317t297 -124q108 0 196 45t140 134l127 -62q-69 -119 -192 -178t-271 -59q-255 0 -407 152.5t-152 408.5z" />
<glyph unicode="d" horiz-adv-x="1294" d="M113 545q0 91 15 171.5t49.5 153.5t85.5 125.5t128.5 83.5t173.5 31q110 0 206.5 -48t193.5 -134v588h149v-1516h-117l-18 117q-6 -3 -37 -18t-39.5 -19t-38 -17.5t-41.5 -18t-39 -15.5t-42.5 -15.5t-40.5 -11.5t-43.5 -10t-40.5 -5.5t-42 -2.5q-120 0 -211 45.5 t-144.5 124.5t-80 177.5t-26.5 213.5zM266 541q0 -88 16.5 -160.5t53 -133t102.5 -94.5t156 -34q27 0 54 3t58.5 12.5t51 15t56 21.5t49 21.5t54.5 26t48 23.5v538q-100 85 -188.5 134t-186.5 49q-72 0 -128 -23.5t-92.5 -62.5t-60 -94t-33.5 -114.5t-10 -127.5z" />
<glyph unicode="e" horiz-adv-x="1257" d="M113 545q0 257 151 410t408 153q129 0 224 -42t150 -119.5t81 -177t26 -224.5q0 -27 -2 -41h-879q11 -177 117 -288.5t283 -111.5q102 0 424 84l20 -122q-107 -29 -152.5 -40t-135 -26.5t-156.5 -15.5q-254 0 -406.5 153.5t-152.5 407.5zM276 623h734q-11 169 -93 266.5 t-245 97.5q-167 0 -272 -99t-124 -265z" />
<glyph unicode="f" horiz-adv-x="811" d="M76 981v113h164v116q0 153 85 234.5t238 81.5q81 0 154 -21l-21 -121q-41 13 -78 13q-115 0 -172 -49t-57 -162v-92h266v-113h-266v-981h-149v981h-164z" />
<glyph unicode="g" horiz-adv-x="1298" d="M113 545q0 90 15 170.5t49.5 153.5t85.5 126t128.5 84t173.5 31q194 0 402 -184l30 168h119v-1133q0 -199 -108.5 -308.5t-307.5 -109.5q-40 0 -86 5t-82 11.5t-90 20t-81.5 21t-87.5 24.5t-80 23l34 114q11 -3 102.5 -28t126 -33t101 -18.5t117.5 -10.5q142 0 216.5 75 t74.5 218v178q-89 -43 -134.5 -63t-125 -42t-146.5 -22q-118 0 -206 41t-139.5 114.5t-76 166.5t-24.5 207zM266 541q0 -391 297 -391q51 0 101.5 9.5t109 32t91.5 37.5t100 47v504q-100 85 -188.5 134t-186.5 49q-89 0 -154.5 -35t-101 -96.5t-52 -133t-16.5 -157.5z" />
<glyph unicode="h" horiz-adv-x="1263" d="M160 0v1513h149v-600q107 81 227 138t224 57q149 0 250.5 -91.5t101.5 -238.5v-778h-151v741q0 112 -72.5 169t-186.5 57q-75 0 -187.5 -65t-205.5 -140v-762h-149z" />
<glyph unicode="i" horiz-adv-x="499" d="M156 1315v172h170v-172h-170zM166 0v1094h149v-1094h-149z" />
<glyph unicode="j" horiz-adv-x="698" d="M0 -342l27 121q55 -10 100 -10q118 0 179 62t61 181v1082h149v-1086q0 -175 -94.5 -270.5t-267.5 -95.5q-72 0 -154 16zM354 1315v172h172v-172h-172z" />
<glyph unicode="k" horiz-adv-x="1187" d="M160 0v1513h149v-1005l563 586h175l-385 -402l438 -692h-162l-373 592l-256 -268v-324h-149z" />
<glyph unicode="l" horiz-adv-x="491" d="M160 0v1513h151v-1513h-151z" />
<glyph unicode="m" horiz-adv-x="1949" d="M160 0v1094h119l22 -144q227 158 399 158q99 0 185.5 -46t130.5 -130q247 176 426 176q148 0 249 -91.5t101 -238.5v-778h-150v741q0 112 -72 169t-186 57q-103 0 -333 -160q0 -5 1 -14.5t1 -14.5v-778h-152v741q0 112 -72 169t-186 57q-107 0 -332 -160v-807h-151z" />
<glyph unicode="n" horiz-adv-x="1269" d="M160 0v1094h121l26 -183q104 80 227 138.5t226 58.5q149 0 250.5 -91.5t101.5 -238.5v-778h-151v741q0 112 -72.5 169t-186.5 57q-75 0 -187.5 -65t-205.5 -140v-762h-149z" />
<glyph unicode="o" horiz-adv-x="1370" d="M113 545q0 259 150.5 410t408.5 151t408.5 -151t150.5 -410q0 -255 -152 -409t-407 -154t-407 154t-152 409zM270 543q0 -193 106.5 -318t295.5 -125t295 125t106 318q0 196 -104.5 319t-296.5 123t-297 -123t-105 -319z" />
<glyph unicode="p" horiz-adv-x="1304" d="M160 -492v1586h121l26 -168q204 184 402 184q119 0 209 -46t142 -126.5t77.5 -179t25.5 -213.5t-27 -213.5t-81.5 -177.5t-146 -124.5t-210.5 -45.5q-49 0 -96.5 9.5t-109 34.5t-86 36t-97.5 47v-603h-149zM309 242q88 -44 124.5 -61t111 -39.5t135.5 -22.5 q73 0 130.5 23t94 61.5t60.5 94t33.5 115.5t9.5 130q0 68 -10 127.5t-33.5 114.5t-60 94t-92.5 62.5t-128 23.5q-98 0 -187.5 -50t-187.5 -135v-538z" />
<glyph unicode="q" horiz-adv-x="1323" d="M113 545q0 115 25.5 213.5t77.5 179t142 126.5t209 46q111 0 207.5 -48.5t194.5 -135.5l26 168h121v-1467l301 156v-105l-325 -170h-127v603q-84 -42 -128.5 -62t-121 -42.5t-140.5 -22.5q-119 0 -210 45.5t-145 124.5t-80.5 177.5t-26.5 213.5zM266 543 q0 -89 16.5 -161.5t53 -133t102.5 -94t158 -33.5q60 0 133 22t114 41t122 60v536q-99 86 -187 135.5t-186 49.5q-90 0 -155 -34.5t-101.5 -95.5t-53 -133t-16.5 -159z" />
<glyph unicode="r" horiz-adv-x="866" d="M160 0v1094h121l26 -181q247 195 416 195q30 0 84 -8l-21 -137q-31 4 -94 4q-136 0 -381 -203v-764h-151z" />
<glyph unicode="s" horiz-adv-x="1124" d="M113 86l34 125q262 -96 433 -96q47 0 91.5 7t91 24.5t75 53t28.5 85.5q0 68 -39.5 113.5t-102.5 69.5t-139.5 42t-153 38t-139.5 48.5t-102.5 83t-39.5 133.5q0 77 39 137.5t102.5 95t134.5 51.5t143 17q82 0 195.5 -26t208.5 -60l-35 -123q-219 82 -367 82 q-48 0 -90 -6.5t-86.5 -22.5t-71 -50.5t-26.5 -84.5q0 -52 39.5 -86.5t103 -53.5t139.5 -35t152.5 -40t140 -59t103 -100.5t39.5 -157.5q0 -80 -42.5 -142.5t-110 -97t-142 -52t-148.5 -17.5q-91 0 -218.5 31.5t-239.5 72.5z" />
<glyph unicode="t" horiz-adv-x="833" d="M76 983v111h184v333h150v-333h282v-111h-282v-774q0 -20 6.5 -35.5t21.5 -24t27.5 -14t36 -7.5t34.5 -2t35 -1h11q65 0 96 4v-119q-64 -10 -156 -10q-50 0 -93.5 8.5t-83 28t-62.5 57t-23 90.5v799h-184z" />
<glyph unicode="u" horiz-adv-x="1296" d="M160 315v779h149v-742q0 -113 72 -169t188 -56q75 0 189 66t203 139v762h151v-1094h-123l-24 182q-103 -79 -226.5 -137.5t-226.5 -58.5q-149 0 -250.5 91t-101.5 238z" />
<glyph unicode="v" horiz-adv-x="1216" d="M76 1094h157l340 -951l340 951h158l-405 -1094h-185z" />
<glyph unicode="w" horiz-adv-x="1646" d="M76 1094h153l260 -904l246 904h148l245 -904l261 904h153l-330 -1094h-149l-254 891l-254 -891h-149z" />
<glyph unicode="x" horiz-adv-x="1206" d="M76 0l409 549l-403 545h164l325 -451l324 451h166l-402 -543l412 -551h-164l-334 453l-333 -453h-164z" />
<glyph unicode="y" horiz-adv-x="1265" d="M76 1094h160l403 -848l324 848h159l-622 -1583h-160l231 587z" />
<glyph unicode="z" horiz-adv-x="1173" d="M113 0v96l737 877h-709v121h908v-95l-732 -878h736v-121h-940z" />
<glyph unicode="{" horiz-adv-x="937" d="M113 489v127q73 0 126.5 16.5t84 45.5t50.5 68.5t25.5 87t8 100.5t-0.5 107q-1 49 -1 73q0 61 15.5 109.5t39.5 81.5t64 58t77.5 39t92.5 23.5t97 13.5t101 7v-119q-73 -3 -125 -13t-90 -31t-61.5 -49t-37.5 -73t-19 -96t-5 -125q0 -298 -113 -371q-25 -14 -44 -16 q25 -1 59 -27q98 -85 98 -358q0 -89 8 -147t28.5 -106t59 -75t97 -42t145.5 -19v-119q-59 3 -101 7t-97 13.5t-92.5 23.5t-77.5 39t-64 58t-39.5 81.5t-15.5 109.5q0 24 1 70.5t1 70.5q0 89 -11 148.5t-41.5 109.5t-90.5 74t-152 24z" />
<glyph unicode="|" horiz-adv-x="438" d="M160 -344v2030h119v-2030h-119z" />
<glyph unicode="}" horiz-adv-x="937" d="M45 -221q73 3 125 13t90 31.5t61.5 49.5t37.5 73t19 96.5t5 125.5q0 48 4 94t14.5 103t35 103t59.5 69q25 14 44 16q-25 1 -59 27q-98 85 -98 360q0 89 -8 147t-28.5 105.5t-59 74t-97 41.5t-145.5 19v119q59 -3 101 -7t97 -13.5t92.5 -23.5t77.5 -39t64 -58t39.5 -81.5 t15.5 -109.5q0 -24 -1 -71t-1 -70q0 -70 6.5 -121t25 -98t50.5 -75.5t85.5 -45.5t127.5 -17v-127q-73 0 -126.5 -16t-84 -45t-50.5 -69t-25.5 -87t-8 -100t0.5 -107q1 -49 1 -73q0 -61 -15.5 -109.5t-39.5 -81.5t-64 -58t-77.5 -39t-92.5 -23.5t-97 -13.5t-101 -7v119z" />
<glyph unicode="~" horiz-adv-x="1009" d="M160 459q14 50 37 92t63.5 75t89.5 33q43 0 80.5 -14t64 -33.5t50 -39.5t49.5 -34t53 -14q45 0 81 44.5t50 95.5l72 -35q-22 -81 -71.5 -141t-121.5 -60q-43 0 -80 14t-63 33.5t-49.5 39.5t-49.5 34t-53 14q-45 0 -81 -44t-50 -95z" />
<glyph unicode="&#xa1;" horiz-adv-x="489" d="M156 1343v173h170v-173h-170zM164 0l16 1225h125l17 -1225h-158z" />
<glyph unicode="&#xa2;" horiz-adv-x="1382" d="M172 539q0 267 155.5 415t422.5 148l32 176l156 -27l-31 -172q212 -55 307 -243l-129 -37q-68 115 -200 157l-152 -866q107 2 197 45.5t145 128.5l129 -39q-140 -248 -491 -248l-33 -178l-154 27l29 174q-187 51 -285 195t-98 344zM330 537q0 -143 61.5 -256.5 t186.5 -161.5l151 862q-191 0 -295 -124t-104 -320z" />
<glyph unicode="&#xa3;" horiz-adv-x="1392" d="M90 0v158h139v522h-139v158h139q0 86 8 160.5t26 145.5t47 127.5t73 104.5t101.5 80t134 50t169.5 18q31 0 62.5 -2t67.5 -8t61.5 -10.5t67 -14.5t60 -14.5t66 -17t60.5 -15.5l-21 -115q-11 3 -97.5 26t-118 30t-95 16.5t-113.5 9.5q-102 0 -177 -32.5t-118.5 -84 t-69.5 -129.5t-34 -153.5t-8 -171.5h487v-158h-487v-522h776v-158h-1067z" />
<glyph unicode="&#xa4;" horiz-adv-x="1363" d="M160 133l151 152q-90 121 -90 270t90 270l-151 150l94 94l152 -149q118 88 270 88q150 0 268 -88l154 149l94 -94l-152 -150q90 -121 90 -270t-90 -270l152 -152l-94 -94l-154 151q-121 -90 -268 -90q-149 0 -270 90l-152 -151zM356 555q0 -132 94 -225.5t226 -93.5 t224.5 93.5t92.5 225.5t-92.5 224.5t-224.5 92.5t-226 -92.5t-94 -224.5z" />
<glyph unicode="&#xa5;" horiz-adv-x="1622" d="M68 1516h172l536 -822l537 822h172l-629 -928h473v-158h-475v-74h475v-157h-475v-199h-158v199h-473v157h473v74h-473v158h473z" />
<glyph unicode="&#xa6;" horiz-adv-x="438" d="M160 -344v885h135v-885h-135zM160 801v885h135v-885h-135z" />
<glyph unicode="&#xa7;" horiz-adv-x="1130" d="M74 -215l24 115q106 -44 225 -77.5t207 -33.5q53 0 103 12.5t94.5 37.5t72 68.5t27.5 100.5q0 77 -39.5 129t-102.5 79t-139.5 46.5t-153 41.5t-139.5 54t-102.5 93.5t-39.5 150.5q0 110 64.5 191.5t170.5 117.5q-113 40 -174 107.5t-61 179.5q0 83 36.5 149.5 t96.5 106.5t133.5 61t152.5 21q162 0 404 -98l-27 -117q-231 92 -370 92q-54 0 -103 -11t-93.5 -34t-70.5 -66t-26 -100q0 -46 25 -80t67 -54.5t96 -36.5t114 -31t120.5 -33t114.5 -47t96 -68t67 -102t25 -144q0 -204 -207 -272q207 -101 207 -324q0 -69 -26 -126.5t-69 -97 t-100 -66.5t-118.5 -39.5t-125.5 -12.5q-174 0 -456 117zM244 618q0 -41 16 -72.5t47 -52.5t59.5 -33.5t71.5 -25.5q87 -28 137 -28q64 0 118 17t94 60.5t40 108.5q0 143 -141 215q-46 26 -63 29q-27 6 -86 6q-44 0 -85.5 -7.5t-79.5 -24.5t-66 -42t-45 -63.5t-17 -86.5z " />
<glyph unicode="&#xa8;" horiz-adv-x="782" d="M164 1245v172h170v-172h-170zM446 1245v172h170v-172h-170z" />
<glyph unicode="&#xa9;" horiz-adv-x="1247" d="M113 758q0 142 68.5 262.5t186 190t255.5 69.5q139 0 257 -69.5t186.5 -190t68.5 -262.5t-68.5 -263t-186.5 -191.5t-257 -70.5t-256.5 70.5t-185.5 191.5t-68 263zM193 758q0 -183 126 -313t304 -130t305 130t127 313t-126.5 311.5t-305.5 128.5t-304.5 -128.5 t-125.5 -311.5zM336 756q0 147 79.5 238t223.5 91q169 0 256 -141l-76 -35q-61 99 -180 99q-102 0 -158.5 -71.5t-56.5 -180.5q0 -115 54 -182.5t161 -67.5q127 0 184 98l72 -39q-83 -139 -256 -139q-146 0 -224.5 90t-78.5 240z" />
<glyph unicode="&#xaa;" horiz-adv-x="921" d="M94 1128q0 67 11.5 127t37 114.5t63.5 93.5t95.5 62t128.5 23q149 0 297 -137v123h111v-811h-82l-19 86q-59 -30 -97.5 -47t-97.5 -34t-106 -17q-88 0 -155.5 33.5t-107.5 92.5t-59.5 132t-19.5 159zM209 1124q0 -66 12.5 -119.5t39.5 -98.5t76 -70t116 -25q20 0 40 2.5 t43 9t37.5 10.5t41.5 16t36 15.5t40 19t36 17.5v402q-73 62 -139.5 98.5t-136.5 36.5q-54 0 -96 -17.5t-69 -46.5t-44.5 -70t-25 -85t-7.5 -95z" />
<glyph unicode="&#xab;" horiz-adv-x="1015" d="M45 758l350 534h166l-348 -534l348 -537h-166zM340 758l350 534h166l-348 -534l348 -537h-166z" />
<glyph unicode="&#xac;" horiz-adv-x="2048" />
<glyph unicode="&#xad;" horiz-adv-x="2048" />
<glyph unicode="&#xae;" horiz-adv-x="1247" d="M113 756q0 142 68 263t185.5 191t256.5 70t257 -70t186.5 -191t68.5 -263t-69 -262.5t-187 -190.5t-256 -70t-255.5 70.5t-186 191t-68.5 261.5zM193 756q0 -183 126 -312t304 -129q179 0 305.5 129t126.5 312q0 184 -126 313t-306 129q-178 0 -304 -129.5t-126 -312.5z M389 459v620h277q92 0 151.5 -47t59.5 -143q0 -68 -36.5 -111t-99.5 -61l160 -258h-96l-152 248h-178v-248h-86zM475 782h189q50 0 87 29t37 78q0 112 -129 112h-184v-219z" />
<glyph unicode="&#xaf;" horiz-adv-x="1046" d="M158 1393v127h710v-127h-710z" />
<glyph unicode="&#xb0;" horiz-adv-x="808" d="M160 1274q0 102 71 174t172 72t173.5 -72.5t72.5 -173.5t-72.5 -173.5t-173.5 -72.5t-172 72t-71 174zM248 1274q0 -65 45.5 -111.5t109.5 -46.5q65 0 111.5 47t46.5 111q0 65 -46.5 110.5t-111.5 45.5q-64 0 -109.5 -45.5t-45.5 -110.5z" />
<glyph unicode="&#xb1;" horiz-adv-x="1292" d="M160 90v125h973v-125h-973zM160 823v131h428v420h131v-420h414v-131h-414v-422h-131v422h-428z" />
<glyph unicode="&#xb2;" horiz-adv-x="770" d="M72 1360q93 178 299 178q51 0 101 -12t95 -36t73 -67t28 -98q0 -44 -23.5 -89t-47 -71t-65.5 -67l-270 -262h438v-107h-616v88l365 344q98 93 98 152q0 58 -56 88.5t-120 30.5q-145 0 -203 -121z" />
<glyph unicode="&#xb3;" horiz-adv-x="757" d="M74 915l98 46q21 -66 77.5 -101t129.5 -35q69 0 131.5 37t62.5 101q0 62 -63 95.5t-131 33.5h-143v100h133q65 0 123.5 30t58.5 89q0 58 -59 89.5t-123 31.5q-140 0 -199 -121l-96 49q86 176 295 176q50 0 101 -12.5t97 -37.5t74.5 -68t28.5 -97q0 -114 -117 -176 q65 -28 104 -78.5t39 -116.5q0 -57 -30 -102.5t-78 -72t-102 -40.5t-107 -14q-104 0 -188.5 50t-116.5 144z" />
<glyph unicode="&#xb4;" horiz-adv-x="565" d="M160 1210l110 275l136 -45l-164 -256z" />
<glyph unicode="&#xb5;" horiz-adv-x="1155" d="M100 -397v1491h150v-742q0 -112 72 -168.5t186 -56.5q75 0 187.5 65t205.5 140v762h150v-1094h-123l-25 182q-104 -81 -226 -138.5t-226 -57.5q-113 0 -201 55v-438h-150z" />
<glyph unicode="&#xb6;" horiz-adv-x="1155" d="M160 1081q0 111 38 195.5t106 136t156.5 77.5t194.5 26h377v-1516h-160v666h-225q-96 0 -182.5 26.5t-155 77t-109 131t-40.5 180.5z" />
<glyph unicode="&#xb7;" horiz-adv-x="460" d="M160 432v178h178v-178h-178z" />
<glyph unicode="&#xb8;" horiz-adv-x="747" d="M160 -373l39 74q86 -23 137 -23q17 0 38 3t45.5 9t41 19.5t16.5 32.5q0 65 -127 65q-30 0 -92 -8l-47 45l119 156h108l-100 -127q46 4 70 4q180 0 180 -139q0 -41 -23.5 -71t-61.5 -44t-75 -20t-76 -6q-100 0 -192 30z" />
<glyph unicode="&#xb9;" horiz-adv-x="608" d="M86 1364l272 166h109v-801h-123v662l-197 -121z" />
<glyph unicode="&#xba;" horiz-adv-x="921" d="M115 1128q0 90 19.5 162.5t60.5 128.5t109.5 86.5t160.5 30.5t160.5 -30.5t109.5 -86.5t60.5 -128.5t19.5 -162.5t-19.5 -162.5t-60 -128t-109 -86t-161.5 -30.5t-161.5 30.5t-109 86t-60 128t-19.5 162.5zM240 1128q0 -303 225 -303t225 303q0 49 -6 91t-22 82t-41 68.5 t-64.5 45.5t-91.5 17q-225 0 -225 -304z" />
<glyph unicode="&#xbb;" horiz-adv-x="1015" d="M160 221l348 537l-348 534h166l350 -534l-350 -537h-166zM455 221l348 537l-348 534h166l350 -534l-350 -537h-166z" />
<glyph unicode="&#xbc;" horiz-adv-x="1943" d="M86 1364l272 166h109v-801h-123v662l-197 -121zM418 0l837 1516h146l-840 -1516h-143zM1106 197v92l436 510h131v-498h111v-104h-111v-197h-123v197h-444zM1255 301h295v346z" />
<glyph unicode="&#xbd;" horiz-adv-x="1943" d="M86 1364l272 166h109v-801h-123v662l-197 -121zM418 0l837 1516h146l-840 -1516h-143zM1180 631q92 176 299 176q51 0 101 -12t95 -35.5t73 -66t28 -97.5q0 -34 -11 -65.5t-35 -63t-40.5 -49t-49.5 -49.5l-270 -263h438v-106h-616v86l364 346q101 96 101 150q0 58 -57 89 t-121 31q-139 0 -203 -120z" />
<glyph unicode="&#xbe;" horiz-adv-x="1943" d="M74 915l98 46q21 -66 77.5 -101t129.5 -35q69 0 131.5 37t62.5 101q0 62 -63 95.5t-131 33.5h-143v100h133q65 0 123.5 30t58.5 89q0 58 -59 89.5t-123 31.5q-140 0 -199 -121l-96 49q86 176 295 176q50 0 101 -12.5t97 -37.5t74.5 -68t28.5 -97q0 -114 -117 -176 q65 -28 104 -78.5t39 -116.5q0 -57 -30 -102.5t-78 -72t-102 -40.5t-107 -14q-104 0 -188.5 50t-116.5 144zM418 0l837 1516h146l-840 -1516h-143zM1106 197v92l436 510h131v-498h111v-104h-111v-197h-123v197h-444zM1255 301h295v346z" />
<glyph unicode="&#xbf;" horiz-adv-x="1202" d="M113 412q0 87 30.5 151t79.5 101.5t107.5 65.5t117.5 52.5t108 53.5t79.5 76.5t30.5 113.5v217h133v-258q0 -76 -30.5 -133.5t-79.5 -92.5t-108 -63t-118.5 -52.5t-108.5 -52t-79.5 -71.5t-30.5 -102q0 -83 54 -151t132.5 -103t159.5 -35q103 0 221 39.5t205 101.5 l84 -100q-86 -72 -236.5 -121t-267.5 -49q-86 0 -172 30t-155.5 82t-112.5 131t-43 169zM645 1358v172h170v-172h-170z" />
<glyph unicode="&#xc0;" d="M76 0l631 1516h176l628 -1516h-159l-152 373h-811l-151 -373h-162zM440 498h709l-354 872zM602 1839l135 45l111 -274l-82 -27z" />
<glyph unicode="&#xc1;" d="M76 0l631 1516h176l628 -1516h-159l-152 373h-811l-151 -373h-162zM440 498h709l-354 872zM754 1610l110 274l135 -45l-163 -256z" />
<glyph unicode="&#xc2;" d="M76 0l631 1516h176l628 -1516h-159l-152 373h-811l-151 -373h-162zM440 498h709l-354 872zM553 1649l205 213h86l205 -213l-68 -54l-180 152l-180 -152z" />
<glyph unicode="&#xc3;" d="M76 0l631 1516h176l628 -1516h-159l-152 373h-811l-151 -373h-162zM440 498h709l-354 872zM451 1642q10 36 26 69t39 64t55.5 49.5t69.5 18.5q43 0 80.5 -14t64 -33.5t50 -39.5t49.5 -34t53 -14q45 0 81 44t50 95l72 -35q-22 -81 -71.5 -140.5t-121.5 -59.5q-43 0 -80 14 t-63 34t-49.5 39.5t-49.5 33.5t-53 14q-45 0 -81 -44t-50 -95z" />
<glyph unicode="&#xc4;" d="M76 0l631 1516h176l628 -1516h-159l-152 373h-811l-151 -373h-162zM440 498h709l-354 872zM569 1642v173h170v-173h-170zM852 1642v173h170v-173h-170z" />
<glyph unicode="&#xc5;" d="M76 0l631 1516h176l628 -1516h-159l-152 373h-811l-151 -373h-162zM440 498h709l-354 872zM678 1733q0 47 35 81.5t82 34.5q48 0 83 -33.5t35 -82.5q0 -50 -34.5 -84.5t-83.5 -34.5t-83 34.5t-34 84.5zM745 1733q0 -21 14.5 -36.5t35.5 -15.5q22 0 36.5 15t14.5 37 q0 21 -15 35t-36 14q-20 0 -35 -14.5t-15 -34.5z" />
<glyph unicode="&#xc6;" horiz-adv-x="2539" d="M197 0l1011 1516h1059v-130h-840v-544h740v-131h-740v-582h840v-129h-997v373h-666l-246 -373h-161zM686 498h584v886z" />
<glyph unicode="&#xc7;" horiz-adv-x="1548" d="M113 756q0 229 82.5 402.5t247.5 272.5t395 99q186 0 342 -75t250 -224l-127 -64q-77 114 -199.5 172t-265.5 58q-138 0 -247.5 -50t-178.5 -138t-105.5 -203.5t-36.5 -249.5q0 -141 34 -256.5t102 -202t178 -134.5t254 -48q151 0 275.5 57t199.5 176l123 -65 q-87 -144 -231 -217.5t-322 -81.5l-88 -111q46 4 69 4q180 0 180 -139q0 -34 -16 -59.5t-40.5 -40.5t-57.5 -24.5t-62 -13t-59 -3.5q-101 0 -193 30l39 74q86 -23 138 -23q17 0 38 3t45.5 9t41 19.5t16.5 32.5q0 65 -127 65q-30 0 -92 -8l-47 45l108 142q-216 12 -366.5 112 t-223.5 267t-73 391z" />
<glyph unicode="&#xc8;" horiz-adv-x="1316" d="M160 0v1516h997v-132h-840v-542h740v-131h-740v-582h840v-129h-997zM481 1839l135 45l111 -274l-82 -27z" />
<glyph unicode="&#xc9;" horiz-adv-x="1316" d="M160 0v1516h997v-132h-840v-542h740v-131h-740v-582h840v-129h-997zM614 1610l111 274l135 -45l-164 -256z" />
<glyph unicode="&#xca;" horiz-adv-x="1316" d="M160 0v1516h997v-132h-840v-542h740v-131h-740v-582h840v-129h-997zM408 1649l204 213h86l205 -213l-67 -54l-181 152l-180 -152z" />
<glyph unicode="&#xcb;" horiz-adv-x="1316" d="M160 0v1516h997v-132h-840v-542h740v-131h-740v-582h840v-129h-997zM434 1642v173h170v-173h-170zM717 1642v173h170v-173h-170z" />
<glyph unicode="&#xcc;" horiz-adv-x="477" d="M53 1839l135 45l111 -274l-82 -27zM160 0v1516h157v-1516h-157z" />
<glyph unicode="&#xcd;" horiz-adv-x="477" d="M160 0v1516h157v-1516h-157zM172 1610l111 274l135 -45l-164 -256z" />
<glyph unicode="&#xce;" horiz-adv-x="477" d="M-6 1649l205 213h86l204 -213l-67 -54l-180 152l-181 -152zM160 0v1516h157v-1516h-157z" />
<glyph unicode="&#xcf;" horiz-adv-x="477" d="M8 1642v173h170v-173h-170zM160 0v1516h157v-1516h-157zM291 1642v173h170v-173h-170z" />
<glyph unicode="&#xd0;" horiz-adv-x="1769" d="M86 678v160h231v678h504q353 0 544 -200.5t191 -557.5t-191 -557.5t-544 -200.5h-504v678h-231zM475 129h346q285 0 432.5 169.5t147.5 459.5t-147.5 459t-432.5 169h-346v-548h426v-160h-426v-549z" />
<glyph unicode="&#xd1;" horiz-adv-x="1656" d="M160 0v1516h176l1003 -1332v1332h158v-1516h-192l-990 1311v-1311h-155zM481 1642q14 49 37 91.5t64 76t90 33.5q43 0 80.5 -14t64 -33.5t50 -39.5t49.5 -34t53 -14q45 0 81 44t50 95l71 -35q-22 -81 -71 -140.5t-121 -59.5q-43 0 -80 14t-63 34t-49.5 39.5t-49.5 33.5 t-53 14q-45 0 -81 -44t-50 -95z" />
<glyph unicode="&#xd2;" horiz-adv-x="1675" d="M113 758q0 229 83 402t248 271.5t394 98.5q172 0 310 -57t228.5 -159.5t138.5 -244t48 -311.5q0 -176 -46 -318t-135.5 -244t-227.5 -157t-316 -55t-316 55t-227.5 157t-135.5 244t-46 318zM270 758q0 -142 34 -257.5t102 -202t178 -134t254 -47.5t254 47.5t177.5 134 t101.5 202t34 257.5q0 134 -36 249.5t-105.5 202.5t-178.5 137t-247 50t-247.5 -50t-178.5 -137t-105.5 -202.5t-36.5 -249.5zM543 1839l135 45l110 -274l-81 -27z" />
<glyph unicode="&#xd3;" horiz-adv-x="1675" d="M113 758q0 229 83 402t248 271.5t394 98.5q172 0 310 -57t228.5 -159.5t138.5 -244t48 -311.5q0 -176 -46 -318t-135.5 -244t-227.5 -157t-316 -55t-316 55t-227.5 157t-135.5 244t-46 318zM270 758q0 -142 34 -257.5t102 -202t178 -134t254 -47.5t254 47.5t177.5 134 t101.5 202t34 257.5q0 134 -36 249.5t-105.5 202.5t-178.5 137t-247 50t-247.5 -50t-178.5 -137t-105.5 -202.5t-36.5 -249.5zM846 1610l110 274l136 -45l-164 -256z" />
<glyph unicode="&#xd4;" horiz-adv-x="1675" d="M113 758q0 229 83 402t248 271.5t394 98.5q172 0 310 -57t228.5 -159.5t138.5 -244t48 -311.5q0 -176 -46 -318t-135.5 -244t-227.5 -157t-316 -55t-316 55t-227.5 157t-135.5 244t-46 318zM270 758q0 -142 34 -257.5t102 -202t178 -134t254 -47.5t254 47.5t177.5 134 t101.5 202t34 257.5q0 134 -36 249.5t-105.5 202.5t-178.5 137t-247 50t-247.5 -50t-178.5 -137t-105.5 -202.5t-36.5 -249.5zM586 1649l205 213h86l204 -213l-67 -54l-180 152l-181 -152z" />
<glyph unicode="&#xd5;" horiz-adv-x="1675" d="M113 758q0 229 83 402t248 271.5t394 98.5q172 0 310 -57t228.5 -159.5t138.5 -244t48 -311.5q0 -176 -46 -318t-135.5 -244t-227.5 -157t-316 -55t-316 55t-227.5 157t-135.5 244t-46 318zM270 758q0 -142 34 -257.5t102 -202t178 -134t254 -47.5t254 47.5t177.5 134 t101.5 202t34 257.5q0 134 -36 249.5t-105.5 202.5t-178.5 137t-247 50t-247.5 -50t-178.5 -137t-105.5 -202.5t-36.5 -249.5zM494 1642q10 36 26 69t39 64t55.5 49.5t69.5 18.5q43 0 80.5 -14t64 -33.5t50 -39.5t49.5 -34t53 -14q45 0 81 44t50 95l72 -35 q-22 -81 -71.5 -140.5t-121.5 -59.5q-43 0 -80 14t-63 34t-49.5 39.5t-49.5 33.5t-53 14q-45 0 -81 -44t-50 -95z" />
<glyph unicode="&#xd6;" horiz-adv-x="1675" d="M113 758q0 229 83 402t248 271.5t394 98.5q172 0 310 -57t228.5 -159.5t138.5 -244t48 -311.5q0 -176 -46 -318t-135.5 -244t-227.5 -157t-316 -55t-316 55t-227.5 157t-135.5 244t-46 318zM270 758q0 -142 34 -257.5t102 -202t178 -134t254 -47.5t254 47.5t177.5 134 t101.5 202t34 257.5q0 134 -36 249.5t-105.5 202.5t-178.5 137t-247 50t-247.5 -50t-178.5 -137t-105.5 -202.5t-36.5 -249.5zM610 1642v173h170v-173h-170zM893 1642v173h170v-173h-170z" />
<glyph unicode="&#xd7;" horiz-adv-x="1134" d="M160 371l317 317l-289 289l93 92l288 -291l285 287l92 -92l-284 -285l313 -313l-92 -92l-314 313l-317 -317z" />
<glyph unicode="&#xd8;" horiz-adv-x="1675" d="M113 756q0 229 83 402.5t248.5 272.5t395.5 99q219 0 379 -92l147 209l129 -91l-147 -213q217 -209 217 -587q0 -235 -80.5 -407t-245 -268.5t-399.5 -96.5q-229 0 -385 88l-144 -207l-129 92l146 207q-215 202 -215 592zM272 756q0 -302 144 -467l721 1030 q-132 78 -297 78q-138 0 -248 -50t-179 -137.5t-105 -203t-36 -250.5zM537 188q127 -73 303 -73q144 0 253.5 48t177 135t101 202t33.5 256q0 289 -148 461z" />
<glyph unicode="&#xd9;" horiz-adv-x="1574" d="M160 629v887h157v-871q0 -121 26 -215.5t80.5 -165.5t146 -109t216.5 -38t217 38t146.5 109.5t80 165.5t25.5 215v871h160v-887q0 -312 -160 -478.5t-469 -166.5q-308 0 -467 166t-159 479zM608 1839l135 45l111 -274l-82 -27z" />
<glyph unicode="&#xda;" horiz-adv-x="1574" d="M160 629v887h157v-871q0 -121 26 -215.5t80.5 -165.5t146 -109t216.5 -38t217 38t146.5 109.5t80 165.5t25.5 215v871h160v-887q0 -312 -160 -478.5t-469 -166.5q-308 0 -467 166t-159 479zM745 1610l111 274l135 -45l-164 -256z" />
<glyph unicode="&#xdb;" horiz-adv-x="1574" d="M160 629v887h157v-871q0 -121 26 -215.5t80.5 -165.5t146 -109t216.5 -38t217 38t146.5 109.5t80 165.5t25.5 215v871h160v-887q0 -312 -160 -478.5t-469 -166.5q-308 0 -467 166t-159 479zM541 1649l204 213h86l205 -213l-67 -54l-181 152l-180 -152z" />
<glyph unicode="&#xdc;" horiz-adv-x="1574" d="M160 629v887h157v-871q0 -121 26 -215.5t80.5 -165.5t146 -109t216.5 -38t217 38t146.5 109.5t80 165.5t25.5 215v871h160v-887q0 -312 -160 -478.5t-469 -166.5q-308 0 -467 166t-159 479zM553 1642v173h170v-173h-170zM836 1642v173h170v-173h-170z" />
<glyph unicode="&#xdd;" horiz-adv-x="1566" d="M76 1516h170l536 -822l537 822h172l-631 -932v-584h-158v586zM750 1610l110 274l135 -45l-164 -256z" />
<glyph unicode="&#xde;" horiz-adv-x="1359" d="M84 0v1516h158v-267h506q107 0 195.5 -26t156 -77.5t105.5 -136t38 -194.5q0 -99 -40.5 -180t-109 -131.5t-155 -77.5t-182.5 -27h-514v-399h-158zM242 524h497q87 0 165 33t129.5 101t51.5 157q0 80 -27 139.5t-76.5 94.5t-112.5 52t-140 17h-487v-594z" />
<glyph unicode="&#xdf;" horiz-adv-x="1146" d="M160 4v1135q0 165 111 278t276 113q167 0 277 -112t110 -279q0 -112 -48.5 -202.5t-144.5 -143.5q127 -42 196 -149t69 -245q0 -112 -50 -207t-142 -152.5t-206 -57.5q-94 0 -170 51l31 121q61 -43 139 -43q118 0 186 95t68 218q0 121 -68 212t-186 91h-129v107h68 q113 0 178.5 84t65.5 200q0 113 -67 198t-177 85t-177 -85t-67 -198v-1114h-143z" />
<glyph unicode="&#xe0;" horiz-adv-x="1273" d="M113 545q0 91 15 171.5t49.5 153.5t85.5 125.5t128.5 83.5t173.5 31q110 0 206.5 -48t193.5 -134v166h149v-1094h-117l-18 117q-6 -3 -37 -18t-39.5 -19t-38 -17.5t-41.5 -18t-39 -15.5t-42.5 -15.5t-40.5 -11.5t-43.5 -10t-40.5 -5.5t-42 -2.5q-120 0 -211 45.5 t-144.5 124.5t-80 177.5t-26.5 213.5zM266 541q0 -88 16.5 -160.5t53 -133t102.5 -94.5t156 -34q27 0 54 3t58.5 12.5t51 15t56 21.5t49 21.5t54.5 26t48 23.5v538q-100 85 -188.5 134t-186.5 49q-72 0 -128 -23.5t-92.5 -62.5t-60 -94t-33.5 -114.5t-10 -127.5zM432 1440 l135 45l111 -275l-82 -26z" />
<glyph unicode="&#xe1;" horiz-adv-x="1273" d="M113 545q0 91 15 171.5t49.5 153.5t85.5 125.5t128.5 83.5t173.5 31q110 0 206.5 -48t193.5 -134v166h149v-1094h-117l-18 117q-6 -3 -37 -18t-39.5 -19t-38 -17.5t-41.5 -18t-39 -15.5t-42.5 -15.5t-40.5 -11.5t-43.5 -10t-40.5 -5.5t-42 -2.5q-120 0 -211 45.5 t-144.5 124.5t-80 177.5t-26.5 213.5zM266 541q0 -88 16.5 -160.5t53 -133t102.5 -94.5t156 -34q27 0 54 3t58.5 12.5t51 15t56 21.5t49 21.5t54.5 26t48 23.5v538q-100 85 -188.5 134t-186.5 49q-72 0 -128 -23.5t-92.5 -62.5t-60 -94t-33.5 -114.5t-10 -127.5zM614 1210 l111 275l135 -45l-164 -256z" />
<glyph unicode="&#xe2;" horiz-adv-x="1273" d="M113 545q0 91 15 171.5t49.5 153.5t85.5 125.5t128.5 83.5t173.5 31q110 0 206.5 -48t193.5 -134v166h149v-1094h-117l-18 117q-6 -3 -37 -18t-39.5 -19t-38 -17.5t-41.5 -18t-39 -15.5t-42.5 -15.5t-40.5 -11.5t-43.5 -10t-40.5 -5.5t-42 -2.5q-120 0 -211 45.5 t-144.5 124.5t-80 177.5t-26.5 213.5zM266 541q0 -88 16.5 -160.5t53 -133t102.5 -94.5t156 -34q27 0 54 3t58.5 12.5t51 15t56 21.5t49 21.5t54.5 26t48 23.5v538q-100 85 -188.5 134t-186.5 49q-72 0 -128 -23.5t-92.5 -62.5t-60 -94t-33.5 -114.5t-10 -127.5zM354 1249 l205 213h86l205 -213l-68 -53l-180 152l-180 -152z" />
<glyph unicode="&#xe3;" horiz-adv-x="1273" d="M113 545q0 91 15 171.5t49.5 153.5t85.5 125.5t128.5 83.5t173.5 31q110 0 206.5 -48t193.5 -134v166h149v-1094h-117l-18 117q-6 -3 -37 -18t-39.5 -19t-38 -17.5t-41.5 -18t-39 -15.5t-42.5 -15.5t-40.5 -11.5t-43.5 -10t-40.5 -5.5t-42 -2.5q-120 0 -211 45.5 t-144.5 124.5t-80 177.5t-26.5 213.5zM266 541q0 -88 16.5 -160.5t53 -133t102.5 -94.5t156 -34q27 0 54 3t58.5 12.5t51 15t56 21.5t49 21.5t54.5 26t48 23.5v538q-100 85 -188.5 134t-186.5 49q-72 0 -128 -23.5t-92.5 -62.5t-60 -94t-33.5 -114.5t-10 -127.5zM268 1243 q14 49 37 91.5t64 76t90 33.5q43 0 80.5 -14t64 -34t50 -39.5t49.5 -33.5t53 -14q45 0 81 44t50 95l71 -35q-23 -81 -71.5 -141t-120.5 -60q-43 0 -80 14t-63 34t-49.5 40t-49.5 34t-53 14q-45 0 -81 -44.5t-50 -95.5z" />
<glyph unicode="&#xe4;" horiz-adv-x="1273" d="M113 545q0 91 15 171.5t49.5 153.5t85.5 125.5t128.5 83.5t173.5 31q110 0 206.5 -48t193.5 -134v166h149v-1094h-117l-18 117q-6 -3 -37 -18t-39.5 -19t-38 -17.5t-41.5 -18t-39 -15.5t-42.5 -15.5t-40.5 -11.5t-43.5 -10t-40.5 -5.5t-42 -2.5q-120 0 -211 45.5 t-144.5 124.5t-80 177.5t-26.5 213.5zM266 541q0 -88 16.5 -160.5t53 -133t102.5 -94.5t156 -34q27 0 54 3t58.5 12.5t51 15t56 21.5t49 21.5t54.5 26t48 23.5v538q-100 85 -188.5 134t-186.5 49q-72 0 -128 -23.5t-92.5 -62.5t-60 -94t-33.5 -114.5t-10 -127.5zM383 1245 v172h170v-172h-170zM666 1245v172h170v-172h-170z" />
<glyph unicode="&#xe5;" horiz-adv-x="1273" d="M113 545q0 91 15 171.5t49.5 153.5t85.5 125.5t128.5 83.5t173.5 31q110 0 206.5 -48t193.5 -134v166h149v-1094h-117l-18 117q-6 -3 -37 -18t-39.5 -19t-38 -17.5t-41.5 -18t-39 -15.5t-42.5 -15.5t-40.5 -11.5t-43.5 -10t-40.5 -5.5t-42 -2.5q-120 0 -211 45.5 t-144.5 124.5t-80 177.5t-26.5 213.5zM266 541q0 -88 16.5 -160.5t53 -133t102.5 -94.5t156 -34q27 0 54 3t58.5 12.5t51 15t56 21.5t49 21.5t54.5 26t48 23.5v538q-100 85 -188.5 134t-186.5 49q-72 0 -128 -23.5t-92.5 -62.5t-60 -94t-33.5 -114.5t-10 -127.5zM496 1333 q0 47 34.5 82t81.5 35q48 0 83.5 -34t35.5 -83t-34.5 -84t-84.5 -35q-49 0 -82.5 34.5t-33.5 84.5zM563 1333q0 -21 14 -36t35 -15q22 0 37 14.5t15 36.5q0 21 -15.5 35t-36.5 14q-20 0 -34.5 -14.5t-14.5 -34.5z" />
<glyph unicode="&#xe6;" horiz-adv-x="1992" d="M72 262q0 64 24 117t62.5 88.5t94 63t112 43.5t122.5 26t119.5 13t108.5 3q32 0 102 -4q10 52 10 99q0 128 -61.5 186.5t-190.5 58.5q-206 0 -382 -159l-58 82q89 94 209.5 145t249.5 51q114 0 198 -49t115 -152q76 111 198.5 165.5t266.5 54.5q129 0 223.5 -42 t150 -119.5t81.5 -177t26 -225.5q0 -7 -1 -21.5t-1 -21.5h-880q11 -179 117.5 -292t283.5 -113q47 0 146 22q94 16 278 62l21 -115q-316 -82 -445 -82q-256 0 -411 158q-91 -68 -217 -118t-228 -50q-66 0 -124 7.5t-118.5 28t-103.5 53.5t-70.5 87.5t-27.5 126.5zM225 281 q0 -43 14 -76t40.5 -53.5t56.5 -34.5t69.5 -20.5t72 -8.5t71.5 -2q146 0 340 133q-66 118 -76 277q-15 0 -42 1t-42 1q-46 0 -87.5 -2t-105 -8.5t-113.5 -21.5t-97.5 -37.5t-74 -60.5t-26.5 -87zM975 608h735q-28 365 -338 365q-167 0 -271.5 -98.5t-125.5 -266.5z" />
<glyph unicode="&#xe7;" horiz-adv-x="1267" d="M113 543q0 258 150.5 410.5t408.5 152.5q155 0 280.5 -62t192.5 -190l-127 -61q-51 95 -142 142.5t-204 47.5q-192 0 -298 -122t-106 -318q0 -126 45.5 -225.5t138.5 -159.5t220 -60q107 0 195 46.5t141 136.5l127 -62q-63 -110 -172.5 -168.5t-241.5 -66.5l-88 -111 q46 4 69 4q181 0 181 -139q0 -41 -23.5 -71t-61.5 -44t-75 -20t-76 -6q-101 0 -192 30l39 74q86 -23 137 -23q17 0 38 3t45.5 9t41 19.5t16.5 32.5q0 65 -127 65q-30 0 -92 -8l-47 45l106 140q-231 19 -365 168.5t-134 390.5z" />
<glyph unicode="&#xe8;" horiz-adv-x="1265" d="M113 545q0 257 151 410t408 153q129 0 224 -42t150 -119.5t81 -177t26 -224.5q0 -27 -2 -41h-879q11 -177 117 -288.5t283 -111.5q102 0 424 84l20 -122q-107 -29 -152.5 -40t-135 -26.5t-156.5 -15.5q-254 0 -406.5 153.5t-152.5 407.5zM276 623h734q-11 169 -93 266.5 t-245 97.5q-167 0 -272 -99t-124 -265zM440 1440l135 45l111 -275l-82 -26z" />
<glyph unicode="&#xe9;" horiz-adv-x="1265" d="M113 545q0 257 151 410t408 153q129 0 224 -42t150 -119.5t81 -177t26 -224.5q0 -27 -2 -41h-879q11 -177 117 -288.5t283 -111.5q102 0 424 84l20 -122q-107 -29 -152.5 -40t-135 -26.5t-156.5 -15.5q-254 0 -406.5 153.5t-152.5 407.5zM276 623h734q-11 169 -93 266.5 t-245 97.5q-167 0 -272 -99t-124 -265zM598 1210l111 275l135 -45l-164 -256z" />
<glyph unicode="&#xea;" horiz-adv-x="1265" d="M113 545q0 257 151 410t408 153q129 0 224 -42t150 -119.5t81 -177t26 -224.5q0 -27 -2 -41h-879q11 -177 117 -288.5t283 -111.5q102 0 424 84l20 -122q-107 -29 -152.5 -40t-135 -26.5t-156.5 -15.5q-254 0 -406.5 153.5t-152.5 407.5zM276 623h734q-11 169 -93 266.5 t-245 97.5q-167 0 -272 -99t-124 -265zM399 1249l205 213h86l205 -213l-68 -53l-180 152l-180 -152z" />
<glyph unicode="&#xeb;" horiz-adv-x="1257" d="M113 545q0 257 151 410t408 153q129 0 224 -42t150 -119.5t81 -177t26 -224.5q0 -27 -2 -41h-879q11 -177 117 -288.5t283 -111.5q102 0 424 84l20 -122q-107 -29 -152.5 -40t-135 -26.5t-156.5 -15.5q-254 0 -406.5 153.5t-152.5 407.5zM276 623h734q-11 169 -93 266.5 t-245 97.5q-167 0 -272 -99t-124 -265zM444 1245v172h170v-172h-170zM727 1245v172h170v-172h-170z" />
<glyph unicode="&#xec;" horiz-adv-x="468" d="M49 1440l135 45l111 -275l-82 -26zM160 0v1094h149v-1094h-149z" />
<glyph unicode="&#xed;" horiz-adv-x="468" d="M160 0v1094h149v-1094h-149zM184 1210l111 275l135 -45l-164 -256z" />
<glyph unicode="&#xee;" horiz-adv-x="468" d="M-12 1249l205 213h86l204 -213l-67 -53l-180 152l-181 -152zM160 0v1094h149v-1094h-149z" />
<glyph unicode="&#xef;" horiz-adv-x="468" d="M6 1245v172h170v-172h-170zM160 0v1094h149v-1094h-149zM289 1245v172h170v-172h-170z" />
<glyph unicode="&#xf0;" horiz-adv-x="1269" d="M113 457q0 229 132.5 363t360.5 134q219 0 350 -123q-48 183 -145 332l-205 -172l-90 109l213 178q-96 113 -209 190l76 91q121 -73 231 -199l211 178l90 -108l-217 -183q99 -144 154 -316t55 -345q0 -144 -33 -267q-44 -172 -172 -265t-309 -93q-224 0 -358.5 135.5 t-134.5 360.5zM258 457q0 -168 92.5 -276.5t255.5 -108.5q165 0 256.5 108.5t91.5 276.5q0 170 -91 276.5t-257 106.5t-257 -107t-91 -276z" />
<glyph unicode="&#xf1;" horiz-adv-x="1271" d="M160 0v1094h121l26 -183q104 80 227 138.5t226 58.5q149 0 250.5 -91.5t101.5 -238.5v-778h-151v741q0 112 -72.5 169t-186.5 57q-75 0 -187.5 -65t-205.5 -140v-762h-149zM285 1243q10 36 26 69t39 64t55.5 49.5t69.5 18.5q43 0 80.5 -14t64 -34t50 -39.5t49.5 -33.5 t53 -14q45 0 81 44t50 95l72 -35q-22 -81 -71.5 -141t-121.5 -60q-43 0 -80 14t-63 34t-49.5 40t-49.5 34t-53 14q-45 0 -81 -44.5t-50 -95.5z" />
<glyph unicode="&#xf2;" horiz-adv-x="1372" d="M113 545q0 259 150.5 410t408.5 151t408.5 -151t150.5 -410q0 -255 -152 -409t-407 -154t-407 154t-152 409zM270 543q0 -193 106.5 -318t295.5 -125t295 125t106 318q0 196 -104.5 319t-296.5 123t-297 -123t-105 -319zM440 1440l135 45l111 -275l-82 -26z" />
<glyph unicode="&#xf3;" horiz-adv-x="1372" d="M113 545q0 259 150.5 410t408.5 151t408.5 -151t150.5 -410q0 -255 -152 -409t-407 -154t-407 154t-152 409zM270 543q0 -193 106.5 -318t295.5 -125t295 125t106 318q0 196 -104.5 319t-296.5 123t-297 -123t-105 -319zM647 1210l111 275l135 -45l-164 -256z" />
<glyph unicode="&#xf4;" horiz-adv-x="1372" d="M113 545q0 259 150.5 410t408.5 151t408.5 -151t150.5 -410q0 -255 -152 -409t-407 -154t-407 154t-152 409zM270 543q0 -193 106.5 -318t295.5 -125t295 125t106 318q0 196 -104.5 319t-296.5 123t-297 -123t-105 -319zM422 1249l205 213h86l205 -213l-68 -53l-180 152 l-181 -152z" />
<glyph unicode="&#xf5;" horiz-adv-x="1372" d="M113 545q0 259 150.5 410t408.5 151t408.5 -151t150.5 -410q0 -255 -152 -409t-407 -154t-407 154t-152 409zM270 543q0 -193 106.5 -318t295.5 -125t295 125t106 318q0 196 -104.5 319t-296.5 123t-297 -123t-105 -319zM328 1243q10 36 26 69t39 64t55.5 49.5t69.5 18.5 q43 0 80.5 -14t64 -34t50 -39.5t49.5 -33.5t53 -14q45 0 81 44t50 95l72 -35q-22 -81 -71.5 -141t-121.5 -60q-43 0 -80 14t-63 34t-49.5 40t-49.5 34t-53 14q-45 0 -81 -44.5t-50 -95.5z" />
<glyph unicode="&#xf6;" horiz-adv-x="1343" d="M113 545q0 259 150.5 410t408.5 151t408.5 -151t150.5 -410q0 -255 -152 -409t-407 -154t-407 154t-152 409zM270 543q0 -193 106.5 -318t295.5 -125t295 125t106 318q0 196 -104.5 319t-296.5 123t-297 -123t-105 -319zM444 1245v172h170v-172h-170zM727 1245v172h170 v-172h-170z" />
<glyph unicode="&#xf7;" horiz-adv-x="1290" d="M160 649v129h970v-129h-970zM557 309q0 37 25.5 62.5t62.5 25.5t63.5 -25.5t26.5 -62.5t-26.5 -63.5t-63.5 -26.5t-62.5 26.5t-25.5 63.5zM557 1120q0 37 25.5 62.5t62.5 25.5t63.5 -25.5t26.5 -62.5t-26.5 -63.5t-63.5 -26.5t-62.5 26.5t-25.5 63.5z" />
<glyph unicode="&#xf8;" horiz-adv-x="1343" d="M113 543q0 258 150.5 410.5t408.5 152.5q149 0 262 -51l96 137l129 -90l-92 -133q164 -153 164 -426q0 -255 -152 -408t-407 -153q-143 0 -260 53l-99 -141l-129 92l97 135q-168 151 -168 422zM270 543q0 -187 92 -303l494 704q-77 39 -184 39q-192 0 -297 -122 t-105 -318zM485 139q81 -41 187 -41q127 0 220 60t138 159.5t45 225.5q0 190 -94 305z" />
<glyph unicode="&#xf9;" horiz-adv-x="1271" d="M160 315v779h149v-742q0 -113 72 -169t188 -56q75 0 189 66t203 139v762h151v-1094h-123l-24 182q-103 -79 -226.5 -137.5t-226.5 -58.5q-149 0 -250.5 91t-101.5 238zM455 1440l135 45l110 -275l-82 -26z" />
<glyph unicode="&#xfa;" horiz-adv-x="1271" d="M160 315v779h149v-742q0 -113 72 -169t188 -56q75 0 189 66t203 139v762h151v-1094h-123l-24 182q-103 -79 -226.5 -137.5t-226.5 -58.5q-149 0 -250.5 91t-101.5 238zM575 1210l111 275l135 -45l-164 -256z" />
<glyph unicode="&#xfb;" horiz-adv-x="1271" d="M160 315v779h149v-742q0 -113 72 -169t188 -56q75 0 189 66t203 139v762h151v-1094h-123l-24 182q-103 -79 -226.5 -137.5t-226.5 -58.5q-149 0 -250.5 91t-101.5 238zM387 1249l205 213h86l205 -213l-68 -53l-180 152l-180 -152z" />
<glyph unicode="&#xfc;" horiz-adv-x="1271" d="M160 315v779h149v-742q0 -113 72 -169t188 -56q75 0 189 66t203 139v762h151v-1094h-123l-24 182q-103 -79 -226.5 -137.5t-226.5 -58.5q-149 0 -250.5 91t-101.5 238zM416 1245v172h170v-172h-170zM698 1245v172h170v-172h-170z" />
<glyph unicode="&#xfd;" horiz-adv-x="1198" d="M76 1094h160l403 -848l324 848h159l-622 -1583h-160l231 587zM567 1210l111 275l135 -45l-164 -256z" />
<glyph unicode="&#xfe;" horiz-adv-x="1400" d="M180 -492v1819h150v-399q206 182 399 182q96 0 173.5 -31t129 -84t86 -126t49.5 -153.5t15 -170.5q0 -115 -27 -213.5t-81 -177.5t-145.5 -124.5t-211.5 -45.5q-60 0 -128.5 19t-115 39.5t-119.5 56.5q-5 3 -8 4.5t-7.5 3.5t-8.5 4v-603h-150zM330 240q12 -6 48.5 -24 t53 -25t49.5 -22t54.5 -21.5t51 -15t57 -12t54.5 -3.5q74 0 132 23.5t95 63t60.5 95.5t33 115.5t9.5 128.5q0 67 -9.5 125.5t-33 114t-59.5 94.5t-92.5 62.5t-128.5 23.5q-168 0 -375 -183v-540z" />
<glyph unicode="&#xff;" horiz-adv-x="1198" d="M76 1094h160l403 -848l324 848h159l-622 -1583h-160l231 587zM383 1245v172h170v-172h-170zM666 1245v172h170v-172h-170z" />
<glyph unicode="&#x152;" horiz-adv-x="2572" d="M164 776q0 170 48 311.5t138.5 244t228.5 159.5t310 57q156 0 294 -51.5t238 -157.5v177h1000v-130h-842v-544h739v-131h-739v-582h842v-129h-1000v203q-193 -201 -532 -201q-351 0 -538 208.5t-187 565.5zM324 776q0 -141 33.5 -256t101 -202t177 -135t253.5 -48 q162 0 289 66t198 202q8 15 26.5 57.5t18.5 53.5v512q0 11 -19 54.5t-28 58.5q-72 135 -200 206.5t-285 71.5q-138 0 -247 -50.5t-177.5 -138.5t-104.5 -203t-36 -249z" />
<glyph unicode="&#x153;" horiz-adv-x="2254" d="M113 545q0 258 150.5 410.5t408.5 152.5q153 0 281 -61.5t200 -184.5q72 123 200 184.5t281 61.5q103 0 185 -27.5t137 -77t91.5 -120.5t52.5 -154.5t16 -183.5q0 -7 -1 -21.5t-1 -21.5h-881q11 -179 117.5 -292.5t283.5 -113.5q17 0 37 2.5t46.5 7.5t37.5 7 q158 28 303 67l21 -114q-186 -49 -326 -70q-91 -14 -119 -14q-153 0 -281 62.5t-200 186.5q-72 -124 -200 -186.5t-281 -62.5q-255 0 -407 154t-152 409zM270 543q0 -193 106.5 -318t295.5 -125t295 125t106 318q0 196 -104.5 319t-296.5 123t-297 -123t-105 -319zM1237 623 h735q-28 364 -338 364q-167 0 -271.5 -98t-125.5 -266z" />
<glyph unicode="&#x178;" horiz-adv-x="1566" d="M76 1516h170l536 -822l537 822h172l-631 -932v-584h-158v586zM569 1642v173h170v-173h-170zM852 1642v173h170v-173h-170z" />
<glyph unicode="&#x2c6;" horiz-adv-x="815" d="M160 1249l205 213h86l204 -213l-67 -53l-180 152l-181 -152z" />
<glyph unicode="&#x2dc;" horiz-adv-x="1009" d="M160 1243q10 36 26 69t39 64t55.5 49.5t69.5 18.5q43 0 80.5 -14t64 -34t50 -39.5t49.5 -33.5t53 -14q45 0 81 44t50 95l72 -35q-22 -81 -71.5 -141t-121.5 -60q-43 0 -80 14t-63 34t-49.5 40t-49.5 34t-53 14q-45 0 -81 -44.5t-50 -95.5z" />
<glyph unicode="&#x2000;" horiz-adv-x="942" />
<glyph unicode="&#x2001;" horiz-adv-x="1884" />
<glyph unicode="&#x2002;" horiz-adv-x="942" />
<glyph unicode="&#x2003;" horiz-adv-x="1884" />
<glyph unicode="&#x2004;" horiz-adv-x="628" />
<glyph unicode="&#x2005;" horiz-adv-x="471" />
<glyph unicode="&#x2006;" horiz-adv-x="314" />
<glyph unicode="&#x2007;" horiz-adv-x="314" />
<glyph unicode="&#x2008;" horiz-adv-x="235" />
<glyph unicode="&#x2009;" horiz-adv-x="376" />
<glyph unicode="&#x200a;" horiz-adv-x="104" />
<glyph unicode="&#x2010;" horiz-adv-x="1046" d="M160 473v127h710v-127h-710z" />
<glyph unicode="&#x2011;" horiz-adv-x="1046" d="M160 473v127h710v-127h-710z" />
<glyph unicode="&#x2012;" horiz-adv-x="1046" d="M160 473v127h710v-127h-710z" />
<glyph unicode="&#x2013;" horiz-adv-x="1308" d="M160 473v127h989v-127h-989z" />
<glyph unicode="&#x2014;" horiz-adv-x="2433" d="M160 473v127h2113v-127h-2113z" />
<glyph unicode="&#x2018;" horiz-adv-x="495" d="M160 1141v178l80 197h84l-62 -197h74v-178h-176z" />
<glyph unicode="&#x2019;" horiz-adv-x="495" d="M160 1337v179h176v-179l-80 -196h-84l61 196h-73z" />
<glyph unicode="&#x201a;" horiz-adv-x="495" d="M160 0v178h176v-178l-80 -197h-84l61 197h-73z" />
<glyph unicode="&#x201c;" horiz-adv-x="720" d="M160 1141v178l80 197h84l-62 -197h74v-178h-176zM426 1141v178l80 197h84l-62 -197h74v-178h-176z" />
<glyph unicode="&#x201d;" horiz-adv-x="720" d="M160 1337v179h176v-179l-80 -196h-84l61 196h-73zM426 1337v179h176v-179l-80 -196h-84l62 196h-74z" />
<glyph unicode="&#x201e;" horiz-adv-x="720" d="M160 0v178h176v-178l-80 -197h-84l61 197h-73zM426 0v178h176v-178l-80 -197h-84l62 197h-74z" />
<glyph unicode="&#x2022;" horiz-adv-x="497" d="M160 535q0 37 25.5 63.5t62.5 26.5t63.5 -26.5t26.5 -63.5t-26.5 -63t-63.5 -26t-62.5 26t-25.5 63z" />
<glyph unicode="&#x2026;" horiz-adv-x="1337" d="M160 0v178h178v-178h-178zM586 0v178h178v-178h-178zM1010 0v178h178v-178h-178z" />
<glyph unicode="&#x202f;" horiz-adv-x="376" />
<glyph unicode="&#x2039;" horiz-adv-x="768" d="M45 758l350 534h166l-348 -534l348 -537h-166z" />
<glyph unicode="&#x203a;" horiz-adv-x="770" d="M160 221l348 537l-348 534h166l350 -534l-350 -537h-166z" />
<glyph unicode="&#x205f;" horiz-adv-x="471" />
<glyph unicode="&#x20ac;" horiz-adv-x="1572" d="M96 561v158h156v74h-156v157h168q36 275 192 427.5t429 152.5q191 0 334 -82t219 -250l-129 -55q-59 129 -168.5 193.5t-255.5 64.5q-103 0 -184.5 -33.5t-136 -95t-88.5 -141.5t-50 -181h448v-157h-460v-74h460v-158h-448q15 -101 48.5 -181t88 -141.5t136.5 -94.5 t186 -33q138 0 242.5 65.5t166.5 188.5l138 -66q-77 -162 -218.5 -239.5t-328.5 -77.5q-275 0 -430 151t-191 428h-168z" />
<glyph unicode="&#xe000;" horiz-adv-x="1095" d="M0 0v1096h1096v-1096h-1096z" />
<glyph unicode="&#xfb01;" horiz-adv-x="1196" d="M76 981v113h164v116q0 153 85 234.5t238 81.5q81 0 154 -21l-21 -121q-41 13 -78 13q-115 0 -172 -49t-57 -162v-92h266v-113h-266v-981h-149v981h-164zM815 1315v172h170v-172h-170zM825 0v1094h150v-1094h-150z" />
<glyph unicode="&#xfb02;" horiz-adv-x="1220" d="M76 981v113h164v116q0 153 85 234.5t238 81.5q81 0 154 -21l-21 -121q-41 13 -78 13q-115 0 -172 -49t-57 -162v-92h266v-113h-266v-981h-149v981h-164zM848 0v1513h151v-1513h-151z" />
</font>
</defs>
</svg>
