<?xml version="1.0" encoding="utf-8"?>
<svg width="312.666" height="291.333" viewBox="0 0 312.666 291.333" xmlns="http://www.w3.org/2000/svg">
  
  <g>
    <path class="logo-bar" d="M 129.179,159.033 135.782,161.373 202.062,103.825 195.745,101.474 z"/>
    <path class="logo-bar" d="M 12.902,35.723 124.312,75.665 120.042,79.52 8.469,39.513 z"/>
    <path class="logo-bar" d="M 96.958,6.092 157.372,50.724 152.003,53.228 91.249,8.571 z"/>
    <path class="logo-bar" d="M 100.132,143.244 93.692,143.932 83.977,167.761 90.437,167.073 z"/>
    <path class="logo-bar" d="M 177.979,16.337 178.111,22.49 200.989,35.167 200.865,28.675 z"/>
    <path class="logo-bar" d="M 37.966,216.927 153.499,188.807 152.064,194.2 36.127,222.589 z"/>
    <path class="logo-bar" d="M 225.917,263.589 219.494,265.52 260.037,73.452 266.464,71.471 z"/>

    <path class="logo-block" d="M 82.474,42.831 101.414,34.803 103.937,40.789 84.984,48.783 z"/>
    <path class="logo-block" d="M 47.563,252.055 161.824,284.895 167.462,265.452 53.137,232.428 z"/>
    <path class="logo-block" d="M 7.356,90.43 37.726,179.903 60.88,183.733 26.969,83.834 z"/>
    <rect x="196.334" y="138.44" transform="matrix(0.958 0.2868 -0.2868 0.958 49.3218 -53.3131)" class="logo-block" width="20.585" height="6.491"/>
    <path class="logo-block" d="M 283.777,266.438 296.586,282.118 278.103,185.26 265.5,169.516 z"/>
    <path class="logo-block" d="M 173.29,164.655 192.508,171.877 209.182,191.604 189.673,184.41 z"/>
    <path class="logo-block" d="M 192.173,259.316 207.039,245.073 171.061,207.59 148.518,213.828 z"/>
    <path class="logo-block" d="M 305.869,8.381 131.279,97.754 140.435,104.019 293.987,25.842 z"/>
    <path class="logo-block" d="M 61.779,108.571 82.467,101.721 111.885,107.989 92.208,114.512 z"/>
  </g>
</svg>
