<?xml version="1.0" encoding="utf-8"?>
<svg width="312.666" height="291.333" viewBox="0 0 312.666 291.333" xmlns="http://www.w3.org/2000/svg">

<path class="logo-bar" d="M 149.989,41.557 268.275,41.559 265.561,46.624 147.098,46.617 z"/>
<path class="logo-bar" d="M 52.976,217.781 171.813,217.984 169.14,222.875 49.841,222.84 z"/>
<path class="logo-bar" d="M 147.351,46.184 154.054,46.202 59.511,218.111 52.79,218.135 z"/>
<path class="logo-bar" d="M 141.354,136.238 216.424,136.379 213.584,141.574 138.228,141.617 z"/>
<path class="logo-bar" d="M 144.448,141.479 138.3,141.494 125.192,164.111 131.684,164.111 z"/>
<path class="logo-bar" d="M 164.521,218.67 171.524,218.562 213.584,141.574 206.848,141.572 z"/>
<path class="logo-bar" d="M 265.729,46.328 259.256,46.328 247.078,68.983 253.568,68.983 z"/>

<path class="logo-block" d="M 50.202,222.84 50.288,243.227 169.109,243.107 169.14,222.875 z"/>
<path class="logo-block" d="M 216.424,136.379 216.186,156.535 169.109,243.107 169.14,222.875 z"/>
<path class="logo-block" d="M 143.989,141.543 143.975,162.117 195.9,162.107 207,141.537 z"/>
<rect x="118.308" y="171.144" transform="matrix(-0.0036 -1 1 -0.0036 -45.3317 303.6028)" class="logo-block" width="20.576" height="6.486"/>
<path class="logo-block" d="M 144.379,141.584 144.424,162.104 131.876,184.664 131.705,163.885 z"/>
<path class="logo-block" d="M 153.987,46.136 153.933,67.243 70.597,217.947 59.511,217.889 z"/>
<path class="logo-block" d="M 259.4,46.425 248.367,67.122 153.933,67.243 153.963,46.563 z"/>
<path class="logo-block" d="M 247.115,89.542 247.078,68.983 253.568,68.983 253.57,89.542 z"/>
<path class="logo-block" d="M 268.219,41.651 268.467,63.43 253.57,89.542 253.33,68.827 z"/>
</svg>
