<?xml version="1.0" encoding="utf-8"?>
<!-- Generator: Adobe Illustrator 16.0.0, SVG Export Plug-In . SVG Version: 6.00 Build 0)  -->
<!DOCTYPE svg PUBLIC "-//W3C//DTD SVG 1.1//EN" "http://www.w3.org/Graphics/SVG/1.1/DTD/svg11.dtd">
<svg version="1.1" id="Layer_1" xmlns="http://www.w3.org/2000/svg" xmlns:xlink="http://www.w3.org/1999/xlink" x="0px" y="0px"
	 width="399.333px" height="338.667px" viewBox="0 0 399.333 338.667" enable-background="new 0 0 399.333 338.667"
	 xml:space="preserve">
<g>
	<polygon fill="#243C79" points="159.179,168.702 165.782,171.042 232.062,113.494 225.745,111.143 	"/>
	<polygon fill="#243C79" points="22.902,55.392 134.312,95.333 130.042,99.188 18.469,59.181 	"/>
	<polygon fill="#243C79" points="106.958,25.76 167.372,70.392 162.003,72.896 101.249,28.239 	"/>
	<polygon fill="#243C79" points="120.132,162.913 113.692,163.6 103.977,187.429 110.437,186.742 	"/>
	<polygon fill="#243C79" points="187.979,36.006 188.111,42.159 210.989,54.835 210.865,48.344 	"/>
	<polygon fill="#243C79" points="37.966,236.595 153.499,208.475 152.064,213.869 36.127,242.257 	"/>
	<polygon fill="#243C79" points="250.917,303.257 244.494,305.188 285.037,113.121 291.464,111.139 	"/>
	<polygon fill="#46A8DF" points="92.474,62.5 111.414,54.471 113.937,60.457 94.984,68.451 	"/>
	<polygon fill="#46A8DF" points="63.563,293.723 177.824,326.563 183.463,307.121 69.137,274.096 	"/>
	<polygon fill="#46A8DF" points="7.356,110.098 37.726,199.572 60.88,203.402 26.969,103.502 	"/>
	
		<rect x="226.334" y="148.109" transform="matrix(0.958 0.2868 -0.2868 0.958 53.3555 -61.5117)" fill="#46A8DF" width="20.585" height="6.491"/>
	<polygon fill="#46A8DF" points="376.37,268.625 395.081,276.36 332.896,199.836 314.335,191.947 	"/>
	<polygon fill="#46A8DF" points="203.29,174.324 222.508,181.545 239.182,201.273 219.673,194.079 	"/>
	<polygon fill="#46A8DF" points="212.173,278.985 227.039,264.742 191.061,227.258 168.518,233.497 	"/>
	<polygon fill="#46A8DF" points="319.141,5.269 157.364,116.163 167.243,121.209 309.581,24.101 	"/>
	<polygon fill="#46A8DF" points="81.779,128.24 102.467,121.389 131.885,127.657 112.208,134.18 	"/>
</g>
</svg>
