<?xml version="1.0" encoding="utf-8"?>
<!-- Generator: Adobe Illustrator 16.0.0, SVG Export Plug-In . SVG Version: 6.00 Build 0)  -->
<!DOCTYPE svg PUBLIC "-//W3C//DTD SVG 1.1//EN" "http://www.w3.org/Graphics/SVG/1.1/DTD/svg11.dtd">
<svg version="1.1" id="Layer_1" xmlns="http://www.w3.org/2000/svg" xmlns:xlink="http://www.w3.org/1999/xlink" x="0px" y="0px"
	 width="399.33px" height="338.67px" viewBox="0 0 399.33 338.67" enable-background="new 0 0 399.33 338.67" xml:space="preserve">
<polygon fill="#45A7DE" points="55.871,240.509 55.956,260.896 174.777,260.776 174.807,240.544 "/>
<polygon fill="#45A7DE" points="222.092,154.049 221.853,174.204 174.777,260.776 174.807,240.544 "/>
<polygon fill="#45A7DE" points="149.657,159.211 149.643,179.786 201.567,179.776 212.668,159.206 "/>
<rect x="123.976" y="188.813" transform="matrix(-0.0036 -1 1 -0.0036 -57.3126 327.0023)" fill="#45A7DE" width="20.576" height="6.486"/>
<polygon fill="#45A7DE" points="150.047,159.253 150.092,179.772 137.543,202.333 137.373,181.554 "/>
<polygon fill="#45A7DE" points="159.655,63.805 159.6,84.913 76.265,235.616 65.179,235.558 "/>
<polygon fill="#45A7DE" points="265.068,64.094 254.034,84.792 159.6,84.913 159.631,64.232 "/>
<polygon fill="#45A7DE" points="252.782,107.211 252.745,86.652 259.236,86.652 259.238,107.211 "/>
<polygon fill="#45A7DE" points="273.887,59.321 274.135,81.1 259.238,107.211 258.997,86.497 "/>
<polygon fill="#243C79" points="155.658,59.226 273.943,59.229 271.228,64.293 152.766,64.287 "/>
<polygon fill="#243C79" points="58.643,235.45 177.481,235.653 174.807,240.544 55.509,240.509 "/>
<polygon fill="#243C79" points="153.019,63.853 159.721,63.871 65.179,235.78 58.458,235.804 "/>
<polygon fill="#243C79" points="147.023,153.908 222.092,154.049 219.251,159.244 143.896,159.286 "/>
<polygon fill="#243C79" points="150.117,159.148 143.967,159.163 130.86,181.78 137.352,181.78 "/>
<polygon fill="#243C79" points="170.188,236.339 177.192,236.231 219.251,159.244 212.516,159.242 "/>
<polygon fill="#243C79" points="271.396,63.998 264.924,63.998 252.745,86.652 259.236,86.652 "/>
</svg>
