<?xml version="1.0" encoding="utf-8"?>
<svg width="399.33" height="338.67" viewBox="0 0 399.33 338.67" xmlns="http://www.w3.org/2000/svg">
<!--<svg xmlns="http://www.w3.org/2000/svg" xmlns:xlink="http://www.w3.org/1999/xlink" version="1.1" x="0px" y="0px" width="399.33px" height="338.67px" preserveAspectRatio="xMinYMin meet" viewBox="0 0 399.33 338.67" enable-background="new 0 0 399.33 338.67" xml:space="preserve">-->
	<g>
		<path class="logo-bar" d="M 159.179,168.702 165.782,171.042 232.062,113.494 225.745,111.143 z"/>
		<path class="logo-bar" d="M 22.902,55.392 134.312,95.333 130.042,99.188 18.469,59.181 z"/>
		<path class="logo-bar" d="M 106.958,25.76 167.372,70.392 162.003,72.896 101.249,28.239 z"/>
		<path class="logo-bar" d="M 120.132,162.913 113.692,163.6 103.977,187.429 110.437,186.742 z"/>
		<path class="logo-bar" d="M 187.979,36.006 188.111,42.159 210.989,54.835 210.865,48.344 z"/>
		<path class="logo-bar" d="M 37.966,236.595 153.499,208.475 152.064,213.869 36.127,242.257 z"/>
		<path class="logo-bar" d="M 250.917,303.257 244.494,305.188 285.037,113.121 291.464,111.139 z"/>
		
		<path class="logo-block" d="M 92.474,62.5 111.414,54.471 113.937,60.457 94.984,68.451 z"/>
		<path class="logo-block" d="M 63.563,293.723 177.824,326.563 183.463,307.121 69.137,274.096 z"/>
		<path class="logo-block" d="M 7.356,110.098 37.726,199.572 60.88,203.402 26.969,103.502 z"/>
		<rect class="logo-block" x="226.334" y="148.109" transform="matrix(0.958 0.2868 -0.2868 0.958 53.3555 -61.5117)" width="20.585" height="6.491"/>
		<path class="logo-block" d="M 376.37,268.625 395.081,276.36 332.896,199.836 314.335,191.947 z"/>
		<path class="logo-block" d="M 203.29,174.324 222.508,181.545 239.182,201.273 219.673,194.079 z"/>
		<path class="logo-block" d="M 212.173,278.985 227.039,264.742 191.061,227.258 168.518,233.497 z"/>
		<path class="logo-block" d="M 319.141,5.269 157.364,116.163 167.243,121.209 309.581,24.101 z"/>
		<path class="logo-block" d="M 81.779,128.24 102.467,121.389 131.885,127.657 112.208,134.18 z"/>
	</g>
</svg>