<?xml-stylesheet type="text/css" href="../css/styles.css" ?>
<svg xmlns="http://www.w3.org/2000/svg" xmlns:xlink="http://www.w3.org/1999/xlink" version="1.1" id="Layer_1" x="0px" y="0px" width="450px" height="450px" preserveAspectRatio="xMinYMin meet" viewBox="0 0 450 450" enable-background="new 0 0 450 450" xml:space="preserve">
<path fill="none" d="M421.492,215.849"/>
<polygon class="tangram-logo-background" points="3.504,228.008 223.512,5.5 445.996,227.984 222.543,450 "/>
<polygon class="tangram-logo-dark" points="34.941,236.815 210.646,237.086 210.65,412.197 "/>
<path class="tangram-logo-outline" d="M40.756,239.226l167.489,0.258l0.002,166.923L40.756,239.226 M29.125,234.403l183.927,183.586l-0.003-183.302
  L29.125,234.403L29.125,234.403z"/>
<rect class="tangram-logo-light" x="124.332" y="129.986" width="86.385" height="85.083"/>
<path class="tangram-logo-outline" d="M208.315,132.388v80.278h-81.581v-80.278H208.315 M213.119,127.584H121.93v89.887h91.189V127.584L213.119,127.584z"/>
<polygon class="tangram-logo-dark"  points="233.793,214.923 233.793,145.501 304.707,214.923 "/>
<path class="tangram-logo-outline" d="M236.195,151.214l62.625,61.307h-62.625V151.214 M231.391,139.788v77.537h79.206L231.391,139.788L231.391,139.788z"/>
<polygon class="tangram-logo-light" points="232.769,236.806 412.1,236.806 232.769,413.646 "/>
<path class="tangram-logo-outline" d="M407.232,239.208L236.16,407.903V239.208H407.232 M418.945,234.403h-187.59v184.984L418.945,234.403L418.945,234.403z"/>
<polygon class="tangram-logo-light" points="333.412,214.762 248.439,130.023 324.159,129.986 409.052,214.762 "/>
<path class="tangram-logo-outline" d="M323.167,132.389l80.079,79.971h-68.84l-80.158-79.937L323.167,132.389 M325.154,127.584l-82.522,0.04l89.788,89.54h82.437
  L325.154,127.584L325.154,127.584z"/>
<polygon class="tangram-logo-dark" points="143.322,109.549 222.954,29.16 303.703,109.549 "/>
<path class="tangram-logo-outline" d="M222.966,32.562l74.919,74.585H149.082L222.966,32.562 M222.942,25.759l-85.381,86.192H309.52L222.942,25.759
  L222.942,25.759z"/>
<polygon class="tangram-logo-dark" points="36.522,215.064 103.695,147.596 103.89,215.064 "/>
<path class="tangram-logo-outline" d="M101.31,153.397l0.17,59.265H42.303L101.31,153.397 M106.08,141.796l-75.339,75.67h75.558L106.08,141.796L106.08,141.796z"
  />
</svg>