<?xml-stylesheet type="text/css" href="../css/styles.css" ?>
<svg xmlns="http://www.w3.org/2000/svg" xmlns:xlink="http://www.w3.org/1999/xlink" version="1.1" id="Layer_1" x="0px" y="0px" width="450px" height="450px" preserveAspectRatio="xMinYMin meet" viewBox="0 0 450 450" enable-background="new 0 0 450 450" xml:space="preserve">
  <path fill="none" d="M534.492 281.177"/>
  <polygon class="tangram-rhombus-dark" points="205.012,65.698 387.223,65.978 387.227,247.574  "/>
  <path class="tangram-rhombus-outline" d="M211.043 68.198l173.688 0.268 0.004 173.102L211.043 68.198M198.981 63.197l190.737 190.381 -0.004-190.087L198.981 63.197 198.981 63.197z"/>
  <rect x="65.016" y="178.728" class="tangram-rhombus-light" width="88.233" height="89.583"/>
  <path class="tangram-rhombus-outline" d="M150.758 181.219v84.601H67.506v-84.601H150.758M155.739 176.238H62.524v94.566h93.214L155.739 176.238 155.739 176.238z"/>
  <polygon class="tangram-rhombus-dark" points="152.766,78.602 152.765,152.142 80.773,152.143  "/>
  <path class="tangram-rhombus-outline" d="M150.274 84.708l0 64.943 -63.576 0L150.274 84.708M155.256 72.497l-80.408 82.137 80.407-0.001L155.256 72.497 155.256 72.497z"/>
  <polygon class="tangram-rhombus-light" points="181.722,264.205 181.722,78.234 365.11,264.205  "/>
  <path class="tangram-rhombus-outline" d="M184.213 84.308l174.942 177.408 -174.942-0.003V84.308M179.231 72.16v194.535h191.833L179.231 72.16 179.231 72.16z"/>
  <polygon class="tangram-rhombus-light" points="216.943,377.663 305.062,289.79 383.5,289.79 295.466,377.702  "/>
  <path class="tangram-rhombus-outline" d="M377.481 292.28l-83.046 82.932 -71.471-0.036 83.127-82.896L377.481 292.28M389.521 287.299h-85.488l-93.111 92.853 85.577 0.042L389.521 287.299 389.521 287.299z"/>
  <polygon class="tangram-rhombus-dark" points="95.312,290.958 261.63,290.956 177.892,374.322  "/>
  <path class="tangram-rhombus-outline" d="M255.599 293.447l-77.694 77.347 -76.62-77.347H255.599M267.664 288.465l-178.325 0.001 88.542 89.384L267.664 288.465 267.664 288.465z"/>
  <polygon class="tangram-rhombus-dark" points="66.013,306.957 135.979,376.616 66.013,376.819  "/>
  <path class="tangram-rhombus-outline" d="M68.504 312.952l61.46 61.19 -61.46 0.179V312.952M63.522 300.961v78.356l78.473-0.227L63.522 300.961 63.522 300.961z"/>
</svg>
