<?xml version="1.0" encoding="utf-8"?>
<!-- Generator: Adobe Illustrator 16.0.0, SVG Export Plug-In . SVG Version: 6.00 Build 0)  -->
<!DOCTYPE svg PUBLIC "-//W3C//DTD SVG 1.1//EN" "http://www.w3.org/Graphics/SVG/1.1/DTD/svg11.dtd">
<svg version="1.1" id="Layer_1" xmlns="http://www.w3.org/2000/svg" xmlns:xlink="http://www.w3.org/1999/xlink" x="0px" y="0px"
	 width="450px" height="450px" viewBox="0 0 450 450" enable-background="new 0 0 450 450" xml:space="preserve">
<path fill="none" d="M429.492,215.574"/>
<g>
	<polygon fill="#2255BA" points="27.178,237.396 210.053,237.678 210.057,419.936 	"/>
	<path fill="#B5C5D8" d="M33.23,239.905l174.323,0.269l0.003,173.733L33.23,239.905 M21.125,234.887l191.432,191.076l-0.004-190.781
		L21.125,234.887L21.125,234.887z"/>
</g>
<g>
	<rect x="121.247" y="126.208" fill="#4DC7FF" width="89.91" height="88.554"/>
	<path fill="#B5C5D8" d="M208.657,128.708v83.554h-84.91v-83.554H208.657 M213.657,123.708h-94.91v93.554h94.91V123.708
		L213.657,123.708z"/>
</g>
<g>
	<polygon fill="#2255BA" points="235.175,214.611 235.175,142.356 308.982,214.611 	"/>
	<path fill="#B5C5D8" d="M237.675,148.302l65.181,63.809h-65.181V148.302 M232.675,136.41v80.701h82.436L232.675,136.41
		L232.675,136.41z"/>
</g>
<g>
	<polygon fill="#4DC7FF" points="235.139,237.387 421.787,237.387 235.139,421.442 	"/>
	<path fill="#B5C5D8" d="M415.691,239.887L237.639,415.466V239.887H415.691 M427.883,234.887H232.639v192.532L427.883,234.887
		L427.883,234.887z"/>
</g>
<g>
	<polygon fill="#4DC7FF" points="338.859,214.443 250.419,126.247 329.229,126.208 417.585,214.443 	"/>
	<path fill="#B5C5D8" d="M328.195,128.709l83.348,83.234h-71.649l-83.43-83.199L328.195,128.709 M330.264,123.708l-85.889,0.042
		l93.451,93.193h85.8L330.264,123.708L330.264,123.708z"/>
</g>
<g>
	<polygon fill="#2255BA" points="141.012,104.937 223.893,21.268 307.938,104.937 	"/>
	<path fill="#B5C5D8" d="M223.906,24.808l77.977,77.629H147.007L223.906,24.808 M223.881,17.728l-88.865,89.709h178.976
		L223.881,17.728L223.881,17.728z"/>
</g>
<g>
	<polygon fill="#2255BA" points="29.854,214.758 99.768,144.537 99.971,214.758 	"/>
	<path fill="#B5C5D8" d="M97.285,150.574l0.178,61.684H35.871L97.285,150.574 M102.25,138.5l-78.413,78.758h78.641L102.25,138.5
		L102.25,138.5z"/>
</g>
</svg>
