<?xml-stylesheet type="text/css" href="../css/styles.css" ?>
<svg xmlns="http://www.w3.org/2000/svg" xmlns:xlink="http://www.w3.org/1999/xlink" version="1.1" id="Layer_1" x="0px" y="0px" width="450px" height="450px" preserveAspectRatio="xMinYMin meet" viewBox="0 0 450 450" enable-background="new 0 0 450 450" xml:space="preserve">
  <path fill="none" d="M429.492 215.574"/>
  <polygon class="tangram-diamond-dark" points="27.178,237.396 210.053,237.678 210.057,419.936  "/>
  <path class="tangram-diamond-outline" d="M33.23 239.904l174.323 0.27 0.003 173.733L33.23 239.904M21.125 234.887l191.432 191.076 -0.004-190.781L21.125 234.887 21.125 234.887z"/>
  <rect x="121.247" y="126.208" class="tangram-diamond-light" width="89.91" height="88.554"/>
  <path class="tangram-diamond-outline" d="M208.657 128.708v83.554h-84.91v-83.554H208.657M213.657 123.708h-94.91v93.554h94.91V123.708L213.657 123.708z"/>
  <polygon class="tangram-diamond-dark" points="235.175,214.611 235.175,142.356 308.982,214.611  "/>
  <path class="tangram-diamond-outline" d="M237.675 148.302l65.181 63.809h-65.181V148.302M232.675 136.41v80.701h82.437L232.675 136.41 232.675 136.41z"/>
  <polygon class="tangram-diamond-light" points="235.139,237.387 421.787,237.387 235.139,421.442  "/>
  <path class="tangram-diamond-outline" d="M415.691 239.887L237.639 415.466V239.887H415.691M427.883 234.887H232.639v192.532L427.883 234.887 427.883 234.887z"/>
  <polygon class="tangram-diamond-light" points="338.859,214.443 250.419,126.247 329.229,126.208 417.585,214.443  "/>
  <path class="tangram-diamond-outline" d="M328.195 128.709l83.348 83.234h-71.649l-83.43-83.199L328.195 128.709M330.264 123.708l-85.889 0.042 93.451 93.193h85.8L330.264 123.708 330.264 123.708z"/>
  <polygon class="tangram-diamond-dark" points="141.012,104.937 223.893,21.268 307.938,104.937  "/>
  <path class="tangram-diamond-outline" d="M223.906 24.808l77.977 77.629H147.007L223.906 24.808M223.881 17.728l-88.865 89.709h178.976L223.881 17.728 223.881 17.728z"/>
  <polygon class="tangram-diamond-dark" points="29.854,214.758 99.768,144.537 99.971,214.758  "/>
  <path class="tangram-diamond-outline" d="M97.285 150.574l0.178 61.684H35.871L97.285 150.574M102.25 138.5l-78.413 78.758h78.641L102.25 138.5 102.25 138.5z"/>
</svg>