<?xml version="1.0" encoding="utf-8"?>
<!-- Generator: Adobe Illustrator 16.0.0, SVG Export Plug-In . SVG Version: 6.00 Build 0)  -->
<!DOCTYPE svg PUBLIC "-//W3C//DTD SVG 1.1//EN" "http://www.w3.org/Graphics/SVG/1.1/DTD/svg11.dtd">
<svg version="1.1" id="Layer_1" xmlns="http://www.w3.org/2000/svg" xmlns:xlink="http://www.w3.org/1999/xlink" x="0px" y="0px"
	 width="450px" height="450px" viewBox="0 0 450 450" enable-background="new 0 0 450 450" xml:space="preserve">
<path fill="none" d="M429.492,215.574"/>
<g>
	<polygon fill="#2255BA" points="29.45,247.525 211.707,247.521 29.168,430.4 	"/>
	<path fill="#B5C5D8" d="M205.679,250.021L31.677,424.348l0.269-174.322L205.679,250.021 M217.735,245.021l-190.781,0.004
		l-0.295,191.428L217.735,245.021L217.735,245.021z"/>
</g>
<g>
	<rect x="142.907" y="22.268" fill="#4DC7FF" width="89.909" height="88.555"/>
	<path fill="#B5C5D8" d="M230.316,24.768v83.555h-84.909V24.768H230.316 M235.316,19.768h-94.909v93.555h94.909V19.768
		L235.316,19.768z"/>
</g>
<g>
	<polygon fill="#2255BA" points="49.415,22.752 123.223,22.753 123.224,95.008 	"/>
	<path fill="#B5C5D8" d="M55.542,25.252l65.18,0.001l0.001,63.808L55.542,25.252 M43.287,20.252l82.437,80.701l-0.001-80.7
		L43.287,20.252L43.287,20.252z"/>
</g>
<g>
	<polygon fill="#4DC7FF" points="29.158,224.939 29.159,38.291 213.214,224.94 	"/>
	<path fill="#B5C5D8" d="M31.659,44.387L207.238,222.44l-175.58-0.001L31.659,44.387 M26.659,32.195v195.245h192.532L26.659,32.195
		L26.659,32.195z"/>
</g>
<g>
	<polygon fill="#4DC7FF" points="259.508,110.813 347.947,22.618 426.673,22.618 338.316,110.851 	"/>
	<path fill="#B5C5D8" d="M420.631,25.118l-83.349,83.233l-71.73-0.035l83.431-83.198H420.631 M432.714,20.118h-85.8l-93.451,93.192
		l85.888,0.042L432.714,20.118L432.714,20.118z"/>
</g>
<g>
	<polygon fill="#2255BA" points="155.432,132.79 322.358,132.789 238.314,216.459 	"/>
	<path fill="#B5C5D8" d="M316.304,135.289l-77.978,77.63l-76.899-77.629L316.304,135.289 M328.413,130.289l-178.977,0.001
		l88.865,89.709L328.413,130.289L328.413,130.289z"/>
</g>
<g>
	<polygon fill="#2255BA" points="252.093,22.272 322.211,22.272 252.297,92.494 	"/>
	<path fill="#B5C5D8" d="M316.193,24.772l-61.414,61.685l-0.18-61.685H316.193 M328.228,19.772h-78.642l0.229,78.758L328.228,19.772
		L328.228,19.772z"/>
</g>
</svg>
