<?xml version="1.0" encoding="utf-8"?>
<!-- Generator: Adobe Illustrator 16.0.0, SVG Export Plug-In . SVG Version: 6.00 Build 0)  -->
<!DOCTYPE svg PUBLIC "-//W3C//DTD SVG 1.1//EN" "http://www.w3.org/Graphics/SVG/1.1/DTD/svg11.dtd">
<svg version="1.1" id="Layer_1" xmlns="http://www.w3.org/2000/svg" xmlns:xlink="http://www.w3.org/1999/xlink" x="0px" y="0px"
	 width="450px" height="450px" viewBox="0 0 450 450" enable-background="new 0 0 450 450" xml:space="preserve">
<path fill="none" d="M534.492,281.177"/>
<g>
	<polygon fill="#2255BA" points="205.012,65.698 387.223,65.978 387.227,247.574 	"/>
	<path fill="#B5C5D8" d="M211.043,68.198l173.688,0.268l0.004,173.102L211.043,68.198 M198.981,63.197l190.737,190.381
		l-0.004-190.087L198.981,63.197L198.981,63.197z"/>
</g>
<g>
	<rect x="65.016" y="178.728" fill="#4DC7FF" width="88.233" height="89.583"/>
	<path fill="#B5C5D8" d="M150.758,181.219v84.601H67.506v-84.601H150.758 M155.739,176.238H62.524v94.566h93.214L155.739,176.238
		L155.739,176.238z"/>
</g>
<g>
	<polygon fill="#2255BA" points="152.766,78.602 152.765,152.142 80.773,152.143 	"/>
	<path fill="#B5C5D8" d="M150.274,84.708l0,64.943l-63.576,0L150.274,84.708 M155.256,72.497l-80.408,82.137l80.407-0.001
		L155.256,72.497L155.256,72.497z"/>
</g>
<g>
	<polygon fill="#4DC7FF" points="181.722,264.205 181.722,78.234 365.11,264.205 	"/>
	<path fill="#B5C5D8" d="M184.213,84.308l174.942,177.408l-174.942-0.003V84.308 M179.231,72.16v194.535h191.833L179.231,72.16
		L179.231,72.16z"/>
</g>
<g>
	<polygon fill="#4DC7FF" points="216.943,377.663 305.062,289.79 383.5,289.79 295.466,377.702 	"/>
	<path fill="#B5C5D8" d="M377.481,292.28l-83.046,82.932l-71.471-0.036l83.127-82.896L377.481,292.28 M389.521,287.299h-85.488
		l-93.111,92.853l85.577,0.042L389.521,287.299L389.521,287.299z"/>
</g>
<g>
	<polygon fill="#2255BA" points="95.312,290.958 261.63,290.956 177.892,374.322 	"/>
	<path fill="#B5C5D8" d="M255.599,293.447l-77.694,77.347l-76.62-77.347H255.599 M267.664,288.465l-178.325,0.001l88.542,89.384
		L267.664,288.465L267.664,288.465z"/>
</g>
<g>
	<polygon fill="#2255BA" points="66.013,306.957 135.979,376.616 66.013,376.819 	"/>
	<path fill="#B5C5D8" d="M68.504,312.952l61.46,61.19l-61.46,0.179V312.952 M63.522,300.961v78.356l78.473-0.227L63.522,300.961
		L63.522,300.961z"/>
</g>
</svg>
