<?xml version="1.0" encoding="utf-8"?>
<!-- Generator: Adobe Illustrator 16.0.0, SVG Export Plug-In . SVG Version: 6.00 Build 0)  -->
<!DOCTYPE svg PUBLIC "-//W3C//DTD SVG 1.1//EN" "http://www.w3.org/Graphics/SVG/1.1/DTD/svg11.dtd">
<svg version="1.1" id="Layer_1" xmlns="http://www.w3.org/2000/svg" xmlns:xlink="http://www.w3.org/1999/xlink" x="0px" y="0px"
	 width="136px" height="136px" viewBox="0 0 136 136" enable-background="new 0 0 136 136" xml:space="preserve">
<g transform="rotate(-45 68 68) translate(-27 -27)">
	
		<rect x="-5.888" y="-5.887" transform="matrix(-9.222827e-06 -1 1 -9.222827e-06 1.907349e-04 190.0015)" fill="none" stroke="#000000" stroke-width="2.124" stroke-opacity="0.25" width="201.777" height="201.776"/>
	
		<rect x="-1.638" y="-1.641" transform="matrix(-1.136859e-05 -1 1 -1.136859e-05 0.0025 190.0003)" fill="none" stroke="#000000" stroke-width="2.124" stroke-opacity="0.25" width="193.277" height="193.281"/>
	
		<rect x="2.607" y="2.607" transform="matrix(-1.172622e-05 -1 1 -1.172622e-05 7.629395e-05 190.0011)" fill="none" stroke="#000000" stroke-width="2.124" stroke-opacity="0.25" width="184.784" height="184.787"/>
	
		<rect x="6.856" y="6.856" transform="matrix(-1.017650e-05 -1 1 -1.017650e-05 -4.196167e-04 190.003)" fill="none" stroke="#000000" stroke-width="2.124" stroke-opacity="0.25" width="176.288" height="176.29"/>
	
		<rect x="11.105" y="11.103" transform="matrix(-2.090534e-05 -1 1 -2.090534e-05 0.0016 190.0026)" fill="none" stroke="#000000" stroke-width="2.124" stroke-opacity="0.25" width="167.79" height="167.794"/>
	<polygon fill="none" stroke="#000000" stroke-width="2.124" stroke-opacity="0.25" points="15.353,174.648 15.348,15.35 
		174.648,15.352 174.648,174.65 	"/>
	
		<rect x="19.6" y="19.6" transform="matrix(-1.613697e-05 -1 1 -1.613697e-05 4.653931e-04 190.0028)" fill="none" stroke="#000000" stroke-width="2.124" stroke-opacity="0.25" width="150.799" height="150.802"/>
	
		<rect x="23.847" y="23.846" transform="matrix(-2.424320e-05 -1 1 -2.424320e-05 0.0019 190.0029)" fill="none" stroke="#000000" stroke-width="2.124" stroke-opacity="0.25" width="142.306" height="142.309"/>
	
		<rect x="28.094" y="28.097" transform="matrix(-4.931292e-06 -1 1 -4.931292e-06 -0.0023 190.0004)" fill="none" stroke="#000000" stroke-width="2.124" stroke-opacity="0.25" width="133.809" height="133.809"/>
	
		<rect x="32.343" y="32.342" transform="matrix(-2.996524e-05 -1 1 -2.996524e-05 0.0028 190.0021)" fill="none" stroke="#000000" stroke-width="2.124" stroke-opacity="0.25" width="125.313" height="125.315"/>
	
		<rect x="36.591" y="36.591" transform="matrix(-5.408129e-06 -1 1 -5.408129e-06 4.806519e-04 190.0025)" fill="none" stroke="#000000" stroke-width="2.124" stroke-opacity="0.25" width="116.819" height="116.819"/>
	
		<rect x="40.838" y="40.838" transform="matrix(-1.518329e-05 -1 1 -1.518329e-05 0.0014 190.0021)" fill="none" stroke="#000000" stroke-width="2.124" stroke-opacity="0.25" width="108.324" height="108.324"/>
	<polygon fill="none" stroke="#000000" stroke-width="2.124" stroke-opacity="0.25" points="45.087,144.913 45.083,45.085 
		144.91,45.09 144.912,144.915 	"/>
	
		<rect x="49.335" y="49.335" transform="matrix(5.082288e-06 -1 1 5.082288e-06 -4.806519e-04 189.9988)" fill="none" stroke="#000000" stroke-width="2.124" stroke-opacity="0.25" width="91.33" height="91.329"/>
	
		<rect x="53.584" y="53.582" transform="matrix(-1.899799e-05 -1 1 -1.899799e-05 0.0015 190.0011)" fill="none" stroke="#000000" stroke-width="2.124" stroke-opacity="0.25" width="82.832" height="82.835"/>
	
		<rect x="57.83" y="57.829" transform="matrix(-5.356868e-05 -1 1 -5.356868e-05 0.0051 190.0044)" fill="none" stroke="#000000" stroke-width="2.124" stroke-opacity="0.25" width="74.338" height="74.341"/>
	
		<rect x="62.08" y="62.079" transform="matrix(-4.951557e-05 -1 1 -4.951557e-05 0.0047 190.006)" fill="none" stroke="#000000" stroke-width="2.124" stroke-opacity="0.25" width="65.842" height="65.843"/>
	
		<rect x="66.325" y="66.328" transform="matrix(2.177159e-05 -1 1 2.177159e-05 -0.0051 189.9986)" fill="none" stroke="#000000" stroke-width="2.124" stroke-opacity="0.25" width="57.347" height="57.347"/>
	
		<rect x="70.575" y="70.576" transform="matrix(4.605451e-06 -1 1 4.605451e-06 -0.0025 190.0002)" fill="none" stroke="#000000" stroke-width="2.124" stroke-opacity="0.25" width="48.848" height="48.85"/>
	
		<rect x="74.821" y="74.823" transform="matrix(1.473824e-05 -1 1 1.473824e-05 -0.0028 189.9985)" fill="none" stroke="#000000" stroke-width="2.124" stroke-opacity="0.25" width="40.357" height="40.355"/>
	
		<rect x="79.071" y="79.072" transform="matrix(8.420148e-06 -1 1 8.420148e-06 -0.0012 189.9998)" fill="none" stroke="#000000" stroke-width="2.124" stroke-opacity="0.25" width="31.858" height="31.858"/>
	
		<rect x="83.319" y="83.319" transform="matrix(-2.308688e-06 -1 1 -2.308688e-06 2.059937e-04 190.0009)" fill="none" stroke="#000000" stroke-width="2.124" stroke-opacity="0.25" width="23.362" height="23.362"/>
	
		<rect x="87.567" y="87.568" transform="matrix(1.138012e-04 -1 1 1.138012e-04 -0.0115 189.9898)" fill="none" stroke="#000000" stroke-width="2.124" stroke-opacity="0.25" width="14.867" height="14.866"/>
	
		<rect x="91.814" y="91.812" transform="matrix(-2.191504e-04 -1 1 -2.191504e-04 0.0212 190.0201)" fill="none" stroke="#000000" stroke-width="2.124" stroke-opacity="0.25" width="6.371" height="6.374"/>
</g>
<path fill="none" stroke="#000000" stroke-width="2" stroke-opacity="0.25" d="M260.098-6.038"/>
<path fill="none" stroke="#000000" stroke-width="2" d="M274.631,2.544"/>
</svg>
