<?xml version="1.0" standalone="no"?>
<!DOCTYPE svg PUBLIC "-//W3C//DTD SVG 20010904//EN"
 "http://www.w3.org/TR/2001/REC-SVG-20010904/DTD/svg10.dtd">
<svg version="1.0" xmlns="http://www.w3.org/2000/svg"
 width="260.000000pt" height="260.000000pt" viewBox="0 0 260.000000 260.000000"
 preserveAspectRatio="xMidYMid meet">
<metadata>
Created by potrace 1.11, written by Peter Selinger 2001-2013
</metadata>
<g transform="translate(0.000000,260.000000) scale(0.100000,-0.100000)"
fill="#000000" stroke="none">
<path d="M122 2143 c2 -11 16 -20 38 -23 46 -8 57 -15 74 -48 37 -72 344 -914
506 -1387 40 -115 76 -218 82 -228 8 -15 20 -17 71 -15 l62 3 61 175 c33 96
114 332 179 523 68 203 121 343 125 335 13 -24 112 -308 235 -673 l121 -360
64 0 65 0 195 580 c205 607 205 609 381 931 55 100 99 186 99 193 0 8 -76 11
-280 11 -243 0 -280 -2 -280 -15 0 -8 33 -82 74 -163 97 -195 146 -319 146
-372 0 -39 -192 -652 -211 -674 -11 -12 -369 1082 -369 1129 0 27 38 55 74 55
44 0 66 9 66 26 0 12 -59 14 -361 14 -338 0 -360 -1 -357 -17 2 -13 16 -20 46
-24 24 -3 51 -14 61 -25 25 -25 191 -485 191 -527 0 -17 -45 -171 -101 -342
l-101 -310 -75 205 c-105 291 -313 913 -313 938 0 35 35 62 79 62 49 0 71 8
71 26 0 12 -59 14 -361 14 -337 0 -360 -1 -357 -17z"/>
</g>
</svg>
