<?xml version="1.0" standalone="no"?>
<!DOCTYPE svg PUBLIC "-//W3C//DTD SVG 20010904//EN"
 "http://www.w3.org/TR/2001/REC-SVG-20010904/DTD/svg10.dtd">
<svg version="1.0" xmlns="http://www.w3.org/2000/svg"
 width="16.000000pt" height="16.000000pt" viewBox="0 0 16.000000 16.000000"
 preserveAspectRatio="xMidYMid meet">
<metadata>
Created by potrace 1.11, written by Peter Selinger 2001-2013
</metadata>
<g transform="translate(0.000000,16.000000) scale(0.006154,-0.006154)"
fill="#000000" stroke="none">
<path d="M0 1300 l0 -1300 1300 0 1300 0 0 1300 0 1300 -1300 0 -1300 0 0
-1300z m799 233 c63 -252 117 -462 121 -466 4 -4 62 202 130 458 l124 465 120
0 121 0 124 -470 c68 -258 126 -469 127 -467 2 2 56 213 120 470 l116 467 174
0 174 0 -5 -22 c-3 -13 -91 -320 -194 -683 l-188 -660 -175 -3 -175 -2 -108
377 c-59 208 -108 379 -110 381 -1 1 -51 -169 -111 -378 l-108 -380 -176 0
-175 0 -193 678 c-106 372 -192 680 -192 685 0 4 78 7 173 7 l172 0 114 -457z"/>
</g>
</svg>
