<?xml version="1.0" standalone="no"?>
<!DOCTYPE svg PUBLIC "-//W3C//DTD SVG 20010904//EN"
 "http://www.w3.org/TR/2001/REC-SVG-20010904/DTD/svg10.dtd">
<svg version="1.0" xmlns="http://www.w3.org/2000/svg"
 width="16.000000pt" height="16.000000pt" viewBox="0 0 16.000000 16.000000"
 preserveAspectRatio="xMidYMid meet">
<metadata>
Created by potrace 1.11, written by Peter Selinger 2001-2013
</metadata>
<g transform="translate(0.000000,16.000000) scale(0.006154,-0.006154)"
fill="#000000" stroke="none">
<path d="M0 2435 l0 -165 1300 0 1300 0 0 165 0 165 -1300 0 -1300 0 0 -165z"/>
<path d="M343 1968 c4 -13 91 -321 194 -685 l188 -663 175 0 175 0 104 368
c57 202 107 373 111 380 4 8 56 -158 115 -367 l109 -381 173 0 172 0 20 68
c11 37 97 337 191 666 93 330 172 608 176 618 5 17 -6 18 -168 18 l-173 0
-114 -457 c-63 -252 -117 -464 -121 -471 -4 -8 -25 56 -49 145 -23 87 -79 298
-124 468 l-83 310 -119 3 -120 3 -124 -470 c-69 -259 -127 -468 -131 -466 -3
2 -57 213 -120 469 l-115 466 -174 0 -173 0 5 -22z"/>
<path d="M0 165 l0 -165 1300 0 1300 0 0 165 0 165 -1300 0 -1300 0 0 -165z"/>
</g>
</svg>
