<?xml version="1.0" standalone="no"?>
<!DOCTYPE svg PUBLIC "-//W3C//DTD SVG 20010904//EN"
 "http://www.w3.org/TR/2001/REC-SVG-20010904/DTD/svg10.dtd">
<svg version="1.0" xmlns="http://www.w3.org/2000/svg"
 width="16.000000pt" height="16.000000pt" viewBox="0 0 16.000000 16.000000"
 preserveAspectRatio="xMidYMid meet">
<metadata>
Created by potrace 1.11, written by Peter Selinger 2001-2013
</metadata>
<g transform="translate(0.000000,16.000000) scale(0.006154,-0.006154)"
fill="#000000" stroke="none">
<path d="M150 2589 c0 -11 418 -2261 441 -2379 l12 -55 283 1165 c156 641 289
1191 297 1223 l15 57 -524 0 c-377 0 -524 -3 -524 -11z"/>
<path d="M1417 2543 c8 -32 141 -582 297 -1223 l283 -1165 12 55 c23 118 441
2368 441 2379 0 8 -147 11 -524 11 l-524 0 15 -57z"/>
<path d="M1 1293 l-1 -1293 250 0 c217 0 250 2 250 15 0 17 -488 2543 -495
2560 -2 6 -4 -572 -4 -1282z"/>
<path d="M2347 1298 c-136 -706 -247 -1286 -247 -1290 0 -5 113 -8 250 -8
l250 0 0 1290 c0 710 -1 1290 -3 1290 -2 0 -114 -577 -250 -1282z"/>
<path d="M1001 1242 c-162 -669 -296 -1223 -299 -1229 -3 -10 121 -13 598 -13
477 0 601 3 598 12 -3 7 -137 561 -299 1230 -162 670 -296 1218 -299 1218 -3
0 -137 -548 -299 -1218z"/>
</g>
</svg>
