<?xml version="1.0" standalone="no"?>
<!DOCTYPE svg PUBLIC "-//W3C//DTD SVG 20010904//EN"
 "http://www.w3.org/TR/2001/REC-SVG-20010904/DTD/svg10.dtd">
<svg version="1.0" xmlns="http://www.w3.org/2000/svg"
 width="16.000000pt" height="16.000000pt" viewBox="0 0 16.000000 16.000000"
 preserveAspectRatio="xMidYMid meet">
<metadata>
Created by potrace 1.11, written by Peter Selinger 2001-2013
</metadata>
<g transform="translate(0.000000,16.000000) scale(0.006154,-0.006154)"
fill="#000000" stroke="none">
<path d="M0 1300 l0 -1300 1300 0 1300 0 0 1300 0 1300 -1300 0 -1300 0 0
-1300z m799 233 c64 -254 119 -464 122 -467 3 -4 41 128 84 291 44 164 99 375
125 468 l45 170 119 0 120 0 123 -465 c68 -256 125 -469 126 -475 2 -5 57 204
123 465 l119 475 173 3 c134 2 172 0 172 -10 -1 -7 -88 -317 -194 -688 l-193
-675 -176 -3 c-161 -2 -176 -1 -181 15 -2 10 -51 180 -106 378 -56 198 -103
361 -105 363 -1 1 -51 -169 -111 -378 l-108 -380 -176 0 -176 0 -192 678
c-106 372 -192 683 -192 690 0 10 38 12 172 10 l172 -3 115 -462z"/>
</g>
</svg>
