<?xml version="1.0" encoding="utf-8"?>
<!-- Generator: Adobe Illustrator 19.1.0, SVG Export Plug-In . SVG Version: 6.00 Build 0)  -->
<svg version="1.1" id="Layer_1" xmlns="http://www.w3.org/2000/svg" xmlns:xlink="http://www.w3.org/1999/xlink" x="0px" y="0px"
	 viewBox="-90.1 113.2 77.5 35.2" style="enable-background:new -90.1 113.2 77.5 35.2;" xml:space="preserve">
<g>
	<path d="M-44.1,113.7v0.3c-1.8,3.1-3.4,6.3-4.9,9.4c-0.5,1.1-0.8,1.6-1.3,3.2l-7.1,21.8h-2.2c-2.4-7.8-4.8-15-7.1-21.6l-7.1,21.6
		H-76c-3.6-11.2-7.6-22.1-11.9-32.9c-0.3-0.9-0.8-1.5-1.6-1.5h-0.6v-0.3h14.2v0.3h-1.5c-1.1,0-1.5,0.9-1.1,2
		c2.3,7.5,4.9,14.9,7.8,22.3l3.4-11.1c0.3-1,0.2-1.8-0.2-3l-3.3-8.7c-0.3-0.9-0.8-1.5-1.6-1.5h-1.1v-0.3h14.3v0.3h-1.1
		c-1.1,0-1.5,0.9-1.1,2c2,7.4,4.4,14.7,7.1,22.3l3.8-11.9c0.4-1.1,0.2-2-0.1-3.1c-1-2.9-2.3-6-4.1-9.4v-0.2H-44.1z"/>
	<path d="M-14.2,131.1v0.2l-0.8,0.1c-1,0-1.1,0.8-1.1,1.9c-0.1,3.8-0.2,8.7,0,12.6c-3.1,1.6-8.3,2.6-13,2.6
		c-9.9,0-15.8-7.9-15.8-17.6c0-10,5.9-17.7,15.9-17.7c4.4,0,9.9,0.7,13.1,1.8c-0.4,3.6-0.8,7.4-1.6,11.5h-0.3
		c-1.2-2.5-2.5-5.5-3.9-7.4c-3.6-4.8-5.9-5.4-7.8-5.4c-5.1,0-6.6,9.6-6.6,16.9c0,12.4,3.6,17.6,7.3,17.6c1.9,0,3.6-1.9,4.6-4.4
		c0.2-3.5,0-7.2-0.1-10.4c0-1.1-0.6-1.8-1.8-1.9l-2.2-0.1v-0.2L-14.2,131.1L-14.2,131.1z"/>
</g>
</svg>
