<?xml version="1.0" standalone="no"?>
<!DOCTYPE svg PUBLIC "-//W3C//DTD SVG 1.1//EN" "http://www.w3.org/Graphics/SVG/1.1/DTD/svg11.dtd" >
<svg xmlns="http://www.w3.org/2000/svg">
<metadata></metadata>
<defs>
<font id="grey_sansthin" horiz-adv-x="1687" >
<font-face units-per-em="2048" ascent="1548" descent="-500" />
<missing-glyph horiz-adv-x="471" />
<glyph horiz-adv-x="2048" />
<glyph horiz-adv-x="2048" />
<glyph unicode="&#xd;" horiz-adv-x="2048" />
<glyph unicode=" "  horiz-adv-x="471" />
<glyph unicode="&#x09;" horiz-adv-x="471" />
<glyph unicode="&#xa0;" horiz-adv-x="471" />
<glyph unicode="!" horiz-adv-x="391" d="M121 0v86h78v-86h-78zM129 1516h49l-4 -1283h-39z" />
<glyph unicode="&#x22;" horiz-adv-x="491" d="M113 1516h59l-6 -377h-49zM283 1516h59l-6 -377h-49z" />
<glyph unicode="#" horiz-adv-x="1904" d="M123 430v51h356l178 541h-434v49h451l145 445h62l-146 -445h615l147 445h62l-148 -445h432v-49h-446l-178 -541h524v-51h-541l-141 -430h-62l142 430h-615l-143 -430h-61l143 430h-342zM541 481h616l178 541h-616z" />
<glyph unicode="$" horiz-adv-x="1396" d="M102 129l17 55q280 -126 545 -147v756q-174 37 -223 51q-207 63 -259 192q-20 49 -20 109q0 84 47 160q66 109 188.5 162.5t266.5 60.5v219h49v-219l4 2q192 0 526 -125l-12 -53q-323 121 -518 121v-642q4 -2 10 -2q59 -13 107 -26.5t107.5 -35t104.5 -45.5t90.5 -59 t75 -75.5t48 -94.5t18.5 -116q0 -127 -95.5 -223t-228.5 -138q-103 -32 -231 -32h-6v-201h-49v203q-134 7 -283.5 46t-278.5 97zM213 1143q0 -59 28.5 -106t63 -74t100 -51.5t103 -33.5t109.5 -24q32 -7 47 -10v629q-58 -4 -117.5 -17.5t-120.5 -40t-107.5 -63t-76 -91 t-29.5 -118.5zM713 35h16q140 0 265 52.5t188 160.5q37 63 37 129q0 56 -17.5 104.5t-45 84.5t-69.5 67.5t-84 52.5t-96 40t-97.5 30.5t-96.5 23.5v-745z" />
<glyph unicode="%" horiz-adv-x="2037" d="M139 1157q0 82 16.5 148.5t51.5 120.5t97 84t147 30t146.5 -30t96.5 -84t51.5 -120.5t16.5 -148.5q0 -83 -16 -149.5t-50.5 -120.5t-96.5 -83.5t-148 -29.5t-148 29.5t-97 83.5t-51 120.5t-16 149.5zM190 1157q0 -334 261 -334q260 0 260 334q0 71 -13 128t-41.5 105 t-80.5 74.5t-125 26.5t-125.5 -26.5t-81 -74.5t-41.5 -105t-13 -128zM543 0l850 1516h61l-850 -1516h-61zM1235 358q0 82 16.5 148.5t51.5 120.5t96.5 84t146.5 30t147 -30t97 -84t51.5 -120.5t16.5 -148.5q0 -83 -16 -149.5t-51 -120.5t-97 -83.5t-148 -29.5t-148 29.5 t-96.5 83.5t-50.5 120.5t-16 149.5zM1286 358q0 -333 260 -333t260 333q0 71 -13 128t-41.5 105t-80.5 74.5t-125 26.5t-125 -26.5t-80.5 -74.5t-41.5 -105t-13 -128z" />
<glyph unicode="&#x26;" horiz-adv-x="1431" d="M123 393q0 59 25.5 118t63.5 106t92.5 93t102.5 78t103 62q-71 86 -129.5 192.5t-58.5 186.5q0 125 75 206t199 81q137 0 231.5 -76.5t94.5 -210.5q0 -56 -34.5 -116.5t-90.5 -113t-107.5 -91.5t-105.5 -72l456 -686q199 164 199 493h49q0 -160 -53 -302t-164 -235 l98 -149l-41 -25l-96 146q-140 -98 -346 -98q-80 0 -157 13.5t-151.5 45.5t-130.5 78.5t-90 117.5t-34 158zM172 393q0 -77 31.5 -140.5t83 -104t119 -68t136.5 -39.5t140 -12q185 0 319 92l-460 690q-49 -27 -94.5 -56.5t-97.5 -72t-89.5 -86t-62.5 -97t-25 -106.5z M371 1229q0 -73 57.5 -173.5t124.5 -181.5q319 209 319 355q0 114 -80 175.5t-198 61.5q-102 0 -162.5 -66.5t-60.5 -170.5z" />
<glyph unicode="'" horiz-adv-x="350" d="M113 1516h59l-6 -377h-49z" />
<glyph unicode="(" horiz-adv-x="509" d="M102 592q0 405 168 717q50 90 78 121l39 -33q-36 -44 -82 -135q-153 -305 -153 -670q0 -363 153 -668q46 -91 82 -135l-39 -33q-28 31 -78 121q-168 312 -168 715z" />
<glyph unicode=")" horiz-adv-x="528" d="M61 -211q36 44 82 135q154 307 154 668q0 363 -154 670q-46 91 -82 135l39 33q28 -31 78 -121q168 -312 168 -717q0 -403 -168 -715q-50 -90 -78 -121z" />
<glyph unicode="*" horiz-adv-x="788" d="M102 1147v49l260 -6l-135 223l43 25l125 -230l123 230l43 -25l-135 -223l260 6v-49l-260 6l135 -221l-43 -25l-123 228l-125 -228l-43 25l135 221z" />
<glyph unicode="+" horiz-adv-x="1171" d="M123 659v48h428v417h47v-417h410v-48h-410v-419h-47v419h-428z" />
<glyph unicode="," horiz-adv-x="413" d="M137 0v102h94v-102l-43 -158h-41l33 158h-43z" />
<glyph unicode="-" horiz-adv-x="1038" d="M123 512v49h706v-49h-706z" />
<glyph unicode="." horiz-adv-x="413" d="M137 0v102h92v-102h-92z" />
<glyph unicode="/" horiz-adv-x="1132" d="M41 0l915 1516h62l-916 -1516h-61z" />
<glyph unicode="0" horiz-adv-x="1525" d="M123 758q0 129 18 238.5t61.5 209.5t111.5 169.5t173 111t240 41.5t240 -41.5t173 -111t111.5 -169.5t61.5 -209.5t18 -238.5q0 -130 -17.5 -239.5t-60.5 -210t-110.5 -170t-173 -111t-242.5 -41.5t-242.5 41.5t-173 111t-110.5 170t-60.5 210t-17.5 239.5zM174 758 q0 -120 15.5 -221.5t54 -196.5t100 -160.5t159 -105t224.5 -39.5q126 0 223.5 39.5t159 105.5t100.5 160.5t54.5 196t15.5 221.5q0 119 -16 220.5t-55.5 195.5t-101 160t-158.5 105.5t-222 39.5t-222 -39.5t-158.5 -105.5t-101 -160t-55.5 -195.5t-16 -220.5z" />
<glyph unicode="1" horiz-adv-x="833" d="M72 1200l497 316h49v-1516h-49v1456l-473 -297z" />
<glyph unicode="2" horiz-adv-x="1351" d="M123 49l723 733q113 116 157 176q80 110 80 197q0 66 -28.5 121.5t-74.5 92.5t-105.5 63t-120.5 37.5t-121 11.5q-156 0 -275 -67.5t-182 -203.5l-43 23q67 149 198 223t302 74q87 0 172 -22.5t160 -66t121.5 -117.5t46.5 -167q0 -44 -17.5 -92.5t-41 -88.5t-61.5 -86.5 t-65.5 -76t-66.5 -68.5l-688 -696h1034v-49h-1102v49h-2z" />
<glyph unicode="3" horiz-adv-x="1355" d="M123 324l47 14q18 -74 68.5 -134t118.5 -95.5t143.5 -54.5t150.5 -19q64 0 131 14.5t130.5 44.5t113.5 72.5t80.5 103.5t30.5 131q0 87 -46.5 158.5t-119.5 115.5t-156.5 67.5t-163.5 23.5h-239v49h241q57 0 116.5 13.5t115.5 41.5t100 67t71 93.5t27 116.5 q0 80 -44.5 146t-114.5 105t-147.5 60t-151.5 21q-156 0 -273 -67t-178 -204l-45 23q69 150 196.5 223.5t299.5 73.5q67 0 136.5 -15t136.5 -46.5t120 -75.5t85 -107.5t32 -136.5q0 -125 -92.5 -218t-223.5 -134q95 -25 176 -76.5t136 -135.5t55 -182q0 -78 -33 -146.5 t-87.5 -116.5t-124 -83t-144 -52t-146.5 -17q-112 0 -220 36t-195 115t-113 187z" />
<glyph unicode="4" horiz-adv-x="1404" d="M82 416v49l897 1051h49v-1051h221v-49h-221v-416h-49v416h-897zM147 465h832v973z" />
<glyph unicode="5" horiz-adv-x="1282" d="M123 266l43 27q61 -124 187 -195t270 -71q93 0 181.5 31t159 86t113.5 138t43 179q0 107 -39 192t-107.5 139t-158 82.5t-192.5 28.5q-107 0 -205.5 -40.5t-171.5 -114.5l-49 -3l57 760v2h856v-49h-809l-49 -639q75 65 172 99t199 34q153 0 275 -54.5t196.5 -167.5 t74.5 -269q0 -106 -47 -198t-124 -153.5t-175 -97t-200 -35.5q-157 0 -295 76.5t-205 212.5z" />
<glyph unicode="6" horiz-adv-x="1406" d="M123 754q0 129 18 238.5t61.5 209.5t111.5 169.5t173 111t240 41.5q260 0 414 -154l-37 -35q-140 140 -377 140q-125 0 -222.5 -39.5t-159 -105.5t-101.5 -160.5t-56 -196t-16 -219.5q0 -86 14 -205q21 127 102.5 221t195 140t241.5 46q114 0 212.5 -32t173.5 -92.5 t118 -154.5t43 -212q0 -85 -30.5 -161.5t-84 -134.5t-122.5 -100.5t-149 -64.5t-161 -22h-12q-134 0 -238 42.5t-169.5 113t-107.5 172t-58.5 209.5t-16.5 235zM227 465q0 -77 28 -146t76.5 -121t111.5 -90t135.5 -57.5t146.5 -19.5t146.5 19.5t135.5 57.5t111.5 90 t76.5 121t28 146q0 106 -39.5 191.5t-108 139.5t-158 82.5t-192.5 28.5q-96 0 -185.5 -31.5t-159 -87t-111.5 -140t-42 -183.5z" />
<glyph unicode="7" horiz-adv-x="1202" d="M72 1466v50h1018v-41l-719 -1475h-54l715 1466h-960z" />
<glyph unicode="8" horiz-adv-x="1361" d="M123 395q0 64 26.5 120.5t68 97t99.5 75.5t112 57t114 39q-70 17 -131 43.5t-118 67t-90.5 100t-33.5 131.5q0 78 28 144t75.5 112t110.5 78.5t132.5 48t142.5 15.5t143 -15.5t133.5 -48t111.5 -78.5t76 -112t28 -144q0 -72 -33.5 -132t-91 -100.5t-119 -66.5t-131.5 -43 q60 -17 114 -39t112 -57t99.5 -75.5t68 -97t26.5 -120.5q0 -83 -32 -152.5t-85 -117t-123 -80.5t-145 -48t-152 -15q-76 0 -151 15t-145 48.5t-123 80.5t-85 116.5t-32 152.5zM172 395q0 -74 29.5 -135.5t78.5 -102.5t113 -70t131 -41.5t135 -12.5q86 0 169.5 21.5t156 63 t117.5 113.5t45 164q0 55 -23.5 103.5t-59 83.5t-85.5 65t-96 49t-97 35q-20 7 -67 19t-60 12t-60 -12t-67 -19q-51 -16 -97 -35t-96 -49t-85.5 -65t-58.5 -83.5t-23 -103.5zM219 1128q0 -209 326 -297q87 -20 114 -20t115 20q48 13 90 29t87.5 42t77.5 56.5t52.5 74.5 t20.5 95q0 86 -39.5 154t-104 109t-141.5 62.5t-158 21.5t-157.5 -21.5t-140.5 -62.5t-103 -109t-39 -154z" />
<glyph unicode="9" horiz-adv-x="1462" d="M123 1067q0 140 80 252.5t203.5 171.5t261.5 59h12q112 0 203.5 -28.5t155 -82t109.5 -123.5t72 -158.5t38 -180.5t12 -197q0 -129 -18 -238.5t-61.5 -210t-111 -170.5t-172.5 -111.5t-241 -41.5q-260 0 -414 154l39 35q140 -140 375 -140q126 0 223.5 39.5t159 106 t101 161t55.5 196t16 220.5q0 101 -15 203q-21 -127 -102 -221t-194.5 -140.5t-241.5 -46.5q-153 0 -275 55.5t-196 168.5t-74 268zM172 1067q0 -106 39 -191t107 -139.5t157.5 -83t192.5 -28.5q96 0 185.5 31.5t159 87t111 140t41.5 183.5q0 96 -43 179t-113.5 138t-159 86 t-181.5 31t-181.5 -31t-158.5 -86t-113 -138t-43 -179z" />
<glyph unicode=":" horiz-adv-x="413" d="M137 0v102h92v-102h-92zM137 764v102h92v-102h-92z" />
<glyph unicode=";" horiz-adv-x="413" d="M137 0v102h94v-102l-43 -158h-41l33 158h-43zM137 764v102h92v-102h-92z" />
<glyph unicode="&#x3c;" horiz-adv-x="1191" d="M82 659v76l926 393l20 -45l-909 -385l909 -387l-20 -45z" />
<glyph unicode="=" horiz-adv-x="1058" d="M123 467v47h772v-47h-772zM123 850v47h772v-47h-772z" />
<glyph unicode="&#x3e;" horiz-adv-x="1191" d="M164 311l909 387l-909 385l20 45l926 -393v-76l-926 -393z" />
<glyph unicode="?" horiz-adv-x="1150" d="M92 1370q97 68 227 113t242 45q135 0 247.5 -63.5t172.5 -180.5q39 -76 39 -158q0 -69 -24.5 -123t-64 -86.5t-90.5 -61t-103.5 -48.5t-103.5 -48.5t-90.5 -60.5t-64 -85t-24.5 -121v-259h-49v283q0 75 31 132.5t81 93t110 65t120.5 57.5t110.5 60.5t81 83.5t31 118 q0 99 -59.5 182t-150.5 128t-188 45q-109 0 -234.5 -42.5t-215.5 -109.5zM393 0v86h78v-86h-78z" />
<glyph unicode="@" horiz-adv-x="1540" d="M164 725q0 170 85.5 315.5t231.5 230.5t316 85q264 0 417.5 -149.5t153.5 -413.5q0 -67 -9.5 -124.5t-32 -111t-58 -90.5t-91 -59.5t-126.5 -22.5q-63 0 -98 32t-29 93q-53 -32 -84 -48.5t-81 -34t-93 -17.5q-122 0 -185 73t-63 197q0 78 18.5 149.5t55.5 132t100 96.5 t145 36q124 0 246 -99l12 90h52l-72 -598q-4 -28 28 -41.5t64 -13.5q51 0 93.5 20t70.5 52.5t47.5 76t28 89t8.5 92.5q0 260 -130.5 401.5t-387.5 141.5q-157 0 -290.5 -78t-211.5 -211t-78 -289q0 -242 145.5 -380t387.5 -138q112 0 221 45l20 -45q-115 -47 -241 -47 q-267 0 -426.5 149t-159.5 414zM473 682q0 -102 49 -160.5t148 -58.5q18 0 36.5 2.5t40 9t36 11t40.5 16t35.5 15.5t38.5 18t33 16l47 377q-137 110 -236 110q-70 0 -123.5 -31t-84 -83.5t-45.5 -113.5t-15 -128z" />
<glyph unicode="A" horiz-adv-x="1568" d="M102 0l652 1516h73l650 -1516h-54l-186 434h-893l-186 -434h-56zM362 481h855l-426 996z" />
<glyph unicode="B" horiz-adv-x="1517" d="M195 0v1516h626q103 0 187 -23t149.5 -70.5t101 -127.5t35.5 -187q0 -125 -67.5 -211t-188.5 -125q155 -32 232.5 -133t77.5 -260q0 -94 -39.5 -168.5t-106 -119t-147.5 -68t-170 -23.5h-690zM244 49h641q63 0 121.5 12t111.5 38t92.5 64t62.5 93.5t23 122.5 q0 83 -22 146.5t-60.5 104t-95.5 66t-121 35.5t-143 10h-610v-692zM244 788h604q75 0 144.5 19.5t126.5 57.5t91.5 101t34.5 142q0 186 -115.5 273t-308.5 87h-577v-680z" />
<glyph unicode="C" horiz-adv-x="1513" d="M143 756q0 133 28 249.5t85.5 212.5t140.5 165t197 107t250 38q172 0 319 -67t242 -201l-45 -27q-89 122 -224.5 185t-291.5 63t-281 -56.5t-205 -155t-122.5 -230t-42.5 -283.5q0 -160 40 -291t118.5 -228t204 -150.5t288.5 -53.5q165 0 302 60.5t226 187.5l39 -29 q-92 -138 -240 -202t-327 -64q-175 0 -310 55.5t-220 158.5t-128 243t-43 313z" />
<glyph unicode="D" horiz-adv-x="1558" d="M195 0v1516h458q351 0 539 -201.5t188 -556.5t-188.5 -556.5t-538.5 -201.5h-458zM244 47h409q325 0 501.5 190t176.5 521t-176 521.5t-502 190.5h-409v-1423z" />
<glyph unicode="E" horiz-adv-x="1230" d="M195 0v1516h954v-50h-905v-665h803v-49h-803v-703h905v-49h-954z" />
<glyph unicode="F" horiz-adv-x="1230" d="M195 0v1516h954v-50h-905v-665h803v-49h-803v-752h-49z" />
<glyph unicode="G" horiz-adv-x="1552" d="M123 758q0 166 45 305.5t131 243.5t220 162.5t304 58.5q171 0 318 -67.5t243 -200.5l-45 -27q-89 121 -225 184.5t-291 63.5q-156 0 -281 -56t-205.5 -154.5t-123.5 -229.5t-43 -283q0 -161 40 -292t118.5 -228.5t204.5 -151t290 -53.5q171 0 316 102t231 262v355h-469 v47h518v-799h-47l-2 297q-95 -142 -239 -226.5t-308 -84.5q-177 0 -312 56.5t-219 160t-126.5 243.5t-42.5 312z" />
<glyph unicode="H" horiz-adv-x="1636" d="M195 0v1516h49v-715h1128v715h49v-1516h-49v752h-1128v-752h-49z" />
<glyph unicode="I" horiz-adv-x="458" d="M195 0v1516h49v-1516h-49z" />
<glyph unicode="J" horiz-adv-x="1099" d="M61 82l21 45q189 -88 313 -88q213 0 330 110.5t117 323.5v1043h49v-1043q0 -235 -130.5 -359t-365.5 -124q-119 0 -334 92z" />
<glyph unicode="K" horiz-adv-x="1511" d="M195 0v1516h49v-1035l1050 1035h70l-596 -586l637 -930h-59l-613 893l-489 -479v-414h-49z" />
<glyph unicode="L" horiz-adv-x="1187" d="M195 0v1516h49v-1467h905v-49h-954z" />
<glyph unicode="M" horiz-adv-x="1994" d="M195 0v1516h63l729 -1465l727 1465h66v-1516h-49v1442l-715 -1442h-60l-712 1442v-1442h-49z" />
<glyph unicode="N" d="M195 0v1516h65l1163 -1483l2 1483h48v-1516h-84l-1145 1456v-1456h-49z" />
<glyph unicode="O" d="M143 758q0 133 28.5 249t86 212t140.5 164.5t196.5 106.5t249.5 38q169 0 303 -58t220.5 -162t131.5 -244t45 -306q0 -174 -42.5 -314t-127 -243t-219.5 -159t-311 -56t-311 56t-219.5 159t-127.5 243t-43 314zM193 758q0 -161 39.5 -292.5t118 -228.5t204 -150.5 t289.5 -53.5t289.5 53.5t204 150.5t118 228.5t39.5 292.5q0 121 -26.5 229.5t-80.5 199t-131 156t-182.5 102t-230.5 36.5t-230.5 -36.5t-182.5 -102t-131 -156t-80.5 -199t-26.5 -229.5z" />
<glyph unicode="P" horiz-adv-x="1378" d="M195 0v1516h628q102 0 187 -26t149.5 -77t100.5 -132.5t36 -186.5q0 -123 -66.5 -215t-169.5 -136.5t-224 -44.5h-592v-698h-49zM244 745h592q103 0 195.5 40.5t154 122t61.5 186.5q0 95 -32 167.5t-89.5 117t-133.5 67t-169 22.5h-577l-2 2v-725z" />
<glyph unicode="Q" horiz-adv-x="1738" d="M143 758q0 133 28 249.5t85.5 212.5t140.5 165t197 107t250 38q169 0 303 -59t219.5 -163t130.5 -244t45 -306q0 -366 -180 -568l217 -219l-35 -34l-217 219q-179 -168 -483 -168q-176 0 -311 55.5t-220 158.5t-127.5 242.5t-42.5 313.5zM190 758q0 -161 40 -292 t119 -228t205 -150t290 -53q279 0 448 155l-411 414l34 35l412 -414q168 189 168 533q0 152 -42.5 283.5t-122.5 230t-205 155t-281 56.5t-281.5 -56t-206 -154.5t-123.5 -230t-43 -284.5z" />
<glyph unicode="R" horiz-adv-x="1488" d="M195 0v1516h628q102 0 187 -26t149.5 -77t100.5 -132.5t36 -186.5q0 -158 -101.5 -258.5t-262.5 -128.5l405 -707h-57l-399 698h-637v-698h-49zM244 745h592q99 0 192 40.5t156 122.5t63 186q0 95 -32 167.5t-89.5 117t-133.5 67t-169 22.5l-579 2v-725z" />
<glyph unicode="S" horiz-adv-x="1441" d="M143 129l17 53q145 -64 308.5 -105.5t303.5 -41.5q78 0 161 21t159 61t125 108.5t49 153.5q0 86 -36.5 152t-98 107t-141 71.5t-168 51.5t-176.5 41.5t-167.5 48t-141 63.5t-98 94.5t-36.5 136.5q0 80 35.5 146.5t93 110t131.5 73t148.5 42.5t146.5 13q199 0 528 -125 l-14 -51q-327 123 -506 123q-81 0 -165.5 -18t-165 -54.5t-132 -104t-51.5 -155.5q0 -69 36.5 -120t98 -82.5t141 -55.5t168 -44.5t176.5 -42.5t167.5 -56t141 -79.5t98 -118.5t36.5 -167q0 -79 -35.5 -146t-92.5 -111.5t-130.5 -76t-148 -45.5t-146.5 -14 q-144 0 -308.5 39.5t-310.5 103.5z" />
<glyph unicode="T" horiz-adv-x="1202" d="M123 1466v50h1079v-50h-516v-1466h-49v1466h-514z" />
<glyph unicode="U" horiz-adv-x="1597" d="M195 633v883h49v-883q0 -143 29.5 -250.5t93.5 -186t170.5 -119t255.5 -40.5t255.5 40.5t171 119t94 186t29.5 250.5v883h50v-883q0 -312 -147.5 -478.5t-452.5 -166.5t-451.5 166t-146.5 479z" />
<glyph unicode="V" horiz-adv-x="1564" d="M102 1516h54l628 -1477l627 1477h53l-643 -1516h-73z" />
<glyph unicode="W" horiz-adv-x="2295" d="M102 1516h52l452 -1461l498 1461h70l499 -1461l453 1461h51l-469 -1516h-68l-501 1464l-500 -1464h-68z" />
<glyph unicode="X" horiz-adv-x="1536" d="M102 0l611 766l-598 750h63l570 -715l577 715h64l-609 -756l606 -760h-61l-582 727l-577 -727h-64z" />
<glyph unicode="Y" horiz-adv-x="1550" d="M102 1516h60l606 -887l606 887h60l-641 -938v-578h-50v578z" />
<glyph unicode="Z" horiz-adv-x="1413" d="M164 0v43l1061 1423h-1051v50h1118v-41l-1063 -1426h1080v-49h-1145z" />
<glyph unicode="[" horiz-adv-x="684" d="M109 -346v2029h411v-49h-362v-1931h362v-49h-411z" />
<glyph unicode="\" horiz-adv-x="1183" d="M90 1516h62l915 -1516h-61z" />
<glyph unicode="]" horiz-adv-x="735" d="M109 -297h362v1931h-362v49h411v-2029h-411v49z" />
<glyph unicode="^" horiz-adv-x="1060" />
<glyph unicode="_" horiz-adv-x="1234" d="M123 -225h989v-49h-989v49z" />
<glyph unicode="`" horiz-adv-x="458" d="M123 1413l57 29l115 -244l-35 -16z" />
<glyph unicode="a" horiz-adv-x="1280" d="M123 543q0 91 14.5 171.5t48 153t84 125t127 83t172.5 30.5q210 0 443 -176v164h47v-1094h-41l-4 129q-88 -45 -140.5 -68.5t-136 -48t-151.5 -24.5q-120 0 -211 44t-145 121.5t-80.5 175.5t-26.5 214zM176 543q0 -84 12.5 -157t42.5 -138.5t75.5 -112t114.5 -73.5 t157 -27q66 0 152.5 27t140 52.5t141.5 71.5v686q-249 187 -428 187q-109 0 -190 -42t-127.5 -115.5t-68.5 -163t-22 -195.5z" />
<glyph unicode="b" horiz-adv-x="1282" d="M174 0v1516h47v-586q233 176 441 176q96 0 173 -31t127.5 -83t84.5 -125t48.5 -153.5t14.5 -170.5q0 -115 -26.5 -212.5t-80.5 -175.5t-145 -122.5t-211 -44.5q-53 0 -109 11.5t-116 35.5t-99.5 42.5t-103.5 51.5l-4 -129h-41zM221 184q68 -36 105 -54t100.5 -45 t119 -39.5t107.5 -12.5q89 0 159 28t115.5 75t75 113t42 138.5t12.5 155.5q0 105 -22 194t-68 163t-127.5 116.5t-190.5 42.5q-179 0 -428 -187v-688z" />
<glyph unicode="c" horiz-adv-x="1181" d="M123 545q0 252 142.5 405.5t391.5 153.5q145 0 266 -60.5t191 -179.5l-47 -22q-62 106 -171 160.5t-239 54.5q-226 0 -354.5 -141.5t-128.5 -370.5q0 -224 130.5 -367t352.5 -143q123 0 227.5 49.5t168.5 146.5l47 -22q-73 -110 -190 -166.5t-253 -56.5 q-245 0 -389.5 156t-144.5 403z" />
<glyph unicode="d" horiz-adv-x="1271" d="M123 543q0 91 14.5 171.5t48 153t84 125t127 83t172.5 30.5q210 0 443 -176v586h47v-1516h-43l-2 129q-88 -45 -140.5 -68.5t-136 -48t-151.5 -24.5q-120 0 -211 44t-145 121.5t-80.5 175.5t-26.5 214zM176 543q0 -106 21 -194.5t66.5 -161t125.5 -113.5t189 -41 q66 0 152.5 27t140 52.5t141.5 71.5v688q-249 187 -428 187q-109 0 -190 -42t-127.5 -115.5t-68.5 -163t-22 -195.5z" />
<glyph unicode="e" horiz-adv-x="1269" d="M123 545q0 252 142.5 405.5t391.5 153.5q457 0 457 -576h-938q5 -215 131.5 -355t337.5 -140q128 0 418 84l8 -51q-273 -80 -430 -80q-159 0 -278 75t-179.5 200.5t-60.5 283.5zM176 575h887q-11 482 -406 482q-217 0 -345 -132t-136 -350z" />
<glyph unicode="f" horiz-adv-x="747" d="M72 1047v47h161v125q0 148 82 226.5t230 78.5q39 0 98 -19l-10 -45q-62 17 -88 17q-127 0 -195.5 -63.5t-68.5 -190.5v-129h299v-47h-299v-1047h-48v1047h-161z" />
<glyph unicode="g" horiz-adv-x="1277" d="M123 543q0 90 14.5 170t48 153t83.5 125.5t127 83.5t173 31q210 0 443 -176l2 164h45v-1145q0 -179 -100.5 -275t-280.5 -96q-38 0 -81.5 4.5t-76.5 10t-84.5 17.5t-76.5 18.5t-83 22.5t-75 21l12 45q18 -5 86.5 -23.5t100 -26.5t87 -20t101.5 -17t90 -5q160 0 247 82.5 t87 241.5v213q-168 -82 -238 -106q-109 -38 -205 -38q-95 0 -170.5 26.5t-126.5 73t-85 113.5t-49 144t-15 168zM176 543q0 -78 12 -146t41 -129.5t72.5 -105.5t110.5 -70t151 -26q41 0 83.5 7.5t73.5 15.5t77.5 27.5t68.5 30t75 37l71 35.5v653q-249 187 -428 187 q-109 0 -190.5 -42.5t-127.5 -116.5t-68 -163t-22 -194z" />
<glyph unicode="h" horiz-adv-x="1206" d="M174 0v1513h47v-620q121 86 253.5 149.5t238.5 63.5q146 0 242 -94t96 -240v-772h-47v770q0 134 -87 210.5t-223 76.5q-153 0 -473 -219v-838h-47z" />
<glyph unicode="i" horiz-adv-x="448" d="M168 1348v84h78v-84h-78zM182 0v1094h47v-1094h-47z" />
<glyph unicode="j" horiz-adv-x="692" d="M41 -293l10 45q62 -10 111 -10q128 0 196 64.5t68 193.5v1094h47v-1094q0 -148 -81.5 -226.5t-229.5 -78.5q-43 0 -121 12zM410 1348v84h77v-84h-77z" />
<glyph unicode="k" horiz-adv-x="1165" d="M174 0v1513h47v-1101l672 682h65l-385 -392l449 -702h-55l-426 668l-320 -324v-344h-47z" />
<glyph unicode="l" horiz-adv-x="434" d="M174 0v1513h47v-1513h-47z" />
<glyph unicode="m" horiz-adv-x="1959" d="M174 0v1094h43l2 -172q256 184 432 184q104 0 190.5 -53.5t123.5 -147.5q107 83 227 142t223 59q146 0 242 -94t96 -240v-772h-47v770q0 134 -86.5 210.5t-222.5 76.5q-87 0 -203.5 -61t-214.5 -136q10 -48 10 -88v-772h-47v770q0 134 -86.5 210.5t-222.5 76.5 q-86 0 -199 -58t-213 -133v-866h-47z" />
<glyph unicode="n" horiz-adv-x="1257" d="M174 0v1094h43l4 -201q121 86 253.5 149.5t238.5 63.5q146 0 242 -94t96 -240v-772h-47v770q0 134 -87 210.5t-223 76.5q-153 0 -473 -219v-838h-47z" />
<glyph unicode="o" horiz-adv-x="1314" d="M123 547q0 252 142.5 405.5t391.5 153.5q250 0 392.5 -153.5t142.5 -405.5q0 -247 -145 -403t-390 -156t-389.5 156t-144.5 403zM174 547q0 -147 57 -262.5t167.5 -182.5t258.5 -67t259 67t168 182.5t57 262.5q0 229 -129 370.5t-355 141.5t-354.5 -141.5t-128.5 -370.5z " />
<glyph unicode="p" horiz-adv-x="1288" d="M174 -492v1586h43l2 -164q227 178 440 178q96 0 173 -30.5t128 -82.5t85 -124.5t48.5 -153.5t14.5 -172q0 -93 -16 -174t-51.5 -152t-88.5 -122t-131.5 -80t-175.5 -29q-96 0 -199.5 38.5t-224.5 102.5v-621h-47zM221 186q12 -6 55.5 -27.5t62.5 -30.5t59 -27t66.5 -27 t61.5 -19.5t67 -15t62 -4.5q109 0 189 41t125.5 113.5t66.5 161t21 194.5q0 84 -13.5 157.5t-44.5 140.5t-77.5 114.5t-116.5 75.5t-158 28q-185 0 -426 -189v-686z" />
<glyph unicode="q" horiz-adv-x="1286" d="M123 545q0 91 14.5 172t48.5 153.5t84.5 124.5t127.5 82.5t173 30.5q210 0 441 -178v164h45v-1538l321 184v-47l-321 -185h-47v621q-85 -44 -138.5 -68.5t-136 -48.5t-149.5 -24q-97 0 -175.5 29t-131.5 80t-88.5 122t-51.5 152t-16 174zM174 545q0 -107 20.5 -194.5 t65.5 -160.5t125 -114t190 -41q52 0 106.5 12t122.5 41t99 44t107 54v686q-241 189 -428 189q-109 0 -190 -42t-127.5 -115.5t-68.5 -163t-22 -195.5z" />
<glyph unicode="r" horiz-adv-x="872" d="M164 0v1094h43l4 -197q265 211 442 211q17 0 84 -10l-8 -51q-52 10 -94 10q-147 0 -424 -217v-840h-47z" />
<glyph unicode="s" horiz-adv-x="1130" d="M123 86l12 51q104 -41 224 -69.5t214 -28.5q58 0 116.5 13t113 39t89 74t34.5 111t-26 110.5t-69.5 76.5t-100 50.5t-119 36.5t-125 29.5t-119 34t-100 46t-69.5 70t-26 101.5q0 73 36.5 129.5t96 88.5t125 47.5t133.5 15.5q155 0 383 -88l-12 -49q-228 86 -365 86 q-61 0 -117 -11t-109.5 -35.5t-85.5 -71.5t-32 -112q0 -61 41.5 -102.5t108 -64t147 -40.5t161 -41.5t147 -57.5t108 -97.5t41.5 -153.5q0 -61 -26.5 -111.5t-68.5 -83t-97.5 -54.5t-111 -31.5t-110.5 -9.5q-171 0 -442 102z" />
<glyph unicode="t" horiz-adv-x="768" d="M72 1049v45h188v333h47v-333h287v-45h-287v-895q0 -32 18 -54.5t47.5 -33t58 -15t58.5 -4.5q64 0 97 4v-45q-50 -6 -97 -6q-44 0 -80.5 6.5t-72 22.5t-56 48.5t-20.5 78.5v893h-188z" />
<glyph unicode="u" horiz-adv-x="1275" d="M174 322v772h47v-770q0 -135 86 -212t223 -77q93 0 230.5 70.5t243.5 150.5v838h47v-1094h-45l-2 201q-105 -82 -245 -147.5t-247 -65.5q-146 0 -242 94t-96 240z" />
<glyph unicode="v" horiz-adv-x="1103" d="M82 1094h51l397 -1053l398 1053h49l-412 -1094h-69z" />
<glyph unicode="w" horiz-adv-x="1581" d="M82 1094h49l309 -1031l295 1031h58l294 -1031l308 1031h49l-326 -1094h-61l-293 1016l-293 -1016h-61z" />
<glyph unicode="x" horiz-adv-x="1138" d="M82 0l403 549l-401 545h57l375 -510l375 510h57l-403 -549l401 -545h-59l-373 508l-375 -508h-57z" />
<glyph unicode="y" horiz-adv-x="1189" d="M82 1094h53l459 -938l373 938h49l-629 -1583h-51l233 585z" />
<glyph unicode="z" horiz-adv-x="1200" d="M154 0v39l823 1008h-797v47h860v-45l-819 -1002h826v-47h-893z" />
<glyph unicode="{" horiz-adv-x="894" d="M82 528v50q54 1 97.5 9.5t75.5 23.5t57 35.5t40.5 46.5t27 57t16 65t8 71.5t3 77t-0.5 80.5v52q0 327 428 327v-28q-33 0 -63.5 -2t-71.5 -9.5t-75.5 -19.5t-69.5 -35t-59 -53t-39.5 -76t-15.5 -102v-54q0 -42 0.5 -82.5t-2.5 -79.5t-8 -75.5t-16.5 -69t-27 -60.5 t-40.5 -51t-56.5 -39.5t-75.5 -25.5t-97 -10q60 -1 108 -12.5t81 -31t58 -47t38.5 -60.5t23 -71.5t11.5 -80.5t3.5 -86.5t-0.5 -89.5v-58q0 -56 14 -102t36 -76t55 -53t66 -35t75 -19.5t75 -9.5t73 -2v-32q-65 0 -121.5 7.5t-114.5 29.5t-99 57t-67 94.5t-26 138.5v57 q2 44 0.5 87.5t-4 84t-11.5 77t-23 68t-38.5 57.5t-58 44.5t-81.5 29t-108 11.5z" />
<glyph unicode="|" horiz-adv-x="333" d="M123 -344v2030h47v-2030h-47z" />
<glyph unicode="}" horiz-adv-x="894" d="M82 -283q40 0 73 2t74.5 9.5t74.5 19.5t66.5 35t55 53.5t35.5 76t14 101.5v57q-2 45 -0.5 89.5t4 86.5t11.5 80.5t23 72t38.5 61t58 47t81.5 31t108 12.5q-54 1 -97.5 10.5t-75.5 25.5t-57 39t-40.5 51t-27 61t-16 69.5t-8 75.5t-3 80t0.5 83v52q0 56 -15.5 102t-39.5 76 t-59 53t-69 35t-75 19.5t-71.5 9.5t-63.5 2v28q428 0 428 -327v-52q0 -41 -0.5 -80.5t3 -77t8 -71.5t16 -65t27 -57t40.5 -46.5t57 -35.5t75.5 -23.5t97.5 -9.5v-50q-60 -1 -108 -11.5t-81.5 -29t-58 -44.5t-38.5 -57.5t-23 -68t-11.5 -77t-4 -84t0.5 -87.5v-57 q0 -79 -26 -138.5t-67 -94.5t-99 -57t-114.5 -29.5t-121.5 -7.5v32z" />
<glyph unicode="~" horiz-adv-x="907" d="M123 428q14 33 28 58t35 53t49 43.5t60 15.5q47 0 87.5 -21t64 -45.5t55 -45.5t63.5 -21q49 0 85.5 42.5t54.5 96.5l38 -18q-70 -168 -170 -168q-40 0 -73.5 13.5t-56.5 33t-44.5 38.5t-46 32.5t-51.5 13.5q-48 0 -84.5 -42t-54.5 -95z" />
<glyph unicode="&#xa1;" horiz-adv-x="391" d="M121 1430v86h78v-86h-78zM141 0l4 1282h39l6 -1282h-49z" />
<glyph unicode="&#xa2;" horiz-adv-x="1409" d="M233 551q0 252 142 405.5t391 153.5q49 0 74 -4l30 176l50 -8l-31 -174q111 -22 198 -82t140 -156l-49 -14q-96 162 -297 205l-179 -1010q40 -4 64 -4q123 0 227 50.5t170 148.5l51 -17q-73 -114 -190.5 -171.5t-257.5 -57.5q-22 0 -72 4l-30 -174l-50 8l31 174 q-198 40 -305 189.5t-107 357.5zM285 551q0 -189 95 -325.5t273 -174.5l178 1008q-46 4 -65 4q-226 0 -353.5 -141.5t-127.5 -370.5z" />
<glyph unicode="&#xa3;" horiz-adv-x="1310" d="M90 0v49h135v684h-135v49h135v181q0 247 145 403t390 156q105 0 411 -80l-8 -53q-12 3 -53.5 15t-59.5 17t-56 15.5t-62 15t-56.5 10.5t-61 8.5t-54.5 2.5q-217 0 -353.5 -146t-136.5 -364v-181h484v-49h-484v-684h785v-49h-965z" />
<glyph unicode="&#xa4;" horiz-adv-x="1316" d="M184 88l160 158q-115 139 -115 297q0 163 115 299l-158 157l31 31l158 -156q134 111 297 111t297 -111l159 156l31 -31l-158 -157q113 -133 113 -299q0 -164 -113 -297l160 -158l-33 -33l-159 158q-140 -113 -297 -113q-158 0 -297 115l-158 -160zM281 543 q0 -163 114 -277t277 -114t277 114t114 277t-114 277t-277 114t-277 -114t-114 -277z" />
<glyph unicode="&#xa5;" horiz-adv-x="1507" d="M53 1516h60l606 -885l606 885h61l-643 -936h529v-50h-529v-86h529v-49h-529v-395h-49v395h-528v49h528v86h-528v50h528z" />
<glyph unicode="&#xa6;" horiz-adv-x="333" d="M123 -344v885h53v-885h-53zM123 801v885h53v-885h-53z" />
<glyph unicode="&#xa7;" horiz-adv-x="1114" d="M147 -215l13 57q255 -112 438 -112q50 0 99 10t95.5 31.5t81.5 52t56.5 76.5t21.5 100q0 90 -41.5 152t-108 94.5t-147.5 55.5t-161.5 44.5t-147 51.5t-108 87t-41.5 140q0 130 93.5 213.5t227.5 97.5q-53 12 -93.5 25t-85.5 36.5t-74 52t-48.5 73t-19.5 98.5 q0 62 22.5 114.5t60.5 88.5t88.5 61.5t106 37t113.5 11.5q148 0 385 -98l-15 -54q-237 97 -364 97q-65 0 -124 -14t-110 -43t-81.5 -81.5t-30.5 -121.5q0 -54 26 -94t70 -64.5t100.5 -43.5t119.5 -35.5t126 -34.5t119.5 -46.5t100.5 -67t70 -99.5t26 -140q0 -219 -256 -262 q256 -97 256 -334q0 -80 -37 -144.5t-97.5 -103.5t-133 -59.5t-148.5 -20.5q-176 0 -443 115zM248 625q0 -54 29.5 -98t75 -71t103 -45t110 -25t100.5 -7q53 0 101.5 12t91 36t68 67t25.5 100q0 75 -30 132t-81.5 90.5t-113.5 50t-133 16.5q-51 0 -98.5 -8.5t-93 -28 t-79.5 -48.5t-54.5 -73.5t-20.5 -99.5z" />
<glyph unicode="&#xa8;" horiz-adv-x="616" d="M129 1264v86h78v-86h-78zM354 1264v86h78v-86h-78z" />
<glyph unicode="&#xa9;" horiz-adv-x="1226" d="M123 758q0 131 63.5 242t172 176t235.5 65q193 0 331 -142.5t138 -340.5q0 -131 -63 -242t-171 -175.5t-235 -64.5q-128 0 -236.5 64t-171.5 175t-63 243zM170 758q0 -180 124.5 -307t299.5 -127t298.5 127t123.5 307q0 178 -124.5 306t-297.5 128q-174 0 -299 -127.5 t-125 -306.5zM305 756q0 145 76 238t217 93q151 0 244 -129l-41 -22q-74 104 -203 104q-118 0 -183 -79t-65 -205q0 -130 63 -206.5t185 -76.5q139 0 207 107l37 -29q-82 -123 -244 -123q-145 0 -219 89t-74 239z" />
<glyph unicode="&#xaa;" horiz-adv-x="964" d="M115 1151q0 80 16.5 147t51.5 123t96.5 87.5t144.5 31.5q147 0 297 -115v107h39v-756h-33l-4 86q-57 -29 -93.5 -45.5t-91.5 -32.5t-102 -16q-162 0 -241.5 107t-79.5 276zM160 1151q0 -71 14 -130t43.5 -108.5t83.5 -77.5t127 -28q24 0 52 5.5t47 10.5t53.5 19.5t46 20 t51 25t43.5 21.5v465q-165 125 -289 125q-73 0 -127.5 -28.5t-85 -78.5t-45 -110t-14.5 -131z" />
<glyph unicode="&#xab;" horiz-adv-x="833" d="M82 758l354 534h62l-355 -534l355 -537h-62zM254 758l354 534h62l-355 -534l355 -537h-62z" />
<glyph unicode="&#xad;" horiz-adv-x="1038" d="M123 512v49h706v-49h-706z" />
<glyph unicode="&#xae;" horiz-adv-x="1226" d="M123 756q0 130 62.5 241.5t171.5 177.5t237 66t236.5 -66.5t170.5 -178t62 -240.5t-62 -240t-170.5 -176.5t-236.5 -65.5t-237 65.5t-171.5 176.5t-62.5 240zM170 756q0 -178 124 -305t300 -127q174 0 298 127.5t124 304.5q0 178 -123 307t-299 129t-300 -128.5 t-124 -307.5zM373 440v645h264q91 0 147 -48.5t56 -139.5q0 -64 -39 -108t-101 -60l164 -289h-53l-160 283h-231v-283h-47zM420 768h221q60 -2 106 34.5t46 94.5q0 71 -41.5 105t-114.5 36h-217v-270z" />
<glyph unicode="&#xaf;" horiz-adv-x="1038" d="M123 1464v49h706v-49h-706z" />
<glyph unicode="&#xb0;" horiz-adv-x="708" d="M123 1309q0 88 61.5 149.5t149.5 61.5t149.5 -61.5t61.5 -149.5t-61.5 -149.5t-149.5 -61.5t-149.5 61.5t-61.5 149.5zM186 1309q0 -61 43 -104.5t105 -43.5q61 0 104 43t43 105q0 61 -42.5 104t-104.5 43t-105 -43t-43 -104z" />
<glyph unicode="&#xb1;" horiz-adv-x="1171" d="M123 174v47h885v-47h-885zM123 782v47h428v418h47v-418h410v-47h-410v-420h-47v420h-428z" />
<glyph unicode="&#xb2;" horiz-adv-x="733" d="M74 786v37l358 361q72 72 94 110q19 33 19 60q0 49 -35.5 83t-80 47t-91.5 13q-157 0 -219 -135l-45 24q74 160 264 160q61 0 118 -19t99.5 -63.5t42.5 -107.5q0 -36 -24.5 -79t-46 -67t-58.5 -61l-317 -313h491v-50h-569z" />
<glyph unicode="&#xb3;" horiz-adv-x="692" d="M55 963l49 14q18 -72 83.5 -110t144.5 -38q50 0 99.5 16.5t87.5 55t38 90.5q0 76 -72.5 120t-152.5 44h-131v49h131q71 0 135.5 40t64.5 106q0 68 -69 107.5t-144 39.5q-155 0 -217 -135l-45 22q74 162 262 162q60 0 119 -20.5t102.5 -67t43.5 -108.5q0 -57 -36.5 -100.5 t-92.5 -67.5q66 -25 109.5 -75.5t43.5 -115.5q0 -66 -44.5 -115.5t-106 -72.5t-125.5 -23q-95 0 -175 48t-102 135z" />
<glyph unicode="&#xb4;" horiz-adv-x="458" d="M123 1198l115 244l57 -29l-137 -231z" />
<glyph unicode="&#xb5;" horiz-adv-x="1232" d="M158 -397v1491h47v-770q0 -135 86 -212t223 -77q93 0 226 69t247 152v838h47v-1094h-43l-4 199q-120 -85 -252.5 -148t-238.5 -63q-90 0 -168 40t-123 113v-538h-47z" />
<glyph unicode="&#xb6;" horiz-adv-x="1034" d="M195 1094q0 106 36 188t101 132.5t149.5 76t186.5 25.5h219v-1516h-49v698h-183q-121 0 -224 44t-169.5 136t-66.5 216z" />
<glyph unicode="&#xb7;" horiz-adv-x="397" d="M145 492v86h78v-86h-78z" />
<glyph unicode="&#xb8;" horiz-adv-x="655" d="M123 -350l24 47q75 -21 134 -21q21 0 43.5 2.5t50.5 9.5t45.5 22.5t17.5 37.5q0 74 -145 74q-47 0 -94 -6l-33 34l108 150h66l-102 -133q44 6 84 6q170 0 170 -125q0 -36 -19 -62t-51 -38.5t-63.5 -17.5t-65.5 -5q-72 0 -170 25z" />
<glyph unicode="&#xb9;" horiz-adv-x="524" d="M76 1380l260 160h41v-754h-51v689l-226 -138z" />
<glyph unicode="&#xba;" horiz-adv-x="878" d="M139 1157q0 82 16.5 148.5t51.5 120.5t97 84t147 30t146.5 -30t96.5 -84t51.5 -120.5t16.5 -148.5q0 -83 -16 -149.5t-50.5 -120.5t-96.5 -83.5t-148 -29.5t-148 29.5t-97 83.5t-51 120.5t-16 149.5zM190 1157q0 -334 261 -334q260 0 260 334q0 71 -13 128t-41.5 105 t-80.5 74.5t-125 26.5t-125.5 -26.5t-81 -74.5t-41.5 -105t-13 -128z" />
<glyph unicode="&#xbb;" horiz-adv-x="833" d="M164 221l354 537l-354 534h61l355 -534l-355 -537h-61zM336 221l354 537l-354 534h61l355 -534l-355 -537h-61z" />
<glyph unicode="&#xbc;" horiz-adv-x="2037" d="M219 1380l260 160h41v-754h-51v689l-225 -138zM543 0l850 1516h61l-850 -1516h-61zM1257 201v41l451 512h43v-504h109v-49h-109v-201h-51v201h-443zM1333 250h367v418z" />
<glyph unicode="&#xbd;" horiz-adv-x="2037" d="M219 1380l260 160h41v-754h-51v689l-225 -138zM543 0l850 1516h61l-850 -1516h-61zM1278 0v37l358 360q72 72 94 110q19 33 19 60q0 49 -35.5 83t-80.5 47.5t-91 13.5q-157 0 -219 -133l-45 22q74 160 264 160q61 0 118 -19t99.5 -64t42.5 -108q0 -36 -24.5 -79t-46 -67 t-58.5 -61l-317 -313h491v-49h-569z" />
<glyph unicode="&#xbe;" horiz-adv-x="2037" d="M188 963l50 14q18 -72 83 -110t144 -38q50 0 99.5 16.5t87.5 55t38 90.5q0 76 -72.5 120t-152.5 44h-131v49h131q71 0 136 40t65 106q0 68 -69 107.5t-144 39.5q-155 0 -217 -135l-46 22q74 162 263 162q60 0 118.5 -20.5t102 -67t43.5 -108.5q0 -57 -36.5 -100.5 t-92.5 -67.5q66 -25 109.5 -75.5t43.5 -115.5q0 -66 -44.5 -115.5t-106 -72.5t-125.5 -23q-95 0 -175 48t-102 135zM543 0l850 1516h61l-850 -1516h-61zM1257 201v41l451 512h43v-504h109v-49h-109v-201h-51v201h-443zM1333 250h367v418z" />
<glyph unicode="&#xbf;" horiz-adv-x="1150" d="M92 401q0 69 24.5 123t64 86.5t90.5 61.5t103.5 49t103.5 48.5t90.5 60.5t64 85t24.5 121v258h50v-282q0 -66 -24.5 -119t-64 -86.5t-90.5 -63.5t-104 -51t-104 -49.5t-90.5 -58t-64 -77t-24.5 -106.5q0 -99 59.5 -181.5t150.5 -127.5t188 -45q109 0 234.5 42.5 t215.5 109.5l31 -41q-97 -68 -227 -113t-242 -45q-135 0 -247.5 63.5t-172.5 180.5q-39 76 -39 157zM641 1442v86h78v-86h-78z" />
<glyph unicode="&#xc0;" horiz-adv-x="1568" d="M102 0l652 1516h73l650 -1516h-54l-186 434h-893l-186 -434h-56zM362 481h855l-426 996zM635 1812l57 29l115 -244l-35 -16z" />
<glyph unicode="&#xc1;" horiz-adv-x="1568" d="M102 0l652 1516h73l650 -1516h-54l-186 434h-893l-186 -434h-56zM362 481h855l-426 996zM774 1597l115 244l57 -29l-137 -231z" />
<glyph unicode="&#xc2;" horiz-adv-x="1568" d="M102 0l652 1516h73l650 -1516h-54l-186 434h-893l-186 -434h-56zM362 481h855l-426 996zM596 1620l186 195h23l186 -195l-26 -27l-170 156l-172 -156z" />
<glyph unicode="&#xc3;" horiz-adv-x="1568" d="M102 0l652 1516h73l650 -1516h-54l-186 434h-893l-186 -434h-56zM362 481h855l-426 996zM479 1624q14 33 28 58t35 53t49 43.5t60 15.5q47 0 87.5 -21t64.5 -45.5t55.5 -45.5t63.5 -21q49 0 85 42t54 97l39 -18q-70 -168 -170 -168q-48 0 -89 20.5t-64.5 45t-55.5 45 t-64 20.5q-48 0 -84.5 -42t-54.5 -95z" />
<glyph unicode="&#xc4;" horiz-adv-x="1568" d="M102 0l652 1516h73l650 -1516h-54l-186 434h-893l-186 -434h-56zM362 481h855l-426 996zM641 1665v86h78v-86h-78zM866 1665v86h78v-86h-78z" />
<glyph unicode="&#xc5;" horiz-adv-x="1568" d="M102 0l652 1516h73l650 -1516h-54l-186 434h-893l-186 -434h-56zM362 481h855l-426 996zM707 1706q0 35 24.5 59.5t59.5 24.5t59 -24.5t24 -59.5t-24.5 -58.5t-58.5 -23.5t-59 23.5t-25 58.5zM754 1706q0 -15 11.5 -26t25.5 -11t25 11t11 26t-10.5 26t-25.5 11t-26 -11 t-11 -26z" />
<glyph unicode="&#xc6;" horiz-adv-x="2375" d="M121 0l1012 1516h974v-48h-905v-669h803v-45h-803v-707h905v-47h-954v434h-688l-291 -434h-53zM496 481h657v985z" />
<glyph unicode="&#xc7;" horiz-adv-x="1513" d="M143 756q0 133 28 249.5t85.5 212.5t140.5 165t197 107t250 38q172 0 319 -67t242 -201l-45 -27q-89 122 -224.5 185t-291.5 63t-281 -56.5t-205 -155t-122.5 -230t-42.5 -283.5q0 -160 40 -291t118.5 -228t204 -150.5t288.5 -53.5q165 0 302 60.5t226 187.5l39 -29 q-92 -138 -240 -202t-327 -64h-8l-93 -119q43 6 84 6q170 0 170 -125q0 -36 -19 -62t-50.5 -38.5t-63 -17.5t-65.5 -5q-72 0 -170 25l24 47q75 -21 133 -21q30 0 61.5 4t64 21.5t32.5 46.5q0 74 -145 74q-47 0 -94 -6l-33 34l100 138q-312 23 -470.5 228t-158.5 540z" />
<glyph unicode="&#xc8;" horiz-adv-x="1230" d="M195 0v1516h954v-50h-905v-665h803v-49h-803v-703h905v-49h-954zM588 1812l57 29l115 -244l-35 -16z" />
<glyph unicode="&#xc9;" horiz-adv-x="1230" d="M195 0v1516h954v-50h-905v-665h803v-49h-803v-703h905v-49h-954zM614 1597l115 244l57 -29l-137 -231z" />
<glyph unicode="&#xca;" horiz-adv-x="1230" d="M195 0v1516h954v-50h-905v-665h803v-49h-803v-703h905v-49h-954zM481 1620l187 195h22l187 -195l-27 -27l-170 156l-172 -156z" />
<glyph unicode="&#xcb;" horiz-adv-x="1230" d="M195 0v1516h954v-50h-905v-665h803v-49h-803v-703h905v-49h-954zM580 1665v86h77v-86h-77zM805 1665v86h78v-86h-78z" />
<glyph unicode="&#xcc;" horiz-adv-x="335" d="M-8 1812l57 29l115 -244l-35 -16zM123 0v1516h49v-1516h-49z" />
<glyph unicode="&#xcd;" horiz-adv-x="335" d="M123 0v1516h49v-1516h-49zM129 1597l115 244l57 -29l-137 -231z" />
<glyph unicode="&#xce;" horiz-adv-x="335" d="M-51 1620l186 195h23l186 -195l-27 -27l-170 156l-172 -156zM123 0v1516h49v-1516h-49z" />
<glyph unicode="&#xcf;" horiz-adv-x="335" d="M-10 1665v86h78v-86h-78zM123 0v1516h49v-1516h-49zM215 1665v86h78v-86h-78z" />
<glyph unicode="&#xd0;" horiz-adv-x="1949" d="M305 733v49h221v734h461q350 0 537.5 -202t187.5 -556t-187.5 -556t-537.5 -202h-461v733h-221zM575 47h412q327 0 503.5 190t176.5 521q0 330 -177 520t-503 190h-412v-686h418v-49h-418v-686z" />
<glyph unicode="&#xd1;" horiz-adv-x="1667" d="M195 0v1516h65l1163 -1483l2 1483h48v-1516h-84l-1145 1456v-1456h-49zM526 1624q14 33 28 58t35 53t49 43.5t60 15.5q47 0 87.5 -21t64.5 -45.5t55.5 -45.5t63.5 -21q49 0 85 42t54 97l39 -18q-70 -168 -170 -168q-40 0 -73.5 13.5t-56.5 33t-44.5 38.5t-46 32.5 t-51.5 13.5q-48 0 -85 -42t-55 -95z" />
<glyph unicode="&#xd2;" d="M143 758q0 133 28.5 249t86 212t140.5 164.5t196.5 106.5t249.5 38q169 0 303 -58t220.5 -162t131.5 -244t45 -306q0 -174 -42.5 -314t-127 -243t-219.5 -159t-311 -56t-311 56t-219.5 159t-127.5 243t-43 314zM193 758q0 -161 39.5 -292.5t118 -228.5t204 -150.5 t289.5 -53.5t289.5 53.5t204 150.5t118 228.5t39.5 292.5q0 121 -26.5 229.5t-80.5 199t-131 156t-182.5 102t-230.5 36.5t-230.5 -36.5t-182.5 -102t-131 -156t-80.5 -199t-26.5 -229.5zM670 1812l57 29l115 -244l-35 -16z" />
<glyph unicode="&#xd3;" d="M143 758q0 133 28.5 249t86 212t140.5 164.5t196.5 106.5t249.5 38q169 0 303 -58t220.5 -162t131.5 -244t45 -306q0 -174 -42.5 -314t-127 -243t-219.5 -159t-311 -56t-311 56t-219.5 159t-127.5 243t-43 314zM193 758q0 -161 39.5 -292.5t118 -228.5t204 -150.5 t289.5 -53.5t289.5 53.5t204 150.5t118 228.5t39.5 292.5q0 121 -26.5 229.5t-80.5 199t-131 156t-182.5 102t-230.5 36.5t-230.5 -36.5t-182.5 -102t-131 -156t-80.5 -199t-26.5 -229.5zM848 1597l115 244l57 -29l-137 -231z" />
<glyph unicode="&#xd4;" d="M143 758q0 133 28.5 249t86 212t140.5 164.5t196.5 106.5t249.5 38q169 0 303 -58t220.5 -162t131.5 -244t45 -306q0 -174 -42.5 -314t-127 -243t-219.5 -159t-311 -56t-311 56t-219.5 159t-127.5 243t-43 314zM193 758q0 -161 39.5 -292.5t118 -228.5t204 -150.5 t289.5 -53.5t289.5 53.5t204 150.5t118 228.5t39.5 292.5q0 121 -26.5 229.5t-80.5 199t-131 156t-182.5 102t-230.5 36.5t-230.5 -36.5t-182.5 -102t-131 -156t-80.5 -199t-26.5 -229.5zM647 1620l187 195h22l186 -195l-26 -27l-170 156l-172 -156z" />
<glyph unicode="&#xd5;" d="M143 758q0 133 28.5 249t86 212t140.5 164.5t196.5 106.5t249.5 38q169 0 303 -58t220.5 -162t131.5 -244t45 -306q0 -174 -42.5 -314t-127 -243t-219.5 -159t-311 -56t-311 56t-219.5 159t-127.5 243t-43 314zM193 758q0 -161 39.5 -292.5t118 -228.5t204 -150.5 t289.5 -53.5t289.5 53.5t204 150.5t118 228.5t39.5 292.5q0 121 -26.5 229.5t-80.5 199t-131 156t-182.5 102t-230.5 36.5t-230.5 -36.5t-182.5 -102t-131 -156t-80.5 -199t-26.5 -229.5zM537 1624q14 33 28 58t35 53t49 43.5t60 15.5q47 0 87.5 -21t64 -45.5t55 -45.5 t63.5 -21q49 0 85 42t54 97l39 -18q-70 -168 -170 -168q-40 0 -73.5 13.5t-56.5 33t-44.5 38.5t-46 32.5t-51.5 13.5q-48 0 -85 -42t-55 -95z" />
<glyph unicode="&#xd6;" d="M143 758q0 133 28.5 249t86 212t140.5 164.5t196.5 106.5t249.5 38q169 0 303 -58t220.5 -162t131.5 -244t45 -306q0 -174 -42.5 -314t-127 -243t-219.5 -159t-311 -56t-311 56t-219.5 159t-127.5 243t-43 314zM193 758q0 -161 39.5 -292.5t118 -228.5t204 -150.5 t289.5 -53.5t289.5 53.5t204 150.5t118 228.5t39.5 292.5q0 121 -26.5 229.5t-80.5 199t-131 156t-182.5 102t-230.5 36.5t-230.5 -36.5t-182.5 -102t-131 -156t-80.5 -199t-26.5 -229.5zM680 1665v86h78v-86h-78zM905 1665v86h78v-86h-78z" />
<glyph unicode="&#xd7;" horiz-adv-x="983" d="M123 369l317 319l-280 281l33 32l280 -280l277 274l32 -32l-276 -275l313 -313l-33 -33l-313 311l-317 -317z" />
<glyph unicode="&#xd8;" d="M143 756q0 133 28 249.5t85.5 212.5t140.5 165t197 107t250 38q245 0 420 -127l151 215l41 -29l-153 -217q241 -206 241 -614q0 -173 -43 -313t-127.5 -243t-219.5 -158.5t-310 -55.5q-256 0 -426 120l-146 -208l-41 26l148 211q-236 200 -236 621zM190 756 q0 -392 218 -580l827 1182q-165 123 -391 123q-156 0 -281.5 -56.5t-206 -155t-123.5 -230t-43 -283.5zM446 145q157 -112 398 -112q163 0 289 53.5t205 150.5t119 228t40 291q0 376 -223 571z" />
<glyph unicode="&#xd9;" horiz-adv-x="1597" d="M195 633v883h49v-883q0 -143 29.5 -250.5t93.5 -186t170.5 -119t255.5 -40.5t255.5 40.5t171 119t94 186t29.5 250.5v883h50v-883q0 -312 -147.5 -478.5t-452.5 -166.5t-451.5 166t-146.5 479zM686 1812l57 29l115 -244l-35 -16z" />
<glyph unicode="&#xda;" horiz-adv-x="1597" d="M195 633v883h49v-883q0 -143 29.5 -250.5t93.5 -186t170.5 -119t255.5 -40.5t255.5 40.5t171 119t94 186t29.5 250.5v883h50v-883q0 -312 -147.5 -478.5t-452.5 -166.5t-451.5 166t-146.5 479zM797 1597l114 244l58 -29l-138 -231z" />
<glyph unicode="&#xdb;" horiz-adv-x="1597" d="M195 633v883h49v-883q0 -143 29.5 -250.5t93.5 -186t170.5 -119t255.5 -40.5t255.5 40.5t171 119t94 186t29.5 250.5v883h50v-883q0 -312 -147.5 -478.5t-452.5 -166.5t-451.5 166t-146.5 479zM596 1620l186 195h23l186 -195l-26 -27l-170 156l-172 -156z" />
<glyph unicode="&#xdc;" horiz-adv-x="1597" d="M195 633v883h49v-883q0 -143 29.5 -250.5t93.5 -186t170.5 -119t255.5 -40.5t255.5 40.5t171 119t94 186t29.5 250.5v883h50v-883q0 -312 -147.5 -478.5t-452.5 -166.5t-451.5 166t-146.5 479zM641 1665v86h78v-86h-78zM866 1665v86h78v-86h-78z" />
<glyph unicode="&#xdd;" horiz-adv-x="1550" d="M102 1516h60l606 -887l606 887h60l-641 -938v-578h-50v578zM674 1597l114 244l58 -29l-137 -231z" />
<glyph unicode="&#xde;" horiz-adv-x="1347" d="M137 0v1516h51v-267h578q102 0 187 -26t149.5 -77t100.5 -132.5t36 -186.5q0 -75 -25 -139.5t-69 -110.5t-102.5 -79.5t-126 -49.5t-138.5 -16h-590v-432h-51zM188 479h590q77 0 150 24t132 67.5t94.5 110.5t35.5 146q0 187 -116.5 281t-307.5 94h-578v-723z" />
<glyph unicode="&#xdf;" horiz-adv-x="1079" d="M174 14v1131q0 95 39 181t116.5 143t174.5 57t175 -56.5t117.5 -142.5t39.5 -182q0 -106 -49.5 -200t-139.5 -144q82 -25 142 -89.5t89 -145.5t29 -167q0 -102 -40.5 -195t-122 -155.5t-185.5 -62.5q-105 0 -186 63l24 41q67 -55 162 -55q93 0 163 55t103 136.5t33 172.5 t-32.5 172.5t-102.5 137t-164 55.5h-143v51h108q82 0 143.5 51.5t90 125.5t28.5 153q0 133 -77 232.5t-205 99.5q-86 0 -151.5 -49.5t-97.5 -124t-32 -158.5v-1131h-49z" />
<glyph unicode="&#xe0;" horiz-adv-x="1280" d="M123 543q0 91 14.5 171.5t48 153t84 125t127 83t172.5 30.5q210 0 443 -176v164h47v-1094h-41l-4 129q-88 -45 -140.5 -68.5t-136 -48t-151.5 -24.5q-120 0 -211 44t-145 121.5t-80.5 175.5t-26.5 214zM176 543q0 -84 12.5 -157t42.5 -138.5t75.5 -112t114.5 -73.5 t157 -27q66 0 152.5 27t140 52.5t141.5 71.5v686q-249 187 -428 187q-109 0 -190 -42t-127.5 -115.5t-68.5 -163t-22 -195.5zM483 1413l58 29l114 -244l-34 -16z" />
<glyph unicode="&#xe1;" horiz-adv-x="1280" d="M123 543q0 91 14.5 171.5t48 153t84 125t127 83t172.5 30.5q210 0 443 -176v164h47v-1094h-41l-4 129q-88 -45 -140.5 -68.5t-136 -48t-151.5 -24.5q-120 0 -211 44t-145 121.5t-80.5 175.5t-26.5 214zM176 543q0 -84 12.5 -157t42.5 -138.5t75.5 -112t114.5 -73.5 t157 -27q66 0 152.5 27t140 52.5t141.5 71.5v686q-249 187 -428 187q-109 0 -190 -42t-127.5 -115.5t-68.5 -163t-22 -195.5zM588 1198l114 244l58 -29l-137 -231z" />
<glyph unicode="&#xe2;" horiz-adv-x="1280" d="M123 543q0 91 14.5 171.5t48 153t84 125t127 83t172.5 30.5q210 0 443 -176v164h47v-1094h-41l-4 129q-88 -45 -140.5 -68.5t-136 -48t-151.5 -24.5q-120 0 -211 44t-145 121.5t-80.5 175.5t-26.5 214zM176 543q0 -84 12.5 -157t42.5 -138.5t75.5 -112t114.5 -73.5 t157 -27q66 0 152.5 27t140 52.5t141.5 71.5v686q-249 187 -428 187q-109 0 -190 -42t-127.5 -115.5t-68.5 -163t-22 -195.5zM410 1221l186 194h22l187 -194l-27 -27l-170 156l-172 -156z" />
<glyph unicode="&#xe3;" horiz-adv-x="1280" d="M123 543q0 91 14.5 171.5t48 153t84 125t127 83t172.5 30.5q210 0 443 -176v164h47v-1094h-41l-4 129q-88 -45 -140.5 -68.5t-136 -48t-151.5 -24.5q-120 0 -211 44t-145 121.5t-80.5 175.5t-26.5 214zM176 543q0 -84 12.5 -157t42.5 -138.5t75.5 -112t114.5 -73.5 t157 -27q66 0 152.5 27t140 52.5t141.5 71.5v686q-249 187 -428 187q-109 0 -190 -42t-127.5 -115.5t-68.5 -163t-22 -195.5zM301 1225q14 33 28 58t35 53t49 43.5t60 15.5q47 0 87.5 -21t64 -45.5t55 -45.5t63.5 -21q49 0 85.5 42.5t54.5 96.5l39 -19q-70 -168 -170 -168 q-40 0 -73.5 13.5t-57 33t-44.5 39t-46 33t-52 13.5q-48 0 -84.5 -42.5t-54.5 -95.5z" />
<glyph unicode="&#xe4;" horiz-adv-x="1280" d="M123 543q0 91 14.5 171.5t48 153t84 125t127 83t172.5 30.5q210 0 443 -176v164h47v-1094h-41l-4 129q-88 -45 -140.5 -68.5t-136 -48t-151.5 -24.5q-120 0 -211 44t-145 121.5t-80.5 175.5t-26.5 214zM176 543q0 -84 12.5 -157t42.5 -138.5t75.5 -112t114.5 -73.5 t157 -27q66 0 152.5 27t140 52.5t141.5 71.5v686q-249 187 -428 187q-109 0 -190 -42t-127.5 -115.5t-68.5 -163t-22 -195.5zM469 1264v86h78v-86h-78zM694 1264v86h78v-86h-78z" />
<glyph unicode="&#xe5;" horiz-adv-x="1280" d="M123 543q0 91 14.5 171.5t48 153t84 125t127 83t172.5 30.5q210 0 443 -176v164h47v-1094h-41l-4 129q-88 -45 -140.5 -68.5t-136 -48t-151.5 -24.5q-120 0 -211 44t-145 121.5t-80.5 175.5t-26.5 214zM176 543q0 -84 12.5 -157t42.5 -138.5t75.5 -112t114.5 -73.5 t157 -27q66 0 152.5 27t140 52.5t141.5 71.5v686q-249 187 -428 187q-109 0 -190 -42t-127.5 -115.5t-68.5 -163t-22 -195.5zM526 1307q0 35 24.5 59.5t59.5 24.5t59.5 -24.5t24.5 -59.5t-25 -58.5t-59 -23.5t-59 23.5t-25 58.5zM573 1307q0 -15 11.5 -26t25.5 -11t25.5 11 t11.5 26t-11 25.5t-26 10.5t-26 -10.5t-11 -25.5z" />
<glyph unicode="&#xe6;" horiz-adv-x="1921" d="M82 262q0 59 30.5 106.5t77.5 78.5t114.5 53.5t132 34.5t139.5 19t126.5 8.5t104.5 0.5q0 39 8 121q1 9 4.5 28t3.5 33q0 144 -64 211.5t-208 67.5q-117 0 -228.5 -51.5t-201.5 -138.5l-17 40q89 94 209.5 145.5t249.5 51.5q132 0 211 -63t92 -191q67 135 192.5 204 t282.5 69q457 0 457 -576h-940q6 -220 136 -358t347 -138q17 0 35.5 2.5t44 7.5t35.5 7q152 28 291 67l8 -51q-99 -27 -225 -53.5t-189 -26.5q-229 0 -380 148q-90 -64 -213 -110t-222 -46q-444 0 -444 299zM129 260q0 -61 25.5 -107.5t64.5 -73t94 -42.5t105 -21.5 t106 -5.5q97 0 203.5 41.5t200.5 104.5q-118 140 -121 362q-45 0 -90.5 -1.5t-116 -7.5t-131 -16t-125.5 -30t-110.5 -46t-75 -66.5t-29.5 -90.5zM860 561h887q-2 83 -16 153t-44.5 131.5t-76 104.5t-114 67.5t-155.5 24.5q-217 0 -345 -131.5t-136 -349.5z" />
<glyph unicode="&#xe7;" horiz-adv-x="1200" d="M123 545q0 252 142.5 405.5t391.5 153.5q145 0 266 -60.5t191 -179.5l-47 -22q-62 106 -171 160.5t-239 54.5q-226 0 -354.5 -141.5t-128.5 -370.5q0 -224 130.5 -367t352.5 -143q123 0 227.5 49.5t168.5 146.5l47 -22q-73 -110 -190 -166.5t-253 -56.5h-18l-92 -119 q43 6 84 6q170 0 170 -125q0 -36 -19 -62t-51 -38.5t-63.5 -17.5t-65.5 -5q-72 0 -170 25l25 47q75 -21 133 -21q30 0 61.5 4t64 21.5t32.5 46.5q0 74 -146 74q-48 0 -94 -6l-33 34l103 140q-212 27 -333.5 178.5t-121.5 376.5z" />
<glyph unicode="&#xe8;" horiz-adv-x="1269" d="M123 545q0 252 142.5 405.5t391.5 153.5q457 0 457 -576h-938q5 -215 131.5 -355t337.5 -140q128 0 418 84l8 -51q-273 -80 -430 -80q-159 0 -278 75t-179.5 200.5t-60.5 283.5zM176 575h887q-11 482 -406 482q-217 0 -345 -132t-136 -350zM483 1413l58 29l114 -244 l-34 -16z" />
<glyph unicode="&#xe9;" horiz-adv-x="1269" d="M123 545q0 252 142.5 405.5t391.5 153.5q457 0 457 -576h-938q5 -215 131.5 -355t337.5 -140q128 0 418 84l8 -51q-273 -80 -430 -80q-159 0 -278 75t-179.5 200.5t-60.5 283.5zM176 575h887q-11 482 -406 482q-217 0 -345 -132t-136 -350zM616 1198l115 244l57 -29 l-137 -231z" />
<glyph unicode="&#xea;" horiz-adv-x="1269" d="M123 545q0 252 142.5 405.5t391.5 153.5q457 0 457 -576h-938q5 -215 131.5 -355t337.5 -140q128 0 418 84l8 -51q-273 -80 -430 -80q-159 0 -278 75t-179.5 200.5t-60.5 283.5zM176 575h887q-11 482 -406 482q-217 0 -345 -132t-136 -350zM418 1221l186 194h23l186 -194 l-27 -27l-170 156l-172 -156z" />
<glyph unicode="&#xeb;" horiz-adv-x="1269" d="M123 545q0 252 142.5 405.5t391.5 153.5q457 0 457 -576h-938q5 -215 131.5 -355t337.5 -140q128 0 418 84l8 -51q-273 -80 -430 -80q-159 0 -278 75t-179.5 200.5t-60.5 283.5zM176 575h887q-11 482 -406 482q-217 0 -345 -132t-136 -350zM469 1264v86h78v-86h-78z M694 1264v86h78v-86h-78z" />
<glyph unicode="&#xec;" horiz-adv-x="354" d="M20 1413l58 29l115 -244l-35 -16zM143 0v1094h47v-1094h-47z" />
<glyph unicode="&#xed;" horiz-adv-x="354" d="M143 0v1094h47v-1094h-47zM143 1198l115 244l57 -29l-137 -231z" />
<glyph unicode="&#xee;" horiz-adv-x="354" d="M-29 1221l187 194h22l187 -194l-27 -27l-170 156l-172 -156zM143 0v1094h47v-1094h-47z" />
<glyph unicode="&#xef;" horiz-adv-x="354" d="M23 1264v86h77v-86h-77zM143 0v1094h47v-1094h-47zM248 1264v86h78v-86h-78z" />
<glyph unicode="&#xf0;" horiz-adv-x="1253" d="M123 457q0 223 126 359t347 136q149 0 265 -71t169 -205q-38 309 -207 555l-231 -195l-31 37l234 199q-108 143 -244 231l35 43q141 -97 252 -239l243 204l31 -38l-246 -205q221 -320 221 -686q0 -101 -15 -188.5t-51 -168t-91.5 -137.5t-140.5 -91t-193 -34 q-217 0 -345 137.5t-128 356.5zM176 457q0 -196 113.5 -319.5t306.5 -123.5t305.5 124t112.5 319q0 200 -110.5 322t-307.5 122q-196 0 -308 -122.5t-112 -321.5z" />
<glyph unicode="&#xf1;" horiz-adv-x="1224" d="M174 0v1094h43l4 -201q121 86 253.5 149.5t238.5 63.5q146 0 242 -94t96 -240v-772h-47v770q0 134 -87 210.5t-223 76.5q-153 0 -473 -219v-838h-47zM299 1225q14 33 28 58t35 53t49 43.5t60 15.5q47 0 87.5 -21t64 -45.5t55 -45.5t63.5 -21q49 0 85.5 42.5t54.5 96.5 l39 -19q-70 -168 -170 -168q-40 0 -73.5 13.5t-57 33t-44.5 39t-46 33t-52 13.5q-48 0 -84.5 -42.5t-54.5 -95.5z" />
<glyph unicode="&#xf2;" horiz-adv-x="1314" d="M123 547q0 252 142.5 405.5t391.5 153.5q250 0 392.5 -153.5t142.5 -405.5q0 -247 -145 -403t-390 -156t-389.5 156t-144.5 403zM174 547q0 -147 57 -262.5t167.5 -182.5t258.5 -67t259 67t168 182.5t57 262.5q0 229 -129 370.5t-355 141.5t-354.5 -141.5t-128.5 -370.5z M502 1413l57 29l115 -244l-35 -16z" />
<glyph unicode="&#xf3;" horiz-adv-x="1314" d="M123 547q0 252 142.5 405.5t391.5 153.5q250 0 392.5 -153.5t142.5 -405.5q0 -247 -145 -403t-390 -156t-389.5 156t-144.5 403zM174 547q0 -147 57 -262.5t167.5 -182.5t258.5 -67t259 67t168 182.5t57 262.5q0 229 -129 370.5t-355 141.5t-354.5 -141.5t-128.5 -370.5z M645 1198l115 244l57 -29l-137 -231z" />
<glyph unicode="&#xf4;" horiz-adv-x="1314" d="M123 547q0 252 142.5 405.5t391.5 153.5q250 0 392.5 -153.5t142.5 -405.5q0 -247 -145 -403t-390 -156t-389.5 156t-144.5 403zM174 547q0 -147 57 -262.5t167.5 -182.5t258.5 -67t259 67t168 182.5t57 262.5q0 229 -129 370.5t-355 141.5t-354.5 -141.5t-128.5 -370.5z M453 1221l186 194h23l186 -194l-27 -27l-170 156l-172 -156z" />
<glyph unicode="&#xf5;" horiz-adv-x="1314" d="M123 547q0 252 142.5 405.5t391.5 153.5q250 0 392.5 -153.5t142.5 -405.5q0 -247 -145 -403t-390 -156t-389.5 156t-144.5 403zM174 547q0 -147 57 -262.5t167.5 -182.5t258.5 -67t259 67t168 182.5t57 262.5q0 229 -129 370.5t-355 141.5t-354.5 -141.5t-128.5 -370.5z M344 1225q14 33 28 58t35 53t49 43.5t60 15.5q47 0 87.5 -21t64 -45.5t55 -45.5t63.5 -21q49 0 85.5 42.5t54.5 96.5l39 -19q-70 -168 -170 -168q-40 0 -73.5 13.5t-57 33t-44.5 39t-46 33t-52 13.5q-48 0 -84.5 -42.5t-54.5 -95.5z" />
<glyph unicode="&#xf6;" horiz-adv-x="1314" d="M123 547q0 252 142.5 405.5t391.5 153.5q250 0 392.5 -153.5t142.5 -405.5q0 -247 -145 -403t-390 -156t-389.5 156t-144.5 403zM174 547q0 -147 57 -262.5t167.5 -182.5t258.5 -67t259 67t168 182.5t57 262.5q0 229 -129 370.5t-355 141.5t-354.5 -141.5t-128.5 -370.5z M512 1264v86h78v-86h-78zM737 1264v86h78v-86h-78z" />
<glyph unicode="&#xf7;" horiz-adv-x="1171" d="M123 690v47h885v-47h-885zM510 324q0 23 16 39t39 16t39.5 -16t16.5 -39q0 -22 -17 -39t-39 -17t-38.5 17t-16.5 39zM510 1104q0 23 16 39t39 16t39.5 -16t16.5 -39t-16.5 -39t-39.5 -16t-39 16t-16 39z" />
<glyph unicode="&#xf8;" horiz-adv-x="1314" d="M123 545q0 253 142 406t392 153q177 0 306 -82l98 141l41 -28l-98 -142q188 -150 188 -448q0 -247 -145 -403t-390 -156q-168 0 -301 84l-100 -142l-41 27l100 143q-97 80 -144.5 196.5t-47.5 250.5zM176 545q0 -265 168 -404l590 840q-118 76 -277 76 q-226 0 -353.5 -141.5t-127.5 -370.5zM385 111q115 -76 272 -76q223 0 353.5 142t130.5 368q0 270 -168 407z" />
<glyph unicode="&#xf9;" horiz-adv-x="1275" d="M174 322v772h47v-770q0 -135 86 -212t223 -77q93 0 230.5 70.5t243.5 150.5v838h47v-1094h-45l-2 201q-105 -82 -245 -147.5t-247 -65.5q-146 0 -242 94t-96 240zM465 1413l57 29l115 -244l-35 -16z" />
<glyph unicode="&#xfa;" horiz-adv-x="1275" d="M174 322v772h47v-770q0 -135 86 -212t223 -77q93 0 230.5 70.5t243.5 150.5v838h47v-1094h-45l-2 201q-105 -82 -245 -147.5t-247 -65.5q-146 0 -242 94t-96 240zM592 1198l115 244l57 -29l-137 -231z" />
<glyph unicode="&#xfb;" horiz-adv-x="1275" d="M174 322v772h47v-770q0 -135 86 -212t223 -77q93 0 230.5 70.5t243.5 150.5v838h47v-1094h-45l-2 201q-105 -82 -245 -147.5t-247 -65.5q-146 0 -242 94t-96 240zM416 1221l186 194h23l186 -194l-27 -27l-170 156l-172 -156z" />
<glyph unicode="&#xfc;" horiz-adv-x="1275" d="M174 322v772h47v-770q0 -135 86 -212t223 -77q93 0 230.5 70.5t243.5 150.5v838h47v-1094h-45l-2 201q-105 -82 -245 -147.5t-247 -65.5q-146 0 -242 94t-96 240zM463 1264v86h78v-86h-78zM688 1264v86h78v-86h-78z" />
<glyph unicode="&#xfd;" horiz-adv-x="1189" d="M82 1094h53l459 -938l373 938h49l-629 -1583h-51l233 585zM539 1198l114 244l58 -29l-138 -231z" />
<glyph unicode="&#xfe;" horiz-adv-x="1400" d="M229 -492v1819h47v-397q224 176 441 176q97 0 174 -31t127 -83.5t83.5 -125.5t47.5 -153t14 -170q0 -114 -26.5 -211.5t-80 -176t-144 -123t-210.5 -44.5q-22 0 -45.5 2.5t-43 5.5t-45.5 10.5t-42 12t-44.5 16t-41 16t-43.5 19t-40 18.5t-42 20t-39 19v-619h-47zM276 184 q67 -35 105 -54t101 -45.5t119 -39t108 -12.5q89 0 159 28t115 75t74.5 113t42 138.5t12.5 155.5q0 82 -12.5 155t-43 140.5t-76 115.5t-116 76.5t-159.5 28.5q-176 0 -429 -187v-688z" />
<glyph unicode="&#xff;" horiz-adv-x="1189" d="M82 1094h53l459 -938l373 938h49l-629 -1583h-51l233 585zM410 1264v86h77v-86h-77zM635 1264v86h78v-86h-78z" />
<glyph unicode="&#x152;" horiz-adv-x="2490" d="M96 776q0 133 28.5 249t86 212t140.5 164.5t196.5 106.5t249.5 38q192 0 349.5 -83t248.5 -244v297h954v-48h-905v-669h803v-45h-803v-707h905v-47h-954v317q-90 -160 -246 -236.5t-352 -76.5q-176 0 -311 56t-219.5 159t-127.5 243t-43 314zM143 776q0 -161 40 -292.5 t119 -228.5t205 -150.5t290 -53.5q211 0 368 96t230 287v668q-72 189 -232 293t-366 104q-125 0 -230.5 -36.5t-183 -102t-132 -156t-81.5 -199t-27 -229.5z" />
<glyph unicode="&#x153;" horiz-adv-x="2240" d="M123 545q0 251 142.5 405t391.5 154q178 0 313 -88.5t189 -253.5q54 166 189.5 254t314.5 88q455 0 455 -576h-938q3 -219 134 -357t349 -138q17 0 37 1.5t45.5 6t45 7.5t50.5 10.5t47 11t51 13t45 12t45 12t37 10.5l9 -54q-94 -26 -140.5 -37.5t-128 -25.5t-143.5 -14 q-177 0 -313.5 91.5t-190.5 256.5q-54 -166 -189.5 -257t-312.5 -91q-163 0 -285 72.5t-185.5 199t-63.5 287.5zM174 545q0 -147 57 -262.5t167.5 -182.5t258.5 -67q158 0 279.5 81t171.5 228q25 78 25 109v190q0 33 -25 111q-50 147 -171 226t-280 79q-226 0 -354.5 -142 t-128.5 -370zM1180 575h886q-2 83 -15.5 152.5t-43 131.5t-75 105t-114 68t-155.5 25q-217 0 -346 -132t-137 -350z" />
<glyph unicode="&#x178;" horiz-adv-x="1550" d="M102 1516h60l606 -887l606 887h60l-641 -938v-578h-50v578zM618 1665v86h78v-86h-78zM844 1665v86h78v-86h-78z" />
<glyph unicode="&#x2c6;" horiz-adv-x="722" d="M164 1221l186 194h23l186 -194l-27 -27l-170 156l-172 -156z" />
<glyph unicode="&#x2dc;" horiz-adv-x="948" d="M164 1225q14 33 28 58t35 53t49 43.5t60 15.5q47 0 87.5 -21t64 -45.5t55 -45.5t63.5 -21q49 0 85 42t54 97l39 -19q-70 -168 -170 -168q-40 0 -73.5 13.5t-56.5 33t-44.5 39t-46 33t-51.5 13.5q-48 0 -84.5 -42.5t-54.5 -95.5z" />
<glyph unicode="&#x2000;" horiz-adv-x="920" />
<glyph unicode="&#x2001;" horiz-adv-x="1841" />
<glyph unicode="&#x2002;" horiz-adv-x="920" />
<glyph unicode="&#x2003;" horiz-adv-x="1841" />
<glyph unicode="&#x2004;" horiz-adv-x="613" />
<glyph unicode="&#x2005;" horiz-adv-x="460" />
<glyph unicode="&#x2006;" horiz-adv-x="306" />
<glyph unicode="&#x2007;" horiz-adv-x="306" />
<glyph unicode="&#x2008;" horiz-adv-x="230" />
<glyph unicode="&#x2009;" horiz-adv-x="368" />
<glyph unicode="&#x200a;" horiz-adv-x="102" />
<glyph unicode="&#x2010;" horiz-adv-x="1038" d="M123 512v49h706v-49h-706z" />
<glyph unicode="&#x2011;" horiz-adv-x="1038" d="M123 512v49h706v-49h-706z" />
<glyph unicode="&#x2012;" horiz-adv-x="1038" d="M123 512v49h706v-49h-706z" />
<glyph unicode="&#x2013;" horiz-adv-x="1234" d="M123 512v49h989v-49h-989z" />
<glyph unicode="&#x2014;" horiz-adv-x="2359" d="M123 512v49h2113v-49h-2113z" />
<glyph unicode="&#x2018;" horiz-adv-x="362" d="M127 1286v105l43 157h41l-33 -157h43v-105h-94z" />
<glyph unicode="&#x2019;" horiz-adv-x="362" d="M127 1446v102h94v-102l-43 -160h-41l31 160h-41z" />
<glyph unicode="&#x201a;" horiz-adv-x="362" d="M127 0v102h94v-102l-43 -158h-41l31 158h-41z" />
<glyph unicode="&#x201c;" horiz-adv-x="538" d="M111 1286v105l43 157h41l-31 -157h41v-105h-94zM303 1286v105l43 157h39l-31 -157h41v-105h-92z" />
<glyph unicode="&#x201d;" horiz-adv-x="538" d="M111 1446v102h94v-102l-43 -160h-39l31 160h-43zM303 1446v102h92v-102l-43 -160h-39l31 160h-41z" />
<glyph unicode="&#x201e;" horiz-adv-x="538" d="M111 0v102h94v-102l-43 -158h-39l31 158h-43zM303 0v102h92v-102l-43 -158h-39l31 158h-41z" />
<glyph unicode="&#x2022;" horiz-adv-x="397" d="M113 535q0 28 18.5 46.5t46.5 18.5t47 -18.5t19 -46.5t-19 -47t-47 -19t-46.5 19t-18.5 47z" />
<glyph unicode="&#x2026;" horiz-adv-x="944" d="M84 0v102h92v-102h-92zM401 0v102h93v-102h-93zM713 0v102h94v-102h-94z" />
<glyph unicode="&#x202f;" horiz-adv-x="368" />
<glyph unicode="&#x2039;" horiz-adv-x="729" d="M82 758l354 534h62l-355 -534l355 -537h-62z" />
<glyph unicode="&#x203a;" horiz-adv-x="729" d="M164 221l354 537l-354 534h61l355 -534l-355 -537h-61z" />
<glyph unicode="&#x205f;" horiz-adv-x="460" />
<glyph unicode="&#x20ac;" horiz-adv-x="1589" d="M139 664v49h127v86h-127v49h129q6 118 30 218t70.5 186t114.5 146t166 94t221 34q365 0 510 -291l-47 -21q-68 134 -187.5 198.5t-275.5 64.5q-141 0 -246.5 -48t-169 -135.5t-97 -198t-40.5 -247.5h486v-49h-488v-86h488v-49h-486q6 -110 27 -202t63.5 -172 t104.5 -135.5t153 -87.5t205 -32q354 0 484 301l45 -21q-70 -167 -206 -248t-323 -81q-124 0 -222.5 33.5t-166.5 93t-114.5 146t-69.5 186t-29 219.5h-129z" />
<glyph unicode="&#x2122;" horiz-adv-x="2048" />
<glyph unicode="&#xe000;" horiz-adv-x="1095" d="M0 0v1096h1096v-1096h-1096z" />
<glyph unicode="&#xfb01;" horiz-adv-x="882" d="M72 1047v47h161v125q0 148 82 226.5t230 78.5q39 0 98 -19l-10 -45q-62 17 -88 17q-127 0 -195.5 -63.5t-68.5 -190.5v-129h299v-47h-299v-1047h-48v1047h-161zM676 1348v84h78v-84h-78zM690 0v1094h47v-1094h-47z" />
<glyph unicode="&#xfb02;" horiz-adv-x="872" d="M72 1047v47h161v125q0 148 82 226.5t230 78.5q39 0 98 -19l-10 -45q-62 17 -88 17q-127 0 -195.5 -63.5t-68.5 -190.5v-129h299v-47h-299v-1047h-48v1047h-161zM711 0v1513h45v-1513h-45z" />
</font>
</defs>
</svg>
