<?xml version="1.0" standalone="no"?>
<!DOCTYPE svg PUBLIC "-//W3C//DTD SVG 1.1//EN" "http://www.w3.org/Graphics/SVG/1.1/DTD/svg11.dtd" >
<svg xmlns="http://www.w3.org/2000/svg">
<metadata></metadata>
<defs>
<font id="grey_sansextra_bold" horiz-adv-x="1683" >
<font-face units-per-em="2048" ascent="1520" descent="-528" />
<missing-glyph horiz-adv-x="450" />
<glyph horiz-adv-x="2048" />
<glyph horiz-adv-x="2048" />
<glyph unicode="&#xd;" horiz-adv-x="2048" />
<glyph unicode=" "  horiz-adv-x="450" />
<glyph unicode="&#x09;" horiz-adv-x="450" />
<glyph unicode="&#xa0;" horiz-adv-x="450" />
<glyph unicode="!" horiz-adv-x="608" d="M92 1516h430l-43 -1086h-342zM137 0v340h340v-340h-340z" />
<glyph unicode="&#x22;" horiz-adv-x="980" d="M106 1516h338l-34 -613h-269zM541 1516h338l-35 -613h-269z" />
<glyph unicode="#" horiz-adv-x="1978" d="M45 309v340h330l74 236h-299v340h405l92 291h430l-90 -291h273l90 291h432l-92 -291h252v-340h-359l-74 -236h328v-340h-434l-96 -309h-430l96 309h-273l-98 -309h-430l96 309h-223zM805 649h274l74 236h-272z" />
<glyph unicode="$" horiz-adv-x="1396" d="M61 1067q0 107 45.5 193.5t122.5 142t169 88t194 43.5v213h221v-213q231 -28 483 -131l-67 -303q-340 100 -522 100q-28 0 -62 -5.5t-72 -17t-63 -34.5t-25 -53q0 -32 29.5 -54.5t79.5 -36.5t114.5 -26t136.5 -28t143.5 -38t136 -59.5t114.5 -88.5t79.5 -130.5 t29.5 -179.5q0 -87 -30.5 -161t-81.5 -126t-120.5 -91t-145 -61t-157.5 -30v-197h-221v199q-246 34 -529 147l76 315q374 -127 547 -127q34 0 66 4.5t68.5 15.5t58.5 35.5t22 59.5q0 38 -28.5 65t-77.5 43t-112 29t-132.5 28t-139 35t-132.5 55t-112 83t-77.5 124t-28.5 173 z" />
<glyph unicode="%" horiz-adv-x="2109" d="M12 1081q0 209 105 331t311 122t311 -122t105 -331q0 -210 -104.5 -332t-311.5 -122t-311.5 122t-104.5 332zM297 1081q0 -34 1.5 -59t9 -58t21 -53.5t39 -35.5t60.5 -15t60.5 15t39 35.5t21 53.5t9 58t1.5 59q0 44 -3.5 75t-15.5 67.5t-40 56.5t-72 20t-72 -20 t-40 -56.5t-15.5 -67.5t-3.5 -75zM430 0l815 1516h406l-815 -1516h-406zM1237 430q0 209 105 331t311 122t310.5 -122t104.5 -331q0 -211 -104 -333t-311 -122t-311.5 122.5t-104.5 332.5zM1522 430q0 -35 1.5 -59.5t9 -58t20.5 -53.5t38.5 -35t61.5 -15q35 0 60.5 15 t38.5 35.5t20 54t8.5 57.5t1.5 59t-1.5 59t-8.5 57t-20 53t-38.5 35t-60.5 15q-44 0 -72.5 -19.5t-40 -56.5t-15 -67.5t-3.5 -75.5z" />
<glyph unicode="&#x26;" horiz-adv-x="1456" d="M43 420q0 74 29.5 143t81 125t108 99t123.5 81q-100 176 -100 297q0 157 96.5 262t251.5 105q90 0 167 -21.5t138.5 -64.5t97 -115t35.5 -166q0 -70 -53.5 -153t-120.5 -144.5t-133 -101.5l219 -338q84 118 84 219h332q0 -145 -61 -279t-171 -227l101 -155l-260 -148 l-101 166q-112 -33 -241 -33q-87 0 -171.5 14.5t-167 49t-145 84.5t-101 128t-38.5 173zM428 434q0 -48 22.5 -84t60 -56t79 -29t86.5 -9q41 0 72 8l-216 350q-104 -96 -104 -180zM559 1155q0 -39 26 -88.5t58 -87.5q42 13 103 74.5t61 101.5q0 53 -40 86t-95 33 q-50 0 -81.5 -34t-31.5 -85z" />
<glyph unicode="'" horiz-adv-x="528" d="M88 1516h340l-35 -613h-270z" />
<glyph unicode="(" horiz-adv-x="874" d="M86 592q0 281 152.5 562t386.5 448l192 -191q-137 -138 -213 -370t-76 -449t76 -447.5t213 -369.5l-192 -191q-233 167 -386 448t-153 560z" />
<glyph unicode=")" horiz-adv-x="839" d="M37 -225q137 139 213 369.5t76 447.5t-76 449t-213 370l192 191q233 -167 386 -448.5t153 -561.5q0 -279 -153 -560t-386 -448z" />
<glyph unicode="*" horiz-adv-x="903" d="M102 1096v143l256 -16l-141 215l123 69l115 -229l114 229l123 -69l-139 -215l254 16v-143l-254 16l139 -215l-123 -72l-114 230l-115 -230l-123 72l141 215z" />
<glyph unicode="+" horiz-adv-x="1374" d="M215 553v268h342v342h270v-342h340v-268h-340v-342h-270v342h-342z" />
<glyph unicode="," horiz-adv-x="604" d="M168 0v346h346v-346l-158 -272h-174l121 272h-135z" />
<glyph unicode="-" horiz-adv-x="950" d="M106 375v323h711v-323h-711z" />
<glyph unicode="." horiz-adv-x="610" d="M168 0v346h346v-346h-346z" />
<glyph unicode="/" horiz-adv-x="1394" d="M51 0l881 1516h430l-881 -1516h-430z" />
<glyph unicode="0" horiz-adv-x="1562" d="M86 758q0 140 25.5 258t80 215.5t136.5 165t198.5 104.5t261.5 37q180 0 315.5 -56.5t220 -161t126 -245.5t41.5 -317q0 -175 -41.5 -316.5t-125.5 -246.5t-220.5 -162.5t-315.5 -57.5q-146 0 -262.5 37t-198 105t-136 165.5t-80 216t-25.5 259.5zM526 758 q0 -47 1.5 -83.5t7.5 -86t16.5 -86.5t30 -76t46.5 -64t68 -41t92 -16t91.5 16t67.5 41.5t47 64t30.5 76t17 86.5t8 86t1.5 83t-1.5 83t-8 85.5t-17 86t-30.5 76.5t-47 64t-67.5 41t-91.5 16t-92 -16t-68 -41t-46.5 -63.5t-30 -75.5t-16.5 -86.5t-7.5 -86t-1.5 -83.5z" />
<glyph unicode="1" horiz-adv-x="1052" d="M84 1239l428 277h428v-1516h-428v1071l-227 -145z" />
<glyph unicode="2" horiz-adv-x="1341" d="M92 1241q86 151 236 225t334 74q91 0 172 -11t163 -41t140.5 -76t95.5 -122.5t37 -175.5q0 -77 -28 -156t-67 -141t-104.5 -135t-115.5 -120.5t-126 -117t-112 -104.5h534v-340h-1101v285q27 24 106.5 93t150 130t158.5 144.5t150.5 151.5t105.5 135t43 110 q0 69 -64.5 111t-137.5 42q-199 0 -279 -123z" />
<glyph unicode="3" horiz-adv-x="1423" d="M131 279l295 161q35 -71 110.5 -103t165.5 -32q86 0 152 48.5t66 131.5q0 36 -13.5 64t-39 44.5t-53 27.5t-64.5 16t-64 6.5t-61 1.5q-19 0 -59.5 1t-61.5 1v230h131q55 0 96 5.5t85.5 22t68.5 53.5t24 93q0 73 -66 116t-143 43q-204 0 -274 -135l-295 164 q86 151 235.5 225t333.5 74q86 0 167 -11.5t164.5 -41t144.5 -75t100 -120.5t39 -170q0 -125 -58 -216t-172 -138q132 -46 204.5 -137.5t72.5 -227.5q0 -96 -43.5 -172.5t-111 -123t-158 -77t-175.5 -42t-172 -11.5q-178 0 -333 78t-238 226z" />
<glyph unicode="4" horiz-adv-x="1525" d="M100 328v340l607 848h559v-848h186v-340h-186v-328h-428v328h-738zM508 668h330v458z" />
<glyph unicode="5" horiz-adv-x="1406" d="M160 264l305 197q43 -58 117 -96.5t145 -38.5q90 0 147.5 55t57.5 145q0 84 -58 121t-147 37q-102 0 -225 -78l-336 23l74 887h1015v-338h-645l-22 -242q113 39 264 39q111 0 202 -26.5t159.5 -80t106.5 -140.5t38 -202q0 -110 -32.5 -201t-90 -155t-137 -108.5 t-173 -65.5t-198.5 -21q-183 0 -332.5 70.5t-234.5 218.5z" />
<glyph unicode="6" horiz-adv-x="1486" d="M104 756q0 176 42 317t126.5 245.5t220.5 161t316 56.5q175 0 322.5 -70t234.5 -211l-293 -165q-77 118 -264 118q-63 0 -111.5 -28.5t-77 -77t-44.5 -101t-23 -112.5q173 80 342 80q259 0 399 -128t140 -384q0 -94 -38.5 -174.5t-102 -136.5t-145.5 -95.5t-169.5 -58.5 t-173.5 -19q-179 0 -315 57.5t-219.5 162.5t-125 246.5t-41.5 316.5zM565 565q5 -94 76 -167.5t164 -73.5q89 0 147 51t58 139q0 86 -58.5 127t-148.5 41q-60 0 -139 -34.5t-99 -82.5z" />
<glyph unicode="7" horiz-adv-x="1187" d="M53 1176v340h1110v-230l-598 -1286h-428l559 1176h-643z" />
<glyph unicode="8" horiz-adv-x="1486" d="M106 401q0 135 74.5 227t206.5 136q-116 45 -174.5 135.5t-58.5 216.5q0 96 38 171t98 121.5t142 76.5t163.5 41.5t168.5 11.5q88 0 169 -11.5t164 -41.5t143.5 -76t99 -121.5t38.5 -171.5q0 -124 -59.5 -215.5t-173.5 -136.5q131 -46 205.5 -138t74.5 -225 q0 -81 -30 -148.5t-82 -113t-117 -79t-141.5 -52t-147.5 -27t-143 -8.5t-143 8.5t-147 27t-140.5 52t-116.5 79t-81.5 113t-29.5 148.5zM541 492q0 -89 66 -139t157 -50t158 50t67 139q0 57 -84.5 113.5t-144.5 56.5t-139.5 -55t-79.5 -115zM567 1040q0 -62 75 -117t138 -55 q65 0 135 55t70 115q0 81 -62 128.5t-145 47.5q-85 0 -148 -45.5t-63 -128.5z" />
<glyph unicode="9" horiz-adv-x="1509" d="M106 1067q0 93 38.5 173.5t102 136t145.5 95.5t169.5 59t173.5 19q179 0 314 -57t218.5 -162t125 -245.5t41.5 -315.5q0 -176 -41.5 -317.5t-125 -247t-219.5 -162.5t-317 -57q-178 0 -325 70.5t-234 213.5l295 164q74 -119 264 -119q63 0 111 28.5t76.5 77.5t44 101.5 t22.5 112.5q-173 -80 -342 -80q-259 0 -398 128t-139 384zM530 1010q0 -86 58.5 -127t148.5 -41q61 0 139.5 33.5t98.5 82.5q-6 93 -77.5 167.5t-164.5 74.5q-88 0 -145.5 -51.5t-57.5 -138.5z" />
<glyph unicode=":" horiz-adv-x="606" d="M168 2v344h346v-344h-346zM168 668v344h346v-344h-346z" />
<glyph unicode=";" horiz-adv-x="593" d="M168 0v346h346v-346l-156 -272h-174l121 272h-137zM168 666v346h346v-346h-346z" />
<glyph unicode="&#x3c;" horiz-adv-x="1167" d="M53 526v342l889 383l123 -286l-621 -267l621 -266l-123 -287z" />
<glyph unicode="=" horiz-adv-x="1177" d="M113 260v324h962v-324h-962zM113 786v324h962v-324h-962z" />
<glyph unicode="&#x3e;" horiz-adv-x="1153" d="M96 432l621 266l-621 267l121 286l889 -383v-342l-889 -381z" />
<glyph unicode="?" horiz-adv-x="1175" d="M20 1335q118 101 273 152t319 51q76 0 153 -18.5t147 -56.5t124.5 -90t86.5 -123.5t32 -153.5q0 -91 -22.5 -163t-59 -115.5t-83 -77t-95.5 -51t-95.5 -34.5t-83 -30t-59 -35.5t-22.5 -52.5v-117h-340v201q0 77 29 135t75 91t102 56.5t112 39t102 31.5t75 41.5t29 61.5 q0 33 -24 58.5t-60 38.5t-71.5 19.5t-65.5 6.5q-88 0 -183 -33t-173 -86zM295 0v340h340v-340h-340z" />
<glyph unicode="@" horiz-adv-x="1402" d="M39 721q0 187 93 345t251.5 249.5t345.5 91.5q283 0 451 -163.5t168 -446.5q0 -72 -10.5 -135.5t-36.5 -122.5t-65.5 -101t-101 -67t-139.5 -25q-71 0 -132 31t-97 88q-52 -25 -77 -36.5t-70 -24.5t-82 -13q-123 0 -192 82t-69 209q0 79 22.5 155.5t64 140t110 103 t152.5 39.5q87 0 161 -55l7 41h282l-76 -578q0 -9 15 -16.5t24 -7.5q39 0 70 27t49 68t27.5 82.5t9.5 76.5q0 231 -121 364t-350 133q-145 0 -267 -71t-192.5 -193t-70.5 -266q0 -216 135 -346.5t352 -130.5q104 0 213 45l57 -125q-148 -59 -276 -59q-285 0 -460 164.5 t-175 447.5zM561 709q0 -103 78 -103q11 0 24 3t21 6.5l24 10.5t21 9v8h2l29 215q-52 33 -84 33q-41 0 -68.5 -32.5t-37 -71.5t-9.5 -78z" />
<glyph unicode="A" horiz-adv-x="1685" d="M53 0l582 1516h428l582 -1516h-431l-77 221h-576l-78 -221h-430zM674 543h352l-176 499z" />
<glyph unicode="B" horiz-adv-x="1501" d="M121 0v1516h735q86 0 162 -12.5t147.5 -43.5t123 -78t82 -120t30.5 -166q0 -114 -62.5 -195.5t-171.5 -124.5q122 -45 192.5 -131.5t70.5 -210.5q0 -94 -30.5 -169t-81.5 -124t-123 -81.5t-150 -46t-166 -13.5h-758zM551 340h291q157 0 157 123q0 80 -49.5 111.5 t-134.5 31.5h-264v-266zM551 913h240q182 0 182 138q0 74 -47 100.5t-127 26.5h-248v-265z" />
<glyph unicode="C" horiz-adv-x="1542" d="M86 756q0 361 213 571.5t575 210.5q143 0 270 -40t233 -127.5t167 -213.5l-332 -153q-48 92 -138.5 139t-199.5 47q-94 0 -163.5 -35t-108.5 -97t-57.5 -137t-18.5 -165t18.5 -164.5t57.5 -135.5t108.5 -95.5t163.5 -34.5q114 0 205 46.5t138 143.5l331 -154 q-61 -129 -167.5 -217.5t-234 -129t-272.5 -40.5q-363 0 -575.5 209t-212.5 572z" />
<glyph unicode="D" horiz-adv-x="1574" d="M121 0v1516h616q357 0 556.5 -200.5t199.5 -557.5t-199.5 -557.5t-556.5 -200.5h-616zM551 340h186q328 0 328 418q0 72 -8.5 131t-31.5 114.5t-59 93.5t-94.5 60.5t-134.5 22.5h-186v-840z" />
<glyph unicode="E" horiz-adv-x="1265" d="M121 2v1516h1110v-340h-680v-240h577v-322h-577v-276h680v-338h-1110z" />
<glyph unicode="F" horiz-adv-x="1220" d="M121 0v1516h1110v-338h-680v-240h577v-322h-577v-616h-430z" />
<glyph unicode="G" horiz-adv-x="1697" d="M86 782q0 358 211.5 557t576.5 199q191 0 358 -76t267 -225l-319 -180q-53 66 -134 98.5t-172 32.5q-93 0 -162.5 -35t-109 -96.5t-58 -136.5t-18.5 -164q0 -71 11 -133t37 -118t65 -95.5t99 -62.5t136 -23q153 0 302 145v96h-222v318h650v-883h-328l-43 113 q-194 -138 -359 -138q-239 0 -418 100t-274.5 282.5t-95.5 424.5z" />
<glyph unicode="H" horiz-adv-x="1656" d="M121 0v1516h430v-576h567v576h428v-1516h-428v610h-567v-610h-430z" />
<glyph unicode="I" horiz-adv-x="661" d="M121 0v1516h430v-1516h-430z" />
<glyph unicode="J" horiz-adv-x="1099" d="M33 102l117 316q138 -58 233 -58q86 0 134 44.5t48 130.5v981h430v-1055q0 -157 -72.5 -268.5t-192.5 -164.5t-275 -53q-157 0 -422 127z" />
<glyph unicode="K" horiz-adv-x="1570" d="M121 0v1516h430v-680l508 680h459l-521 -637l535 -879h-453l-331 569l-197 -237v-332h-430z" />
<glyph unicode="L" horiz-adv-x="1251" d="M121 0v1516h430v-1178h680v-338h-1110z" />
<glyph unicode="M" horiz-adv-x="2125" d="M121 0v1516h612l336 -949l336 949h610v-1516h-428v907q-16 -45 -101.5 -285.5t-153 -430t-66.5 -191.5h-394q1 2 -66.5 191.5t-153 430t-101.5 285.5v-907h-430z" />
<glyph unicode="N" horiz-adv-x="1716" d="M121 0v1516h452l607 -891v891h426v-1516h-455l-604 887v-887h-426z" />
<glyph unicode="O" horiz-adv-x="1746" d="M86 758q0 361 213 570.5t575 209.5t576.5 -209.5t214.5 -570.5q0 -364 -213.5 -573.5t-577.5 -209.5q-363 0 -575.5 210t-212.5 573zM526 758q0 -91 18 -165.5t57 -136t108.5 -96t164.5 -34.5t165 34.5t109.5 95.5t58 136t18.5 166q0 71 -11.5 133t-38 117.5t-66.5 95.5 t-100 63t-135 23q-93 0 -162.5 -35t-109 -96.5t-58 -136.5t-18.5 -164z" />
<glyph unicode="P" horiz-adv-x="1411" d="M121 0v1516h760q116 0 212 -27t171 -82t117 -146.5t42 -211.5q0 -86 -19.5 -155.5t-54 -117t-82.5 -83.5t-105.5 -55t-122.5 -33t-133 -16.5t-137 -5t-135 0.5h-83v-584h-430zM551 905h262q77 0 129.5 35t52.5 109q0 129 -174 129h-270v-273z" />
<glyph unicode="Q" horiz-adv-x="1740" d="M76 754q0 361 213 571.5t575 210.5t576.5 -210.5t214.5 -571.5q0 -322 -168 -523l176 -180l-197 -192l-194 202q-177 -88 -408 -88q-363 0 -575.5 209t-212.5 572zM516 754q0 -71 11 -133t37 -118t65 -95.5t99 -62.5t136 -23q75 0 131 22l-180 184l195 193l172 -178 q32 87 32 211q0 71 -11 133t-37.5 118t-66 95.5t-99.5 62.5t-136 23q-93 0 -162.5 -35t-109 -96.5t-58 -136.5t-18.5 -164z" />
<glyph unicode="R" horiz-adv-x="1527" d="M121 0v1516h758q117 0 213.5 -27t171.5 -81.5t117 -146t42 -212.5q0 -163 -83 -274.5t-238 -158.5l366 -616h-450l-330 584h-137v-584h-430zM551 907h262q77 0 128.5 34.5t51.5 107.5t-46 101t-124 28h-272v-271z" />
<glyph unicode="S" horiz-adv-x="1429" d="M88 1069q0 83 27 154t75 121.5t110 89t135 61t147 34t149 11.5q276 0 592 -135l-68 -303q-327 100 -520 100q-33 0 -66 -4t-71.5 -15t-62 -35t-23.5 -58q0 -33 29.5 -55.5t79.5 -36.5t114.5 -26t136 -27.5t143 -37t136 -59t114.5 -88.5t79.5 -130.5t29.5 -180.5 q0 -99 -39 -181t-103 -135.5t-149 -90.5t-173 -53t-179 -16q-256 0 -639 158l74 313q377 -125 547 -125q33 0 65 4.5t68.5 15t59 35t22.5 58.5q0 38 -28.5 64.5t-77.5 42.5t-112 29t-132.5 28.5t-139 35.5t-132.5 55.5t-112 83.5t-77.5 124.5t-28.5 173.5z" />
<glyph unicode="T" horiz-adv-x="1343" d="M53 1178v338h1254v-338h-412v-1178h-428v1178h-414z" />
<glyph unicode="U" horiz-adv-x="1615" d="M121 621v895h430v-840q0 -53 8.5 -102.5t28 -97.5t49.5 -83.5t76 -57.5t104 -22q71 0 125 32.5t84 86.5t44.5 115.5t14.5 128.5v840h431v-895q0 -157 -51.5 -281t-144.5 -203t-220.5 -120.5t-282.5 -41.5q-154 0 -281 41.5t-220 120.5t-144 203t-51 281z" />
<glyph unicode="V" horiz-adv-x="1732" d="M53 1516h451l366 -1041l365 1041h451l-603 -1516h-428z" />
<glyph unicode="W" horiz-adv-x="2506" d="M53 1516h451l235 -930l301 930h412l303 -934l240 934h450l-469 -1516h-411l-320 934l-317 -934h-410z" />
<glyph unicode="X" horiz-adv-x="1722" d="M53 0l545 770l-537 746h500l309 -437l312 437h499l-538 -746l543 -770h-500l-316 436l-315 -436h-502z" />
<glyph unicode="Y" horiz-adv-x="1685" d="M53 1516h453l348 -598l350 598h451l-590 -930v-586h-428v600z" />
<glyph unicode="Z" horiz-adv-x="1460" d="M92 0v313l748 865h-736v338h1305v-267l-795 -911h805v-338h-1327z" />
<glyph unicode="[" horiz-adv-x="962" d="M90 -346v2029h799v-274h-369v-1481h369v-274h-799z" />
<glyph unicode="\" horiz-adv-x="1370" d="M51 1516h432l879 -1516h-430z" />
<glyph unicode="]" horiz-adv-x="968" d="M59 -72h369v1481h-369v274h799v-2029h-799v274z" />
<glyph unicode="^" horiz-adv-x="860" />
<glyph unicode="_" horiz-adv-x="1118" d="M98 -225h989v-324h-989v324z" />
<glyph unicode="`" horiz-adv-x="636" d="M109 1505l327 90l101 -352l-201 -55z" />
<glyph unicode="a" horiz-adv-x="1372" d="M86 547q0 113 27.5 212.5t82 180.5t146 128.5t209.5 47.5q153 0 299 -112v90h410v-1094h-306l-55 90q-60 -30 -85.5 -42t-78 -33.5t-96 -30.5t-86.5 -9q-95 0 -173.5 31.5t-132 86t-90.5 128t-54 155.5t-17 171zM494 539q0 -49 9 -92.5t29 -83.5t58 -63.5t90 -23.5 q60 0 170 54v397q-111 72 -176 72q-50 0 -86.5 -24t-56 -63.5t-28.5 -82.5t-9 -90z" />
<glyph unicode="b" horiz-adv-x="1366" d="M121 0v1516h409v-512q146 112 297 112q96 0 174.5 -31t132 -84.5t90 -126.5t53.5 -155t17 -172t-16.5 -172t-53.5 -155.5t-90.5 -127.5t-132 -85.5t-174.5 -31.5q-57 0 -126.5 21t-104.5 37.5t-115 56.5l-55 -90h-305zM530 330q40 -19 57.5 -26.5t51.5 -17.5t61 -10 q53 0 90.5 23.5t57.5 63.5t28.5 83t8.5 93q0 47 -8.5 90t-28 82.5t-56.5 63.5t-87 24q-68 0 -175 -72v-397z" />
<glyph unicode="c" horiz-adv-x="1294" d="M86 545q0 140 46 249t129 178.5t196 105.5t250 36q93 0 175 -18t155 -56t129 -103t87 -153l-360 -106q-43 127 -186 127q-45 0 -80 -15.5t-57.5 -40.5t-37 -60t-20.5 -72t-6 -78q0 -52 10.5 -98t32.5 -86.5t63 -64.5t95 -24q71 0 120 39t68 109l354 -115 q-40 -114 -126 -189.5t-189 -106t-227 -30.5q-184 0 -322 63t-218.5 193.5t-80.5 315.5z" />
<glyph unicode="d" horiz-adv-x="1368" d="M86 547q0 113 27.5 212.5t82 180.5t146 128.5t209.5 47.5q153 0 299 -112v512h410v-1516h-306l-55 90q-60 -30 -85.5 -42t-78 -33.5t-96 -30.5t-86.5 -9q-95 0 -173.5 31.5t-132 86t-90.5 128t-54 155.5t-17 171zM496 539q0 -50 8.5 -93t28 -83t57 -63.5t90.5 -23.5 q60 0 170 54v397q-111 72 -176 72q-50 0 -86 -24t-55.5 -63.5t-28 -82.5t-8.5 -90z" />
<glyph unicode="e" horiz-adv-x="1329" d="M86 545q0 140 46 249.5t129 179.5t196 106t250 36q267 0 403.5 -142.5t136.5 -410.5q0 -18 -1 -38.5t-2.5 -45.5t-2.5 -39h-725q14 -80 63.5 -131t127.5 -51q45 0 90 3.5t103.5 14.5t84.5 16.5t102.5 23t88.5 20.5l49 -268q-160 -45 -280.5 -69t-237.5 -24 q-184 0 -322 61.5t-218.5 191.5t-80.5 317zM518 649h359q-32 168 -170 168q-75 0 -123 -46t-66 -122z" />
<glyph unicode="f" horiz-adv-x="913" d="M61 819v275h170q0 85 8 147.5t31 120.5t62 94.5t103.5 58t152.5 21.5q134 0 289 -33l-33 -241q-9 0 -29 1t-29 1q-141 0 -145 -170h180v-275h-180v-819h-410v819h-170z" />
<glyph unicode="g" horiz-adv-x="1370" d="M86 547q0 90 17 172t53.5 155t90 126.5t132 84.5t174.5 31q157 0 328 -135l73 113h306v-1108q0 -243 -129.5 -386t-370.5 -143q-82 0 -190 20.5t-173.5 38.5t-187.5 56q-22 7 -33 10l88 293q29 -7 122.5 -34.5t158 -40.5t125.5 -13q38 0 67 10t48 24t32 40.5t19.5 46.5 t9.5 56.5t3.5 57t0.5 58.5v20q-92 -44 -164 -68t-147 -24q-94 0 -170.5 28.5t-128.5 77.5t-87 117.5t-51 147.5t-16 168zM496 539q0 -232 161 -232q71 0 193 58v362q-111 72 -174 72q-50 0 -87 -24t-56.5 -63.5t-28 -82.5t-8.5 -90z" />
<glyph unicode="h" horiz-adv-x="1341" d="M121 0v1513h409v-569q220 172 353 172q74 0 141.5 -21t121 -60t85 -102t31.5 -140v-793h-410v670q0 51 -34 82.5t-87 31.5q-32 0 -74.5 -20.5t-63.5 -35.5t-63 -48v-680h-409z" />
<glyph unicode="i" horiz-adv-x="638" d="M121 1223v338h411v-338h-411zM123 0v1094h409v-1094h-409z" />
<glyph unicode="j" horiz-adv-x="858" d="M20 -463l68 307q68 -10 82 -10q88 0 131 58.5t43 150.5v1051h410v-1067q0 -243 -126.5 -383t-367.5 -140q-79 0 -240 33zM342 1223v338h414v-338h-414z" />
<glyph unicode="k" horiz-adv-x="1341" d="M121 0v1516h409v-748l295 326h441l-383 -424l411 -670h-430l-233 391l-101 -112v-279h-409z" />
<glyph unicode="l" horiz-adv-x="638" d="M121 0v1513h409v-1513h-409z" />
<glyph unicode="m" horiz-adv-x="2080" d="M90 0v1094h311l88 -158q230 180 363 180q115 0 212.5 -49t139.5 -147q242 196 379 196q158 0 267.5 -85t109.5 -238v-793h-408v657q0 52 -34 89.5t-86 37.5q-66 0 -201 -106v-678h-410v657q0 52 -34.5 89.5t-86.5 37.5q-30 0 -72.5 -20.5t-65 -37t-62.5 -46.5v-680h-410z " />
<glyph unicode="n" horiz-adv-x="1359" d="M121 0v1094h311l88 -158q230 180 363 180q102 0 186 -35t138.5 -110t54.5 -178v-793h-410v657q0 52 -34.5 89.5t-86.5 37.5q-30 0 -72.5 -20.5t-66 -37t-62.5 -46.5v-680h-409z" />
<glyph unicode="o" horiz-adv-x="1406" d="M86 545q0 140 46 249t129 178.5t196 105.5t250 36q136 0 249 -36t196 -106t129 -179t46 -248q0 -185 -80 -315.5t-218 -193.5t-322 -63t-322 62.5t-218.5 193t-80.5 316.5zM506 541q0 -53 10 -99t31.5 -87t62.5 -65t97 -24q45 0 80 16.5t56.5 43t36 63t20 74t5.5 78.5 q0 52 -10 96.5t-31.5 84t-61.5 62.5t-95 23q-45 0 -80 -15.5t-57.5 -40.5t-37 -60t-20.5 -72t-6 -78z" />
<glyph unicode="p" horiz-adv-x="1372" d="M121 -492v1586h307l74 -113q159 135 327 135q95 0 173.5 -31.5t132 -85t90.5 -126.5t54 -155t17 -171q0 -112 -28 -212.5t-83.5 -182t-147.5 -129.5t-210 -48q-48 0 -106 16t-92.5 30.5t-98.5 44.5v-558h-409zM530 330q40 -19 57.5 -26.5t51.5 -17.5t61 -10q52 0 90 23.5 t58.5 63t29.5 83.5t9 93q0 47 -9 90t-28.5 83.5t-56 64.5t-86.5 24q-66 0 -177 -72v-399z" />
<glyph unicode="q" horiz-adv-x="1413" d="M86 547q0 113 27.5 212.5t82 180.5t146 128.5t209.5 47.5q163 0 330 -135l73 113h306v-1297l256 92v-247l-338 -134h-328v558q-70 -32 -100.5 -45t-90 -29.5t-108.5 -16.5q-94 0 -172.5 32t-131.5 86t-90 127.5t-54 155.5t-17 171zM496 539q0 -50 8.5 -93t28 -83 t57 -63.5t90.5 -23.5q16 0 32.5 2.5t38.5 10.5t31 11.5t37 16t31 13.5v399q-111 72 -176 72q-50 0 -86.5 -24.5t-55.5 -65t-27.5 -83.5t-8.5 -89z" />
<glyph unicode="r" horiz-adv-x="993" d="M121 0v1094h311l80 -140q202 164 356 164q11 0 84 -10l-53 -367q-47 15 -96 15q-109 0 -273 -94v-662h-409z" />
<glyph unicode="s" horiz-adv-x="1148" d="M86 84l61 246q22 -6 108 -31t125 -34.5t106 -20.5t122 -11q103 0 103 68q0 26 -26.5 45t-70.5 30.5t-99.5 25.5t-114 28t-114 41t-99.5 62t-70.5 93t-26.5 132q0 92 45.5 163.5t119 113t157 62.5t168.5 21q188 0 454 -86l-59 -246q-237 72 -383 72q-22 0 -45.5 -4.5 t-45.5 -18.5t-22 -36q0 -27 34 -44.5t88.5 -29.5t120.5 -25.5t131.5 -39.5t120 -64.5t88.5 -107t34 -160.5q0 -77 -33 -139t-86 -101.5t-122 -66t-137.5 -37.5t-137.5 -11q-175 0 -494 111z" />
<glyph unicode="t" horiz-adv-x="962" d="M51 819v273h170v335h410v-335h272v-273h-272v-469q0 -61 39.5 -83.5t105.5 -22.5q32 0 98 4v-230q-112 -18 -305 -18q-47 0 -92 5.5t-92 21.5t-82 40t-57.5 65t-22.5 93q0 99 -1 297t-1 297h-170z" />
<glyph unicode="u" horiz-adv-x="1374" d="M121 301v793h409v-658q0 -54 33.5 -89.5t87.5 -35.5q60 0 201 101v682h410v-1094h-312l-88 158q-229 -183 -362 -183q-102 0 -186.5 35.5t-138.5 111.5t-54 179z" />
<glyph unicode="v" horiz-adv-x="1333" d="M53 1094h430l197 -707l197 707h428l-390 -1094h-471z" />
<glyph unicode="w" horiz-adv-x="1816" d="M53 1094h416l139 -607l123 607h377l121 -607l139 607h416l-336 -1094h-369l-159 571l-162 -571h-369z" />
<glyph unicode="x" horiz-adv-x="1427" d="M53 0l426 551l-411 543h430l204 -293l199 293h430l-393 -523l440 -571h-430l-233 315l-232 -315h-430z" />
<glyph unicode="y" horiz-adv-x="1435" d="M53 1094h432l246 -596l203 596h428l-602 -1583h-428l221 587z" />
<glyph unicode="z" horiz-adv-x="1222" d="M86 0v240l510 548h-477v306h1024v-222l-506 -567h506v-305h-1057z" />
<glyph unicode="{" horiz-adv-x="980" d="M82 426v254h4q63 -1 109 16.5t72.5 45.5t41.5 73t20 89.5t5 105.5q0 81 7 144.5t18 112.5t34.5 84.5t45.5 60.5t63 41t75.5 25t94.5 13t108 5t126 1h12h10.5h11.5v-233q-77 -3 -131 -27.5t-82.5 -64t-44 -90.5t-19 -107t-4 -112.5t-3 -108.5t-12 -94t-34 -70t-66.5 -35 q40 0 63.5 -24t32.5 -64.5t11.5 -93t4 -111t5.5 -117t20.5 -111.5t45 -95t83 -68t130.5 -29v-235h-16q-68 0 -106 0.5t-109 6.5t-114.5 17t-99.5 33.5t-87 54.5t-53.5 82.5t-22.5 114.5q0 30 2 90t2 90q0 59 -5.5 104.5t-22 90t-44 73.5t-73.5 46t-109 16z" />
<glyph unicode="|" horiz-adv-x="446" d="M102 -344v2030h279v-2030h-279z" />
<glyph unicode="}" horiz-adv-x="993" d="M63 -158q77 3 131 27.5t82.5 64t44 90.5t19 107t4 112.5t3 108.5t12 94t34 70t66.5 35q-40 1 -63.5 25t-32.5 64.5t-12 93t-4.5 110.5t-5.5 116.5t-20.5 112t-45 95t-82.5 67.5t-130 29v233h16q67 0 105 -0.5t109.5 -6.5t115 -17t99.5 -33.5t87.5 -54t54 -81.5t22.5 -114 q0 -30 -2 -90t-2 -90q0 -59 5.5 -104.5t22 -90t44 -73.5t73.5 -46t109 -16v-254q-64 1 -110.5 -16.5t-73.5 -46t-43.5 -73.5t-21.5 -90t-5 -106q0 -73 -4.5 -131.5t-16.5 -105t-26 -82t-38.5 -62t-48.5 -44.5t-62.5 -29.5t-73 -18t-87.5 -9.5t-99.5 -4t-114.5 -1h-34v235z " />
<glyph unicode="~" horiz-adv-x="1107" d="M121 494q9 51 28 98t48 89t73 67.5t97 25.5q59 0 115.5 -22t92.5 -48.5t75 -48.5t67 -22q45 0 76 43.5t47 97.5l153 -74q-10 -52 -28.5 -98.5t-48 -89.5t-73.5 -68.5t-98 -25.5q-59 0 -115.5 22.5t-92.5 50t-75 50t-67 22.5q-44 0 -75.5 -44.5t-45.5 -96.5z" />
<glyph unicode="&#xa1;" horiz-adv-x="628" d="M92 0l45 1085h342l43 -1085h-430zM137 1176v340h340v-340h-340z" />
<glyph unicode="&#xa2;" horiz-adv-x="1302" d="M86 582q0 182 78.5 311t213.5 192.5t316 65.5l31 176l219 -39l-29 -162q115 -30 202.5 -102.5t129.5 -179.5l-329 -94q-32 52 -89 78t-122 26q-55 0 -95.5 -25t-62 -67.5t-31.5 -89t-10 -97.5t10 -97.5t32 -89.5t62.5 -69t94.5 -26q66 0 124 29.5t91 83.5l319 -101 q-33 -77 -88.5 -134t-125 -91t-146 -50.5t-160.5 -17.5l-33 -176l-219 39l29 162q-200 50 -306 193.5t-106 351.5z" />
<glyph unicode="&#xa3;" horiz-adv-x="1433" d="M109 0v274h77v347h-77v276h77q6 320 160.5 478.5t472.5 158.5q85 0 187.5 -16.5t171 -34t182.5 -49.5l-62 -342q-32 7 -114 25t-128.5 27t-114.5 18t-122 9q-48 0 -91.5 -36t-43.5 -84v-154h408v-276h-408v-347h621v-274h-1196z" />
<glyph unicode="&#xa4;" horiz-adv-x="1396" d="M88 201l154 151q-60 114 -60 234q0 119 60 233l-154 152l211 211l154 -152q108 57 231 57q126 0 234 -57l153 152l209 -211l-152 -152q58 -110 58 -233q0 -124 -58 -234l152 -151l-209 -211l-153 151q-108 -57 -234 -57q-123 0 -231 57l-154 -151zM471 586q0 -89 62 -151 t151 -62t152 62.5t63 150.5t-63 150.5t-152 62.5t-151 -62t-62 -151z" />
<glyph unicode="&#xa5;" horiz-adv-x="1689" d="M72 1516h452l361 -625l358 625h453l-568 -867h310v-223h-344v-76h344v-223h-344v-127h-428v127h-334v223h334v76h-334v223h307z" />
<glyph unicode="&#xa6;" horiz-adv-x="473" d="M100 -344v885h279v-885h-279zM100 801v885h279v-885h-279z" />
<glyph unicode="&#xa7;" horiz-adv-x="1196" d="M92 -217l58 266q289 -112 413 -112q31 0 65 7.5t63.5 30t29.5 54.5q0 31 -26.5 53.5t-70.5 35t-99.5 28t-114 30.5t-114 45t-99.5 69.5t-70.5 105.5t-26.5 151q0 87 38.5 166t107.5 131q-71 50 -108.5 128.5t-37.5 168.5q0 97 41.5 175t111 125.5t155 73t178.5 25.5 q191 0 454 -96l-59 -277q-242 82 -383 82q-23 0 -48 -4t-51.5 -13.5t-43.5 -28.5t-17 -44q0 -24 22 -41.5t59 -28.5t85.5 -21t102 -23.5t106.5 -31.5t101.5 -50t85.5 -74t59 -107t22 -147q0 -85 -39 -159.5t-108 -121.5q73 -52 110 -135t37 -178q0 -77 -29 -141.5 t-77.5 -108t-113 -73.5t-133.5 -44t-140 -14q-176 0 -496 123zM438 602q0 -81 123 -117q3 -1 18 -5.5t17 -4.5q48 0 86.5 31t38.5 78q0 92 -119 135q-42 14 -49 14q-52 0 -83.5 -39.5t-31.5 -91.5z" />
<glyph unicode="&#xa8;" horiz-adv-x="1017" d="M102 1223v338h371v-338h-371zM541 1223v338h370v-338h-370z" />
<glyph unicode="&#xa9;" horiz-adv-x="1378" d="M55 758q0 169 84 313t228 227.5t313 83.5t313 -83.5t228 -227.5t84 -313t-84 -313t-228 -228t-313 -84t-313 84t-228 228t-84 313zM223 758q0 -92 36.5 -176.5t98 -146t146 -98t176.5 -36.5t177 36.5t146.5 98t98.5 146t37 176.5t-37 177t-98.5 146.5t-146.5 98.5 t-177 37t-176.5 -37t-146 -98.5t-98 -146.5t-36.5 -177zM360 756q0 153 90 242t244 89q93 0 170.5 -42t118.5 -127l-154 -74q-41 80 -135 80q-69 0 -100 -46t-31 -122q0 -166 131 -166q94 0 137 82l154 -74q-41 -86 -119 -129t-172 -43q-153 0 -243.5 88.5t-90.5 241.5z" />
<glyph unicode="&#xaa;" horiz-adv-x="1067" d="M59 1087q0 70 13 133.5t41.5 121t70 99.5t102.5 66.5t136 24.5q114 0 231 -88v72h320v-852h-240l-39 67q-62 -30 -90.5 -43t-82 -29t-97.5 -16q-92 0 -163.5 37t-114.5 100.5t-65 141t-22 165.5zM379 1081q0 -38 7 -71.5t22 -64t44.5 -48.5t69.5 -18q11 0 23 2t21 4t24 8 t20.5 8t22.5 10t20 9v309q-75 55 -135 55q-51 0 -84 -34t-44 -76.5t-11 -92.5z" />
<glyph unicode="&#xab;" horiz-adv-x="1497" d="M53 758l340 534h432l-340 -534l340 -537h-432zM649 758l340 534h430l-340 -534l340 -537h-430z" />
<glyph unicode="&#xad;" horiz-adv-x="950" d="M106 375v323h711v-323h-711z" />
<glyph unicode="&#xae;" horiz-adv-x="1378" d="M55 758q0 168 84.5 312t228.5 228t312 84q169 0 313 -83.5t228 -227.5t84 -313t-84 -313t-228 -228t-313 -84t-313 84t-228 228t-84 313zM223 758q0 -189 134 -324t323 -135t323 135t134 324q0 92 -36.5 177t-98 146.5t-146 98.5t-176.5 37q-189 0 -323 -135t-134 -324z M420 436v641h319q103 0 169.5 -50t66.5 -153q0 -66 -33.5 -113t-93.5 -69l153 -256h-210l-136 238h-39v-238h-196zM616 813h99q27 0 45 14.5t18 38.5q0 52 -65 52h-97v-105z" />
<glyph unicode="&#xaf;" horiz-adv-x="950" d="M106 1196v324h711v-324h-711z" />
<glyph unicode="&#xb0;" horiz-adv-x="815" d="M80 1200q0 136 97.5 233t234.5 97t234 -97t97 -233q0 -137 -97.5 -234.5t-233.5 -97.5t-234 98t-98 234zM231 1200q0 -73 53.5 -126.5t127.5 -53.5t127 53t53 127t-53 127t-127 53t-127.5 -53.5t-53.5 -126.5z" />
<glyph unicode="&#xb1;" horiz-adv-x="1374" d="M215 772v270h342v340h270v-340h340v-270h-340v-340h-270v340h-342zM227 76v260h936v-260h-936z" />
<glyph unicode="&#xb2;" horiz-adv-x="837" d="M47 1341q120 193 356 193q54 0 103 -6.5t99 -24.5t86 -46t58.5 -74t22.5 -105q0 -44 -14 -86.5t-33 -74.5t-53 -70.5t-58.5 -61.5t-67 -61t-61.5 -56h277v-227h-672v186q16 14 96 80t142 119.5t117 117t55 97.5q0 32 -31.5 49t-65.5 17q-103 0 -153 -74z" />
<glyph unicode="&#xb3;" horiz-adv-x="888" d="M63 1346q118 194 357 194q52 0 101 -7t99.5 -25t88 -45.5t61 -72.5t23.5 -102q0 -131 -103 -194q63 -29 97 -82.5t34 -122.5q0 -58 -26.5 -104t-67 -74t-95.5 -46t-106 -25t-104 -7q-112 0 -206 50.5t-150 145.5l204 109q47 -84 152 -84q39 0 71.5 22.5t32.5 59.5 q0 70 -155 70q-15 0 -42 1t-42 1v161h94q137 0 137 80q0 32 -31.5 50t-66.5 18q-101 0 -150 -82z" />
<glyph unicode="&#xb4;" horiz-adv-x="641" d="M109 1243l100 352l328 -90l-228 -317z" />
<glyph unicode="&#xb5;" horiz-adv-x="1355" d="M113 -397v1491h409v-670q0 -55 34 -91t89 -36q59 0 199 104v693h407v-1094h-311l-86 158q-87 -71 -166 -115.5t-166 -56.5v-383h-409z" />
<glyph unicode="&#xb6;" horiz-adv-x="1456" d="M121 1049q0 120 42 211.5t117 146.5t171.5 82t212.5 27h626v-1516h-428v584q-91 0 -151 2t-145 12t-141.5 27.5t-119 52t-99 83t-61 121.5t-24.5 167z" />
<glyph unicode="&#xb7;" horiz-adv-x="632" d="M168 358v344h346v-344h-346z" />
<glyph unicode="&#xb8;" horiz-adv-x="690" d="M76 -428l71 139q82 -28 148 -28q34 0 69 10t35 35q0 45 -88 45q-40 0 -84 -13l-82 64l148 176h217l-100 -109q53 0 92 -7t74.5 -25t54 -55.5t18.5 -92.5q0 -54 -32.5 -92.5t-85 -57t-102.5 -26.5t-101 -8q-136 0 -252 45z" />
<glyph unicode="&#xb9;" horiz-adv-x="731" d="M78 1354l266 168h274v-881h-286v578l-117 -72z" />
<glyph unicode="&#xba;" horiz-adv-x="974" d="M74 1081q0 209 104.5 331t310.5 122q205 0 309.5 -122t104.5 -331q0 -211 -103.5 -332.5t-310.5 -121.5t-311 122t-104 332zM358 1081q0 -35 1.5 -59.5t9 -58t20.5 -53.5t38.5 -35t61.5 -15q35 0 60.5 15t38.5 35.5t20 54t8.5 57.5t1.5 59t-1.5 59t-8.5 57t-20 53 t-38.5 35t-60.5 15q-44 0 -72.5 -19.5t-40 -56.5t-15 -67.5t-3.5 -75.5z" />
<glyph unicode="&#xbb;" horiz-adv-x="1519" d="M100 221l340 537l-340 534h430l340 -534l-340 -537h-430zM694 221l340 537l-340 534h432l340 -534l-340 -537h-432z" />
<glyph unicode="&#xbc;" horiz-adv-x="2086" d="M57 1354l267 168h274l20 -881h-307v578l-116 -72zM416 0l815 1516h405l-815 -1516h-405zM1198 182v213l358 486h355v-471h106v-228h-106v-182h-289v182h-424zM1493 410h129v174z" />
<glyph unicode="&#xbd;" horiz-adv-x="2134" d="M57 1354l267 168h274l20 -881h-307v578l-116 -72zM416 0l815 1516h405l-815 -1516h-405zM1300 700q115 193 355 193q70 0 130.5 -11.5t117 -38.5t89.5 -79.5t33 -126.5q0 -44 -14 -86.5t-33.5 -75t-53.5 -70t-59.5 -61.5t-66.5 -60.5t-61 -56.5h276v-227h-672v186 q12 11 96 80t143.5 120.5t115 116t55.5 99.5q0 32 -31 48t-65 16q-104 0 -154 -74z" />
<glyph unicode="&#xbe;" horiz-adv-x="2150" d="M70 1346q118 194 356 194q52 0 101 -7t99.5 -25t88 -45.5t61 -72.5t23.5 -102q0 -131 -103 -194q63 -29 97 -82.5t34 -122.5q0 -58 -26.5 -104t-67 -74t-95.5 -46t-106 -25t-104 -7q-112 0 -206 50.5t-150 145.5l204 109q47 -84 152 -84q39 0 71.5 22.5t32.5 59.5 q0 70 -155 70q-15 0 -42 1t-42 1v161h94q137 0 137 80q0 32 -31.5 50t-66.5 18q-101 0 -150 -82zM492 0l813 1516h405l-813 -1516h-405zM1270 182v213l358 486h352v-471h107v-228h-107v-182h-286v182h-424zM1563 410h131v174z" />
<glyph unicode="&#xbf;" horiz-adv-x="1202" d="M20 442q0 103 29 180.5t75 122t102 75.5t111.5 49t101.5 34t75 40t29 58v117h338v-200q0 -77 -29 -135t-75.5 -91t-102 -56.5t-111.5 -39.5t-102.5 -32t-75.5 -41.5t-29 -61.5q0 -33 24 -58.5t60.5 -38.5t72 -19.5t65.5 -6.5q89 0 185 32.5t171 86.5l221 -254 q-116 -101 -270.5 -152t-319.5 -51q-76 0 -153 18.5t-147.5 56.5t-125 89.5t-87 124t-32.5 153.5zM543 1198v340h338v-340h-338z" />
<glyph unicode="&#xc0;" d="M53 0l582 1516h428l582 -1516h-431l-77 221h-576l-78 -221h-430zM547 1905l327 90l101 -353l-201 -55zM674 543h352l-176 499z" />
<glyph unicode="&#xc1;" d="M53 0l582 1516h428l582 -1516h-431l-77 221h-576l-78 -221h-430zM674 543h352l-176 499zM733 1642l101 353l327 -90l-227 -318z" />
<glyph unicode="&#xc2;" d="M53 0l582 1516h428l582 -1516h-431l-77 221h-576l-78 -221h-430zM477 1722l250 260h248l250 -260l-170 -118l-203 141l-205 -141zM674 543h352l-176 499z" />
<glyph unicode="&#xc3;" d="M53 0l582 1516h428l582 -1516h-431l-77 221h-576l-78 -221h-430zM412 1683q10 51 28.5 97.5t47.5 89.5t73 68.5t96 25.5q60 0 117 -22t93 -48.5t75.5 -48.5t67.5 -22q45 0 75.5 44t44.5 97l156 -74q-10 -52 -28.5 -98.5t-48 -89.5t-73.5 -68.5t-98 -25.5 q-60 0 -116.5 22.5t-92.5 50t-74.5 50t-66.5 22.5q-45 0 -76 -43.5t-47 -97.5zM674 543h352l-176 499z" />
<glyph unicode="&#xc4;" d="M53 0l582 1516h428l582 -1516h-431l-77 221h-576l-78 -221h-430zM438 1620v338h371v-338h-371zM674 543h352l-176 499zM877 1620v338h370v-338h-370z" />
<glyph unicode="&#xc5;" d="M53 0l582 1516h428l582 -1516h-431l-77 221h-576l-78 -221h-430zM645 1794q0 83 61 144t144 61t143 -61t60 -144q0 -85 -59 -145t-144 -60t-145 60t-60 145zM674 543h352l-176 499zM768 1794q0 -34 24 -58t58 -24t58 24t24 58q0 32 -25 57t-57 25q-34 0 -58 -24t-24 -58z " />
<glyph unicode="&#xc6;" horiz-adv-x="2754" d="M360 0l953 1516h1274v-338h-680v-240h577v-324h-577v-276h680v-338h-1110v221h-555l-131 -221h-431zM1114 543h363v612z" />
<glyph unicode="&#xc7;" horiz-adv-x="1579" d="M76 756q0 362 214 572t576 210q219 0 398.5 -96.5t271.5 -284.5l-334 -153q-48 92 -137.5 139t-198.5 47q-76 0 -136 -23.5t-99.5 -63t-66 -96t-37.5 -118.5t-11 -133q0 -90 18.5 -165t58.5 -136t109.5 -95t163.5 -34q113 0 204 47t138 143l332 -154 q-79 -169 -230.5 -264.5t-342.5 -115.5l-82 -91q53 0 92 -7t74.5 -25t54 -55.5t18.5 -92.5q0 -54 -32.5 -92.5t-85 -57t-102.5 -26.5t-101 -8q-136 0 -252 45l72 139q82 -28 147 -28q34 0 69 10t35 35q0 45 -88 45q-40 0 -84 -13l-81 64l131 158q-314 32 -495 237t-181 537z " />
<glyph unicode="&#xc8;" horiz-adv-x="1312" d="M121 2v1516h1110v-340h-680v-240h577v-322h-577v-276h680v-338h-1110zM385 1905l328 90l100 -353l-201 -55z" />
<glyph unicode="&#xc9;" horiz-adv-x="1312" d="M121 2v1516h1110v-340h-680v-240h577v-322h-577v-276h680v-338h-1110zM537 1642l100 353l328 -90l-228 -318z" />
<glyph unicode="&#xca;" horiz-adv-x="1312" d="M121 2v1516h1110v-340h-680v-240h577v-322h-577v-276h680v-338h-1110zM311 1722l248 260h248l250 -260l-170 -118l-203 141l-203 -141z" />
<glyph unicode="&#xcb;" horiz-adv-x="1312" d="M121 2v1516h1110v-340h-680v-240h577v-322h-577v-276h680v-338h-1110zM283 1620v338h370v-338h-370zM721 1620v338h371v-338h-371z" />
<glyph unicode="&#xcc;" horiz-adv-x="665" d="M78 1905l328 90l100 -353l-201 -55zM121 0v1516h430v-1516h-430z" />
<glyph unicode="&#xcd;" horiz-adv-x="665" d="M121 0v1516h430v-1516h-430zM170 1642l100 353l328 -90l-227 -318z" />
<glyph unicode="&#xce;" horiz-adv-x="667" d="M-39 1722l250 260h248l250 -260l-170 -118l-203 141l-203 -141zM121 0v1516h430v-1516h-430z" />
<glyph unicode="&#xcf;" horiz-adv-x="684" d="M-63 1620v338h370v-338h-370zM121 0v1516h430v-1516h-430zM375 1620v338h370v-338h-370z" />
<glyph unicode="&#xd0;" horiz-adv-x="1763" d="M53 608v299h207v609h617q357 0 555 -200.5t198 -557.5t-198 -557.5t-555 -200.5h-617v608h-207zM688 338h189q325 0 325 420t-325 420h-189v-271h285v-299h-285v-270z" />
<glyph unicode="&#xd1;" horiz-adv-x="1720" d="M121 0v1516h452l607 -891v891h426v-1516h-455l-604 887v-887h-426zM428 1683q9 51 28 98t48 89.5t73 68t97 25.5q59 0 115.5 -22t92.5 -48.5t75 -48.5t67 -22q45 0 76 43.5t47 97.5l153 -74q-10 -52 -28.5 -98.5t-47.5 -89.5t-73 -68.5t-98 -25.5q-59 0 -116 22.5t-93 50 t-75 50t-67 22.5q-44 0 -75 -44.5t-45 -96.5z" />
<glyph unicode="&#xd2;" horiz-adv-x="1746" d="M86 758q0 361 213 570.5t575 209.5t576.5 -209.5t214.5 -570.5q0 -364 -213.5 -573.5t-577.5 -209.5q-363 0 -575.5 210t-212.5 573zM524 1905l328 90l100 -353l-200 -55zM526 758q0 -91 18 -165.5t57 -136t108.5 -96t164.5 -34.5t165 34.5t109.5 95.5t58 136t18.5 166 q0 71 -11.5 133t-38 117.5t-66.5 95.5t-100 63t-135 23q-93 0 -162.5 -35t-109 -96.5t-58 -136.5t-18.5 -164z" />
<glyph unicode="&#xd3;" horiz-adv-x="1748" d="M86 758q0 361 213 570.5t575 209.5t576.5 -209.5t214.5 -570.5q0 -364 -213.5 -573.5t-577.5 -209.5q-363 0 -575.5 210t-212.5 573zM526 758q0 -91 18 -165.5t57 -136t108.5 -96t164.5 -34.5t165 34.5t109.5 95.5t58 136t18.5 166q0 71 -11.5 133t-38 117.5t-66.5 95.5 t-100 63t-135 23q-93 0 -162.5 -35t-109 -96.5t-58 -136.5t-18.5 -164zM823 1642l101 353l327 -90l-227 -318z" />
<glyph unicode="&#xd4;" horiz-adv-x="1746" d="M86 758q0 361 213 570.5t575 209.5t576.5 -209.5t214.5 -570.5q0 -364 -213.5 -573.5t-577.5 -209.5q-363 0 -575.5 210t-212.5 573zM504 1722l250 260h247l250 -260l-170 -118l-202 141l-205 -141zM526 758q0 -91 18 -165.5t57 -136t108.5 -96t164.5 -34.5t165 34.5 t109.5 95.5t58 136t18.5 166q0 71 -11.5 133t-38 117.5t-66.5 95.5t-100 63t-135 23q-93 0 -162.5 -35t-109 -96.5t-58 -136.5t-18.5 -164z" />
<glyph unicode="&#xd5;" horiz-adv-x="1746" d="M86 758q0 361 213 570.5t575 209.5t576.5 -209.5t214.5 -570.5q0 -364 -213.5 -573.5t-577.5 -209.5q-363 0 -575.5 210t-212.5 573zM436 1683q10 51 29 97.5t48 89.5t73 68.5t96 25.5q60 0 117 -22t92.5 -48.5t75 -48.5t67.5 -22q45 0 76 44t45 97l156 -74 q-10 -52 -28.5 -98.5t-48 -89.5t-73.5 -68.5t-98 -25.5q-60 0 -116.5 22.5t-92.5 50t-74.5 50t-66.5 22.5q-45 0 -76 -43.5t-47 -97.5zM526 758q0 -91 18 -165.5t57 -136t108.5 -96t164.5 -34.5t165 34.5t109.5 95.5t58 136t18.5 166q0 71 -11.5 133t-38 117.5t-66.5 95.5 t-100 63t-135 23q-93 0 -162.5 -35t-109 -96.5t-58 -136.5t-18.5 -164z" />
<glyph unicode="&#xd6;" horiz-adv-x="1746" d="M86 758q0 361 213 570.5t575 209.5t576.5 -209.5t214.5 -570.5q0 -364 -213.5 -573.5t-577.5 -209.5q-363 0 -575.5 210t-212.5 573zM469 1620v338h371v-338h-371zM526 758q0 -91 18 -165.5t57 -136t108.5 -96t164.5 -34.5t165 34.5t109.5 95.5t58 136t18.5 166 q0 71 -11.5 133t-38 117.5t-66.5 95.5t-100 63t-135 23q-93 0 -162.5 -35t-109 -96.5t-58 -136.5t-18.5 -164zM907 1620v338h371v-338h-371z" />
<glyph unicode="&#xd7;" horiz-adv-x="1333" d="M96 356l316 318l-312 311l240 240l311 -312l310 310l239 -238l-311 -311l315 -316l-239 -239l-314 315l-317 -315z" />
<glyph unicode="&#xd8;" horiz-adv-x="1732" d="M90 756q0 359 210 571.5t568 212.5q186 0 336 -61l137 198l224 -157l-131 -191q108 -108 159.5 -257.5t51.5 -315.5q0 -359 -209.5 -571t-567.5 -212q-178 0 -338 60l-137 -197l-225 156l133 188q-109 109 -160 259t-51 317zM520 756q0 -121 31 -215l436 626 q-62 19 -119 19q-93 0 -162 -34.5t-108.5 -96t-58.5 -136t-19 -163.5zM748 344q52 -16 120 -16q94 0 163 33.5t108 94.5t57 135t18 165q0 125 -32 215z" />
<glyph unicode="&#xd9;" horiz-adv-x="1624" d="M121 621v895h430v-840q0 -53 8.5 -102.5t28 -97.5t49.5 -83.5t76 -57.5t104 -22q71 0 125 32.5t84 86.5t44.5 115.5t14.5 128.5v840h431v-895q0 -157 -51.5 -281t-144.5 -203t-220.5 -120.5t-282.5 -41.5q-154 0 -281 41.5t-220 120.5t-144 203t-51 281zM520 1905l328 90 l100 -353l-200 -55z" />
<glyph unicode="&#xda;" horiz-adv-x="1624" d="M121 621v895h430v-840q0 -53 8.5 -102.5t28 -97.5t49.5 -83.5t76 -57.5t104 -22q71 0 125 32.5t84 86.5t44.5 115.5t14.5 128.5v840h431v-895q0 -157 -51.5 -281t-144.5 -203t-220.5 -120.5t-282.5 -41.5q-154 0 -281 41.5t-220 120.5t-144 203t-51 281zM715 1642 l100 353l330 -90l-227 -318z" />
<glyph unicode="&#xdb;" horiz-adv-x="1624" d="M121 621v895h430v-840q0 -53 8.5 -102.5t28 -97.5t49.5 -83.5t76 -57.5t104 -22q71 0 125 32.5t84 86.5t44.5 115.5t14.5 128.5v840h431v-895q0 -157 -51.5 -281t-144.5 -203t-220.5 -120.5t-282.5 -41.5q-154 0 -281 41.5t-220 120.5t-144 203t-51 281zM451 1722 l249 260h248l250 -260l-170 -118l-203 141l-204 -141z" />
<glyph unicode="&#xdc;" horiz-adv-x="1624" d="M121 621v895h430v-840q0 -53 8.5 -102.5t28 -97.5t49.5 -83.5t76 -57.5t104 -22q71 0 125 32.5t84 86.5t44.5 115.5t14.5 128.5v840h431v-895q0 -157 -51.5 -281t-144.5 -203t-220.5 -120.5t-282.5 -41.5q-154 0 -281 41.5t-220 120.5t-144 203t-51 281zM416 1620v338 h370v-338h-370zM854 1620v338h371v-338h-371z" />
<glyph unicode="&#xdd;" horiz-adv-x="1697" d="M53 1516h453l348 -598l350 598h451l-590 -930v-586h-428v600zM711 1642l100 353l330 -90l-228 -318z" />
<glyph unicode="&#xde;" horiz-adv-x="1550" d="M188 0v1516h430v-267q33 0 99.5 1t99.5 1q81 0 145 -3.5t136.5 -15.5t127 -32.5t106.5 -56t85.5 -84t53.5 -119t20 -158.5q0 -86 -19.5 -155.5t-54 -117t-83 -83.5t-106 -55t-122 -33t-132.5 -16.5t-137.5 -5t-135.5 0.5h-83v-317h-430zM618 641h263q77 0 128.5 34 t51.5 107t-45 101t-123 28h-275v-270z" />
<glyph unicode="&#xdf;" horiz-adv-x="1325" d="M123 -23v1141q0 110 44 193t119.5 131t166.5 71t196 23t196 -23t167 -71t120 -131t44 -193q0 -242 -175 -344q122 -43 183 -141t61 -232q0 -87 -28.5 -158.5t-77 -120.5t-115 -82.5t-141.5 -49t-156 -15.5q-63 0 -131 19l47 321q37 -12 78 -12q74 0 111.5 51.5 t37.5 128.5q0 28 -4.5 50.5t-15 38t-20.5 26.5t-30 18t-33 11t-39 5.5t-40 2t-44 0.5h-13v248q86 -1 126 39t40 127q0 65 -42 112t-106 47q-66 0 -106.5 -46t-40.5 -113v-1072h-379z" />
<glyph unicode="&#xe0;" horiz-adv-x="1355" d="M86 547q0 113 27.5 212.5t82 180.5t146 128.5t209.5 47.5q153 0 299 -112v90h410v-1094h-306l-55 90q-60 -30 -85.5 -42t-78 -33.5t-96 -30.5t-86.5 -9q-95 0 -173.5 31.5t-132 86t-90.5 128t-54 155.5t-17 171zM367 1505l329 90l101 -352l-203 -55zM494 539 q0 -49 9 -92.5t29 -83.5t58 -63.5t90 -23.5q60 0 170 54v397q-111 72 -176 72q-50 0 -86.5 -24t-56 -63.5t-28.5 -82.5t-9 -90z" />
<glyph unicode="&#xe1;" horiz-adv-x="1357" d="M86 547q0 113 27.5 212.5t82 180.5t146 128.5t209.5 47.5q153 0 299 -112v90h410v-1094h-306l-55 90q-60 -30 -85.5 -42t-78 -33.5t-96 -30.5t-86.5 -9q-95 0 -173.5 31.5t-132 86t-90.5 128t-54 155.5t-17 171zM494 539q0 -49 9 -92.5t29 -83.5t58 -63.5t90 -23.5 q60 0 170 54v397q-111 72 -176 72q-50 0 -86.5 -24t-56 -63.5t-28.5 -82.5t-9 -90zM543 1243l100 352l330 -90l-228 -317z" />
<glyph unicode="&#xe2;" horiz-adv-x="1359" d="M86 547q0 113 27.5 212.5t82 180.5t146 128.5t209.5 47.5q153 0 299 -112v90h410v-1094h-306l-55 90q-60 -30 -85.5 -42t-78 -33.5t-96 -30.5t-86.5 -9q-95 0 -173.5 31.5t-132 86t-90.5 128t-54 155.5t-17 171zM301 1323l250 260h248l250 -260l-170 -119l-203 142 l-205 -142zM494 539q0 -49 9 -92.5t29 -83.5t58 -63.5t90 -23.5q60 0 170 54v397q-111 72 -176 72q-50 0 -86.5 -24t-56 -63.5t-28.5 -82.5t-9 -90z" />
<glyph unicode="&#xe3;" horiz-adv-x="1361" d="M86 547q0 113 27.5 212.5t82 180.5t146 128.5t209.5 47.5q153 0 299 -112v90h410v-1094h-306l-55 90q-60 -30 -85.5 -42t-78 -33.5t-96 -30.5t-86.5 -9q-95 0 -173.5 31.5t-132 86t-90.5 128t-54 155.5t-17 171zM227 1284q10 51 29 97.5t48 89.5t73 68.5t96 25.5 q49 0 95 -14.5t80.5 -35.5t64.5 -42t59 -35.5t53 -14.5q45 0 76 44.5t45 97.5l156 -74q-10 -52 -28.5 -98.5t-48 -90t-73.5 -69t-98 -25.5q-60 0 -116.5 23t-92.5 50t-74.5 50t-66.5 23q-45 0 -76 -43.5t-47 -98.5zM494 539q0 -49 9 -92.5t29 -83.5t58 -63.5t90 -23.5 q60 0 170 54v397q-111 72 -176 72q-50 0 -86.5 -24t-56 -63.5t-28.5 -82.5t-9 -90z" />
<glyph unicode="&#xe4;" horiz-adv-x="1363" d="M86 547q0 113 27.5 212.5t82 180.5t146 128.5t209.5 47.5q153 0 299 -112v90h410v-1094h-306l-55 90q-60 -30 -85.5 -42t-78 -33.5t-96 -30.5t-86.5 -9q-95 0 -173.5 31.5t-132 86t-90.5 128t-54 155.5t-17 171zM270 1225v338h371v-338h-371zM494 539q0 -49 9 -92.5 t29 -83.5t58 -63.5t90 -23.5q60 0 170 54v397q-111 72 -176 72q-50 0 -86.5 -24t-56 -63.5t-28.5 -82.5t-9 -90zM709 1225v338h370v-338h-370z" />
<glyph unicode="&#xe5;" horiz-adv-x="1357" d="M86 547q0 113 27.5 212.5t82 180.5t146 128.5t209.5 47.5q153 0 299 -112v90h410v-1094h-306l-55 90q-60 -30 -85.5 -42t-78 -33.5t-96 -30.5t-86.5 -9q-95 0 -173.5 31.5t-132 86t-90.5 128t-54 155.5t-17 171zM465 1395q0 83 60 143.5t143 60.5t143.5 -60.5 t60.5 -143.5q0 -85 -59.5 -145t-144.5 -60t-144 60t-59 145zM494 539q0 -49 9 -92.5t29 -83.5t58 -63.5t90 -23.5q60 0 170 54v397q-111 72 -176 72q-50 0 -86.5 -24t-56 -63.5t-28.5 -82.5t-9 -90zM586 1395q0 -34 24 -58t58 -24t58 24t24 58t-24 58t-58 24t-58 -24 t-24 -58z" />
<glyph unicode="&#xe6;" horiz-adv-x="1986" d="M66 276q0 71 25 128.5t64 94.5t98.5 64.5t116 42t129.5 23t125 10.5t117 2q3 83 -52.5 120.5t-141.5 37.5q-146 0 -268 -86l-154 184q89 94 209.5 145.5t249.5 51.5q97 0 183 -34t140 -104q168 152 457 152q263 0 403 -139.5t140 -403.5q0 -66 -6 -133h-725 q15 -78 64 -130t124 -52q56 0 123 8.5t109.5 17t125.5 27.5t113 25l49 -269q-120 -32 -178 -46t-158.5 -30t-183.5 -16q-280 0 -449 146q-218 -148 -407 -148q-83 0 -156 15t-140 48.5t-106.5 97t-39.5 150.5zM492 342q0 -50 41 -71t96 -21q41 0 155 53l-34 135 q-10 0 -27.5 -1t-62 -7t-78.5 -15t-62 -28.5t-28 -44.5zM1176 641h360q-13 77 -55.5 122.5t-116.5 45.5t-121 -46t-67 -122z" />
<glyph unicode="&#xe7;" horiz-adv-x="1308" d="M86 545q0 140 46 249t129 178.5t196 105.5t250 36q93 0 175 -18t155 -56t129 -103t87 -153l-360 -106q-43 127 -186 127q-45 0 -80 -15.5t-57.5 -40.5t-37 -60t-20.5 -72t-6 -78q0 -52 10.5 -98t32.5 -86.5t63 -64.5t95 -24q71 0 120 39t68 109l354 -115 q-50 -142 -163.5 -219.5t-268.5 -99.5l-82 -89q42 0 74 -4t64.5 -15.5t54 -30.5t34.5 -52t13 -78q0 -43 -22.5 -77t-56.5 -53.5t-79.5 -32t-85 -17t-78.5 -4.5q-136 0 -252 45l72 139q82 -28 148 -28q34 0 69 10t35 35q0 45 -88 45q-40 0 -84 -13l-82 64l129 156 q-237 27 -375.5 171.5t-138.5 393.5z" />
<glyph unicode="&#xe8;" horiz-adv-x="1316" d="M86 545q0 140 46 249.5t129 179.5t196 106t250 36q267 0 403.5 -142.5t136.5 -410.5q0 -18 -1 -38.5t-2.5 -45.5t-2.5 -39h-725q14 -80 63.5 -131t127.5 -51q45 0 90 3.5t103.5 14.5t84.5 16.5t102.5 23t88.5 20.5l49 -268q-160 -45 -280.5 -69t-237.5 -24 q-184 0 -322 61.5t-218.5 191.5t-80.5 317zM379 1505l330 90l100 -352l-203 -55zM518 649h359q-32 168 -170 168q-75 0 -123 -46t-66 -122z" />
<glyph unicode="&#xe9;" horiz-adv-x="1316" d="M86 545q0 140 46 249.5t129 179.5t196 106t250 36q267 0 403.5 -142.5t136.5 -410.5q0 -18 -1 -38.5t-2.5 -45.5t-2.5 -39h-725q14 -80 63.5 -131t127.5 -51q45 0 90 3.5t103.5 14.5t84.5 16.5t102.5 23t88.5 20.5l49 -268q-160 -45 -280.5 -69t-237.5 -24 q-184 0 -322 61.5t-218.5 191.5t-80.5 317zM457 1243l100 352l330 -90l-228 -317zM518 649h359q-32 168 -170 168q-75 0 -123 -46t-66 -122z" />
<glyph unicode="&#xea;" horiz-adv-x="1316" d="M86 545q0 140 46 249.5t129 179.5t196 106t250 36q267 0 403.5 -142.5t136.5 -410.5q0 -18 -1 -38.5t-2.5 -45.5t-2.5 -39h-725q14 -80 63.5 -131t127.5 -51q45 0 90 3.5t103.5 14.5t84.5 16.5t102.5 23t88.5 20.5l49 -268q-160 -45 -280.5 -69t-237.5 -24 q-184 0 -322 61.5t-218.5 191.5t-80.5 317zM311 1323l248 260h248l250 -260l-170 -119l-203 142l-203 -142zM518 649h359q-32 168 -170 168q-75 0 -123 -46t-66 -122z" />
<glyph unicode="&#xeb;" horiz-adv-x="1316" d="M86 545q0 140 46 249.5t129 179.5t196 106t250 36q267 0 403.5 -142.5t136.5 -410.5q0 -18 -1 -38.5t-2.5 -45.5t-2.5 -39h-725q14 -80 63.5 -131t127.5 -51q45 0 90 3.5t103.5 14.5t84.5 16.5t102.5 23t88.5 20.5l49 -268q-160 -45 -280.5 -69t-237.5 -24 q-184 0 -322 61.5t-218.5 191.5t-80.5 317zM264 1225v338h371v-338h-371zM518 649h359q-32 168 -170 168q-75 0 -123 -46t-66 -122zM702 1225v338h371v-338h-371z" />
<glyph unicode="&#xec;" horiz-adv-x="641" d="M49 1505l328 90l100 -352l-201 -55zM121 0v1094h409v-1094h-409z" />
<glyph unicode="&#xed;" horiz-adv-x="649" d="M121 0v1094h409v-1094h-409zM178 1243l101 352l329 -90l-227 -317z" />
<glyph unicode="&#xee;" horiz-adv-x="653" d="M-53 1323l250 260h247l250 -260l-170 -119l-202 142l-203 -142zM121 0v1094h409v-1094h-409z" />
<glyph unicode="&#xef;" horiz-adv-x="669" d="M-82 1225v338h371v-338h-371zM121 0v1094h409v-1094h-409zM356 1225v338h371v-338h-371z" />
<glyph unicode="&#xf0;" horiz-adv-x="1269" d="M86 457q0 156 70 272.5t191 176t276 59.5q78 0 178 -21q-40 84 -94 166l-148 -123l-127 150l152 127q-61 61 -138 116l158 172q35 -12 58.5 -22t43 -24.5t28 -21.5t29 -29t30.5 -32l188 148l119 -131l-152 -125q123 -158 189.5 -347.5t66.5 -385.5q0 -146 -32.5 -259 t-99.5 -196.5t-177.5 -127.5t-259.5 -44q-245 0 -397 130.5t-152 371.5zM461 453q0 -45 9 -85t28 -75.5t54 -56.5t83 -21t83.5 21t54.5 56.5t27.5 75t8.5 85.5q0 63 -14.5 112.5t-55 85t-104.5 35.5q-48 0 -83 -20t-54 -54.5t-28 -74t-9 -84.5z" />
<glyph unicode="&#xf1;" horiz-adv-x="1363" d="M121 0v1094h311l88 -158q230 180 363 180q102 0 186 -35t138.5 -110t54.5 -178v-793h-410v657q0 52 -34.5 89.5t-86.5 37.5q-30 0 -72.5 -20.5t-66 -37t-62.5 -46.5v-680h-409zM258 1284q9 51 28 98t48 89.5t73 68t97 25.5q59 0 115.5 -22t92.5 -49t75 -49t67 -22 q45 0 76 43.5t47 98.5l153 -74q-10 -52 -28.5 -98.5t-47.5 -90t-73 -69t-98 -25.5q-59 0 -116 23t-93 50t-75 50t-67 23q-44 0 -75 -45t-45 -97z" />
<glyph unicode="&#xf2;" horiz-adv-x="1392" d="M86 545q0 140 46 249t129 178.5t196 105.5t250 36q136 0 249 -36t196 -106t129 -179t46 -248q0 -185 -80 -315.5t-218 -193.5t-322 -63t-322 62.5t-218.5 193t-80.5 316.5zM367 1505l329 90l101 -352l-203 -55zM506 541q0 -53 10 -99t31.5 -87t62.5 -65t97 -24 q45 0 80 16.5t56.5 43t36 63t20 74t5.5 78.5q0 52 -10 96.5t-31.5 84t-61.5 62.5t-95 23q-45 0 -80 -15.5t-57.5 -40.5t-37 -60t-20.5 -72t-6 -78z" />
<glyph unicode="&#xf3;" horiz-adv-x="1390" d="M86 545q0 140 46 249t129 178.5t196 105.5t250 36q136 0 249 -36t196 -106t129 -179t46 -248q0 -185 -80 -315.5t-218 -193.5t-322 -63t-322 62.5t-218.5 193t-80.5 316.5zM506 541q0 -53 10 -99t31.5 -87t62.5 -65t97 -24q45 0 80 16.5t56.5 43t36 63t20 74t5.5 78.5 q0 52 -10 96.5t-31.5 84t-61.5 62.5t-95 23q-45 0 -80 -15.5t-57.5 -40.5t-37 -60t-20.5 -72t-6 -78zM612 1243l101 352l329 -90l-227 -317z" />
<glyph unicode="&#xf4;" horiz-adv-x="1392" d="M86 545q0 140 46 249t129 178.5t196 105.5t250 36q136 0 249 -36t196 -106t129 -179t46 -248q0 -185 -80 -315.5t-218 -193.5t-322 -63t-322 62.5t-218.5 193t-80.5 316.5zM332 1323l250 260h247l250 -260l-170 -119l-202 142l-205 -142zM506 541q0 -53 10 -99t31.5 -87 t62.5 -65t97 -24q45 0 80 16.5t56.5 43t36 63t20 74t5.5 78.5q0 52 -10 96.5t-31.5 84t-61.5 62.5t-95 23q-45 0 -80 -15.5t-57.5 -40.5t-37 -60t-20.5 -72t-6 -78z" />
<glyph unicode="&#xf5;" horiz-adv-x="1394" d="M86 545q0 140 46 249t129 178.5t196 105.5t250 36q136 0 249 -36t196 -106t129 -179t46 -248q0 -185 -80 -315.5t-218 -193.5t-322 -63t-322 62.5t-218.5 193t-80.5 316.5zM264 1284q10 51 29 97.5t48 89.5t73 68.5t96 25.5q49 0 95 -14.5t80.5 -35.5t64.5 -42t59 -35.5 t53 -14.5q45 0 76 44.5t45 97.5l156 -74q-10 -52 -28.5 -98.5t-48 -90t-73.5 -69t-98 -25.5q-60 0 -116.5 23t-92.5 50t-74.5 50t-66.5 23q-45 0 -76 -43.5t-47 -98.5zM506 541q0 -53 10 -99t31.5 -87t62.5 -65t97 -24q45 0 80 16.5t56.5 43t36 63t20 74t5.5 78.5 q0 52 -10 96.5t-31.5 84t-61.5 62.5t-95 23q-45 0 -80 -15.5t-57.5 -40.5t-37 -60t-20.5 -72t-6 -78z" />
<glyph unicode="&#xf6;" horiz-adv-x="1402" d="M86 545q0 140 46 249t129 178.5t196 105.5t250 36q136 0 249 -36t196 -106t129 -179t46 -248q0 -185 -80 -315.5t-218 -193.5t-322 -63t-322 62.5t-218.5 193t-80.5 316.5zM299 1225v338h371v-338h-371zM506 541q0 -53 10 -99t31.5 -87t62.5 -65t97 -24q45 0 80 16.5 t56.5 43t36 63t20 74t5.5 78.5q0 52 -10 96.5t-31.5 84t-61.5 62.5t-95 23q-45 0 -80 -15.5t-57.5 -40.5t-37 -60t-20.5 -72t-6 -78zM737 1225v338h371v-338h-371z" />
<glyph unicode="&#xf7;" horiz-adv-x="1323" d="M74 545v338h1188v-338h-1188zM494 268q0 72 51 123t123 51q70 0 121 -51.5t51 -122.5q0 -70 -51 -121t-121 -51q-71 0 -122.5 51t-51.5 121zM494 1159q0 71 52 122.5t122 51.5t121 -51.5t51 -122.5t-51 -121.5t-121 -50.5q-71 0 -122.5 51t-51.5 121z" />
<glyph unicode="&#xf8;" horiz-adv-x="1396" d="M86 545q0 139 46 248t129.5 179t196.5 106t249 36t239 -33l92 131l183 -127l-74 -106q180 -152 180 -434q0 -185 -80.5 -315.5t-218.5 -193.5t-321 -63q-131 0 -240 35l-92 -133l-182 129l73 109q-92 74 -136 188t-44 244zM506 539q0 -41 8 -74l231 330q-29 10 -59 10 q-51 0 -88 -24.5t-56 -65.5t-27.5 -84.5t-8.5 -91.5zM653 274q21 -8 54 -8q55 0 95.5 24t62.5 65t32 86.5t10 97.5q0 39 -10 84z" />
<glyph unicode="&#xf9;" horiz-adv-x="1359" d="M121 301v793h409v-658q0 -54 33.5 -89.5t87.5 -35.5q60 0 201 101v682h410v-1094h-312l-88 158q-229 -183 -362 -183q-102 0 -186.5 35.5t-138.5 111.5t-54 179zM401 1505l328 90l100 -352l-200 -55z" />
<glyph unicode="&#xfa;" horiz-adv-x="1357" d="M121 301v793h409v-658q0 -54 33.5 -89.5t87.5 -35.5q60 0 201 101v682h410v-1094h-312l-88 158q-229 -183 -362 -183q-102 0 -186.5 35.5t-138.5 111.5t-54 179zM504 1243l100 352l328 -90l-227 -317z" />
<glyph unicode="&#xfb;" horiz-adv-x="1366" d="M121 301v793h409v-658q0 -54 33.5 -89.5t87.5 -35.5q60 0 201 101v682h410v-1094h-312l-88 158q-229 -183 -362 -183q-102 0 -186.5 35.5t-138.5 111.5t-54 179zM328 1323l250 260h247l250 -260l-170 -119l-203 142l-204 -142z" />
<glyph unicode="&#xfc;" horiz-adv-x="1366" d="M121 301v793h409v-658q0 -54 33.5 -89.5t87.5 -35.5q60 0 201 101v682h410v-1094h-312l-88 158q-229 -183 -362 -183q-102 0 -186.5 35.5t-138.5 111.5t-54 179zM289 1225v338h370v-338h-370zM727 1225v338h371v-338h-371z" />
<glyph unicode="&#xfd;" horiz-adv-x="1411" d="M57 1094h432l246 -596l203 596h428l-602 -1583h-428l221 587zM623 1243l100 352l328 -90l-228 -317z" />
<glyph unicode="&#xfe;" horiz-adv-x="1388" d="M119 -492v1819h407v-323q153 112 297 112q95 0 173.5 -31.5t132 -85t90.5 -126.5t54 -155t17 -171t-17 -171t-54 -155t-90.5 -127t-132 -85.5t-173.5 -31.5q-48 0 -105.5 15.5t-92 29.5t-99.5 44v-558h-407zM526 328q5 -2 22.5 -10t24.5 -11t23 -9t25.5 -9t23.5 -6.5 t26.5 -5t24.5 -1.5q52 0 89.5 23.5t57.5 63.5t29 83.5t9 92.5q0 47 -9 90t-28.5 83.5t-56.5 64.5t-87 24q-29 0 -64.5 -14t-53 -24.5t-56.5 -35.5v-399z" />
<glyph unicode="&#xff;" horiz-adv-x="1417" d="M57 1094h432l246 -596l203 596h428l-602 -1583h-428l221 587zM293 1225v338h371v-338h-371zM731 1225v338h371v-338h-371z" />
<glyph unicode="&#x152;" horiz-adv-x="2689" d="M246 776q0 360 214.5 570t575.5 210q211 0 385 -79v39h1110v-338h-680v-240h578v-324h-578v-276h680v-338h-1110v74q-176 -80 -385 -80q-240 0 -418.5 94t-275 271t-96.5 417zM686 776q0 -91 18.5 -166t58 -136t109 -95.5t164.5 -34.5t164.5 34.5t108.5 96t57 136 t18 165.5q0 90 -18.5 164.5t-58 135.5t-109 95.5t-162.5 34.5q-94 0 -163.5 -34.5t-109.5 -95.5t-58.5 -135.5t-18.5 -164.5z" />
<glyph unicode="&#x153;" horiz-adv-x="2154" d="M86 545q0 139 46 248t129.5 179t196.5 106t249 36q251 0 413 -117q162 117 414 117q264 0 402.5 -141.5t138.5 -405.5q0 -54 -7 -129h-725q16 -78 66 -130t125 -52q55 0 121.5 9t110.5 18t124.5 27.5t112.5 25.5l49 -268q-160 -45 -280.5 -69t-237.5 -24q-252 0 -414 117 q-162 -117 -413 -117q-135 0 -248 36.5t-196.5 106.5t-130 179.5t-46.5 247.5zM508 539q0 -51 10 -97t32 -87t62.5 -65t94.5 -24q55 0 95.5 24t62.5 65t32 86.5t10 97.5t-10 97t-32 84.5t-62.5 62t-95.5 22.5q-73 0 -119.5 -41t-63 -97.5t-16.5 -127.5zM1346 649h358 q-13 76 -54.5 122t-115.5 46q-75 0 -122.5 -46t-65.5 -122z" />
<glyph unicode="&#x178;" horiz-adv-x="1697" d="M53 1516h453l348 -598l350 598h451l-590 -930v-586h-428v600zM444 1620v338h371v-338h-371zM883 1620v338h370v-338h-370z" />
<glyph unicode="&#x2c6;" horiz-adv-x="935" d="M109 1323l247 260h248l250 -260l-170 -119l-203 142l-202 -142z" />
<glyph unicode="&#x2dc;" horiz-adv-x="1089" d="M109 1284q9 51 27.5 98t47.5 89.5t73 68t97 25.5q59 0 116 -22t93 -49t75 -49t67 -22q45 0 75.5 43.5t46.5 98.5l154 -74q-10 -52 -28.5 -98.5t-48 -90t-73.5 -69t-98 -25.5q-59 0 -115.5 23t-92.5 50t-75 50t-67 23q-44 0 -75.5 -45t-45.5 -97z" />
<glyph unicode="&#x2000;" horiz-adv-x="999" />
<glyph unicode="&#x2001;" horiz-adv-x="1999" />
<glyph unicode="&#x2002;" horiz-adv-x="999" />
<glyph unicode="&#x2003;" horiz-adv-x="1999" />
<glyph unicode="&#x2004;" horiz-adv-x="666" />
<glyph unicode="&#x2005;" horiz-adv-x="499" />
<glyph unicode="&#x2006;" horiz-adv-x="333" />
<glyph unicode="&#x2007;" horiz-adv-x="333" />
<glyph unicode="&#x2008;" horiz-adv-x="249" />
<glyph unicode="&#x2009;" horiz-adv-x="399" />
<glyph unicode="&#x200a;" horiz-adv-x="111" />
<glyph unicode="&#x2010;" horiz-adv-x="950" d="M106 375v323h711v-323h-711z" />
<glyph unicode="&#x2011;" horiz-adv-x="950" d="M106 375v323h711v-323h-711z" />
<glyph unicode="&#x2012;" horiz-adv-x="950" d="M106 375v323h711v-323h-711z" />
<glyph unicode="&#x2013;" horiz-adv-x="1220" d="M106 375v323h990v-323h-990z" />
<glyph unicode="&#x2014;" horiz-adv-x="2344" d="M106 375v323h2114v-323h-2114z" />
<glyph unicode="&#x2018;" horiz-adv-x="555" d="M106 899v346q15 27 71.5 122.5t84.5 148.5h174l-121 -271h138v-346h-347z" />
<glyph unicode="&#x2019;" horiz-adv-x="559" d="M106 1171v345h345v-345q-14 -24 -71 -121.5t-85 -150.5h-174l121 272h-136z" />
<glyph unicode="&#x201a;" horiz-adv-x="563" d="M106 0v340h340v-340l-155 -260h-172l119 260h-132z" />
<glyph unicode="&#x201c;" horiz-adv-x="999" d="M106 899v346q15 27 71.5 122.5t84.5 148.5h174l-121 -271h136v-346h-345zM553 899v346q15 27 71.5 122.5t84.5 148.5h174l-121 -271h135v-346h-344z" />
<glyph unicode="&#x201d;" horiz-adv-x="1005" d="M106 1169v347h347v-347q-149 -252 -158 -270h-174l121 270h-136zM553 1169v347h346v-347q-149 -252 -158 -270h-174l121 270h-135z" />
<glyph unicode="&#x201e;" horiz-adv-x="1013" d="M106 0v346h347v-346q-149 -252 -158 -270h-174l121 270h-136zM553 0v346h346v-346q-149 -252 -158 -270h-174l121 270h-135z" />
<glyph unicode="&#x2022;" horiz-adv-x="565" d="M106 537q0 70 49 120t119 50q69 0 118.5 -50.5t49.5 -119.5q0 -67 -50 -117.5t-118 -50.5q-69 0 -118.5 49.5t-49.5 118.5z" />
<glyph unicode="&#x2026;" horiz-adv-x="1822" d="M168 0v346h346v-346h-346zM741 0v346h346v-346h-346zM1315 0v346h346v-346h-346z" />
<glyph unicode="&#x202f;" horiz-adv-x="399" />
<glyph unicode="&#x2039;" horiz-adv-x="1026" d="M53 758l340 534h432l-340 -534l340 -537h-432z" />
<glyph unicode="&#x203a;" horiz-adv-x="968" d="M100 221l340 537l-340 534h430l340 -534l-340 -537h-430z" />
<glyph unicode="&#x205f;" horiz-adv-x="499" />
<glyph unicode="&#x20ac;" horiz-adv-x="1642" d="M117 496v223h151v76h-151v223h178q56 257 232 387.5t444 130.5q137 0 253 -34.5t213.5 -115t153.5 -202.5q-253 -113 -360 -156q-38 83 -105.5 132.5t-154.5 49.5q-91 0 -149.5 -51t-84.5 -141h295v-223h-321q-3 -38 0 -76h321v-223h-295q26 -91 84.5 -142t149.5 -51 q89 0 156.5 49t103.5 133l356 -166q-84 -176 -246.5 -260t-369.5 -84q-268 0 -444 131.5t-232 389.5h-178z" />
<glyph unicode="&#xe000;" horiz-adv-x="1095" d="M0 0v1096h1096v-1096h-1096z" />
<glyph unicode="&#xfb01;" horiz-adv-x="1466" d="M61 819v275h170q0 85 8 147.5t31 120.5t62 94.5t103.5 58t152.5 21.5q134 0 289 -33l-33 -241q-9 0 -29 1t-29 1q-141 0 -145 -170h180v-275h-180v-819h-410v819h-170zM950 1223v338h412v-338h-412zM952 0v1094h410v-1094h-410z" />
<glyph unicode="&#xfb02;" horiz-adv-x="1476" d="M61 819v275h170q0 85 8 147.5t31 120.5t62 94.5t103.5 58t152.5 21.5q134 0 289 -33l-33 -241q-9 0 -29 1t-29 1q-141 0 -145 -170h180v-275h-180v-819h-410v819h-170zM950 0v1513h410v-1513h-410z" />
</font>
</defs>
</svg>
