<?xml version="1.0" standalone="no"?>
<!DOCTYPE svg PUBLIC "-//W3C//DTD SVG 1.1//EN" "http://www.w3.org/Graphics/SVG/1.1/DTD/svg11.dtd" >
<svg xmlns="http://www.w3.org/2000/svg">
<metadata></metadata>
<defs>
<font id="grey_sansbold" horiz-adv-x="1357" >
<font-face units-per-em="2048" ascent="1528" descent="-520" />
<missing-glyph horiz-adv-x="450" />
<glyph horiz-adv-x="2048" />
<glyph horiz-adv-x="2048" />
<glyph unicode="&#xd;" horiz-adv-x="2048" />
<glyph unicode=" "  horiz-adv-x="450" />
<glyph unicode="&#x09;" horiz-adv-x="450" />
<glyph unicode="&#xa0;" horiz-adv-x="450" />
<glyph unicode="!" horiz-adv-x="610" d="M129 1516h375l-37 -1115h-299zM166 0v301h301v-301h-301z" />
<glyph unicode="&#x22;" horiz-adv-x="948" d="M129 1516h299l-31 -580h-237zM537 1516h297l-31 -580h-236z" />
<glyph unicode="#" horiz-adv-x="1972" d="M57 326v299h334l88 280h-317v297h411l99 314h379l-99 -314h322l98 314h379l-100 -314h278v-297h-370l-91 -280h357v-299h-449l-104 -326h-377l102 326h-321l-105 -326h-376l102 326h-240zM770 625h322l88 280h-322z" />
<glyph unicode="$" horiz-adv-x="1406" d="M70 129l67 277q383 -130 555 -130q40 0 79.5 6.5t81 21.5t67.5 46t26 74q0 47 -30 80.5t-80 53t-115.5 34t-137.5 29.5t-144 34t-137.5 52.5t-115.5 79t-80 120t-30 170.5q0 85 30.5 157.5t81.5 123t120 88.5t143.5 59t154.5 29v213h197v-215q228 -24 487 -129l-59 -266 q-329 102 -520 102q-40 0 -80.5 -6t-85 -20t-72 -44t-27.5 -73q0 -38 30.5 -64.5t82 -43t118.5 -29.5t141 -29t147.5 -37.5t140.5 -58t118.5 -87t82 -129.5t30.5 -180q0 -106 -46.5 -191.5t-124.5 -139.5t-170 -85.5t-193 -41.5v-197h-197v199q-252 32 -536 147z" />
<glyph unicode="%" horiz-adv-x="2099" d="M61 1100q0 204 101.5 322t302.5 118t303 -117.5t102 -322.5t-102 -323t-303 -118q-203 0 -303.5 117.5t-100.5 323.5zM315 1100q0 -246 150 -246q39 0 67.5 16.5t43.5 40t24 59t11.5 65t2.5 65.5q0 246 -149 246q-150 0 -150 -246zM459 0l819 1516h369l-820 -1516h-368z M1249 416q0 206 100.5 323t303.5 117t304 -117.5t101 -322.5t-102 -323t-303 -118t-302.5 118.5t-101.5 322.5zM1503 416q0 -246 150 -246q39 0 67.5 16.5t43.5 40t24 59t11.5 65t2.5 65.5q0 246 -149 246q-150 0 -150 -246z" />
<glyph unicode="&#x26;" horiz-adv-x="1462" d="M61 426q0 74 30 143t82.5 125t109.5 99t125 81q-111 183 -111 312q0 152 93.5 253t244.5 101q87 0 161.5 -20.5t133.5 -62t93 -111t34 -160.5q0 -53 -31.5 -114.5t-81 -115t-100.5 -97t-99 -73.5l254 -389q101 131 101 260h291q0 -148 -59.5 -282t-170.5 -228l101 -153 l-230 -131l-98 157q-112 -36 -258 -36q-85 0 -168.5 14.5t-165 48t-143.5 83t-100 126t-38 170.5zM399 438q0 -55 26 -96.5t69 -64t90.5 -33.5t99.5 -11q50 0 109 17l-254 407q-140 -105 -140 -219zM539 1176q0 -78 98 -201q38 22 112 96.5t74 104.5q0 63 -45 99t-110 36 q-59 0 -94 -37.5t-35 -97.5z" />
<glyph unicode="'" horiz-adv-x="542" d="M129 1516h299l-31 -580h-237z" />
<glyph unicode="(" horiz-adv-x="811" d="M90 592q0 271 139 546.5t357 438.5l170 -168q-134 -140 -207.5 -370.5t-73.5 -446.5q0 -215 74 -446t207 -369l-170 -168q-219 163 -357.5 437.5t-138.5 545.5z" />
<glyph unicode=")" horiz-adv-x="806" d="M53 -223q133 138 207 369t74 446q0 216 -73.5 446.5t-207.5 370.5l170 168q218 -163 357 -438.5t139 -546.5t-138.5 -545.5t-357.5 -437.5z" />
<glyph unicode="*" horiz-adv-x="946" d="M129 1106v131l256 -14l-139 215l110 63l117 -229l117 229l110 -63l-139 -215l256 14v-131l-256 16l139 -217l-110 -63l-117 229l-117 -229l-110 63l139 217z" />
<glyph unicode="+" horiz-adv-x="1402" d="M244 567v238h340v338h237v-338h338v-238h-338v-340h-237v340h-340z" />
<glyph unicode="," horiz-adv-x="522" d="M129 0v311h311v-311l-141 -256h-156l109 256h-123z" />
<glyph unicode="-" horiz-adv-x="985" d="M129 393v285h713v-285h-713z" />
<glyph unicode="." horiz-adv-x="602" d="M129 0v311h313v-311h-313z" />
<glyph unicode="/" horiz-adv-x="1355" d="M45 0l885 1516h379l-887 -1516h-377z" />
<glyph unicode="0" horiz-adv-x="1560" d="M90 758q0 138 24.5 255t77.5 214.5t133 165.5t195 105.5t258 37.5t258 -37.5t195 -105.5t133 -165.5t77.5 -214.5t24.5 -255q0 -175 -39.5 -315t-120.5 -245.5t-215 -163t-313 -57.5t-313 57.5t-215 163t-120.5 245.5t-39.5 315zM473 758q0 -492 305 -492q303 0 303 492 q0 489 -303 489q-305 0 -305 -489z" />
<glyph unicode="1" horiz-adv-x="1024" d="M90 1233l438 283h375v-1516h-375v1126l-262 -168z" />
<glyph unicode="2" horiz-adv-x="1372" d="M129 1239q85 149 232.5 224t326.5 75q88 0 168 -11.5t159.5 -42t137 -77t93.5 -122t36 -171.5q0 -74 -32.5 -154.5t-79 -148t-118 -146t-129.5 -132.5t-135 -125.5t-114 -108.5h606v-299h-1102v250q17 16 87 79t127.5 116.5t140 132t145.5 146t121.5 136.5t90.5 125.5 t32 93.5q0 49 -41.5 87.5t-94 56.5t-98.5 18q-212 0 -303 -143z" />
<glyph unicode="3" horiz-adv-x="1372" d="M90 285l260 141q37 -82 121 -121t184 -39q99 0 177.5 56t78.5 151q0 182 -340 182h-151v219h160q47 0 84 3t82.5 14.5t76 30.5t51.5 55.5t21 85.5q0 85 -78 134.5t-168 49.5q-219 0 -299 -153l-260 143q85 149 232.5 224t326.5 75q69 0 136 -8.5t136 -27t126.5 -51 t103.5 -76.5t72 -108t26 -141q0 -127 -62 -217.5t-181 -136.5q136 -44 213 -137.5t77 -231.5q0 -94 -42 -169.5t-107.5 -122t-152.5 -77.5t-170.5 -43t-168.5 -12q-177 0 -331.5 79.5t-233.5 228.5z" />
<glyph unicode="4" horiz-adv-x="1492" d="M90 340v297l647 879h488v-879h190v-297h-190v-340h-375v340h-760zM449 637h401v545z" />
<glyph unicode="5" horiz-adv-x="1370" d="M129 266l289 162q46 -67 117.5 -105t152.5 -38q103 0 174.5 65.5t71.5 167.5t-69.5 150.5t-176.5 48.5q-121 0 -248 -90l-295 20l76 869h996v-297h-676l-25 -293q128 47 279 47q112 0 204 -27.5t161.5 -82t108 -142.5t38.5 -203q0 -132 -49 -236.5t-134.5 -170 t-196.5 -100t-239 -34.5q-180 0 -327.5 71t-231.5 218z" />
<glyph unicode="6" horiz-adv-x="1452" d="M90 754q0 139 24.5 256t78 214.5t133.5 165t195.5 105t258.5 37.5q167 0 308.5 -65t228.5 -197l-258 -148q-83 121 -279 121q-75 0 -132 -33t-90.5 -89.5t-51.5 -118.5t-25 -134q189 97 373 97q255 0 397 -128t142 -380q0 -92 -37 -172t-99 -136.5t-142.5 -96.5 t-166.5 -59.5t-172 -19.5q-143 0 -258 38t-194 106.5t-132 167t-77.5 215t-24.5 254.5zM500 549q0 -102 87 -185t189 -83q103 0 174.5 62t71.5 163q0 103 -71 155t-177 52q-44 0 -106 -19.5t-115 -59.5t-53 -85z" />
<glyph unicode="7" horiz-adv-x="1200" d="M61 1217v299h1096l1 -102q0 -101 -1 -101l-614 -1313h-375l582 1217h-689z" />
<glyph unicode="8" horiz-adv-x="1449" d="M90 397q0 138 81 229.5t218 137.5q-121 45 -186.5 134.5t-65.5 217.5q0 93 36.5 167t95 120.5t138 76.5t159.5 42t165 12t164.5 -12t159.5 -42.5t139 -76t96 -120t37 -167.5q0 -126 -66 -216.5t-186 -135.5q137 -46 218 -137.5t81 -229.5q0 -95 -42 -171t-107.5 -122 t-153 -76.5t-171 -42.5t-169.5 -12t-169.5 12t-170.5 42.5t-152.5 76.5t-107 122t-41.5 171zM469 475q0 -101 79 -157t183 -56q106 0 184 56t78 157q0 70 -93 133.5t-169 63.5t-169 -63.5t-93 -133.5zM492 1057q0 -74 80.5 -135.5t158.5 -61.5q79 0 160.5 61.5t81.5 135.5 q0 60 -38 104.5t-91.5 64t-112.5 19.5q-58 0 -111 -19.5t-90.5 -64t-37.5 -104.5z" />
<glyph unicode="9" horiz-adv-x="1490" d="M90 1075q0 92 37.5 172t99.5 136.5t142.5 96.5t167 59.5t172.5 19.5q143 0 257 -38t193.5 -106t132 -166t77 -214.5t24.5 -254.5q0 -174 -39.5 -313.5t-121 -245.5t-215.5 -163.5t-312 -57.5q-169 0 -310.5 65.5t-228.5 198.5l258 146q81 -121 281 -121q60 0 108.5 22.5 t80.5 59t55 86.5t35 100.5t17 106.5q-189 -97 -372 -97q-255 0 -397 128t-142 380zM461 1026q0 -101 71.5 -154t176.5 -53q44 0 106 19.5t115 59.5t53 85q0 102 -87 185t-189 83q-103 0 -174.5 -62t-71.5 -163z" />
<glyph unicode=":" horiz-adv-x="538" d="M129 0v311h313v-311h-313zM129 666v311h313v-311h-313z" />
<glyph unicode=";" horiz-adv-x="538" d="M129 0v311h313v-311l-141 -256h-156l109 256h-125zM129 666v311h313v-311h-313z" />
<glyph unicode="&#x3c;" horiz-adv-x="1175" d="M45 545v305l895 383l107 -252l-662 -283l662 -284l-107 -252z" />
<glyph unicode="=" horiz-adv-x="1191" d="M129 289v284h934v-284h-934zM129 791v282h934v-282h-934z" />
<glyph unicode="&#x3e;" horiz-adv-x="1175" d="M129 414l662 284l-662 283l107 252l894 -383v-305l-894 -383z" />
<glyph unicode="?" horiz-adv-x="1183" d="M61 1339q110 96 263.5 146.5t310.5 50.5q94 0 187 -30.5t170 -84.5t125 -138t48 -183q0 -89 -22.5 -158.5t-59.5 -111.5t-84.5 -74.5t-96.5 -50t-96.5 -35.5t-84.5 -33.5t-59.5 -42.5t-22.5 -64v-137h-299v211q0 68 23 121.5t60 86t84.5 58.5t97.5 41t97.5 32.5 t84.5 33.5t60 43t23 63q0 40 -25 71.5t-64 49t-79.5 26.5t-76.5 9q-92 0 -192.5 -34t-178.5 -89zM340 0v301h299v-301h-299z" />
<glyph unicode="@" horiz-adv-x="1411" d="M45 721q0 140 54.5 267t147 218.5t219.5 146t267 54.5q285 0 453 -163t168 -447q0 -74 -10.5 -138t-36.5 -123.5t-65.5 -101.5t-101.5 -67t-141 -25q-67 0 -126.5 31t-94.5 86q-49 -24 -75.5 -35.5t-70.5 -24t-81 -12.5q-126 0 -196 82.5t-70 210.5q0 64 13.5 127 t42.5 120t70 100.5t100 69t128 25.5q92 0 166 -55l6 41h264l-76 -588q-1 -7 7 -12t16.5 -6.5t15.5 -1.5q41 0 74.5 27t52 68t28 83.5t9.5 79.5q0 234 -120.5 366.5t-352.5 132.5q-146 0 -268.5 -71t-193 -194t-70.5 -269q0 -218 135 -347.5t354 -129.5q95 0 217 47l58 -125 q-152 -59 -281 -59q-188 0 -331 72t-223.5 211.5t-80.5 328.5zM549 705q0 -111 90 -111q33 0 111 33l30 237q-62 43 -98 43q-47 0 -78.5 -35t-43 -78.5t-11.5 -88.5z" />
<glyph unicode="A" horiz-adv-x="1683" d="M53 0l590 1516h379l592 -1516h-377l-90 250h-627l-90 -250h-377zM623 532h421l-210 586z" />
<glyph unicode="B" horiz-adv-x="1503" d="M129 0v1516h715q87 0 162.5 -12.5t146 -43.5t121 -78t80.5 -120t30 -166q0 -115 -65 -197t-176 -123q127 -45 199.5 -133t72.5 -217q0 -91 -30 -164t-80.5 -121.5t-120 -80.5t-146 -46t-161.5 -14h-748zM504 297h323q213 0 213 154q0 97 -59.5 135.5t-161.5 38.5h-315 v-328zM504 895h291q94 0 154.5 37.5t60.5 126.5q0 49 -17.5 82t-49.5 49t-67.5 22.5t-82.5 6.5h-289v-324z" />
<glyph unicode="C" horiz-adv-x="1513" d="M90 756q0 360 208.5 570t567.5 210q213 0 388.5 -92.5t265.5 -272.5l-291 -135q-52 96 -149.5 145.5t-213.5 49.5q-103 0 -181 -38t-124 -105t-69 -150.5t-23 -181.5q0 -79 13.5 -148t44 -129.5t75.5 -103.5t112.5 -67.5t151.5 -24.5q120 0 218.5 49.5t150.5 148.5 l291 -135q-92 -183 -268 -276t-392 -93q-362 0 -569 209t-207 570z" />
<glyph unicode="D" horiz-adv-x="1560" d="M129 0v1516h594q355 0 553.5 -201t198.5 -557t-198.5 -557t-553.5 -201h-594zM504 297h219q84 0 149 24t107.5 65t70 100.5t39 126t11.5 145.5t-11.5 146t-39 126.5t-69.5 101t-107.5 65.5t-149.5 24h-219v-924z" />
<glyph unicode="E" horiz-adv-x="1247" d="M129 0v1516h1088v-297h-713v-301h610v-283h-610v-338h713v-297h-1088z" />
<glyph unicode="F" horiz-adv-x="1284" d="M129 0v1516h1088v-297h-711v-301h610v-283h-610v-635h-377z" />
<glyph unicode="G" horiz-adv-x="1662" d="M90 756q0 359 209 569.5t567 210.5q189 0 353.5 -74.5t263.5 -220.5l-281 -160q-58 75 -147 112.5t-189 37.5q-103 0 -180 -38t-122 -105.5t-67 -150.5t-22 -181q0 -100 21.5 -182.5t66 -149t122 -104t181.5 -37.5q177 0 336 170v135h-256v282h631v-870h-293l-35 127 q-204 -150 -383 -150q-360 0 -568 209.5t-208 569.5z" />
<glyph unicode="H" horiz-adv-x="1646" d="M129 0v1516h375v-598h647v598h375v-1516h-375v635h-647v-635h-375z" />
<glyph unicode="I" horiz-adv-x="624" d="M129 0v1516h375v-1516h-375z" />
<glyph unicode="J" horiz-adv-x="1077" d="M20 100l103 277q156 -62 246 -62q103 0 161 54t58 157v990h375v-1053q0 -157 -70.5 -267.5t-189 -163t-273.5 -52.5t-410 120z" />
<glyph unicode="K" horiz-adv-x="1568" d="M129 0v1516h375v-746l588 746h401l-530 -629l548 -887h-397l-373 623l-237 -281v-342h-375z" />
<glyph unicode="L" horiz-adv-x="1247" d="M129 0v1516h375v-1219h713v-297h-1088z" />
<glyph unicode="M" horiz-adv-x="2099" d="M129 0v1516h533l393 -1053l391 1053h532v-1516h-374v1014l-377 -1014h-344l-379 1014v-1014h-375z" />
<glyph unicode="N" horiz-adv-x="1705" d="M129 0v1516h397l686 -990v990h373v-1516h-403l-680 981v-981h-373z" />
<glyph unicode="O" horiz-adv-x="1736" d="M90 758q0 358 208.5 568t567.5 210t567.5 -210t208.5 -568q0 -363 -207 -572t-569 -209t-569 209t-207 572zM473 758q0 -101 21.5 -184t66 -149.5t122.5 -104t183 -37.5t183 37.5t123 104t66.5 149.5t21.5 184q0 98 -22.5 181.5t-68 150t-123 104t-180.5 37.5 q-83 0 -149.5 -25t-111.5 -68t-75 -103.5t-43.5 -129.5t-13.5 -147z" />
<glyph unicode="P" horiz-adv-x="1400" d="M129 0v1516h733q116 0 211.5 -26t170.5 -80t117 -144.5t42 -210.5q0 -86 -21.5 -155.5t-56.5 -116.5t-89.5 -81.5t-110 -54t-129.5 -31t-137 -15t-142 -3.5q-36 0 -106.5 1t-106.5 1v-600h-375zM504 883h309q90 0 152.5 43t62.5 129q0 49 -17.5 82.5t-49.5 50.5t-68 24 t-82 7h-307v-336z" />
<glyph unicode="Q" horiz-adv-x="1753" d="M90 752q0 360 208.5 570t567.5 210t567.5 -210t208.5 -570q0 -329 -167 -529l180 -186l-172 -168l-197 201q-184 -97 -420 -97q-362 0 -569 209t-207 570zM473 752q0 -80 13 -148.5t43 -129t74.5 -103.5t111.5 -67.5t151 -24.5q108 0 181 36l-218 222l172 170l211 -218 q48 106 48 263q0 99 -22.5 182t-68 150t-123 105t-180.5 38t-180.5 -38t-123 -105t-67.5 -150t-22 -182z" />
<glyph unicode="R" horiz-adv-x="1517" d="M129 0v1516h733q116 0 211.5 -26t170.5 -80t117 -144.5t42 -210.5q0 -161 -85.5 -271t-242.5 -155l373 -629h-395l-340 600h-209v-600h-375zM504 883h309q90 0 152.5 43t62.5 129q0 49 -17.5 82.5t-49.5 50.5t-68 24t-82 7h-307v-336z" />
<glyph unicode="S" horiz-adv-x="1421" d="M90 129l66 279q380 -129 557 -129q39 0 78.5 6.5t81.5 21t68 45t26 72.5q0 47 -30 80.5t-80.5 53t-116 34t-138 29.5t-144.5 34t-137.5 52t-116 79.5t-80.5 121t-30 171.5q0 98 38.5 177.5t101 130.5t146.5 86t170 50t175 15q133 0 288 -37t296 -96l-60 -268 q-331 104 -520 104q-40 0 -80 -6t-84 -20t-71 -44t-27 -73q0 -39 30.5 -66t82 -43.5t118 -29.5t140 -29t147.5 -37t140.5 -58t118 -87t82 -129.5t30.5 -180.5q0 -97 -38.5 -176.5t-101.5 -132t-146.5 -88t-170 -51t-174.5 -15.5q-136 0 -306 44.5t-329 109.5z" />
<glyph unicode="T" horiz-adv-x="1337" d="M61 1219v297h1227v-297h-426v-1219h-375v1219h-426z" />
<glyph unicode="U" horiz-adv-x="1605" d="M129 623v893h375v-846q0 -61 10 -117t33 -107.5t57.5 -89t87.5 -60t119 -22.5q83 0 144.5 33.5t96.5 90.5t51.5 125.5t16.5 146.5v846h375v-893q0 -311 -184.5 -478.5t-499.5 -167.5q-316 0 -499 167t-183 479z" />
<glyph unicode="V" horiz-adv-x="1697" d="M53 1516h393l404 -1117l401 1117h396l-609 -1516h-379z" />
<glyph unicode="W" horiz-adv-x="2465" d="M53 1516h393l265 -1016l331 1016h363l332 -1018l268 1018h393l-469 -1516h-360l-346 1010l-344 -1010h-361z" />
<glyph unicode="X" horiz-adv-x="1695" d="M53 0l553 770l-545 746h439l346 -482l350 482h436l-547 -746l551 -770h-438l-352 481l-354 -481h-439z" />
<glyph unicode="Y" horiz-adv-x="1673" d="M53 1516h396l395 -670l395 670h395l-606 -924v-592h-375v604z" />
<glyph unicode="Z" horiz-adv-x="1445" d="M90 0v274l795 945h-783v297h1278v-234l-833 -985h844v-297h-1301z" />
<glyph unicode="[" horiz-adv-x="878" d="M98 -346v2029h744v-243h-369v-1544h369v-242h-744z" />
<glyph unicode="\" horiz-adv-x="1333" d="M45 1516h379l885 -1516h-377z" />
<glyph unicode="]" horiz-adv-x="964" d="M98 -104h369v1544h-369v243h744v-2029h-744v242z" />
<glyph unicode="^" horiz-adv-x="1024" />
<glyph unicode="_" horiz-adv-x="1247" d="M129 -225h989v-285h-989v285z" />
<glyph unicode="`" horiz-adv-x="598" d="M102 1491l291 82l103 -336l-179 -51z" />
<glyph unicode="a" d="M90 545q0 90 16.5 172t52.5 155t89.5 126.5t132 84.5t174.5 31q165 0 317 -125v105h357v-1094h-264l-50 94q-5 -2 -36.5 -17.5t-40 -19t-37 -17t-41 -17.5t-38.5 -14t-42.5 -14t-39 -9t-43 -7t-40.5 -2q-96 0 -174.5 31t-132 84.5t-90 126t-53.5 154.5t-17 172zM449 539 q0 -57 10.5 -106.5t34.5 -94t68 -70.5t104 -26q69 0 206 65v438q-131 91 -210 91q-59 0 -102 -26.5t-66.5 -71.5t-34 -94.5t-10.5 -104.5z" />
<glyph unicode="b" horiz-adv-x="1353" d="M131 0v1516h356v-527q152 125 318 125q119 0 210 -47.5t145 -128.5t81 -180.5t27 -212.5t-27.5 -212.5t-82 -180t-146 -128t-209.5 -47.5q-45 0 -90.5 9t-98.5 30.5t-81 34.5t-89 43l-49 -94h-264zM487 307q44 -21 67.5 -31t64.5 -22t73 -12q60 0 104 26t68 70.5t34.5 94 t10.5 106.5q0 54 -10.5 104t-33.5 94.5t-66 71.5t-101 27q-80 0 -211 -91v-438z" />
<glyph unicode="c" horiz-adv-x="1292" d="M90 543q0 273 166 421t442 148q89 0 169.5 -17.5t152 -54.5t127 -99.5t86.5 -145.5l-315 -95q-27 70 -84.5 105t-135.5 35q-122 0 -182.5 -87t-60.5 -214q0 -81 23.5 -148t80 -113.5t139.5 -46.5q163 0 220 154l311 -100q-63 -158 -205.5 -234t-325.5 -76 q-275 0 -441.5 148.5t-166.5 419.5z" />
<glyph unicode="d" horiz-adv-x="1351" d="M90 545q0 90 16.5 172t52.5 155t89.5 126.5t132 84.5t174.5 31q165 0 317 -125v527h357v-1516h-262l-52 94q-81 -40 -119 -57.5t-109 -38.5t-130 -21q-96 0 -174.5 31t-132 84.5t-90 126t-53.5 154.5t-17 172zM449 539q0 -57 10.5 -106.5t34.5 -94t68 -70.5t104 -26 q69 0 206 65v438q-131 91 -210 91q-59 0 -102 -26.5t-66.5 -71.5t-34 -94.5t-10.5 -104.5z" />
<glyph unicode="e" horiz-adv-x="1318" d="M90 545q0 273 166 421t442 148q255 0 392 -135.5t137 -390.5q0 -45 -4 -135h-758q16 -101 75.5 -164.5t157.5 -63.5q45 0 90.5 4.5t98 14.5t86.5 17.5t97 22.5t89 21l43 -237q-104 -29 -169.5 -45t-160.5 -31t-174 -15q-181 0 -316.5 63t-213.5 192.5t-78 312.5zM471 655 h430q-35 195 -203 195q-89 0 -147.5 -52.5t-79.5 -142.5z" />
<glyph unicode="f" horiz-adv-x="888" d="M61 852v242h170q0 84 7.5 145.5t29.5 120t60 94.5t101 58t151 22q114 0 262 -31l-31 -217q-50 4 -74 4q-44 0 -74.5 -15.5t-46 -44t-22 -61t-6.5 -75.5h196v-242h-196v-852h-357v852h-170z" />
<glyph unicode="g" horiz-adv-x="1347" d="M90 545q0 113 27 212.5t81 180.5t145 128.5t210 47.5q171 0 342 -143l70 123h264v-1112q0 -235 -124 -370.5t-357 -135.5q-68 0 -149 13t-136 27.5t-149 42t-136 38.5l78 256q34 -8 126.5 -35t159 -40.5t128.5 -13.5q59 0 99 20.5t60 46.5t30.5 76.5t11.5 82.5t1 93v26 q-66 -31 -107 -48.5t-103 -34t-117 -16.5q-117 0 -206.5 42t-142.5 116.5t-79.5 169t-26.5 207.5zM449 539q0 -53 9 -97.5t29.5 -84.5t60 -62.5t95.5 -22.5q38 0 81.5 11.5t72.5 24t75 34.5v403q-131 91 -210 91q-59 0 -102 -26.5t-66.5 -71.5t-34 -94.5t-10.5 -104.5z" />
<glyph unicode="h" horiz-adv-x="1327" d="M129 0v1513h358v-579q86 73 183.5 126.5t181.5 53.5q99 0 184 -37t140 -113t55 -176v-788h-357v684q0 67 -43.5 103t-113.5 36q-71 0 -230 -123v-700h-358z" />
<glyph unicode="i" horiz-adv-x="606" d="M129 1241v299h360v-299h-360zM131 0v1094h356v-1094h-356z" />
<glyph unicode="j" horiz-adv-x="743" d="M-61 -438l59 270q72 -10 86 -10q94 0 140 59t46 156v1057h357v-1071q0 -229 -119.5 -359.5t-345.5 -130.5q-89 0 -223 29zM268 1241v299h361v-299h-361z" />
<glyph unicode="k" horiz-adv-x="1331" d="M131 0v1516h356v-814l357 392h379l-383 -420l415 -674h-376l-261 432l-131 -145v-287h-356z" />
<glyph unicode="l" horiz-adv-x="606" d="M129 0v1513h356v-1513h-356z" />
<glyph unicode="m" horiz-adv-x="1976" d="M129 0v1094h272l64 -133q192 153 332 153q103 0 195.5 -43t142.5 -125q203 168 350 168q99 0 184 -37t140 -113t55 -176v-788h-357v684q0 67 -43.5 103t-113.5 36q-57 0 -174 -82v-741h-357v684q0 67 -44 103t-113 36q-58 0 -175 -82v-741h-358z" />
<glyph unicode="n" horiz-adv-x="1343" d="M129 0v1094h272l76 -166q51 40 85 64.5t87.5 57t104 48.5t98.5 16q97 0 182.5 -37.5t141 -113.5t55.5 -175v-788h-357v684q0 67 -44 103t-113 36q-71 0 -230 -123v-700h-358z" />
<glyph unicode="o" horiz-adv-x="1386" d="M90 545q0 273 166 420t442 147q181 0 317 -63t214 -192.5t78 -311.5q0 -181 -78.5 -311.5t-214.5 -194.5t-316 -64t-315.5 64t-214 194.5t-78.5 311.5zM457 541q0 -82 22.5 -149t78.5 -113t140 -46q63 0 111.5 26t76 70.5t41 98t13.5 113.5q0 129 -59.5 215t-182.5 86 q-64 0 -111.5 -24.5t-75 -67.5t-41 -95.5t-13.5 -113.5z" />
<glyph unicode="p" horiz-adv-x="1353" d="M131 -492v1586h266l68 -123q170 145 340 145q96 0 174 -31t131.5 -84.5t90 -126.5t53 -155t16.5 -172q0 -89 -17 -171t-54 -155t-90.5 -127t-132 -85.5t-173.5 -31.5q-52 0 -112.5 16.5t-100 33t-103.5 47.5v-566h-356zM487 305q3 -1 19 -8.5t20 -9.5t19.5 -8.5t21.5 -9 t20 -8t21.5 -7.5t20.5 -5.5t22.5 -5t20.5 -2.5t22 -1q60 0 104 26t67.5 71t34.5 95t11 107q0 55 -10.5 105.5t-34 96t-66.5 72.5t-102 27q-35 0 -77 -16t-68.5 -32.5t-65.5 -43.5v-443z" />
<glyph unicode="q" horiz-adv-x="1394" d="M90 547q0 113 27 212.5t81 180.5t145 128.5t210 47.5q169 0 342 -145l68 123h266v-1327l266 102v-219q-12 -5 -98 -42t-160 -68.5t-78 -31.5h-289v566q-66 -32 -103.5 -48t-97.5 -32.5t-112 -16.5q-95 0 -173.5 31.5t-132 85.5t-90.5 127t-54 155t-17 171zM449 539 q0 -57 10.5 -106.5t34.5 -94t68 -70.5t104 -26q15 0 29.5 1.5t32 6.5l28 8t31 11.5t27 11.5t30 14t26.5 12v438q-38 28 -64.5 44.5t-67.5 32.5t-76 16q-59 0 -102 -27t-66.5 -72t-34 -95t-10.5 -105z" />
<glyph unicode="r" horiz-adv-x="976" d="M129 0v1094h272l72 -148q207 170 367 170q39 0 84 -10l-45 -315q-43 14 -97 14q-125 0 -295 -113v-692h-358z" />
<glyph unicode="s" horiz-adv-x="1140" d="M90 84l53 221q14 -4 61 -18t67 -19t62.5 -16.5t69.5 -17t63.5 -12t69 -9t64.5 -2.5q139 0 139 86q0 31 -22 53.5t-59 36.5t-85 25.5t-101 24t-105.5 28t-100.5 40.5t-85 58.5t-59 86t-22 118.5q0 89 44 159t115 109.5t152 59.5t164 20q187 0 445 -86l-53 -221 q-226 74 -379 74q-148 0 -148 -80q0 -29 27.5 -49t72 -30.5t102 -24.5t117 -27.5t117 -41.5t102 -65t72 -100.5t27.5 -145.5q0 -74 -32 -134.5t-83.5 -98.5t-119 -64t-134 -36.5t-133.5 -10.5q-176 0 -485 109z" />
<glyph unicode="t" horiz-adv-x="927" d="M61 854v240h175v333h356v-333h274v-240h-274v-532q0 -107 153 -107q15 0 47 2t48 2v-203q-103 -16 -275 -16q-65 0 -120.5 12t-104 38.5t-76.5 76t-28 117.5v610h-175z" />
<glyph unicode="u" d="M129 305v789h358v-684q0 -67 44 -102.5t114 -35.5q65 0 229 121v701h357v-1094h-270l-78 168q-87 -76 -187.5 -132t-187.5 -56q-154 0 -266.5 88t-112.5 237z" />
<glyph unicode="v" horiz-adv-x="1343" d="M53 1094h375l225 -775l226 775h374l-393 -1094h-414z" />
<glyph unicode="w" horiz-adv-x="1777" d="M53 1094h365l164 -688l145 688h332l145 -688l164 688h365l-336 -1094h-326l-178 637l-180 -637h-326z" />
<glyph unicode="x" horiz-adv-x="1384" d="M53 0l422 551l-409 543h376l230 -326l223 326h377l-395 -527l436 -567h-377l-254 342l-252 -342h-377z" />
<glyph unicode="y" horiz-adv-x="1411" d="M53 1094h377l291 -650l227 650h375l-606 -1583h-375l223 587z" />
<glyph unicode="z" horiz-adv-x="1214" d="M90 0v211l557 614h-524v269h1001v-197l-553 -629h553v-268h-1034z" />
<glyph unicode="{" horiz-adv-x="985" d="M90 438v228q66 -1 113.5 16.5t75.5 46t44 74.5t21.5 92t5.5 109q0 260 74 362q60 81 199 104q82 14 309 17v-211q-72 -3 -125 -24t-83 -54.5t-49.5 -78t-25 -94t-9 -102.5t-2.5 -103t-4 -95.5t-15.5 -81t-35.5 -59t-64 -29.5q41 -2 65.5 -27.5t33.5 -67t12 -94.5 t4.5 -112t6.5 -117.5t22 -112.5t47 -96t86.5 -68.5t135.5 -29.5v-211q-208 2 -306 21q-270 54 -278 277v13q0 25 1 65.5t2 69t0 68.5t-4 68.5t-11 62.5t-20.5 58t-32.5 47.5t-46.5 38t-63.5 23t-83 7.5z" />
<glyph unicode="|" horiz-adv-x="329" d="M100 -344v2030h197v-2030h-197z" />
<glyph unicode="}" horiz-adv-x="985" d="M53 -170q80 3 136.5 28.5t86.5 66t46 92t20 109t5 115t3.5 110.5t12 95t35.5 70.5t69 34.5q-41 2 -66 27t-34 66.5t-12 95t-4.5 112t-6.5 117.5t-22 113t-47 96t-86.5 68.5t-135.5 29.5v211q204 -4 295 -21q266 -50 287 -255q2 -18 2 -37q0 -25 -1 -65.5t-2 -69t0 -68 t4 -68t11 -62.5t20.5 -58t32.5 -47.5t46.5 -38t63.5 -23t83 -8.5v-228q-66 1 -113.5 -16.5t-75.5 -46t-44 -74.5t-21.5 -92t-5.5 -109q0 -102 -12 -176t-27.5 -126.5t-59 -85.5t-75.5 -51.5t-110.5 -27.5t-130.5 -11t-167 -3v211z" />
<glyph unicode="~" horiz-adv-x="1095" d="M129 485q9 46 27 90t46 85t69 65.5t89 24.5q60 0 115.5 -22t89.5 -49t71.5 -49t65.5 -22q47 0 79.5 43.5t47.5 98.5l138 -66q-9 -46 -27.5 -90t-46 -84.5t-69 -65t-89.5 -24.5q-60 0 -115.5 22t-89.5 48.5t-71.5 48.5t-65.5 22q-47 0 -79.5 -43.5t-47.5 -97.5z" />
<glyph unicode="&#xa1;" horiz-adv-x="632" d="M129 0l39 1114h299l37 -1114h-375zM166 1214v302h301v-302h-301z" />
<glyph unicode="&#xa2;" horiz-adv-x="1294" d="M78 582q0 269 162.5 416.5t433.5 152.5l33 176l217 -39l-29 -164q110 -32 194.5 -102t127.5 -172l-291 -82q-37 59 -101.5 89t-138.5 30q-83 0 -139 -47t-78.5 -114t-22.5 -148q0 -59 13.5 -113t41 -100.5t75.5 -74.5t110 -28q75 0 139 32t101 93l282 -88 q-44 -98 -126.5 -163t-178 -93t-205.5 -29l-30 -178l-217 39l28 164q-196 52 -298.5 194.5t-102.5 348.5z" />
<glyph unicode="&#xa3;" horiz-adv-x="1523" d="M109 0v225h81v420h-81v225h81q0 334 151 499t482 165q122 0 247 -25t286 -71l-53 -297q-39 8 -116 25t-125 26.5t-115 18t-124 8.5q-63 0 -118.5 -47t-55.5 -109v-193h430v-225h-430v-420h654v-225h-1194z" />
<glyph unicode="&#xa4;" horiz-adv-x="1427" d="M117 201l151 147q-65 111 -65 238q0 126 65 237l-151 148l182 182l150 -149q108 63 235 63q130 0 238 -63l149 149l180 -182l-149 -148q63 -108 63 -237q0 -130 -63 -238l149 -147l-180 -183l-149 150q-109 -64 -238 -64q-126 0 -235 64l-150 -150zM453 586 q0 -97 67 -164.5t164 -67.5t165.5 67.5t68.5 164.5q0 96 -68.5 163.5t-165.5 67.5t-164 -67t-67 -164z" />
<glyph unicode="&#xa5;" horiz-adv-x="1753" d="M68 1516h395l395 -670l395 670h396l-572 -871h334v-221h-369v-68h369v-221h-369v-135h-374v135h-363v221h363v68h-363v221h334z" />
<glyph unicode="&#xa6;" horiz-adv-x="397" d="M100 -344v885h197v-885h-197zM100 801v885h197v-885h-197z" />
<glyph unicode="&#xa7;" horiz-adv-x="1179" d="M61 -215l52 233q294 -112 417 -112q31 0 61 5.5t59.5 18t48 37.5t18.5 58q0 40 -27.5 68t-72.5 43t-102.5 31t-118 30t-118 42.5t-102.5 65.5t-72.5 102t-27.5 150q0 91 41 170t116 131q-76 46 -116.5 124t-40.5 171q0 95 41 170.5t108.5 122t150.5 70.5t173 24 q188 0 442 -96l-51 -246q-248 84 -381 84q-32 0 -61 -5t-59 -16.5t-48 -35.5t-18 -58q0 -29 22.5 -50t60.5 -34t87.5 -24t104 -24t109.5 -31t104.5 -49t87.5 -72t60.5 -106.5t22.5 -147.5q0 -87 -40 -160.5t-113 -118.5q76 -52 114.5 -135t38.5 -180q0 -76 -28.5 -139 t-76 -105.5t-110.5 -72t-130.5 -43t-137.5 -13.5q-182 0 -488 123zM373 610q0 -58 39.5 -88t105.5 -49q36 -12 43 -12q61 0 108.5 33t47.5 92q0 60 -34 94t-99 59q-48 19 -56 19q-66 0 -110.5 -41.5t-44.5 -106.5z" />
<glyph unicode="&#xa8;" horiz-adv-x="935" d="M104 1241v299h320v-299h-320zM514 1241v299h320v-299h-320z" />
<glyph unicode="&#xa9;" horiz-adv-x="1368" d="M90 758q0 160 80 297t217 217t297 80t297 -80t217 -217t80 -297t-80 -297t-217 -217t-297 -80t-297 80t-217 217t-80 297zM219 758q0 -192 136.5 -328.5t328.5 -136.5t328.5 136.5t136.5 328.5q0 190 -137.5 327.5t-327.5 137.5t-327.5 -137.5t-137.5 -327.5zM385 756 q0 148 85 234.5t232 86.5q87 0 159.5 -37.5t109.5 -111.5l-119 -58q-21 39 -62 59.5t-88 20.5q-81 0 -120 -55t-39 -139q0 -86 38.5 -140.5t120.5 -54.5q107 0 152 82l119 -55q-37 -75 -109.5 -113.5t-161.5 -38.5q-147 0 -232 86t-85 234z" />
<glyph unicode="&#xaa;" horiz-adv-x="1017" d="M61 1114q0 86 21 161.5t62 137t110.5 97.5t159.5 36q119 0 241 -96v80h271v-830h-201l-37 72q-60 -29 -90.5 -43t-84 -29.5t-97.5 -15.5q-90 0 -159.5 35.5t-111.5 96.5t-63 136.5t-21 161.5zM334 1108q0 -59 13.5 -106.5t52 -83t98.5 -35.5q53 0 157 51v332 q-100 69 -161 69q-59 0 -96.5 -37t-50.5 -85t-13 -105z" />
<glyph unicode="&#xab;" horiz-adv-x="1413" d="M45 758l342 534h379l-342 -534l342 -537h-379zM563 758l342 534h379l-342 -534l342 -537h-379z" />
<glyph unicode="&#xac;" horiz-adv-x="2048" />
<glyph unicode="&#xad;" horiz-adv-x="2048" />
<glyph unicode="&#xae;" horiz-adv-x="1368" d="M90 756q0 160 80 297t217 217t297 80t297 -80t217 -217t80 -297t-80 -296.5t-217 -216t-297 -79.5t-297 79.5t-217 216t-80 296.5zM219 756q0 -190 137.5 -327.5t327.5 -137.5t327.5 137.5t137.5 327.5q0 126 -62.5 233.5t-169.5 170.5t-233 63t-233 -63t-169.5 -170.5 t-62.5 -233.5zM446 444v623h299q99 0 161.5 -47t62.5 -143q0 -136 -135 -175l153 -258h-164l-139 246h-84v-246h-154zM600 807h127q36 0 62 18t26 52q0 39 -24 53t-66 14h-125v-137z" />
<glyph unicode="&#xaf;" horiz-adv-x="985" d="M129 1243v285h713v-285h-713z" />
<glyph unicode="&#xb0;" horiz-adv-x="808" d="M90 1206q0 130 93 222t223 92q129 0 221 -92.5t92 -221.5t-92 -221t-221 -92q-130 0 -223 91.5t-93 221.5zM229 1206q0 -72 52.5 -124t124.5 -52t123 52t51 124t-51 124t-123 52t-124.5 -52t-52.5 -124z" />
<glyph unicode="&#xb1;" horiz-adv-x="1368" d="M244 795v237h340v338h237v-338h338v-237h-338v-340h-237v340h-340zM250 121v272h913v-272h-913z" />
<glyph unicode="&#xb2;" horiz-adv-x="815" d="M61 1352q111 190 340 190q52 0 100 -7t95 -24.5t81 -45t55.5 -72t21.5 -101.5q0 -42 -16 -84.5t-39 -76.5t-59.5 -73.5t-65.5 -66t-70.5 -63t-61.5 -56.5h310v-200h-656v162q16 14 76 63.5t111 94t107 99t89 102t33 79.5t-38 50.5t-73 18.5q-108 0 -161 -84z" />
<glyph unicode="&#xb3;" horiz-adv-x="856" d="M55 864l183 97q45 -95 159 -95q47 0 85 24t38 68q0 80 -170 80h-104v154q17 0 52 1t54 1q160 0 160 84q0 38 -38 59t-79 21q-109 0 -159 -90l-181 96q55 92 143 140t197 48q62 0 120.5 -12t113 -38t88 -75.5t33.5 -115.5q0 -130 -107 -191q133 -62 133 -200 q0 -69 -36.5 -119.5t-95.5 -77.5t-121 -39t-126 -12q-109 0 -200 49.5t-142 142.5z" />
<glyph unicode="&#xb4;" horiz-adv-x="598" d="M102 1237l103 336l291 -82l-215 -305z" />
<glyph unicode="&#xb5;" horiz-adv-x="1341" d="M121 -397v1491h356v-684q0 -68 44.5 -109t113.5 -41q64 0 231 123v711h357v-1092h-254l-95 166q-103 -87 -197.5 -137.5t-199.5 -50.5v-377h-356z" />
<glyph unicode="&#xb6;" horiz-adv-x="1492" d="M129 1055q0 119 42 209.5t117 144.5t171 80.5t211 26.5h590v-1516h-375v600q-75 0 -116.5 0.5t-115 4.5t-117 12t-105.5 23.5t-99.5 38t-81 57t-66.5 79t-39 105.5t-16 135z" />
<glyph unicode="&#xb7;" horiz-adv-x="559" d="M129 362v312h313v-312h-313z" />
<glyph unicode="&#xb8;" horiz-adv-x="749" d="M102 -416l66 125q87 -26 147 -26q21 0 42.5 2.5t45 14t23.5 30.5q0 49 -94 49q-40 0 -88 -10l-74 59l141 172h195l-100 -113q18 2 55 2q86 0 136 -43.5t50 -128.5q0 -51 -31 -88t-81 -55t-97.5 -25.5t-95.5 -7.5q-135 0 -240 43z" />
<glyph unicode="&#xb9;" horiz-adv-x="696" d="M76 1362l266 168h236v-858h-250v592l-133 -82z" />
<glyph unicode="&#xba;" horiz-adv-x="950" d="M61 1100q0 204 101.5 322t302.5 118t303 -117.5t102 -322.5t-102 -323t-303 -118q-203 0 -303.5 117.5t-100.5 323.5zM315 1100q0 -246 150 -246q39 0 67.5 16.5t43.5 40t24 59t11.5 65t2.5 65.5q0 246 -149 246q-150 0 -150 -246z" />
<glyph unicode="&#xbb;" horiz-adv-x="1413" d="M129 221l342 537l-342 534h379l342 -534l-342 -537h-379zM647 221l342 537l-342 534h379l342 -534l-342 -537h-379z" />
<glyph unicode="&#xbc;" horiz-adv-x="2088" d="M76 1362l266 168h236v-858h-250v592l-133 -82zM430 0l819 1516h369l-819 -1516h-369zM1198 184v187l371 487h303v-475h106v-199h-106v-184h-250v184h-424zM1458 383h164v215z" />
<glyph unicode="&#xbd;" horiz-adv-x="2172" d="M76 1362l266 168h236v-858h-250v592l-133 -82zM430 0l819 1516h369l-819 -1516h-369zM1300 682q55 92 143 140t197 48q67 0 125.5 -12t112 -38.5t84.5 -77.5t31 -121q0 -42 -16 -84.5t-39 -76.5t-59.5 -73.5t-65.5 -66t-70.5 -63t-61.5 -56.5h312v-201h-658v164 q15 14 99 84.5t145 124.5t116.5 121.5t55.5 105.5q0 32 -38 51t-73 19q-108 0 -161 -84z" />
<glyph unicode="&#xbe;" horiz-adv-x="2074" d="M55 864l183 97q45 -95 159 -95q47 0 85 24t38 68q0 80 -170 80h-104v156h106q160 0 160 84q0 38 -38 59t-79 21q-109 0 -159 -90l-181 96q55 92 143 140t197 48q62 0 120.5 -12t113 -38t88 -75.5t33.5 -115.5q0 -130 -107 -191q133 -62 133 -200q0 -69 -36.5 -119.5 t-95.5 -77.5t-121 -39t-126 -12q-109 0 -200 49.5t-142 142.5zM430 0l819 1516h369l-819 -1516h-369zM1198 184v187l371 487h303v-475h106v-199h-106v-184h-250v184h-424zM1458 383h164v215z" />
<glyph unicode="&#xbf;" horiz-adv-x="1255" d="M61 436q0 89 22.5 158.5t59.5 111.5t84.5 74.5t97 50t97 35.5t84.5 33.5t59.5 42.5t22.5 64v137h299v-211q0 -77 -29.5 -135.5t-76 -91.5t-103 -57.5t-113.5 -42t-103.5 -36t-76 -47.5t-29.5 -69t25.5 -71.5t64.5 -49t79.5 -26.5t76.5 -9q92 0 192.5 34t178.5 89 l192 -223q-110 -96 -263 -146.5t-310 -50.5q-94 0 -187 30.5t-170.5 84.5t-125.5 138t-48 183zM588 1235v301h299v-301h-299z" />
<glyph unicode="&#xc0;" horiz-adv-x="1667" d="M53 0l590 1516h379l592 -1516h-377l-90 250h-627l-90 -250h-377zM561 1890l291 82l102 -336l-178 -51zM623 532h421l-210 586z" />
<glyph unicode="&#xc1;" horiz-adv-x="1667" d="M53 0l590 1516h379l592 -1516h-377l-90 250h-627l-90 -250h-377zM623 532h421l-210 586zM743 1636l103 336l291 -82l-215 -305z" />
<glyph unicode="&#xc2;" horiz-adv-x="1667" d="M53 0l590 1516h379l592 -1516h-377l-90 250h-627l-90 -250h-377zM487 1708l240 250h215l242 -250l-150 -106l-198 143l-199 -143zM623 532h421l-210 586z" />
<glyph unicode="&#xc3;" horiz-adv-x="1667" d="M53 0l590 1516h379l592 -1516h-377l-90 250h-627l-90 -250h-377zM414 1675q9 46 27 90t46 84.5t69 65t89 24.5q60 0 115.5 -22t89.5 -48.5t71.5 -48.5t65.5 -22q47 0 79.5 43.5t47.5 97.5l137 -65q-9 -46 -27 -90t-46 -84.5t-69 -65t-89 -24.5q-60 0 -115.5 22 t-89.5 48.5t-71.5 48.5t-65.5 22q-47 0 -79.5 -43.5t-47.5 -97.5zM623 532h421l-210 586z" />
<glyph unicode="&#xc4;" horiz-adv-x="1667" d="M53 0l590 1516h379l592 -1516h-377l-90 250h-627l-90 -250h-377zM469 1630v299h319v-299h-319zM623 532h421l-210 586zM879 1630v299h319v-299h-319z" />
<glyph unicode="&#xc5;" horiz-adv-x="1667" d="M53 0l590 1516h379l592 -1516h-377l-90 250h-627l-90 -250h-377zM623 532h421l-210 586zM647 1782q0 76 55 131t132 55q76 0 131 -55t55 -131q0 -77 -55 -133t-131 -56t-131.5 56t-55.5 133zM758 1782q0 -31 22.5 -53.5t53.5 -22.5t53 22.5t22 53.5t-22 53.5t-53 22.5 t-53.5 -22.5t-22.5 -53.5z" />
<glyph unicode="&#xc6;" horiz-adv-x="2785" d="M328 0l932 1516h1226v-297h-710v-301h610v-283h-610v-338h710v-297h-1087v252h-549l-145 -252h-377zM1016 535h383v653z" />
<glyph unicode="&#xc7;" horiz-adv-x="1615" d="M90 756q0 360 208.5 570t567.5 210q213 0 388.5 -92.5t265.5 -272.5l-291 -135q-52 96 -149.5 145.5t-213.5 49.5q-103 0 -181 -38t-124 -105t-69 -150.5t-23 -181.5q0 -79 13.5 -148t44 -129.5t75.5 -103.5t112.5 -67.5t151.5 -24.5q120 0 218.5 49.5t150.5 148.5 l291 -135q-82 -163 -233 -254.5t-339 -109.5l-84 -95q18 2 56 2q86 0 136 -43.5t50 -128.5q0 -51 -31 -88t-81 -55t-97.5 -25.5t-95.5 -7.5q-135 0 -240 43l66 125q87 -26 147 -26q21 0 42.5 2.5t45 14t23.5 30.5q0 49 -94 49q-40 0 -88 -10l-74 59l127 154 q-316 31 -494 235.5t-178 538.5z" />
<glyph unicode="&#xc8;" horiz-adv-x="1345" d="M129 0v1516h1088v-297h-713v-301h610v-283h-610v-338h713v-297h-1088zM377 1890l291 82l102 -336l-178 -51z" />
<glyph unicode="&#xc9;" horiz-adv-x="1345" d="M129 0v1516h1088v-297h-713v-301h610v-283h-610v-338h713v-297h-1088zM573 1636l103 336l291 -82l-215 -305z" />
<glyph unicode="&#xca;" horiz-adv-x="1345" d="M129 0v1516h1088v-297h-713v-301h610v-283h-610v-338h713v-297h-1088zM336 1708l239 250h216l241 -250l-149 -106l-199 143l-199 -143z" />
<glyph unicode="&#xcb;" horiz-adv-x="1345" d="M129 0v1516h1088v-297h-713v-301h610v-283h-610v-338h713v-297h-1088zM309 1630v299h320v-299h-320zM719 1630v299h319v-299h-319z" />
<glyph unicode="&#xcc;" horiz-adv-x="632" d="M70 1890l290 82l103 -336l-178 -51zM129 0v1516h375v-1516h-375z" />
<glyph unicode="&#xcd;" horiz-adv-x="632" d="M129 0v1516h375v-1516h-375zM188 1636l103 336l291 -82l-215 -305z" />
<glyph unicode="&#xce;" horiz-adv-x="632" d="M-33 1708l240 250h215l242 -250l-150 -106l-199 143l-198 -143zM129 0v1516h375v-1516h-375z" />
<glyph unicode="&#xcf;" horiz-adv-x="632" d="M-43 1630v299h319v-299h-319zM129 0v1516h375v-1516h-375zM367 1630v299h319v-299h-319z" />
<glyph unicode="&#xd0;" horiz-adv-x="1818" d="M55 647v221h234v648h594q355 0 553 -201t198 -557t-198 -557t-553 -201h-594v647h-234zM664 297h219q84 0 149 24t107.5 65t70 100.5t39 126t11.5 145.5t-11.5 145.5t-39 126t-70 100.5t-107.5 65t-149 24h-219v-351h305v-221h-305v-350z" />
<glyph unicode="&#xd1;" horiz-adv-x="1714" d="M129 0v1516h397l686 -990v990h373v-1516h-403l-680 981v-981h-373zM444 1675q9 46 27.5 90t46 84.5t69 65t89.5 24.5q60 0 115.5 -22t89.5 -48.5t71.5 -48.5t65.5 -22q47 0 79.5 43.5t47.5 97.5l137 -65q-9 -46 -27 -90t-46 -84.5t-69 -65t-89 -24.5q-60 0 -115.5 22 t-89.5 48.5t-71.5 48.5t-65.5 22q-47 0 -79.5 -43.5t-47.5 -97.5z" />
<glyph unicode="&#xd2;" horiz-adv-x="1732" d="M90 758q0 358 208.5 568t567.5 210t567.5 -210t208.5 -568q0 -363 -207 -572t-569 -209t-569 209t-207 572zM473 758q0 -101 21.5 -184t66 -149.5t122.5 -104t183 -37.5t183 37.5t123 104t66.5 149.5t21.5 184q0 98 -22.5 181.5t-68 150t-123 104t-180.5 37.5 q-83 0 -149.5 -25t-111.5 -68t-75 -103.5t-43.5 -129.5t-13.5 -147zM524 1890l291 82l103 -336l-179 -51z" />
<glyph unicode="&#xd3;" horiz-adv-x="1732" d="M90 758q0 358 208.5 568t567.5 210t567.5 -210t208.5 -568q0 -363 -207 -572t-569 -209t-569 209t-207 572zM473 758q0 -101 21.5 -184t66 -149.5t122.5 -104t183 -37.5t183 37.5t123 104t66.5 149.5t21.5 184q0 98 -22.5 181.5t-68 150t-123 104t-180.5 37.5 q-83 0 -149.5 -25t-111.5 -68t-75 -103.5t-43.5 -129.5t-13.5 -147zM823 1636l103 336l291 -82l-216 -305z" />
<glyph unicode="&#xd4;" horiz-adv-x="1732" d="M90 758q0 358 208.5 568t567.5 210t567.5 -210t208.5 -568q0 -363 -207 -572t-569 -209t-569 209t-207 572zM473 758q0 -101 21.5 -184t66 -149.5t122.5 -104t183 -37.5t183 37.5t123 104t66.5 149.5t21.5 184q0 98 -22.5 181.5t-68 150t-123 104t-180.5 37.5 q-83 0 -149.5 -25t-111.5 -68t-75 -103.5t-43.5 -129.5t-13.5 -147zM520 1708l240 250h215l242 -250l-150 -106l-199 143l-198 -143z" />
<glyph unicode="&#xd5;" horiz-adv-x="1732" d="M90 758q0 358 208.5 568t567.5 210t567.5 -210t208.5 -568q0 -363 -207 -572t-569 -209t-569 209t-207 572zM455 1675q9 46 27 90t46 84.5t69 65t89 24.5q60 0 115.5 -22t89.5 -48.5t71.5 -48.5t65.5 -22q47 0 79.5 43.5t47.5 97.5l137 -65q-9 -46 -27 -90t-46 -84.5 t-69 -65t-89 -24.5q-60 0 -115.5 22t-89.5 48.5t-71.5 48.5t-65.5 22q-47 0 -79.5 -43.5t-47.5 -97.5zM473 758q0 -101 21.5 -184t66 -149.5t122.5 -104t183 -37.5t183 37.5t123 104t66.5 149.5t21.5 184q0 98 -22.5 181.5t-68 150t-123 104t-180.5 37.5q-83 0 -149.5 -25 t-111.5 -68t-75 -103.5t-43.5 -129.5t-13.5 -147z" />
<glyph unicode="&#xd6;" horiz-adv-x="1732" d="M90 758q0 358 208.5 568t567.5 210t567.5 -210t208.5 -568q0 -363 -207 -572t-569 -209t-569 209t-207 572zM473 758q0 -101 21.5 -184t66 -149.5t122.5 -104t183 -37.5t183 37.5t123 104t66.5 149.5t21.5 184q0 98 -22.5 181.5t-68 150t-123 104t-180.5 37.5 q-83 0 -149.5 -25t-111.5 -68t-75 -103.5t-43.5 -129.5t-13.5 -147zM512 1630v299h319v-299h-319zM922 1630v299h319v-299h-319z" />
<glyph unicode="&#xd7;" horiz-adv-x="1347" d="M115 371l315 317l-307 305l211 211l307 -307l305 305l209 -209l-305 -305l315 -315l-211 -211l-313 315l-317 -315z" />
<glyph unicode="&#xd8;" horiz-adv-x="1732" d="M90 756q0 359 209.5 569.5t568.5 210.5q195 0 361 -72l139 201l182 -127l-135 -192q118 -107 174 -261.5t56 -328.5q0 -360 -208.5 -569.5t-568.5 -209.5q-198 0 -362 70l-139 -199l-183 125l135 193q-118 107 -173.5 261t-55.5 329zM475 756q0 -168 57 -285l508 725 q-74 35 -172 35q-103 0 -180.5 -38t-123 -105t-67.5 -150t-22 -182zM694 315q70 -32 174 -32q105 0 182.5 37t122.5 103.5t66 149t21 183.5q0 167 -60 284z" />
<glyph unicode="&#xd9;" horiz-adv-x="1624" d="M129 623v893h375v-846q0 -61 10 -117t33 -107.5t57.5 -89t87.5 -60t119 -22.5q83 0 144.5 33.5t96.5 90.5t51.5 125.5t16.5 146.5v846h375v-893q0 -311 -184.5 -478.5t-499.5 -167.5q-316 0 -499 167t-183 479zM526 1890l291 82l103 -336l-179 -51z" />
<glyph unicode="&#xda;" horiz-adv-x="1624" d="M129 623v893h375v-846q0 -61 10 -117t33 -107.5t57.5 -89t87.5 -60t119 -22.5q83 0 144.5 33.5t96.5 90.5t51.5 125.5t16.5 146.5v846h375v-893q0 -311 -184.5 -478.5t-499.5 -167.5q-316 0 -499 167t-183 479zM721 1636l102 336l291 -82l-215 -305z" />
<glyph unicode="&#xdb;" horiz-adv-x="1624" d="M129 623v893h375v-846q0 -61 10 -117t33 -107.5t57.5 -89t87.5 -60t119 -22.5q83 0 144.5 33.5t96.5 90.5t51.5 125.5t16.5 146.5v846h375v-893q0 -311 -184.5 -478.5t-499.5 -167.5q-316 0 -499 167t-183 479zM473 1708l240 250h215l241 -250l-149 -106l-199 143 l-198 -143z" />
<glyph unicode="&#xdc;" horiz-adv-x="1624" d="M129 623v893h375v-846q0 -61 10 -117t33 -107.5t57.5 -89t87.5 -60t119 -22.5q83 0 144.5 33.5t96.5 90.5t51.5 125.5t16.5 146.5v846h375v-893q0 -311 -184.5 -478.5t-499.5 -167.5q-316 0 -499 167t-183 479zM446 1630v299h320v-299h-320zM856 1630v299h320v-299h-320z " />
<glyph unicode="&#xdd;" horiz-adv-x="1703" d="M61 1516h396l395 -670l395 670h395l-606 -924v-592h-374v604zM705 1636l102 336l291 -82l-215 -305z" />
<glyph unicode="&#xde;" horiz-adv-x="1531" d="M156 0v1516h374v-267q39 0 118 1t118 1q80 0 143.5 -4t134.5 -15.5t125 -32t105 -55.5t83.5 -83t52.5 -117t20 -156q0 -68 -13 -125t-35.5 -100t-57 -77.5t-72.5 -58t-88 -41.5t-97 -28t-105.5 -16t-108 -8t-110.5 -2q-36 0 -106.5 1t-106.5 1v-334h-374zM530 616h310 q90 0 152.5 43t62.5 129q0 49 -17.5 82.5t-49.5 50.5t-68 24t-82 7h-308v-336z" />
<glyph unicode="&#xdf;" horiz-adv-x="1284" d="M131 -16v1138q0 105 41 186t111 130t158 73.5t188 24.5t188 -24.5t158.5 -73.5t111.5 -130t41 -186q0 -244 -182 -344q126 -45 189 -143.5t63 -235.5q0 -103 -40.5 -185.5t-110 -134t-158 -78t-187.5 -26.5q-64 0 -137 27l45 281q46 -19 92 -19q78 0 123 62.5t45 144.5 q0 30 -5 54t-12 42t-21.5 32t-26 23t-33.5 15t-36.5 9t-42.5 5t-43.5 2h-47.5v219q99 0 147 46t48 145q0 74 -47.5 129t-120.5 55q-72 0 -119 -55t-47 -129v-1079h-332z" />
<glyph unicode="&#xe0;" d="M90 545q0 90 16.5 172t52.5 155t89.5 126.5t132 84.5t174.5 31q165 0 317 -125v105h357v-1094h-264l-50 94q-5 -2 -36.5 -17.5t-40 -19t-37 -17t-41 -17.5t-38.5 -14t-42.5 -14t-39 -9t-43 -7t-40.5 -2q-96 0 -174.5 31t-132 84.5t-90 126t-53.5 154.5t-17 172zM381 1491 l291 82l102 -336l-178 -51zM449 539q0 -57 10.5 -106.5t34.5 -94t68 -70.5t104 -26q69 0 206 65v438q-131 91 -210 91q-59 0 -102 -26.5t-66.5 -71.5t-34 -94.5t-10.5 -104.5z" />
<glyph unicode="&#xe1;" d="M90 545q0 90 16.5 172t52.5 155t89.5 126.5t132 84.5t174.5 31q165 0 317 -125v105h357v-1094h-264l-50 94q-5 -2 -36.5 -17.5t-40 -19t-37 -17t-41 -17.5t-38.5 -14t-42.5 -14t-39 -9t-43 -7t-40.5 -2q-96 0 -174.5 31t-132 84.5t-90 126t-53.5 154.5t-17 172zM449 539 q0 -57 10.5 -106.5t34.5 -94t68 -70.5t104 -26q69 0 206 65v438q-131 91 -210 91q-59 0 -102 -26.5t-66.5 -71.5t-34 -94.5t-10.5 -104.5zM559 1237l103 336l290 -82l-215 -305z" />
<glyph unicode="&#xe2;" d="M90 545q0 90 16.5 172t52.5 155t89.5 126.5t132 84.5t174.5 31q165 0 317 -125v105h357v-1094h-264l-50 94q-5 -2 -36.5 -17.5t-40 -19t-37 -17t-41 -17.5t-38.5 -14t-42.5 -14t-39 -9t-43 -7t-40.5 -2q-96 0 -174.5 31t-132 84.5t-90 126t-53.5 154.5t-17 172zM319 1309 l240 250h215l242 -250l-150 -107l-198 144l-199 -144zM449 539q0 -57 10.5 -106.5t34.5 -94t68 -70.5t104 -26q69 0 206 65v438q-131 91 -210 91q-59 0 -102 -26.5t-66.5 -71.5t-34 -94.5t-10.5 -104.5z" />
<glyph unicode="&#xe3;" d="M90 545q0 90 16.5 172t52.5 155t89.5 126.5t132 84.5t174.5 31q165 0 317 -125v105h357v-1094h-264l-50 94q-5 -2 -36.5 -17.5t-40 -19t-37 -17t-41 -17.5t-38.5 -14t-42.5 -14t-39 -9t-43 -7t-40.5 -2q-96 0 -174.5 31t-132 84.5t-90 126t-53.5 154.5t-17 172zM254 1276 q9 46 27 90t46 84.5t69 65t89 24.5q60 0 115.5 -22t89.5 -48.5t71.5 -48.5t65.5 -22q47 0 79.5 43.5t47.5 97.5l138 -65q-9 -46 -27.5 -90.5t-46 -85t-69 -65t-89.5 -24.5q-60 0 -115.5 22t-89.5 49t-71.5 49t-65.5 22q-47 0 -79.5 -43.5t-47.5 -98.5zM449 539 q0 -57 10.5 -106.5t34.5 -94t68 -70.5t104 -26q69 0 206 65v438q-131 91 -210 91q-59 0 -102 -26.5t-66.5 -71.5t-34 -94.5t-10.5 -104.5z" />
<glyph unicode="&#xe4;" d="M90 545q0 90 16.5 172t52.5 155t89.5 126.5t132 84.5t174.5 31q165 0 317 -125v105h357v-1094h-264l-50 94q-5 -2 -36.5 -17.5t-40 -19t-37 -17t-41 -17.5t-38.5 -14t-42.5 -14t-39 -9t-43 -7t-40.5 -2q-96 0 -174.5 31t-132 84.5t-90 126t-53.5 154.5t-17 172zM301 1231 v299h320v-299h-320zM449 539q0 -57 10.5 -106.5t34.5 -94t68 -70.5t104 -26q69 0 206 65v438q-131 91 -210 91q-59 0 -102 -26.5t-66.5 -71.5t-34 -94.5t-10.5 -104.5zM711 1231v299h319v-299h-319z" />
<glyph unicode="&#xe5;" d="M90 545q0 90 16.5 172t52.5 155t89.5 126.5t132 84.5t174.5 31q165 0 317 -125v105h357v-1094h-264l-50 94q-5 -2 -36.5 -17.5t-40 -19t-37 -17t-41 -17.5t-38.5 -14t-42.5 -14t-39 -9t-43 -7t-40.5 -2q-96 0 -174.5 31t-132 84.5t-90 126t-53.5 154.5t-17 172zM449 539 q0 -57 10.5 -106.5t34.5 -94t68 -70.5t104 -26q69 0 206 65v438q-131 91 -210 91q-59 0 -102 -26.5t-66.5 -71.5t-34 -94.5t-10.5 -104.5zM479 1382q0 76 55.5 131.5t131.5 55.5t131 -55t55 -132t-55 -132.5t-131 -55.5t-131.5 55.5t-55.5 132.5zM590 1382q0 -31 22.5 -53 t53.5 -22t53 22t22 53t-22 53.5t-53 22.5t-53.5 -22.5t-22.5 -53.5z" />
<glyph unicode="&#xe6;" horiz-adv-x="1972" d="M70 276q0 85 39.5 151t99 104t141 62.5t154.5 33t149 8.5q72 0 109 -2q16 100 -41.5 150.5t-163.5 50.5q-152 0 -291 -101l-133 164q90 93 210.5 145t248.5 52q97 0 184 -37t137 -111q168 154 451 154q255 0 391.5 -137t136.5 -392q0 -45 -4 -135h-758q16 -98 77 -162.5 t157 -64.5q70 0 142 11.5t179.5 36.5t139.5 32l43 -236q-101 -28 -168.5 -44.5t-161.5 -31t-174 -14.5q-280 0 -444 148q-221 -146 -406 -146q-65 0 -124.5 8.5t-119 30.5t-103 56t-70.5 89.5t-27 126.5zM459 332q0 -33 14 -56.5t38.5 -35.5t51.5 -17.5t58 -5.5q65 0 180 66 q-31 69 -41 159q-20 2 -64 2q-33 0 -67.5 -4t-76 -14.5t-67.5 -35t-26 -58.5zM1137 641h430q-35 195 -203 195q-89 0 -147.5 -52.5t-79.5 -142.5z" />
<glyph unicode="&#xe7;" horiz-adv-x="1316" d="M90 543q0 273 166 421t442 148q89 0 169.5 -17.5t152 -54.5t127 -99.5t86.5 -145.5l-315 -95q-27 70 -84.5 105t-135.5 35q-122 0 -182.5 -87t-60.5 -214q0 -81 23.5 -148t80 -113.5t139.5 -46.5q163 0 220 154l311 -100q-54 -136 -167 -210.5t-263 -92.5l-84 -95 q18 2 55 2q86 0 136 -43.5t50 -128.5q0 -51 -31 -88t-81 -55t-97.5 -25.5t-95.5 -7.5q-134 0 -239 43l65 125q87 -26 148 -26q21 0 42.5 2.5t44.5 14t23 30.5q0 49 -94 49q-40 0 -88 -10l-74 59l125 152q-236 26 -375 171t-139 392z" />
<glyph unicode="&#xe8;" horiz-adv-x="1316" d="M90 545q0 273 166 421t442 148q255 0 392 -135.5t137 -390.5q0 -45 -4 -135h-758q16 -101 75.5 -164.5t157.5 -63.5q45 0 90.5 4.5t98 14.5t86.5 17.5t97 22.5t89 21l43 -237q-104 -29 -169.5 -45t-160.5 -31t-174 -15q-181 0 -316.5 63t-213.5 192.5t-78 312.5z M369 1491l290 82l103 -336l-178 -51zM471 655h430q-35 195 -203 195q-89 0 -147.5 -52.5t-79.5 -142.5z" />
<glyph unicode="&#xe9;" horiz-adv-x="1316" d="M90 545q0 273 166 421t442 148q255 0 392 -135.5t137 -390.5q0 -45 -4 -135h-758q16 -101 75.5 -164.5t157.5 -63.5q45 0 90.5 4.5t98 14.5t86.5 17.5t97 22.5t89 21l43 -237q-104 -29 -169.5 -45t-160.5 -31t-174 -15q-181 0 -316.5 63t-213.5 192.5t-78 312.5zM471 655 h430q-35 195 -203 195q-89 0 -147.5 -52.5t-79.5 -142.5zM573 1237l103 336l291 -82l-215 -305z" />
<glyph unicode="&#xea;" horiz-adv-x="1316" d="M90 545q0 273 166 421t442 148q255 0 392 -135.5t137 -390.5q0 -45 -4 -135h-758q16 -101 75.5 -164.5t157.5 -63.5q45 0 90.5 4.5t98 14.5t86.5 17.5t97 22.5t89 21l43 -237q-104 -29 -169.5 -45t-160.5 -31t-174 -15q-181 0 -316.5 63t-213.5 192.5t-78 312.5z M322 1309l239 250h215l242 -250l-150 -107l-198 144l-199 -144zM471 655h430q-35 195 -203 195q-89 0 -147.5 -52.5t-79.5 -142.5z" />
<glyph unicode="&#xeb;" horiz-adv-x="1316" d="M90 545q0 273 166 421t442 148q255 0 392 -135.5t137 -390.5q0 -45 -4 -135h-758q16 -101 75.5 -164.5t157.5 -63.5q45 0 90.5 4.5t98 14.5t86.5 17.5t97 22.5t89 21l43 -237q-104 -29 -169.5 -45t-160.5 -31t-174 -15q-181 0 -316.5 63t-213.5 192.5t-78 312.5z M301 1231v299h320v-299h-320zM471 655h430q-35 195 -203 195q-89 0 -147.5 -52.5t-79.5 -142.5zM711 1231v299h319v-299h-319z" />
<glyph unicode="&#xec;" horiz-adv-x="616" d="M53 1491l291 82l102 -336l-178 -51zM129 0v1094h358v-1094h-358z" />
<glyph unicode="&#xed;" horiz-adv-x="616" d="M129 0v1094h358v-1094h-358zM182 1237l103 336l290 -82l-215 -305z" />
<glyph unicode="&#xee;" horiz-adv-x="616" d="M-45 1309l240 250h215l241 -250l-149 -107l-199 144l-199 -144zM129 0v1094h358v-1094h-358z" />
<glyph unicode="&#xef;" horiz-adv-x="616" d="M-49 1231v299h319v-299h-319zM129 0v1094h358v-1094h-358zM360 1231v299h320v-299h-320z" />
<glyph unicode="&#xf0;" horiz-adv-x="1265" d="M90 457q0 242 147.5 373t391.5 131q99 0 198 -27q-51 116 -108 199l-172 -146l-111 133l174 148q-72 75 -151 131l159 184q101 -55 199 -143l184 155l111 -133l-180 -151q121 -155 187.5 -344t66.5 -383q0 -144 -31 -256.5t-96.5 -197.5t-174 -130t-255.5 -45 q-243 0 -391 131t-148 371zM420 453q0 -112 51 -188.5t158 -76.5q72 0 120.5 39.5t67.5 97t19 128.5q0 112 -50 187t-157 75q-73 0 -122 -38.5t-68 -95t-19 -128.5z" />
<glyph unicode="&#xf1;" horiz-adv-x="1359" d="M129 0v1094h272l76 -166q51 40 85 64.5t87.5 57t104 48.5t98.5 16q97 0 182.5 -37.5t141 -113.5t55.5 -175v-788h-357v684q0 67 -44 103t-113 36q-71 0 -230 -123v-700h-358zM266 1276q9 46 27.5 90t46 84.5t69 65t89.5 24.5q60 0 115.5 -22t89.5 -48.5t71.5 -48.5 t65.5 -22q47 0 79.5 43.5t47.5 97.5l137 -65q-9 -46 -27.5 -90.5t-46 -85t-69 -65t-89.5 -24.5q-60 0 -115.5 22t-89.5 49t-71.5 49t-65.5 22q-47 0 -79.5 -43.5t-47.5 -98.5z" />
<glyph unicode="&#xf2;" horiz-adv-x="1386" d="M90 545q0 273 166 420t442 147q181 0 317 -63t214 -192.5t78 -311.5q0 -181 -78.5 -311.5t-214.5 -194.5t-316 -64t-315.5 64t-214 194.5t-78.5 311.5zM369 1491l290 82l103 -336l-178 -51zM457 541q0 -82 22.5 -149t78.5 -113t140 -46q63 0 111.5 26t76 70.5t41 98 t13.5 113.5q0 129 -59.5 215t-182.5 86q-64 0 -111.5 -24.5t-75 -67.5t-41 -95.5t-13.5 -113.5z" />
<glyph unicode="&#xf3;" horiz-adv-x="1386" d="M90 545q0 273 166 420t442 147q181 0 317 -63t214 -192.5t78 -311.5q0 -181 -78.5 -311.5t-214.5 -194.5t-316 -64t-315.5 64t-214 194.5t-78.5 311.5zM457 541q0 -82 22.5 -149t78.5 -113t140 -46q63 0 111.5 26t76 70.5t41 98t13.5 113.5q0 129 -59.5 215t-182.5 86 q-64 0 -111.5 -24.5t-75 -67.5t-41 -95.5t-13.5 -113.5zM639 1237l102 336l291 -82l-215 -305z" />
<glyph unicode="&#xf4;" horiz-adv-x="1386" d="M90 545q0 273 166 420t442 147q181 0 317 -63t214 -192.5t78 -311.5q0 -181 -78.5 -311.5t-214.5 -194.5t-316 -64t-315.5 64t-214 194.5t-78.5 311.5zM350 1309l240 250h215l242 -250l-150 -107l-199 144l-198 -144zM457 541q0 -82 22.5 -149t78.5 -113t140 -46 q63 0 111.5 26t76 70.5t41 98t13.5 113.5q0 129 -59.5 215t-182.5 86q-64 0 -111.5 -24.5t-75 -67.5t-41 -95.5t-13.5 -113.5z" />
<glyph unicode="&#xf5;" horiz-adv-x="1386" d="M90 545q0 273 166 420t442 147q181 0 317 -63t214 -192.5t78 -311.5q0 -181 -78.5 -311.5t-214.5 -194.5t-316 -64t-315.5 64t-214 194.5t-78.5 311.5zM276 1276q9 46 27.5 90t46 84.5t69 65t89.5 24.5q60 0 115.5 -22t89.5 -48.5t71.5 -48.5t65.5 -22q47 0 79.5 43.5 t47.5 97.5l137 -65q-9 -46 -27 -90t-46 -85t-69 -65.5t-89 -24.5q-60 0 -115.5 22t-89.5 49t-71.5 49t-65.5 22q-47 0 -79.5 -43.5t-47.5 -98.5zM457 541q0 -82 22.5 -149t78.5 -113t140 -46q63 0 111.5 26t76 70.5t41 98t13.5 113.5q0 129 -59.5 215t-182.5 86 q-64 0 -111.5 -24.5t-75 -67.5t-41 -95.5t-13.5 -113.5z" />
<glyph unicode="&#xf6;" horiz-adv-x="1396" d="M90 545q0 273 166 420t442 147q181 0 317 -63t214 -192.5t78 -311.5q0 -181 -78.5 -311.5t-214.5 -194.5t-316 -64t-315.5 64t-214 194.5t-78.5 311.5zM332 1231v299h319v-299h-319zM457 541q0 -82 22.5 -149t78.5 -113t140 -46q63 0 111.5 26t76 70.5t41 98t13.5 113.5 q0 129 -59.5 215t-182.5 86q-64 0 -111.5 -24.5t-75 -67.5t-41 -95.5t-13.5 -113.5zM741 1231v299h320v-299h-320z" />
<glyph unicode="&#xf7;" horiz-adv-x="1333" d="M98 565v297h1145v-297h-1145zM514 276q0 64 47 111t111 47t109.5 -46.5t45.5 -111.5q0 -64 -45.5 -109.5t-109.5 -45.5q-65 0 -111.5 45.5t-46.5 109.5zM514 1151q0 64 46.5 110t111.5 46q64 0 109.5 -45.5t45.5 -110.5t-45.5 -110.5t-109.5 -45.5q-65 0 -111.5 46 t-46.5 110z" />
<glyph unicode="&#xf8;" horiz-adv-x="1396" d="M90 543q0 181 78.5 311t214 194t315.5 64q131 0 240 -35l94 133l180 -127l-77 -112q89 -76 131.5 -188t42.5 -240q0 -181 -79 -311t-215.5 -193.5t-316.5 -63.5q-131 0 -237 35l-94 -135l-181 127l78 115q-88 76 -131 187.5t-43 238.5zM459 539q0 -66 14 -123l293 415 q-34 9 -68 9q-85 0 -140.5 -43.5t-77 -108.5t-21.5 -149zM625 244q41 -13 73 -13q63 0 111.5 26t76 70.5t41 98t13.5 113.5q0 76 -18 131z" />
<glyph unicode="&#xf9;" horiz-adv-x="1359" d="M129 305v789h358v-684q0 -67 44 -102.5t114 -35.5q65 0 229 121v701h357v-1094h-270l-78 168q-87 -76 -187.5 -132t-187.5 -56q-154 0 -266.5 88t-112.5 237zM395 1491l291 82l102 -336l-178 -51z" />
<glyph unicode="&#xfa;" horiz-adv-x="1359" d="M129 305v789h358v-684q0 -67 44 -102.5t114 -35.5q65 0 229 121v701h357v-1094h-270l-78 168q-87 -76 -187.5 -132t-187.5 -56q-154 0 -266.5 88t-112.5 237zM608 1237l103 336l290 -82l-215 -305z" />
<glyph unicode="&#xfb;" horiz-adv-x="1359" d="M129 305v789h358v-684q0 -67 44 -102.5t114 -35.5q65 0 229 121v701h357v-1094h-270l-78 168q-87 -76 -187.5 -132t-187.5 -56q-154 0 -266.5 88t-112.5 237zM340 1309l240 250h215l241 -250l-149 -107l-199 144l-199 -144z" />
<glyph unicode="&#xfc;" horiz-adv-x="1359" d="M129 305v789h358v-684q0 -67 44 -102.5t114 -35.5q65 0 229 121v701h357v-1094h-270l-78 168q-87 -76 -187.5 -132t-187.5 -56q-154 0 -266.5 88t-112.5 237zM319 1231v299h320v-299h-320zM729 1231v299h320v-299h-320z" />
<glyph unicode="&#xfd;" horiz-adv-x="1392" d="M61 1094h377l291 -650l227 650h375l-606 -1583h-375l223 587zM618 1237l103 336l291 -82l-215 -305z" />
<glyph unicode="&#xfe;" horiz-adv-x="1400" d="M121 -492v1819h356v-338q167 127 318 127q119 0 210.5 -47.5t145.5 -129t81.5 -181t27.5 -213.5q0 -89 -17 -171t-54 -154.5t-90.5 -126.5t-132 -85t-173.5 -31q-53 0 -113.5 16.5t-99 33t-103.5 47.5v-566h-356zM477 307q3 -1 19 -8.5t20 -9.5t19.5 -8.5t21.5 -9t20 -8 t21.5 -7.5t20.5 -5.5t22.5 -5t20.5 -2.5t22 -1q60 0 104 26t68 70.5t34.5 94t10.5 106.5q0 55 -10.5 104.5t-34 95t-66.5 72.5t-102 27q-35 0 -77 -16.5t-68 -32.5t-66 -44v-438z" />
<glyph unicode="&#xff;" horiz-adv-x="1392" d="M61 1094h377l291 -650l227 650h375l-606 -1583h-375l223 587zM346 1231v299h320v-299h-320zM756 1231v299h319v-299h-319z" />
<glyph unicode="&#x152;" horiz-adv-x="2768" d="M213 776q0 357 209.5 567.5t566.5 210.5q237 0 416 -96v58h1085v-297h-710v-301h610v-283h-610v-338h710v-297h-1085v90q-176 -94 -416 -94q-360 0 -568 210t-208 570zM596 776q0 -101 21.5 -184t66 -149.5t122.5 -104t183 -37.5t183 37.5t122.5 104t66 149.5t21.5 184 q0 78 -13.5 147t-43.5 129.5t-75 103.5t-111.5 68t-149.5 25t-149.5 -25t-111.5 -68t-75 -103.5t-43.5 -129.5t-13.5 -147z" />
<glyph unicode="&#x153;" horiz-adv-x="2164" d="M90 545q0 181 78.5 311t214 194t315.5 64q264 0 428 -135q164 135 428 135q249 0 390 -132.5t141 -379.5q0 -49 -8 -151h-756q16 -98 77 -163t156 -65q55 0 120 8.5t108.5 18t121.5 28t111 25.5l41 -235q-112 -31 -170.5 -46t-155.5 -31t-176 -16q-259 0 -428 136 q-169 -136 -428 -136q-133 0 -244.5 37.5t-192.5 108.5t-126 179.5t-45 244.5zM459 541q0 -61 13 -114t40 -97.5t75 -70.5t111 -26t111.5 26t76 70.5t41 98t13.5 113.5q0 129 -59.5 215t-182.5 86q-64 0 -111.5 -24.5t-74.5 -68t-40 -95.5t-13 -113zM1325 655h432 q-35 195 -203 195q-89 0 -147.5 -52.5t-81.5 -142.5z" />
<glyph unicode="&#x178;" horiz-adv-x="1703" d="M61 1516h396l395 -670l395 670h395l-606 -924v-592h-374v604zM489 1630v299h320v-299h-320zM899 1630v299h320v-299h-320z" />
<glyph unicode="&#x2c6;" horiz-adv-x="901" d="M102 1309l240 250h215l242 -250l-150 -107l-198 144l-199 -144z" />
<glyph unicode="&#x2dc;" horiz-adv-x="1042" d="M102 1276q9 46 27.5 90t46 84.5t69 65t89.5 24.5q60 0 115.5 -22t89.5 -48.5t71.5 -48.5t65.5 -22q47 0 79.5 43.5t47.5 97.5l137 -65q-9 -46 -27 -90t-46 -85t-69 -65.5t-89 -24.5q-60 0 -115.5 22t-89.5 49t-71.5 49t-65.5 22q-47 0 -79.5 -43.5t-47.5 -98.5z" />
<glyph unicode="&#x2000;" horiz-adv-x="986" />
<glyph unicode="&#x2001;" horiz-adv-x="1972" />
<glyph unicode="&#x2002;" horiz-adv-x="986" />
<glyph unicode="&#x2003;" horiz-adv-x="1972" />
<glyph unicode="&#x2004;" horiz-adv-x="657" />
<glyph unicode="&#x2005;" horiz-adv-x="493" />
<glyph unicode="&#x2006;" horiz-adv-x="328" />
<glyph unicode="&#x2007;" horiz-adv-x="328" />
<glyph unicode="&#x2008;" horiz-adv-x="246" />
<glyph unicode="&#x2009;" horiz-adv-x="394" />
<glyph unicode="&#x200a;" horiz-adv-x="109" />
<glyph unicode="&#x2010;" horiz-adv-x="985" d="M129 393v285h713v-285h-713z" />
<glyph unicode="&#x2011;" horiz-adv-x="985" d="M129 393v285h713v-285h-713z" />
<glyph unicode="&#x2012;" horiz-adv-x="985" d="M129 393v285h713v-285h-713z" />
<glyph unicode="&#x2013;" horiz-adv-x="1247" d="M129 393v285h989v-285h-989z" />
<glyph unicode="&#x2014;" horiz-adv-x="2371" d="M129 393v285h2114v-285h-2114z" />
<glyph unicode="&#x2018;" horiz-adv-x="569" d="M129 948v312l141 256h156l-109 -256h123v-312h-311z" />
<glyph unicode="&#x2019;" horiz-adv-x="569" d="M129 1204v312h311v-312l-141 -256h-156l109 256h-123z" />
<glyph unicode="&#x201a;" horiz-adv-x="559" d="M129 0v301h301v-301l-139 -233h-152l107 233h-117z" />
<glyph unicode="&#x201c;" horiz-adv-x="954" d="M129 948v312l141 256h156l-109 -256h123v-312h-311zM514 948v312l141 256h156l-109 -256h123v-312h-311z" />
<glyph unicode="&#x201d;" horiz-adv-x="954" d="M129 1204v312h311v-312l-141 -256h-156l109 256h-123zM514 1204v312h311v-312l-141 -256h-156l109 256h-123z" />
<glyph unicode="&#x201e;" horiz-adv-x="952" d="M129 0v311h311v-311l-141 -256h-156l109 256h-123zM514 0v311h311v-311l-141 -256h-156l109 256h-123z" />
<glyph unicode="&#x2022;" horiz-adv-x="569" d="M129 537q0 65 46 111t110 46t109.5 -46t45.5 -111t-45.5 -110.5t-109.5 -45.5q-65 0 -110.5 45.5t-45.5 110.5z" />
<glyph unicode="&#x2026;" horiz-adv-x="1712" d="M129 0v311h313v-311h-313zM709 0v311h313v-311h-313zM1288 0v311h314v-311h-314z" />
<glyph unicode="&#x202f;" horiz-adv-x="394" />
<glyph unicode="&#x2039;" horiz-adv-x="917" d="M45 758l342 534h379l-342 -534l342 -537h-379z" />
<glyph unicode="&#x203a;" horiz-adv-x="964" d="M129 221l342 537l-342 534h379l342 -534l-342 -537h-379z" />
<glyph unicode="&#x205f;" horiz-adv-x="493" />
<glyph unicode="&#x20ac;" horiz-adv-x="1638" d="M90 502v221h162v68h-162v221h186q53 258 225.5 391t438.5 133q204 0 362.5 -84t241.5 -258l-315 -137q-42 89 -117 139.5t-172 50.5q-109 0 -178 -62.5t-98 -172.5h286v-221h-313v-68h313v-221h-286q29 -110 98 -174t178 -64q98 0 173.5 51t117.5 142l309 -148 q-83 -169 -241.5 -251.5t-358.5 -82.5q-266 0 -438.5 134.5t-225.5 392.5h-186z" />
<glyph unicode="&#x2122;" horiz-adv-x="2048" />
<glyph unicode="&#xe000;" horiz-adv-x="1095" d="M0 0v1096h1096v-1096h-1096z" />
<glyph unicode="&#xfb01;" horiz-adv-x="1433" d="M61 852v242h170q0 84 7.5 145.5t29.5 120t60 94.5t101 58t151 22q114 0 262 -31l-31 -217q-50 4 -74 4q-44 0 -74.5 -15.5t-46 -44t-22 -61t-6.5 -75.5h196v-242h-196v-852h-357v852h-170zM942 1241v299h361v-299h-361zM944 0v1094h356v-1094h-356z" />
<glyph unicode="&#xfb02;" horiz-adv-x="1433" d="M61 852v242h170q0 84 7.5 145.5t29.5 120t60 94.5t101 58t151 22q114 0 262 -31l-31 -217q-50 4 -74 4q-44 0 -74.5 -15.5t-46 -44t-22 -61t-6.5 -75.5h196v-242h-196v-852h-357v852h-170zM942 0v1513h356v-1513h-356z" />
</font>
</defs>
</svg>
