<?xml version="1.0" encoding="utf-8"?>
<!-- Generator: Adobe Illustrator 16.0.0, SVG Export Plug-In . SVG Version: 6.00 Build 0)  -->
<!DOCTYPE svg PUBLIC "-//W3C//DTD SVG 1.1//EN" "http://www.w3.org/Graphics/SVG/1.1/DTD/svg11.dtd">
<svg version="1.1" id="Layer_1" xmlns="http://www.w3.org/2000/svg" xmlns:xlink="http://www.w3.org/1999/xlink" x="0px" y="0px"
	 width="54px" height="54px" viewBox="0 0 54 54" enable-background="new 0 0 54 54" xml:space="preserve">
<g>
	<defs>
		<rect id="SVGID_1_" x="0.936" y="0.936" width="52.129" height="52.129"/>
	</defs>
	<clipPath id="SVGID_2_">
		<use xlink:href="#SVGID_1_"  overflow="visible"/>
	</clipPath>
	<path clip-path="url(#SVGID_2_)" fill="#7AC143" d="M27,53.064c14.396,0,26.064-11.669,26.064-26.064S41.396,0.936,27,0.936
		S0.936,12.604,0.936,27S12.604,53.064,27,53.064"/>
	<path clip-path="url(#SVGID_2_)" fill="#FFFFFF" d="M29,46.371V28.699h5.932l0.888-6.887H29v-4.396
		c0-1.995,0.553-3.354,3.413-3.354l3.646-0.001v-6.16c-0.631-0.084-2.796-0.271-5.313-0.271c-5.258,0-8.858,3.21-8.858,9.104v5.079
		H15.94v6.887h5.948v17.672H29z"/>
</g>
</svg>
